%TF.GenerationSoftware,KiCad,Pcbnew,10.0.0*%
%TF.CreationDate,2026-04-27T17:01:59-04:00*%
%TF.ProjectId,leaf_dongle,6c656166-5f64-46f6-9e67-6c652e6b6963,rev?*%
%TF.SameCoordinates,Original*%
%TF.FileFunction,Soldermask,Bot*%
%TF.FilePolarity,Negative*%
%FSLAX46Y46*%
G04 Gerber Fmt 4.6, Leading zero omitted, Abs format (unit mm)*
G04 Created by KiCad (PCBNEW 10.0.0) date 2026-04-27 17:01:59*
%MOMM*%
%LPD*%
G01*
G04 APERTURE LIST*
%ADD10C,0.010000*%
%ADD11C,0.990600*%
G04 APERTURE END LIST*
D10*
%TO.C,J1*%
X125727000Y-77451000D02*
X125755000Y-77453000D01*
X125782000Y-77456000D01*
X125809000Y-77461000D01*
X125836000Y-77468000D01*
X125862000Y-77476000D01*
X125888000Y-77485000D01*
X125914000Y-77495000D01*
X125938000Y-77507000D01*
X125963000Y-77520000D01*
X125986000Y-77535000D01*
X126009000Y-77550000D01*
X126030000Y-77567000D01*
X126051000Y-77585000D01*
X126071000Y-77604000D01*
X126090000Y-77624000D01*
X126108000Y-77645000D01*
X126125000Y-77666000D01*
X126140000Y-77689000D01*
X126155000Y-77712000D01*
X126168000Y-77737000D01*
X126180000Y-77761000D01*
X126190000Y-77787000D01*
X126199000Y-77813000D01*
X126207000Y-77839000D01*
X126214000Y-77866000D01*
X126219000Y-77893000D01*
X126222000Y-77920000D01*
X126224000Y-77948000D01*
X126225000Y-77975000D01*
X126225000Y-79375000D01*
X126224000Y-79402000D01*
X126222000Y-79430000D01*
X126219000Y-79457000D01*
X126214000Y-79484000D01*
X126207000Y-79511000D01*
X126199000Y-79537000D01*
X126190000Y-79563000D01*
X126180000Y-79589000D01*
X126168000Y-79613000D01*
X126155000Y-79637000D01*
X126140000Y-79661000D01*
X126125000Y-79684000D01*
X126108000Y-79705000D01*
X126090000Y-79726000D01*
X126071000Y-79746000D01*
X126051000Y-79765000D01*
X126030000Y-79783000D01*
X126009000Y-79800000D01*
X125986000Y-79815000D01*
X125963000Y-79830000D01*
X125938000Y-79843000D01*
X125914000Y-79855000D01*
X125888000Y-79865000D01*
X125862000Y-79874000D01*
X125836000Y-79882000D01*
X125809000Y-79889000D01*
X125782000Y-79894000D01*
X125755000Y-79897000D01*
X125727000Y-79899000D01*
X125700000Y-79900000D01*
X125673000Y-79899000D01*
X125645000Y-79897000D01*
X125618000Y-79894000D01*
X125591000Y-79889000D01*
X125564000Y-79882000D01*
X125538000Y-79874000D01*
X125512000Y-79865000D01*
X125486000Y-79855000D01*
X125462000Y-79843000D01*
X125437000Y-79830000D01*
X125414000Y-79815000D01*
X125391000Y-79800000D01*
X125370000Y-79783000D01*
X125349000Y-79765000D01*
X125329000Y-79746000D01*
X125310000Y-79726000D01*
X125292000Y-79705000D01*
X125275000Y-79684000D01*
X125260000Y-79661000D01*
X125245000Y-79638000D01*
X125232000Y-79613000D01*
X125220000Y-79589000D01*
X125210000Y-79563000D01*
X125201000Y-79537000D01*
X125193000Y-79511000D01*
X125186000Y-79484000D01*
X125181000Y-79457000D01*
X125178000Y-79430000D01*
X125176000Y-79402000D01*
X125175000Y-79375000D01*
X125175000Y-77975000D01*
X125176000Y-77948000D01*
X125178000Y-77920000D01*
X125181000Y-77893000D01*
X125186000Y-77866000D01*
X125193000Y-77839000D01*
X125201000Y-77813000D01*
X125210000Y-77787000D01*
X125220000Y-77761000D01*
X125232000Y-77737000D01*
X125245000Y-77713000D01*
X125260000Y-77689000D01*
X125275000Y-77666000D01*
X125292000Y-77645000D01*
X125310000Y-77624000D01*
X125329000Y-77604000D01*
X125349000Y-77585000D01*
X125370000Y-77567000D01*
X125391000Y-77550000D01*
X125414000Y-77535000D01*
X125437000Y-77520000D01*
X125462000Y-77507000D01*
X125486000Y-77495000D01*
X125512000Y-77485000D01*
X125538000Y-77476000D01*
X125564000Y-77468000D01*
X125591000Y-77461000D01*
X125618000Y-77456000D01*
X125645000Y-77453000D01*
X125673000Y-77451000D01*
X125700000Y-77450000D01*
X125727000Y-77451000D01*
G36*
X125727000Y-77451000D02*
G01*
X125755000Y-77453000D01*
X125782000Y-77456000D01*
X125809000Y-77461000D01*
X125836000Y-77468000D01*
X125862000Y-77476000D01*
X125888000Y-77485000D01*
X125914000Y-77495000D01*
X125938000Y-77507000D01*
X125963000Y-77520000D01*
X125986000Y-77535000D01*
X126009000Y-77550000D01*
X126030000Y-77567000D01*
X126051000Y-77585000D01*
X126071000Y-77604000D01*
X126090000Y-77624000D01*
X126108000Y-77645000D01*
X126125000Y-77666000D01*
X126140000Y-77689000D01*
X126155000Y-77712000D01*
X126168000Y-77737000D01*
X126180000Y-77761000D01*
X126190000Y-77787000D01*
X126199000Y-77813000D01*
X126207000Y-77839000D01*
X126214000Y-77866000D01*
X126219000Y-77893000D01*
X126222000Y-77920000D01*
X126224000Y-77948000D01*
X126225000Y-77975000D01*
X126225000Y-79375000D01*
X126224000Y-79402000D01*
X126222000Y-79430000D01*
X126219000Y-79457000D01*
X126214000Y-79484000D01*
X126207000Y-79511000D01*
X126199000Y-79537000D01*
X126190000Y-79563000D01*
X126180000Y-79589000D01*
X126168000Y-79613000D01*
X126155000Y-79637000D01*
X126140000Y-79661000D01*
X126125000Y-79684000D01*
X126108000Y-79705000D01*
X126090000Y-79726000D01*
X126071000Y-79746000D01*
X126051000Y-79765000D01*
X126030000Y-79783000D01*
X126009000Y-79800000D01*
X125986000Y-79815000D01*
X125963000Y-79830000D01*
X125938000Y-79843000D01*
X125914000Y-79855000D01*
X125888000Y-79865000D01*
X125862000Y-79874000D01*
X125836000Y-79882000D01*
X125809000Y-79889000D01*
X125782000Y-79894000D01*
X125755000Y-79897000D01*
X125727000Y-79899000D01*
X125700000Y-79900000D01*
X125673000Y-79899000D01*
X125645000Y-79897000D01*
X125618000Y-79894000D01*
X125591000Y-79889000D01*
X125564000Y-79882000D01*
X125538000Y-79874000D01*
X125512000Y-79865000D01*
X125486000Y-79855000D01*
X125462000Y-79843000D01*
X125437000Y-79830000D01*
X125414000Y-79815000D01*
X125391000Y-79800000D01*
X125370000Y-79783000D01*
X125349000Y-79765000D01*
X125329000Y-79746000D01*
X125310000Y-79726000D01*
X125292000Y-79705000D01*
X125275000Y-79684000D01*
X125260000Y-79661000D01*
X125245000Y-79638000D01*
X125232000Y-79613000D01*
X125220000Y-79589000D01*
X125210000Y-79563000D01*
X125201000Y-79537000D01*
X125193000Y-79511000D01*
X125186000Y-79484000D01*
X125181000Y-79457000D01*
X125178000Y-79430000D01*
X125176000Y-79402000D01*
X125175000Y-79375000D01*
X125175000Y-77975000D01*
X125176000Y-77948000D01*
X125178000Y-77920000D01*
X125181000Y-77893000D01*
X125186000Y-77866000D01*
X125193000Y-77839000D01*
X125201000Y-77813000D01*
X125210000Y-77787000D01*
X125220000Y-77761000D01*
X125232000Y-77737000D01*
X125245000Y-77713000D01*
X125260000Y-77689000D01*
X125275000Y-77666000D01*
X125292000Y-77645000D01*
X125310000Y-77624000D01*
X125329000Y-77604000D01*
X125349000Y-77585000D01*
X125370000Y-77567000D01*
X125391000Y-77550000D01*
X125414000Y-77535000D01*
X125437000Y-77520000D01*
X125462000Y-77507000D01*
X125486000Y-77495000D01*
X125512000Y-77485000D01*
X125538000Y-77476000D01*
X125564000Y-77468000D01*
X125591000Y-77461000D01*
X125618000Y-77456000D01*
X125645000Y-77453000D01*
X125673000Y-77451000D01*
X125700000Y-77450000D01*
X125727000Y-77451000D01*
G37*
X134327000Y-77451000D02*
X134355000Y-77453000D01*
X134382000Y-77456000D01*
X134409000Y-77461000D01*
X134436000Y-77468000D01*
X134462000Y-77476000D01*
X134488000Y-77485000D01*
X134514000Y-77495000D01*
X134538000Y-77507000D01*
X134563000Y-77520000D01*
X134586000Y-77535000D01*
X134609000Y-77550000D01*
X134630000Y-77567000D01*
X134651000Y-77585000D01*
X134671000Y-77604000D01*
X134690000Y-77624000D01*
X134708000Y-77645000D01*
X134725000Y-77666000D01*
X134740000Y-77689000D01*
X134755000Y-77713000D01*
X134768000Y-77737000D01*
X134780000Y-77761000D01*
X134790000Y-77787000D01*
X134799000Y-77813000D01*
X134807000Y-77839000D01*
X134814000Y-77866000D01*
X134819000Y-77893000D01*
X134822000Y-77920000D01*
X134824000Y-77948000D01*
X134825000Y-77975000D01*
X134825000Y-79375000D01*
X134824000Y-79402000D01*
X134822000Y-79430000D01*
X134819000Y-79457000D01*
X134814000Y-79484000D01*
X134807000Y-79511000D01*
X134799000Y-79537000D01*
X134790000Y-79563000D01*
X134780000Y-79589000D01*
X134768000Y-79613000D01*
X134755000Y-79638000D01*
X134740000Y-79661000D01*
X134725000Y-79684000D01*
X134708000Y-79705000D01*
X134690000Y-79726000D01*
X134671000Y-79746000D01*
X134651000Y-79765000D01*
X134630000Y-79783000D01*
X134609000Y-79800000D01*
X134586000Y-79815000D01*
X134563000Y-79830000D01*
X134538000Y-79843000D01*
X134514000Y-79855000D01*
X134488000Y-79865000D01*
X134462000Y-79874000D01*
X134436000Y-79882000D01*
X134409000Y-79889000D01*
X134382000Y-79894000D01*
X134355000Y-79897000D01*
X134327000Y-79899000D01*
X134300000Y-79900000D01*
X134273000Y-79899000D01*
X134245000Y-79897000D01*
X134218000Y-79894000D01*
X134191000Y-79889000D01*
X134164000Y-79882000D01*
X134138000Y-79874000D01*
X134112000Y-79865000D01*
X134086000Y-79855000D01*
X134062000Y-79843000D01*
X134037000Y-79830000D01*
X134014000Y-79815000D01*
X133991000Y-79800000D01*
X133970000Y-79783000D01*
X133949000Y-79765000D01*
X133929000Y-79746000D01*
X133910000Y-79726000D01*
X133892000Y-79705000D01*
X133875000Y-79684000D01*
X133860000Y-79661000D01*
X133845000Y-79637000D01*
X133832000Y-79613000D01*
X133820000Y-79589000D01*
X133810000Y-79563000D01*
X133801000Y-79537000D01*
X133793000Y-79511000D01*
X133786000Y-79484000D01*
X133781000Y-79457000D01*
X133778000Y-79430000D01*
X133776000Y-79402000D01*
X133775000Y-79375000D01*
X133775000Y-77975000D01*
X133776000Y-77948000D01*
X133778000Y-77920000D01*
X133781000Y-77893000D01*
X133786000Y-77866000D01*
X133793000Y-77839000D01*
X133801000Y-77813000D01*
X133810000Y-77787000D01*
X133820000Y-77761000D01*
X133832000Y-77737000D01*
X133845000Y-77713000D01*
X133860000Y-77689000D01*
X133875000Y-77666000D01*
X133892000Y-77645000D01*
X133910000Y-77624000D01*
X133929000Y-77604000D01*
X133949000Y-77585000D01*
X133970000Y-77567000D01*
X133991000Y-77550000D01*
X134014000Y-77535000D01*
X134037000Y-77520000D01*
X134062000Y-77507000D01*
X134086000Y-77495000D01*
X134112000Y-77485000D01*
X134138000Y-77476000D01*
X134164000Y-77468000D01*
X134191000Y-77461000D01*
X134218000Y-77456000D01*
X134245000Y-77453000D01*
X134273000Y-77451000D01*
X134300000Y-77450000D01*
X134327000Y-77451000D01*
G36*
X134327000Y-77451000D02*
G01*
X134355000Y-77453000D01*
X134382000Y-77456000D01*
X134409000Y-77461000D01*
X134436000Y-77468000D01*
X134462000Y-77476000D01*
X134488000Y-77485000D01*
X134514000Y-77495000D01*
X134538000Y-77507000D01*
X134563000Y-77520000D01*
X134586000Y-77535000D01*
X134609000Y-77550000D01*
X134630000Y-77567000D01*
X134651000Y-77585000D01*
X134671000Y-77604000D01*
X134690000Y-77624000D01*
X134708000Y-77645000D01*
X134725000Y-77666000D01*
X134740000Y-77689000D01*
X134755000Y-77713000D01*
X134768000Y-77737000D01*
X134780000Y-77761000D01*
X134790000Y-77787000D01*
X134799000Y-77813000D01*
X134807000Y-77839000D01*
X134814000Y-77866000D01*
X134819000Y-77893000D01*
X134822000Y-77920000D01*
X134824000Y-77948000D01*
X134825000Y-77975000D01*
X134825000Y-79375000D01*
X134824000Y-79402000D01*
X134822000Y-79430000D01*
X134819000Y-79457000D01*
X134814000Y-79484000D01*
X134807000Y-79511000D01*
X134799000Y-79537000D01*
X134790000Y-79563000D01*
X134780000Y-79589000D01*
X134768000Y-79613000D01*
X134755000Y-79638000D01*
X134740000Y-79661000D01*
X134725000Y-79684000D01*
X134708000Y-79705000D01*
X134690000Y-79726000D01*
X134671000Y-79746000D01*
X134651000Y-79765000D01*
X134630000Y-79783000D01*
X134609000Y-79800000D01*
X134586000Y-79815000D01*
X134563000Y-79830000D01*
X134538000Y-79843000D01*
X134514000Y-79855000D01*
X134488000Y-79865000D01*
X134462000Y-79874000D01*
X134436000Y-79882000D01*
X134409000Y-79889000D01*
X134382000Y-79894000D01*
X134355000Y-79897000D01*
X134327000Y-79899000D01*
X134300000Y-79900000D01*
X134273000Y-79899000D01*
X134245000Y-79897000D01*
X134218000Y-79894000D01*
X134191000Y-79889000D01*
X134164000Y-79882000D01*
X134138000Y-79874000D01*
X134112000Y-79865000D01*
X134086000Y-79855000D01*
X134062000Y-79843000D01*
X134037000Y-79830000D01*
X134014000Y-79815000D01*
X133991000Y-79800000D01*
X133970000Y-79783000D01*
X133949000Y-79765000D01*
X133929000Y-79746000D01*
X133910000Y-79726000D01*
X133892000Y-79705000D01*
X133875000Y-79684000D01*
X133860000Y-79661000D01*
X133845000Y-79637000D01*
X133832000Y-79613000D01*
X133820000Y-79589000D01*
X133810000Y-79563000D01*
X133801000Y-79537000D01*
X133793000Y-79511000D01*
X133786000Y-79484000D01*
X133781000Y-79457000D01*
X133778000Y-79430000D01*
X133776000Y-79402000D01*
X133775000Y-79375000D01*
X133775000Y-77975000D01*
X133776000Y-77948000D01*
X133778000Y-77920000D01*
X133781000Y-77893000D01*
X133786000Y-77866000D01*
X133793000Y-77839000D01*
X133801000Y-77813000D01*
X133810000Y-77787000D01*
X133820000Y-77761000D01*
X133832000Y-77737000D01*
X133845000Y-77713000D01*
X133860000Y-77689000D01*
X133875000Y-77666000D01*
X133892000Y-77645000D01*
X133910000Y-77624000D01*
X133929000Y-77604000D01*
X133949000Y-77585000D01*
X133970000Y-77567000D01*
X133991000Y-77550000D01*
X134014000Y-77535000D01*
X134037000Y-77520000D01*
X134062000Y-77507000D01*
X134086000Y-77495000D01*
X134112000Y-77485000D01*
X134138000Y-77476000D01*
X134164000Y-77468000D01*
X134191000Y-77461000D01*
X134218000Y-77456000D01*
X134245000Y-77453000D01*
X134273000Y-77451000D01*
X134300000Y-77450000D01*
X134327000Y-77451000D01*
G37*
%TD*%
D11*
%TO.C,J2*%
X122025001Y-127415000D03*
X121009001Y-122335000D03*
X123041001Y-122335000D03*
%TD*%
M02*
