%TF.GenerationSoftware,KiCad,Pcbnew,10.0.0*%
%TF.CreationDate,2026-04-27T17:01:59-04:00*%
%TF.ProjectId,leaf_dongle,6c656166-5f64-46f6-9e67-6c652e6b6963,rev?*%
%TF.SameCoordinates,Original*%
%TF.FileFunction,Paste,Top*%
%TF.FilePolarity,Positive*%
%FSLAX46Y46*%
G04 Gerber Fmt 4.6, Leading zero omitted, Abs format (unit mm)*
G04 Created by KiCad (PCBNEW 10.0.0) date 2026-04-27 17:01:59*
%MOMM*%
%LPD*%
G01*
G04 APERTURE LIST*
G04 Aperture macros list*
%AMRoundRect*
0 Rectangle with rounded corners*
0 $1 Rounding radius*
0 $2 $3 $4 $5 $6 $7 $8 $9 X,Y pos of 4 corners*
0 Add a 4 corners polygon primitive as box body*
4,1,4,$2,$3,$4,$5,$6,$7,$8,$9,$2,$3,0*
0 Add four circle primitives for the rounded corners*
1,1,$1+$1,$2,$3*
1,1,$1+$1,$4,$5*
1,1,$1+$1,$6,$7*
1,1,$1+$1,$8,$9*
0 Add four rect primitives between the rounded corners*
20,1,$1+$1,$2,$3,$4,$5,0*
20,1,$1+$1,$4,$5,$6,$7,0*
20,1,$1+$1,$6,$7,$8,$9,0*
20,1,$1+$1,$8,$9,$2,$3,0*%
G04 Aperture macros list end*
%ADD10C,0.010000*%
%ADD11RoundRect,0.087500X0.425000X0.087500X-0.425000X0.087500X-0.425000X-0.087500X0.425000X-0.087500X0*%
%ADD12RoundRect,0.050000X0.550000X-0.450000X0.550000X0.450000X-0.550000X0.450000X-0.550000X-0.450000X0*%
%ADD13RoundRect,0.050000X0.450000X0.550000X-0.450000X0.550000X-0.450000X-0.550000X0.450000X-0.550000X0*%
%ADD14RoundRect,0.050000X-0.550000X0.450000X-0.550000X-0.450000X0.550000X-0.450000X0.550000X0.450000X0*%
%ADD15RoundRect,0.300000X-1.200000X-1.200000X1.200000X-1.200000X1.200000X1.200000X-1.200000X1.200000X0*%
%ADD16R,1.500000X1.000000*%
%ADD17R,0.300000X1.000000*%
G04 APERTURE END LIST*
D10*
%TO.C,J1*%
X126705000Y-78550000D02*
X126125000Y-78550000D01*
X126125000Y-77550000D01*
X126705000Y-77550000D01*
X126705000Y-78550000D01*
G36*
X126705000Y-78550000D02*
G01*
X126125000Y-78550000D01*
X126125000Y-77550000D01*
X126705000Y-77550000D01*
X126705000Y-78550000D01*
G37*
X133875000Y-78550000D02*
X133295000Y-78550000D01*
X133295000Y-77550000D01*
X133875000Y-77550000D01*
X133875000Y-78550000D01*
G36*
X133875000Y-78550000D02*
G01*
X133295000Y-78550000D01*
X133295000Y-77550000D01*
X133875000Y-77550000D01*
X133875000Y-78550000D01*
G37*
%TD*%
D11*
%TO.C,U2*%
X130737500Y-114050000D03*
X130737500Y-113400000D03*
X130737500Y-112750000D03*
X129062500Y-112750000D03*
X129062500Y-113400000D03*
X129062500Y-114050000D03*
%TD*%
D12*
%TO.C,1*%
X121000000Y-88000000D03*
X121000000Y-90000000D03*
X121000000Y-92000000D03*
X121000000Y-94000000D03*
X121000000Y-96000000D03*
X121000000Y-98000000D03*
X121000000Y-100000000D03*
X121000000Y-102000000D03*
X121000000Y-104000000D03*
X121000000Y-106000000D03*
X121000000Y-108000000D03*
X121000000Y-110000000D03*
D13*
X123000000Y-111000000D03*
X125000000Y-111000000D03*
X127000000Y-111000000D03*
X129000000Y-111000000D03*
X131000000Y-111000000D03*
X133000000Y-111000000D03*
X135000000Y-111000000D03*
X137000000Y-111000000D03*
D14*
X139000000Y-110000000D03*
X139000000Y-108000000D03*
X139000000Y-106000000D03*
X139000000Y-104000000D03*
X139000000Y-102000000D03*
X139000000Y-100000000D03*
X139000000Y-98000000D03*
X139000000Y-96000000D03*
X139000000Y-94000000D03*
X139000000Y-92000000D03*
X139000000Y-90000000D03*
X139000000Y-88000000D03*
D15*
X130000000Y-95200000D03*
%TD*%
D16*
%TO.C,D1*%
X137149450Y-119296184D03*
X137149450Y-116096184D03*
X132249450Y-116096184D03*
X132249450Y-119296184D03*
%TD*%
%TO.C,D2*%
X127750000Y-119300000D03*
X127750000Y-116100000D03*
X122850000Y-116100000D03*
X122850000Y-119300000D03*
%TD*%
D17*
%TO.C,J1*%
X127250000Y-78860000D03*
X127750000Y-78860000D03*
X128250000Y-78860000D03*
X128750000Y-78860000D03*
X131250000Y-78860000D03*
X131750000Y-78860000D03*
X132250000Y-78860000D03*
X132750000Y-78860000D03*
X130750000Y-78860000D03*
X130250000Y-78860000D03*
X129750000Y-78860000D03*
X129250000Y-78860000D03*
%TD*%
M02*
