M48
; DRILL file KiCad 10.0.0 date 2026-04-13T21:31:17
; FORMAT={-:-/ absolute / metric / decimal}
; #@! TF.CreationDate,2026-04-13T21:31:17-04:00
; #@! TF.GenerationSoftware,Kicad,Pcbnew,10.0.0
; #@! TF.FileFunction,Plated,1,2,PTH
FMAT,2
METRIC
; #@! TA.AperFunction,Plated,PTH,ViaDrill
T1C0.300
; #@! TA.AperFunction,Plated,PTH,ComponentDrill
T2C0.450
%
G90
G05
T1
X121.0Y-128.7
X121.3Y-112.3
X122.5Y-100.5
X122.5Y-102.5
X123.2Y-108.9
X123.4Y-127.3
X123.6Y-129.0
X125.0Y-99.0
X125.3Y-118.0
X127.0Y-120.7
X127.25Y-80.2
X128.1Y-123.7
X128.8Y-112.5
X129.35Y-80.2
X130.85Y-81.45
X131.5Y-112.4
X131.6Y-79.851
X132.8Y-124.6
X132.9Y-123.6
X133.2Y-80.1
X135.9Y-118.2
X136.5Y-108.8
X136.8Y-103.5
X137.8Y-105.0
T2
X125.7Y-79.375G85X125.7Y-78.025
G05
X134.3Y-79.375G85X134.3Y-78.025
G05
M30
