%TF.GenerationSoftware,KiCad,Pcbnew,10.0.0*%
%TF.CreationDate,2026-04-27T17:01:59-04:00*%
%TF.ProjectId,leaf_dongle,6c656166-5f64-46f6-9e67-6c652e6b6963,rev?*%
%TF.SameCoordinates,Original*%
%TF.FileFunction,Copper,L1,Top*%
%TF.FilePolarity,Positive*%
%FSLAX46Y46*%
G04 Gerber Fmt 4.6, Leading zero omitted, Abs format (unit mm)*
G04 Created by KiCad (PCBNEW 10.0.0) date 2026-04-27 17:01:59*
%MOMM*%
%LPD*%
G01*
G04 APERTURE LIST*
G04 Aperture macros list*
%AMRoundRect*
0 Rectangle with rounded corners*
0 $1 Rounding radius*
0 $2 $3 $4 $5 $6 $7 $8 $9 X,Y pos of 4 corners*
0 Add a 4 corners polygon primitive as box body*
4,1,4,$2,$3,$4,$5,$6,$7,$8,$9,$2,$3,0*
0 Add four circle primitives for the rounded corners*
1,1,$1+$1,$2,$3*
1,1,$1+$1,$4,$5*
1,1,$1+$1,$6,$7*
1,1,$1+$1,$8,$9*
0 Add four rect primitives between the rounded corners*
20,1,$1+$1,$2,$3,$4,$5,0*
20,1,$1+$1,$4,$5,$6,$7,0*
20,1,$1+$1,$6,$7,$8,$9,0*
20,1,$1+$1,$8,$9,$2,$3,0*%
%AMFreePoly0*
4,1,103,0.044227,1.102995,0.044676,1.102954,0.066676,1.099954,0.066894,1.099919,0.088894,1.095919,0.089108,1.095876,0.111108,1.090876,0.111581,1.090743,0.153581,1.076743,0.153970,1.076596,0.174970,1.067596,0.175052,1.067560,0.195052,1.058560,0.195505,1.058327,0.214505,1.047327,0.214670,1.047227,0.252670,1.023227,0.253179,1.022860,0.287179,0.994860,0.287308,0.994749,
0.304308,0.979749,0.304749,0.979308,0.319749,0.962308,0.319860,0.962179,0.347860,0.928179,0.348227,0.927670,0.360185,0.908736,0.372160,0.890774,0.372381,0.890410,0.383381,0.870410,0.383560,0.870052,0.392560,0.850052,0.392596,0.849970,0.401596,0.828970,0.401743,0.828581,0.415743,0.786581,0.415876,0.786108,0.420876,0.764108,0.420919,0.763894,0.424919,0.741894,
0.424954,0.741676,0.427954,0.719676,0.427995,0.719227,0.429995,0.675227,0.430000,0.675000,0.430000,-0.145000,1.005000,-0.145000,1.008536,-0.146464,1.010000,-0.150000,1.010000,-1.150000,1.008536,-1.153536,1.005000,-1.155000,-0.425000,-1.155000,-0.428536,-1.153536,-0.430000,-1.150000,-0.430000,0.675000,-0.429995,0.675227,-0.427995,0.719227,-0.427954,0.719676,-0.424954,0.741676,
-0.424919,0.741894,-0.420919,0.763894,-0.420876,0.764108,-0.415876,0.786108,-0.415743,0.786581,-0.401743,0.828581,-0.401596,0.828970,-0.392596,0.849970,-0.392560,0.850052,-0.383560,0.870052,-0.383381,0.870410,-0.372381,0.890410,-0.372160,0.890774,-0.360185,0.908736,-0.348227,0.927670,-0.347860,0.928179,-0.319860,0.962179,-0.319749,0.962308,-0.304749,0.979308,-0.304308,0.979749,
-0.287308,0.994749,-0.287179,0.994860,-0.253179,1.022860,-0.252670,1.023227,-0.214670,1.047227,-0.214505,1.047327,-0.195505,1.058327,-0.195052,1.058560,-0.175052,1.067560,-0.174970,1.067596,-0.153970,1.076596,-0.153581,1.076743,-0.111581,1.090743,-0.111108,1.090876,-0.089108,1.095876,-0.088894,1.095919,-0.066894,1.099919,-0.066676,1.099954,-0.044676,1.102954,-0.044227,1.102995,
-0.000227,1.104995,0.000227,1.104995,0.044227,1.102995,0.044227,1.102995,$1*%
%AMFreePoly1*
4,1,103,0.044227,1.102995,0.044676,1.102954,0.066676,1.099954,0.066894,1.099919,0.088894,1.095919,0.089108,1.095876,0.111108,1.090876,0.111581,1.090743,0.153581,1.076743,0.153970,1.076596,0.174970,1.067596,0.175052,1.067560,0.195052,1.058560,0.195505,1.058327,0.214505,1.047327,0.214670,1.047227,0.252670,1.023227,0.253179,1.022860,0.287179,0.994860,0.287308,0.994749,
0.304308,0.979749,0.304749,0.979308,0.319749,0.962308,0.319860,0.962179,0.347860,0.928179,0.348227,0.927670,0.360185,0.908736,0.372160,0.890774,0.372381,0.890410,0.383381,0.870410,0.383560,0.870052,0.392560,0.850052,0.392596,0.849970,0.401596,0.828970,0.401743,0.828581,0.415743,0.786581,0.415876,0.786108,0.420876,0.764108,0.420919,0.763894,0.424919,0.741894,
0.424954,0.741676,0.427954,0.719676,0.427995,0.719227,0.429995,0.675227,0.430000,0.675000,0.430000,-1.150000,0.428536,-1.153536,0.425000,-1.155000,-1.005000,-1.155000,-1.008536,-1.153536,-1.010000,-1.150000,-1.010000,-0.150000,-1.008536,-0.146464,-1.005000,-0.145000,-0.430000,-0.145000,-0.430000,0.675000,-0.429995,0.675227,-0.427995,0.719227,-0.427954,0.719676,-0.424954,0.741676,
-0.424919,0.741894,-0.420919,0.763894,-0.420876,0.764108,-0.415876,0.786108,-0.415743,0.786581,-0.401743,0.828581,-0.401596,0.828970,-0.392596,0.849970,-0.392560,0.850052,-0.383560,0.870052,-0.383381,0.870410,-0.372381,0.890410,-0.372160,0.890774,-0.360185,0.908736,-0.348227,0.927670,-0.347860,0.928179,-0.319860,0.962179,-0.319749,0.962308,-0.304749,0.979308,-0.304308,0.979749,
-0.287308,0.994749,-0.287179,0.994860,-0.253179,1.022860,-0.252670,1.023227,-0.214670,1.047227,-0.214505,1.047327,-0.195505,1.058327,-0.195052,1.058560,-0.175052,1.067560,-0.174970,1.067596,-0.153970,1.076596,-0.153581,1.076743,-0.111581,1.090743,-0.111108,1.090876,-0.089108,1.095876,-0.088894,1.095919,-0.066894,1.099919,-0.066676,1.099954,-0.044676,1.102954,-0.044227,1.102995,
-0.000227,1.104995,0.000227,1.104995,0.044227,1.102995,0.044227,1.102995,$1*%
G04 Aperture macros list end*
%TA.AperFunction,SMDPad,CuDef*%
%ADD10RoundRect,0.087500X0.425000X0.087500X-0.425000X0.087500X-0.425000X-0.087500X0.425000X-0.087500X0*%
%TD*%
%TA.AperFunction,SMDPad,CuDef*%
%ADD11RoundRect,0.050000X0.550000X-0.450000X0.550000X0.450000X-0.550000X0.450000X-0.550000X-0.450000X0*%
%TD*%
%TA.AperFunction,SMDPad,CuDef*%
%ADD12RoundRect,0.050000X0.450000X0.550000X-0.450000X0.550000X-0.450000X-0.550000X0.450000X-0.550000X0*%
%TD*%
%TA.AperFunction,SMDPad,CuDef*%
%ADD13RoundRect,0.050000X-0.550000X0.450000X-0.550000X-0.450000X0.550000X-0.450000X0.550000X0.450000X0*%
%TD*%
%TA.AperFunction,SMDPad,CuDef*%
%ADD14RoundRect,0.300000X-1.200000X-1.200000X1.200000X-1.200000X1.200000X1.200000X-1.200000X1.200000X0*%
%TD*%
%TA.AperFunction,SMDPad,CuDef*%
%ADD15R,1.500000X1.000000*%
%TD*%
%TA.AperFunction,SMDPad,CuDef*%
%ADD16RoundRect,0.120000X0.580000X0.280000X-0.580000X0.280000X-0.580000X-0.280000X0.580000X-0.280000X0*%
%TD*%
%TA.AperFunction,SMDPad,CuDef*%
%ADD17RoundRect,0.060000X0.640000X0.140000X-0.640000X0.140000X-0.640000X-0.140000X0.640000X-0.140000X0*%
%TD*%
%TA.AperFunction,SMDPad,CuDef*%
%ADD18RoundRect,0.060000X-0.140000X0.640000X-0.140000X-0.640000X0.140000X-0.640000X0.140000X0.640000X0*%
%TD*%
%TA.AperFunction,SMDPad,CuDef*%
%ADD19RoundRect,0.060000X-0.640000X-0.140000X0.640000X-0.140000X0.640000X0.140000X-0.640000X0.140000X0*%
%TD*%
%TA.AperFunction,SMDPad,CuDef*%
%ADD20RoundRect,0.060000X0.440000X0.140000X-0.440000X0.140000X-0.440000X-0.140000X0.440000X-0.140000X0*%
%TD*%
%TA.AperFunction,ConnectorPad*%
%ADD21C,0.787400*%
%TD*%
%TA.AperFunction,SMDPad,CuDef*%
%ADD22R,0.300000X1.000000*%
%TD*%
%TA.AperFunction,ComponentPad*%
%ADD23FreePoly0,180.000000*%
%TD*%
%TA.AperFunction,ComponentPad*%
%ADD24FreePoly1,180.000000*%
%TD*%
%TA.AperFunction,ViaPad*%
%ADD25C,0.600000*%
%TD*%
%TA.AperFunction,Conductor*%
%ADD26C,0.200000*%
%TD*%
G04 APERTURE END LIST*
D10*
%TO.P,U2,1,VCCA_1*%
%TO.N,VCC*%
X130737500Y-114050000D03*
%TO.P,U2,2,GND_2*%
%TO.N,GND*%
X130737500Y-113400000D03*
%TO.P,U2,3,A_3*%
%TO.N,Net-(D1-DIN)*%
X130737500Y-112750000D03*
%TO.P,U2,4,B_4*%
%TO.N,NEO*%
X129062500Y-112750000D03*
%TO.P,U2,5,DIR_5*%
%TO.N,GND*%
X129062500Y-113400000D03*
%TO.P,U2,6,VCCB_6*%
%TO.N,-3V3*%
X129062500Y-114050000D03*
%TD*%
D11*
%TO.P,1,1,GND_1*%
%TO.N,GND*%
X121000000Y-88000000D03*
%TO.P,1,2,VIN_2*%
%TO.N,VCC*%
X121000000Y-90000000D03*
%TO.P,1,3,GP29_3*%
%TO.N,unconnected-(1-GP29-Pad3)*%
X121000000Y-92000000D03*
%TO.P,1,4,GP28_4*%
%TO.N,unconnected-(1-GP28-Pad4)*%
X121000000Y-94000000D03*
%TO.P,1,5,GP27_5*%
%TO.N,unconnected-(1-GP27-Pad5)*%
X121000000Y-96000000D03*
%TO.P,1,6,GP26_6*%
%TO.N,unconnected-(1-GP26-Pad6)*%
X121000000Y-98000000D03*
%TO.P,1,7,3V3_7*%
%TO.N,-3V3*%
X121000000Y-100000000D03*
%TO.P,1,8,USB_D-_8*%
%TO.N,USB_D-*%
X121000000Y-102000000D03*
%TO.P,1,9,USB_D+_9*%
%TO.N,USB_D+*%
X121000000Y-104000000D03*
%TO.P,1,10,BOOT_10*%
%TO.N,unconnected-(1-BOOT-Pad10)*%
X121000000Y-106000000D03*
%TO.P,1,11,RUN_11*%
%TO.N,unconnected-(1-RUN-Pad11)*%
X121000000Y-108000000D03*
%TO.P,1,12,GND_12*%
%TO.N,GND*%
X121000000Y-110000000D03*
D12*
%TO.P,1,13,GP0_13*%
%TO.N,unconnected-(1-GP0-Pad13)*%
X123000000Y-111000000D03*
%TO.P,1,14,GP1_14*%
%TO.N,unconnected-(1-GP1-Pad14)*%
X125000000Y-111000000D03*
%TO.P,1,15,GP2_15*%
%TO.N,unconnected-(1-GP2-Pad15)*%
X127000000Y-111000000D03*
%TO.P,1,16,GP3_16*%
%TO.N,NEO*%
X129000000Y-111000000D03*
%TO.P,1,17,GP4_17*%
%TO.N,unconnected-(1-GP4-Pad17)*%
X131000000Y-111000000D03*
%TO.P,1,18,GP5_18*%
%TO.N,unconnected-(1-GP5-Pad18)*%
X133000000Y-111000000D03*
%TO.P,1,19,GP6_19*%
%TO.N,unconnected-(1-GP6-Pad19)*%
X135000000Y-111000000D03*
%TO.P,1,20,GP7_20*%
%TO.N,unconnected-(1-GP7-Pad20)*%
X137000000Y-111000000D03*
D13*
%TO.P,1,21,GND_21*%
%TO.N,GND*%
X139000000Y-110000000D03*
%TO.P,1,22,SWCLK_22*%
%TO.N,unconnected-(1-SWCLK-Pad22)*%
X139000000Y-108000000D03*
%TO.P,1,23,SWDIO_23*%
%TO.N,unconnected-(1-SWDIO-Pad23)*%
X139000000Y-106000000D03*
%TO.P,1,24,GP12_24*%
%TO.N,UART_TX*%
X139000000Y-104000000D03*
%TO.P,1,25,GP13_25*%
%TO.N,UART_RX*%
X139000000Y-102000000D03*
%TO.P,1,26,GP14_26*%
%TO.N,unconnected-(1-GP14-Pad26)*%
X139000000Y-100000000D03*
%TO.P,1,27,GP15_27*%
%TO.N,unconnected-(1-GP15-Pad27)*%
X139000000Y-98000000D03*
%TO.P,1,28,GP16_28*%
%TO.N,unconnected-(1-GP16-Pad28)*%
X139000000Y-96000000D03*
%TO.P,1,29,GP17_29*%
%TO.N,unconnected-(1-GP17-Pad29)*%
X139000000Y-94000000D03*
%TO.P,1,30,GP18_30*%
%TO.N,unconnected-(1-GP18-Pad30)*%
X139000000Y-92000000D03*
%TO.P,1,31,GP19_31*%
%TO.N,unconnected-(1-GP19-Pad31)*%
X139000000Y-90000000D03*
%TO.P,1,32,GND_32*%
%TO.N,GND*%
X139000000Y-88000000D03*
D14*
%TO.P,1,33,GND_33*%
X130000000Y-95200000D03*
%TD*%
D15*
%TO.P,D1,1,VSS_1*%
%TO.N,GND*%
X137149450Y-119296184D03*
%TO.P,D1,2,DIN_2*%
%TO.N,Net-(D1-DIN)*%
X137149450Y-116096184D03*
%TO.P,D1,3,VDD_3*%
%TO.N,Net-(D1-VDD)*%
X132249450Y-116096184D03*
%TO.P,D1,4,DOUT_4*%
%TO.N,Net-(D1-DOUT)*%
X132249450Y-119296184D03*
%TD*%
D16*
%TO.P,U1,1,GND_1*%
%TO.N,GND*%
X134600000Y-133500000D03*
D17*
%TO.P,U1,2,P0.25_2*%
%TO.N,unconnected-(U1-P0.25-Pad2)*%
X134600000Y-130500000D03*
%TO.P,U1,3,P0.26_3*%
%TO.N,unconnected-(U1-P0.26-Pad3)*%
X134600000Y-129800000D03*
%TO.P,U1,4,P0.27_4*%
%TO.N,unconnected-(U1-P0.27-Pad4)*%
X134600000Y-129100000D03*
%TO.P,U1,5,P0.28_5*%
%TO.N,unconnected-(U1-P0.28-Pad5)*%
X134600000Y-128400000D03*
%TO.P,U1,6,P0.29_6*%
%TO.N,unconnected-(U1-P0.29-Pad6)*%
X134600000Y-127700000D03*
%TO.P,U1,7,P0.30_7*%
%TO.N,unconnected-(U1-P0.30-Pad7)*%
X134600000Y-127000000D03*
%TO.P,U1,8,P0.31_8*%
%TO.N,unconnected-(U1-P0.31-Pad8)*%
X134600000Y-126300000D03*
%TO.P,U1,9,DEC4_9*%
%TO.N,unconnected-(U1-DEC4-Pad9)*%
X134600000Y-125600000D03*
%TO.P,U1,10,DCC_10*%
%TO.N,unconnected-(U1-DCC-Pad10)*%
X134600000Y-124900000D03*
%TO.P,U1,11,VDD_11*%
%TO.N,-3V3*%
X134600000Y-124200000D03*
D18*
%TO.P,U1,12,GND_12*%
%TO.N,GND*%
X134200000Y-122100000D03*
%TO.P,U1,13,P0.00/XL1_13*%
%TO.N,unconnected-(U1-P0.00{slash}XL1-Pad13)*%
X133500001Y-122100000D03*
%TO.P,U1,14,P0.01/XL2_14*%
%TO.N,unconnected-(U1-P0.01{slash}XL2-Pad14)*%
X132800000Y-122100000D03*
%TO.P,U1,15,P0.02_15*%
%TO.N,unconnected-(U1-P0.02-Pad15)*%
X132100000Y-122100000D03*
%TO.P,U1,16,P0.03_16*%
%TO.N,unconnected-(U1-P0.03-Pad16)*%
X131400000Y-122100000D03*
%TO.P,U1,17,P0.04_17*%
%TO.N,unconnected-(U1-P0.04-Pad17)*%
X130700000Y-122100000D03*
%TO.P,U1,18,P0.05_18*%
%TO.N,unconnected-(U1-P0.05-Pad18)*%
X130000000Y-122100000D03*
%TO.P,U1,19,P0.06_19*%
%TO.N,unconnected-(U1-P0.06-Pad19)*%
X129300000Y-122100000D03*
%TO.P,U1,20,P0.07_20*%
%TO.N,unconnected-(U1-P0.07-Pad20)*%
X128600000Y-122100000D03*
%TO.P,U1,21,P0.08_21*%
%TO.N,UART_TX*%
X127900000Y-122100000D03*
%TO.P,U1,22,P0.09_22*%
%TO.N,UART_RX*%
X127200000Y-122100000D03*
%TO.P,U1,23,P0.10_23*%
%TO.N,unconnected-(U1-P0.10-Pad23)*%
X126500000Y-122100000D03*
%TO.P,U1,24,GND_24*%
%TO.N,GND*%
X125800000Y-122100000D03*
D19*
%TO.P,U1,25,P0.11_25*%
%TO.N,unconnected-(U1-P0.11-Pad25)*%
X125400000Y-123500000D03*
D17*
%TO.P,U1,26,P0.12_26*%
%TO.N,unconnected-(U1-P0.12-Pad26)*%
X125400000Y-124200000D03*
%TO.P,U1,27,P0.13_27*%
%TO.N,unconnected-(U1-P0.13-Pad27)*%
X125400000Y-124900000D03*
%TO.P,U1,28,P0.14_28*%
%TO.N,unconnected-(U1-P0.14-Pad28)*%
X125400000Y-125600000D03*
%TO.P,U1,29,P0.15_29*%
%TO.N,unconnected-(U1-P0.15-Pad29)*%
X125400000Y-126300000D03*
%TO.P,U1,30,P0.16_30*%
%TO.N,unconnected-(U1-P0.16-Pad30)*%
X125400000Y-127000000D03*
%TO.P,U1,31,P0.17_31*%
%TO.N,unconnected-(U1-P0.17-Pad31)*%
X125400000Y-127700000D03*
%TO.P,U1,32,P0.18_32*%
%TO.N,unconnected-(U1-P0.18-Pad32)*%
X125400000Y-128400000D03*
%TO.P,U1,33,P0.19_33*%
%TO.N,unconnected-(U1-P0.19-Pad33)*%
X125400000Y-129100000D03*
%TO.P,U1,34,P0.20_34*%
%TO.N,unconnected-(U1-P0.20-Pad34)*%
X125400000Y-129800000D03*
%TO.P,U1,35,P0.21/RESET_35*%
%TO.N,RESET*%
X125400000Y-130500000D03*
%TO.P,U1,36,SWDCLK_36*%
%TO.N,SWDCLK*%
X125400000Y-131200000D03*
%TO.P,U1,37,SWDIO_37*%
%TO.N,SWDIO*%
X125400000Y-131900000D03*
%TO.P,U1,38,P0.22_38*%
%TO.N,unconnected-(U1-P0.22-Pad38)*%
X125400000Y-132600000D03*
D16*
%TO.P,U1,39*%
%TO.N,N/C*%
X125400000Y-133500000D03*
D20*
%TO.P,U1,40,P0.24_40*%
%TO.N,unconnected-(U1-P0.24-Pad40)*%
X127100000Y-132950000D03*
%TO.P,U1,41,P0.23_41*%
%TO.N,unconnected-(U1-P0.23-Pad41)*%
X127100000Y-131550000D03*
%TD*%
D21*
%TO.P,J2,1*%
%TO.N,-3V3*%
X122660001Y-126145000D03*
%TO.P,J2,2*%
%TO.N,SWDIO*%
X121390001Y-126145000D03*
%TO.P,J2,3*%
%TO.N,RESET*%
X122660001Y-124875000D03*
%TO.P,J2,4*%
%TO.N,SWDCLK*%
X121390001Y-124875000D03*
%TO.P,J2,5*%
%TO.N,GND*%
X122660001Y-123605000D03*
%TO.P,J2,6*%
%TO.N,unconnected-(J2-Pad6)*%
X121390001Y-123605000D03*
%TD*%
D15*
%TO.P,D2,1,VSS_1*%
%TO.N,GND*%
X127750000Y-119300000D03*
%TO.P,D2,2,DIN_2*%
%TO.N,Net-(D1-DOUT)*%
X127750000Y-116100000D03*
%TO.P,D2,3,VDD_3*%
%TO.N,Net-(D1-VDD)*%
X122850000Y-116100000D03*
%TO.P,D2,4,DOUT_4*%
%TO.N,unconnected-(D2-DOUT-Pad4)*%
X122850000Y-119300000D03*
%TD*%
D22*
%TO.P,J1,A1,GND_A1*%
%TO.N,GND*%
X127250000Y-78860000D03*
%TO.P,J1,A2,SSTXP1_A2*%
%TO.N,unconnected-(J1-SSTXP1-PadA2)*%
X127750000Y-78860000D03*
%TO.P,J1,A3,SSTXN1_A3*%
%TO.N,unconnected-(J1-SSTXN1-PadA3)*%
X128250000Y-78860000D03*
%TO.P,J1,A4,VBUS_A4*%
%TO.N,VCC*%
X128750000Y-78860000D03*
%TO.P,J1,A5,CC1_A5*%
%TO.N,unconnected-(J1-CC1-PadA5)*%
X131250000Y-78860000D03*
%TO.P,J1,A6,DP1_A6*%
%TO.N,USB_D+*%
X131750000Y-78860000D03*
%TO.P,J1,A7,DN1_A7*%
%TO.N,USB_D-*%
X132250000Y-78860000D03*
%TO.P,J1,A12,GND__1_A12*%
%TO.N,GND*%
X132750000Y-78860000D03*
%TO.P,J1,B9,VBUS__1_B9*%
%TO.N,VCC*%
X130750000Y-78860000D03*
%TO.P,J1,B10,SSRXN1_B10*%
%TO.N,unconnected-(J1-SSRXN1-PadB10)*%
X130250000Y-78860000D03*
%TO.P,J1,B11,SSRXP1_B11*%
%TO.N,unconnected-(J1-SSRXP1-PadB11)*%
X129750000Y-78860000D03*
%TO.P,J1,B12,GND__2_B12*%
%TO.N,GND*%
X129250000Y-78860000D03*
D23*
%TO.P,J1,SH1,SHIELD_SH1*%
%TO.N,unconnected-(J1-SHIELD-PadSH1)*%
X134300000Y-78700000D03*
D24*
%TO.P,J1,SH2,SHIELD__1_SH2*%
%TO.N,unconnected-(J1-SHIELD__1-PadSH2)*%
X125700000Y-78700000D03*
%TD*%
D25*
%TO.N,RESET*%
X127800000Y-126100000D03*
X124000000Y-125800000D03*
%TO.N,GND*%
X127100000Y-113400000D03*
%TO.N,Net-(D1-DIN)*%
X132600000Y-112700000D03*
X135000000Y-112900000D03*
%TO.N,GND*%
X133200000Y-80100000D03*
X127250001Y-80200000D03*
X132900000Y-123600000D03*
X125300000Y-118000000D03*
X129350001Y-80200000D03*
X123200000Y-108900000D03*
X136500000Y-108800000D03*
%TO.N,-3V3*%
X123400000Y-127300000D03*
X132800000Y-124600000D03*
%TO.N,USB_D-*%
X130850000Y-81450000D03*
X122350000Y-100650000D03*
%TO.N,USB_D+*%
X131600368Y-79851103D03*
X122500000Y-102500000D03*
%TO.N,UART_TX*%
X137800000Y-105000000D03*
X128100000Y-123700000D03*
%TO.N,UART_RX*%
X136800000Y-103500000D03*
X127000000Y-120700000D03*
%TO.N,SWDCLK*%
X123600000Y-129000000D03*
X121000000Y-128700000D03*
%TD*%
%TO.N,SWDIO*%
D26*
X120996302Y-127796302D02*
X120996302Y-126538698D01*
X120996302Y-126538698D02*
X121390001Y-126144999D01*
X122181371Y-128500000D02*
X121700000Y-128500000D01*
X121700000Y-128500000D02*
X120996302Y-127796302D01*
X124000000Y-131199999D02*
X124000000Y-130318629D01*
X124700001Y-131900000D02*
X124000000Y-131199999D01*
X125400000Y-131900000D02*
X124700001Y-131900000D01*
X124000000Y-130318629D02*
X122181371Y-128500000D01*
%TO.N,SWDCLK*%
X124400000Y-129800000D02*
X123600000Y-129000000D01*
X124400000Y-130899999D02*
X124400000Y-129800000D01*
X124700001Y-131200000D02*
X124400000Y-130899999D01*
X125400000Y-131200000D02*
X124700001Y-131200000D01*
%TO.N,RESET*%
X127800000Y-126100000D02*
X127800000Y-128799999D01*
X127800000Y-128799999D02*
X126099999Y-130500000D01*
X126099999Y-130500000D02*
X125400000Y-130500000D01*
X122975000Y-124875000D02*
X122660001Y-124875000D01*
X123900000Y-125800000D02*
X122975000Y-124875000D01*
X124000000Y-125800000D02*
X123900000Y-125800000D01*
%TO.N,-3V3*%
X134100000Y-114800000D02*
X135900000Y-116600000D01*
X135900000Y-116600000D02*
X135900000Y-122900000D01*
X135900000Y-122900000D02*
X134600000Y-124200000D01*
X129812499Y-114800000D02*
X134100000Y-114800000D01*
X129062499Y-114050000D02*
X129812499Y-114800000D01*
X123200000Y-100000000D02*
X121000000Y-100000000D01*
X126851471Y-114000000D02*
X126100000Y-113248529D01*
X129012499Y-114000000D02*
X126851471Y-114000000D01*
X129062499Y-114050000D02*
X129012499Y-114000000D01*
X126100000Y-113248529D02*
X126100000Y-102900000D01*
X126100000Y-102900000D02*
X123200000Y-100000000D01*
%TO.N,USB_D-*%
X121000000Y-102000000D02*
X122350000Y-100650000D01*
%TO.N,GND*%
X129062500Y-113400000D02*
X127100000Y-113400000D01*
X130737500Y-113400000D02*
X129062500Y-113400000D01*
%TO.N,Net-(D1-DIN)*%
X130787501Y-112700000D02*
X130737501Y-112750000D01*
X132600000Y-112700000D02*
X130787501Y-112700000D01*
%TO.N,VCC*%
X124000000Y-91900000D02*
X122100000Y-90000000D01*
X124000000Y-95800000D02*
X124000000Y-91900000D01*
X130000000Y-106200000D02*
X130000000Y-101800000D01*
X134000000Y-110200000D02*
X130000000Y-106200000D01*
X132800000Y-114000000D02*
X134000000Y-112800000D01*
X130787497Y-114000000D02*
X132800000Y-114000000D01*
X130737499Y-114049998D02*
X130787497Y-114000000D01*
X134000000Y-112800000D02*
X134000000Y-110200000D01*
X130000000Y-101800000D02*
X124000000Y-95800000D01*
%TO.N,Net-(D1-DIN)*%
X136496184Y-116096184D02*
X137149450Y-116096184D01*
X135000000Y-112900000D02*
X135000000Y-114600000D01*
X135000000Y-114600000D02*
X136496184Y-116096184D01*
%TO.N,NEO*%
X128800000Y-111200000D02*
X129000000Y-111000000D01*
X128800000Y-112487501D02*
X128800000Y-111200000D01*
X129062501Y-112750002D02*
X128800000Y-112487501D01*
%TO.N,Net-(D1-VDD)*%
X124549999Y-115300000D02*
X123749999Y-116100000D01*
X128800000Y-115312500D02*
X128800000Y-115300000D01*
X128800000Y-115300000D02*
X124549999Y-115300000D01*
X131583684Y-116096184D02*
X130800000Y-115312500D01*
X130800000Y-115312500D02*
X128800000Y-115312500D01*
X132149450Y-116096184D02*
X131583684Y-116096184D01*
X132149450Y-115750550D02*
X132149450Y-116096184D01*
X123749999Y-116100000D02*
X122850000Y-116100000D01*
%TO.N,GND*%
X132750000Y-78250000D02*
X132750000Y-78860000D01*
X130000000Y-96400000D02*
X130000000Y-95200000D01*
X129300000Y-80200000D02*
X129250000Y-80150000D01*
X127250001Y-80200000D02*
X127250001Y-78860001D01*
X133500000Y-123600000D02*
X132900000Y-123600000D01*
X139000000Y-110000000D02*
X139000000Y-110900000D01*
X129250000Y-78350000D02*
X129500000Y-78100000D01*
X129350001Y-80200000D02*
X129300000Y-80200000D01*
X132750000Y-79650000D02*
X133200000Y-80100000D01*
X139000000Y-110000000D02*
X137700000Y-110000000D01*
X132600000Y-78100000D02*
X132750000Y-78250000D01*
X125300000Y-118000000D02*
X125300000Y-121600000D01*
X122800000Y-108900000D02*
X121700000Y-110000000D01*
X134200002Y-121700000D02*
X134200002Y-122899998D01*
X121700000Y-110000000D02*
X121000000Y-110000000D01*
X129250000Y-78860000D02*
X129250000Y-78350000D01*
X132750000Y-78860000D02*
X132750000Y-79650000D01*
X125300000Y-121600000D02*
X125800000Y-122100000D01*
X129250000Y-80150000D02*
X129250000Y-78860000D01*
X129500000Y-78100000D02*
X132600000Y-78100000D01*
X123200000Y-108900000D02*
X122800000Y-108900000D01*
X134200002Y-122899998D02*
X133500000Y-123600000D01*
X137700000Y-110000000D02*
X136500000Y-108800000D01*
X134490778Y-133400000D02*
X134000000Y-133400000D01*
%TO.N,VCC*%
X128750001Y-83349999D02*
X128750001Y-82249999D01*
X121000000Y-90000000D02*
X122100000Y-90000000D01*
X122100000Y-90000000D02*
X128750001Y-83349999D01*
X128750001Y-82249999D02*
X130750000Y-80250000D01*
X128750001Y-82100000D02*
X128750001Y-78860000D01*
X130750000Y-80250000D02*
X130750000Y-78860000D01*
X128750001Y-82249999D02*
X128750001Y-82100000D01*
%TO.N,-3V3*%
X123400000Y-127300000D02*
X123400000Y-126885000D01*
X134600000Y-124200000D02*
X133200000Y-124200000D01*
X123400000Y-126885000D02*
X122660000Y-126145000D01*
X133200000Y-124200000D02*
X132800000Y-124600000D01*
%TO.N,USB_D-*%
X130850000Y-81450000D02*
X132250000Y-80050000D01*
X132250000Y-80050000D02*
X132250000Y-78859999D01*
%TO.N,USB_D+*%
X131600368Y-79851103D02*
X131750000Y-79701470D01*
X131750000Y-79701470D02*
X131750000Y-78860000D01*
X122500000Y-102500000D02*
X121000000Y-104000000D01*
%TO.N,Net-(D1-DIN)*%
X136950001Y-116195633D02*
X137049450Y-116096184D01*
%TO.N,UART_TX*%
X128100000Y-123700000D02*
X127900000Y-123500000D01*
X138000000Y-105000000D02*
X139000000Y-104000000D01*
X137800000Y-105000000D02*
X138000000Y-105000000D01*
X127900000Y-121700002D02*
X127900002Y-121700000D01*
X127900000Y-123500000D02*
X127900000Y-121700002D01*
%TO.N,UART_RX*%
X136800000Y-103500000D02*
X136900000Y-103500000D01*
X127200000Y-122100000D02*
X127200000Y-121700000D01*
X136900000Y-103500000D02*
X138400000Y-102000000D01*
X127200000Y-120900000D02*
X127200000Y-122100000D01*
X138400000Y-102000000D02*
X139000000Y-102000000D01*
X127000000Y-120700000D02*
X127200000Y-120900000D01*
X127200000Y-121700000D02*
X127199999Y-121699999D01*
%TO.N,Net-(D1-DOUT)*%
X127750000Y-116599997D02*
X130446187Y-119296184D01*
X127750000Y-116100000D02*
X127750000Y-116599997D01*
X130446187Y-119296184D02*
X132149450Y-119296184D01*
%TO.N,SWDCLK*%
X120596302Y-128296302D02*
X120596302Y-125668699D01*
X121000000Y-128700000D02*
X120596302Y-128296302D01*
X120596302Y-125668699D02*
X121390001Y-124875000D01*
%TD*%
%TA.AperFunction,Conductor*%
%TO.N,GND*%
G36*
X121143106Y-110005023D02*
G01*
X121158104Y-110009427D01*
X121216855Y-110047172D01*
X121218042Y-110048541D01*
X121237907Y-110092004D01*
X121241363Y-110090908D01*
X121244195Y-110099835D01*
X121245582Y-110108794D01*
X121247087Y-110112087D01*
X121246608Y-110115423D01*
X121250000Y-110137331D01*
X121250000Y-111000000D01*
X121593049Y-111000000D01*
X121593054Y-111000000D01*
X121681443Y-110989386D01*
X121791286Y-110946069D01*
X121805507Y-110941433D01*
X121831503Y-110934661D01*
X121831504Y-110934662D01*
X121842387Y-110931827D01*
X121912223Y-110933978D01*
X121969810Y-110973544D01*
X121969824Y-110973560D01*
X121970501Y-110974392D01*
X121995874Y-111028153D01*
X121997055Y-111034012D01*
X121999500Y-111058514D01*
X121999500Y-111593102D01*
X122005126Y-111639954D01*
X122010122Y-111681561D01*
X122065639Y-111822342D01*
X122065640Y-111822345D01*
X122157076Y-111942922D01*
X122270904Y-112029240D01*
X122277656Y-112034360D01*
X122277657Y-112034360D01*
X122277876Y-112034526D01*
X122280596Y-112035519D01*
X122418436Y-112089877D01*
X122506898Y-112100500D01*
X122506903Y-112100500D01*
X123493097Y-112100500D01*
X123493102Y-112100500D01*
X123581564Y-112089877D01*
X123722342Y-112034361D01*
X123842922Y-111942922D01*
X123847176Y-111937311D01*
X123890423Y-111880282D01*
X123915529Y-111855483D01*
X123926695Y-111847232D01*
X123992306Y-111823222D01*
X124060484Y-111838494D01*
X124067250Y-111842243D01*
X124067617Y-111842447D01*
X124106314Y-111875980D01*
X124112032Y-111883520D01*
X124157077Y-111942922D01*
X124277656Y-112034360D01*
X124277657Y-112034360D01*
X124277876Y-112034526D01*
X124280596Y-112035519D01*
X124418436Y-112089877D01*
X124506898Y-112100500D01*
X124506903Y-112100500D01*
X125357670Y-112100500D01*
X125392606Y-112105523D01*
X125407604Y-112109927D01*
X125466355Y-112147672D01*
X125467542Y-112149041D01*
X125495018Y-112203902D01*
X125496663Y-112211460D01*
X125499500Y-112237831D01*
X125499500Y-113161859D01*
X125499499Y-113161877D01*
X125499499Y-113279171D01*
X125499499Y-113285490D01*
X125493601Y-113305575D01*
X125499498Y-113327583D01*
X125527364Y-113431578D01*
X125533070Y-113452873D01*
X125540423Y-113480315D01*
X125550400Y-113497594D01*
X125552078Y-113500500D01*
X125580135Y-113549096D01*
X125619479Y-113617244D01*
X125738349Y-113736114D01*
X125740336Y-113738101D01*
X125740359Y-113738123D01*
X126370949Y-114368713D01*
X126370951Y-114368716D01*
X126478410Y-114476175D01*
X126499441Y-114504212D01*
X126503467Y-114511552D01*
X126503470Y-114511556D01*
X126504707Y-114513811D01*
X126508572Y-114531415D01*
X126511892Y-114537495D01*
X126511404Y-114544313D01*
X126519691Y-114582055D01*
X126495401Y-114647567D01*
X126454127Y-114682976D01*
X126451823Y-114684198D01*
X126451820Y-114684200D01*
X126450259Y-114685027D01*
X126392126Y-114699500D01*
X124638619Y-114699500D01*
X124638556Y-114699499D01*
X124636652Y-114699499D01*
X124629056Y-114699499D01*
X124470942Y-114699499D01*
X124356395Y-114730191D01*
X124356396Y-114730192D01*
X124318213Y-114740423D01*
X124318208Y-114740425D01*
X124302032Y-114749764D01*
X124301986Y-114749792D01*
X124181288Y-114819475D01*
X124181283Y-114819478D01*
X124069479Y-114931284D01*
X124069478Y-114931283D01*
X124069477Y-114931286D01*
X123941398Y-115059365D01*
X123924764Y-115075999D01*
X123912909Y-115087854D01*
X123884651Y-115109006D01*
X123870929Y-115116498D01*
X123802661Y-115131347D01*
X123787072Y-115130232D01*
X123752587Y-115122731D01*
X123735875Y-115116498D01*
X123725399Y-115112590D01*
X123715788Y-115109006D01*
X123707481Y-115105908D01*
X123707478Y-115105907D01*
X123707474Y-115105906D01*
X123655582Y-115100327D01*
X123650746Y-115099500D01*
X123647881Y-115099500D01*
X123647873Y-115099500D01*
X123647864Y-115099500D01*
X122052129Y-115099500D01*
X122052123Y-115099500D01*
X122050192Y-115099659D01*
X122048545Y-115099885D01*
X121992535Y-115105906D01*
X121992516Y-115105908D01*
X121867892Y-115152390D01*
X121857666Y-115156204D01*
X121857665Y-115156205D01*
X121742456Y-115242450D01*
X121742450Y-115242456D01*
X121656205Y-115357665D01*
X121656203Y-115357668D01*
X121605907Y-115492516D01*
X121599501Y-115552116D01*
X121599500Y-115552139D01*
X121599500Y-116647876D01*
X121599659Y-116649806D01*
X121599885Y-116651454D01*
X121605907Y-116707482D01*
X121633690Y-116781971D01*
X121656202Y-116842328D01*
X121656206Y-116842335D01*
X121681030Y-116875495D01*
X121742450Y-116957542D01*
X121742452Y-116957544D01*
X121742455Y-116957547D01*
X121857664Y-117043793D01*
X121857671Y-117043797D01*
X121992517Y-117094091D01*
X121992516Y-117094091D01*
X121999444Y-117094835D01*
X122052127Y-117100500D01*
X123647872Y-117100499D01*
X123707483Y-117094091D01*
X123842331Y-117043796D01*
X123957546Y-116957546D01*
X124043796Y-116842331D01*
X124094091Y-116707483D01*
X124098925Y-116662519D01*
X124103202Y-116640966D01*
X124112888Y-116607870D01*
X124144216Y-116555018D01*
X124240721Y-116458514D01*
X124240728Y-116458504D01*
X124749810Y-115949423D01*
X124778060Y-115928275D01*
X124801152Y-115915667D01*
X124860577Y-115900500D01*
X126357670Y-115900500D01*
X126392606Y-115905523D01*
X126407604Y-115909927D01*
X126466355Y-115947672D01*
X126467542Y-115949041D01*
X126495018Y-116003902D01*
X126496663Y-116011460D01*
X126499500Y-116037831D01*
X126499500Y-116647876D01*
X126499659Y-116649806D01*
X126499885Y-116651454D01*
X126505907Y-116707482D01*
X126533690Y-116781971D01*
X126556202Y-116842328D01*
X126556206Y-116842335D01*
X126581030Y-116875495D01*
X126642450Y-116957542D01*
X126642452Y-116957544D01*
X126642455Y-116957547D01*
X126757664Y-117043793D01*
X126757671Y-117043797D01*
X126802618Y-117060561D01*
X126892517Y-117094091D01*
X126952127Y-117100500D01*
X127332078Y-117100499D01*
X127367012Y-117105522D01*
X127392249Y-117112932D01*
X127444996Y-117144228D01*
X128376479Y-118075711D01*
X128397628Y-118103961D01*
X128403049Y-118113888D01*
X128417903Y-118182161D01*
X128393489Y-118247626D01*
X128337557Y-118289499D01*
X128337553Y-118289501D01*
X128330365Y-118292182D01*
X128287031Y-118300000D01*
X128000000Y-118300000D01*
X128000000Y-119050000D01*
X129000000Y-119050000D01*
X129000000Y-119016423D01*
X129005021Y-118981496D01*
X129008207Y-118970643D01*
X129045977Y-118911862D01*
X129109531Y-118882833D01*
X129178686Y-118892771D01*
X129185672Y-118895961D01*
X129221842Y-118921074D01*
X129960272Y-119659504D01*
X129960293Y-119659526D01*
X129961336Y-119660569D01*
X129965666Y-119664899D01*
X129965667Y-119664900D01*
X130077471Y-119776704D01*
X130077472Y-119776705D01*
X130077474Y-119776706D01*
X130157241Y-119822758D01*
X130157246Y-119822762D01*
X130157247Y-119822762D01*
X130200737Y-119847872D01*
X130206942Y-119851454D01*
X130214402Y-119855761D01*
X130367129Y-119896684D01*
X130367130Y-119896684D01*
X130898829Y-119896684D01*
X130933765Y-119901707D01*
X130948763Y-119906111D01*
X131007539Y-119943884D01*
X131015394Y-119952949D01*
X131037864Y-119990821D01*
X131055650Y-120038509D01*
X131055651Y-120038511D01*
X131055652Y-120038512D01*
X131055656Y-120038519D01*
X131071995Y-120060345D01*
X131141900Y-120153726D01*
X131141906Y-120153732D01*
X131146527Y-120157191D01*
X131257114Y-120239977D01*
X131257121Y-120239981D01*
X131391967Y-120290275D01*
X131391966Y-120290275D01*
X131398894Y-120291019D01*
X131451577Y-120296684D01*
X133047322Y-120296683D01*
X133106933Y-120290275D01*
X133241781Y-120239980D01*
X133356996Y-120153730D01*
X133443246Y-120038515D01*
X133493541Y-119903667D01*
X133499950Y-119844057D01*
X133499949Y-118748312D01*
X133493541Y-118688701D01*
X133491665Y-118683673D01*
X133488809Y-118676015D01*
X133488801Y-118675994D01*
X133443248Y-118553857D01*
X133443247Y-118553855D01*
X133443245Y-118553852D01*
X133443243Y-118553848D01*
X133360117Y-118442807D01*
X133356998Y-118438640D01*
X133356992Y-118438634D01*
X133247474Y-118356649D01*
X133241785Y-118352390D01*
X133241782Y-118352388D01*
X133241780Y-118352387D01*
X133241778Y-118352386D01*
X133106932Y-118302092D01*
X133106933Y-118302092D01*
X133047333Y-118295685D01*
X133047331Y-118295684D01*
X133047323Y-118295684D01*
X133047314Y-118295684D01*
X133046291Y-118295684D01*
X131451573Y-118295684D01*
X131449642Y-118295843D01*
X131447995Y-118296069D01*
X131391966Y-118302092D01*
X131290735Y-118339849D01*
X131257116Y-118352388D01*
X131257115Y-118352389D01*
X131141906Y-118438634D01*
X131141900Y-118438640D01*
X131055655Y-118553849D01*
X131055653Y-118553852D01*
X131055652Y-118553853D01*
X131039070Y-118598313D01*
X131022158Y-118629285D01*
X131012791Y-118641799D01*
X130956860Y-118683673D01*
X130956856Y-118683674D01*
X130945620Y-118687865D01*
X130902285Y-118695684D01*
X130764114Y-118695684D01*
X130729178Y-118690661D01*
X130703936Y-118683249D01*
X130651191Y-118651953D01*
X128984981Y-116985743D01*
X128963831Y-116957490D01*
X128956338Y-116943768D01*
X128941485Y-116875498D01*
X128942600Y-116859902D01*
X128950101Y-116825424D01*
X128994091Y-116707483D01*
X129000500Y-116647873D01*
X129000499Y-116054826D01*
X129005521Y-116019894D01*
X129009925Y-116004896D01*
X129047670Y-115946144D01*
X129049039Y-115944957D01*
X129103920Y-115917476D01*
X129108259Y-115916532D01*
X129111482Y-115915832D01*
X129137831Y-115913000D01*
X130482073Y-115913000D01*
X130517005Y-115918021D01*
X130542249Y-115925434D01*
X130594995Y-115956730D01*
X130950023Y-116311759D01*
X130971173Y-116340011D01*
X130983781Y-116363100D01*
X130998950Y-116422529D01*
X130998950Y-116644051D01*
X130999000Y-116644758D01*
X130999181Y-116646203D01*
X131005357Y-116703666D01*
X131006781Y-116707483D01*
X131055652Y-116838512D01*
X131055656Y-116838519D01*
X131098536Y-116895800D01*
X131141900Y-116953726D01*
X131141902Y-116953728D01*
X131141905Y-116953731D01*
X131257114Y-117039977D01*
X131257121Y-117039981D01*
X131391967Y-117090275D01*
X131391966Y-117090275D01*
X131398894Y-117091019D01*
X131451577Y-117096684D01*
X133047322Y-117096683D01*
X133106933Y-117090275D01*
X133241781Y-117039980D01*
X133356996Y-116953730D01*
X133443246Y-116838515D01*
X133493541Y-116703667D01*
X133499950Y-116644057D01*
X133499949Y-115548312D01*
X133499949Y-115544992D01*
X133500328Y-115544992D01*
X133501818Y-115521100D01*
X133504575Y-115505824D01*
X133535853Y-115443347D01*
X133593800Y-115408265D01*
X133606001Y-115404918D01*
X133638805Y-115400500D01*
X133782073Y-115400500D01*
X133817005Y-115405521D01*
X133842249Y-115412934D01*
X133894995Y-115444230D01*
X135250573Y-116799808D01*
X135271723Y-116828060D01*
X135284331Y-116851149D01*
X135299500Y-116910578D01*
X135299500Y-122582072D01*
X135294476Y-122617009D01*
X135287064Y-122642250D01*
X135255769Y-122694994D01*
X135124288Y-122826475D01*
X135096038Y-122847624D01*
X135086111Y-122853045D01*
X135017838Y-122867899D01*
X134952373Y-122843485D01*
X134910500Y-122787553D01*
X134907813Y-122780347D01*
X134900000Y-122737027D01*
X134900000Y-122300000D01*
X134342331Y-122300000D01*
X134307390Y-122294975D01*
X134292391Y-122290570D01*
X134233645Y-122252827D01*
X134232458Y-122251458D01*
X134204981Y-122196594D01*
X134204222Y-122193105D01*
X134203335Y-122189030D01*
X134200500Y-122162675D01*
X134200500Y-122017688D01*
X134205519Y-121982768D01*
X134208707Y-121971908D01*
X134246476Y-121913132D01*
X134310029Y-121884102D01*
X134379188Y-121894041D01*
X134379195Y-121894044D01*
X134392235Y-121899999D01*
X134392236Y-121899999D01*
X134392238Y-121900000D01*
X134899999Y-121900000D01*
X134899999Y-121416163D01*
X134889193Y-121326167D01*
X134832718Y-121182956D01*
X134828452Y-121177331D01*
X134812657Y-121156501D01*
X134739703Y-121060296D01*
X134642041Y-120986237D01*
X134617045Y-120967282D01*
X134617039Y-120967279D01*
X134473838Y-120910807D01*
X134473830Y-120910805D01*
X134400000Y-120901938D01*
X134400000Y-121188920D01*
X134388519Y-121228017D01*
X134381220Y-121258910D01*
X134354916Y-121284291D01*
X134353997Y-121285318D01*
X134353108Y-121286036D01*
X134330942Y-121307427D01*
X134262415Y-121321059D01*
X134197396Y-121295478D01*
X134172888Y-121270080D01*
X134169891Y-121265924D01*
X134155907Y-121240848D01*
X134129599Y-121177335D01*
X134129596Y-121177330D01*
X134040196Y-121060820D01*
X134029739Y-121044760D01*
X134025047Y-121036168D01*
X134015167Y-121018073D01*
X134000000Y-120958647D01*
X134000000Y-120901941D01*
X133926164Y-120910807D01*
X133913877Y-120915652D01*
X133879534Y-120923793D01*
X133852952Y-120926191D01*
X133794367Y-120917257D01*
X133786354Y-120913938D01*
X133786323Y-120913926D01*
X133786315Y-120913924D01*
X133676744Y-120899500D01*
X133676742Y-120899500D01*
X133323258Y-120899500D01*
X133323256Y-120899500D01*
X133213694Y-120913921D01*
X133213684Y-120913924D01*
X133213657Y-120913933D01*
X133211605Y-120914699D01*
X133211511Y-120914447D01*
X133179720Y-120922553D01*
X133153567Y-120925364D01*
X133092869Y-120916638D01*
X133086320Y-120913925D01*
X133086314Y-120913924D01*
X132976743Y-120899500D01*
X132976741Y-120899500D01*
X132623257Y-120899500D01*
X132623255Y-120899500D01*
X132513695Y-120913922D01*
X132513691Y-120913923D01*
X132513687Y-120913923D01*
X132513686Y-120913924D01*
X132513681Y-120913925D01*
X132513679Y-120913925D01*
X132513678Y-120913926D01*
X132507884Y-120915687D01*
X132507793Y-120915390D01*
X132479715Y-120922554D01*
X132453564Y-120925364D01*
X132392875Y-120916640D01*
X132386320Y-120913925D01*
X132386314Y-120913924D01*
X132276743Y-120899500D01*
X132276741Y-120899500D01*
X131923257Y-120899500D01*
X131923255Y-120899500D01*
X131813695Y-120913922D01*
X131813691Y-120913923D01*
X131813687Y-120913923D01*
X131813686Y-120913924D01*
X131813681Y-120913925D01*
X131813679Y-120913925D01*
X131813678Y-120913926D01*
X131807884Y-120915687D01*
X131807793Y-120915390D01*
X131779715Y-120922554D01*
X131753564Y-120925364D01*
X131692875Y-120916640D01*
X131686320Y-120913925D01*
X131686314Y-120913924D01*
X131576743Y-120899500D01*
X131576741Y-120899500D01*
X131223257Y-120899500D01*
X131223255Y-120899500D01*
X131113695Y-120913922D01*
X131113691Y-120913923D01*
X131113687Y-120913923D01*
X131113686Y-120913924D01*
X131113681Y-120913925D01*
X131113679Y-120913925D01*
X131113678Y-120913926D01*
X131107884Y-120915687D01*
X131107793Y-120915390D01*
X131079715Y-120922554D01*
X131053564Y-120925364D01*
X130992875Y-120916640D01*
X130986320Y-120913925D01*
X130986314Y-120913924D01*
X130876743Y-120899500D01*
X130876741Y-120899500D01*
X130523257Y-120899500D01*
X130523255Y-120899500D01*
X130413695Y-120913922D01*
X130413691Y-120913923D01*
X130413687Y-120913923D01*
X130413686Y-120913924D01*
X130413681Y-120913925D01*
X130413679Y-120913925D01*
X130413678Y-120913926D01*
X130407884Y-120915687D01*
X130407793Y-120915390D01*
X130379715Y-120922554D01*
X130353564Y-120925364D01*
X130292875Y-120916640D01*
X130286320Y-120913925D01*
X130286314Y-120913924D01*
X130176743Y-120899500D01*
X130176741Y-120899500D01*
X129823257Y-120899500D01*
X129823255Y-120899500D01*
X129713695Y-120913922D01*
X129713691Y-120913923D01*
X129713687Y-120913923D01*
X129713686Y-120913924D01*
X129713681Y-120913925D01*
X129713679Y-120913925D01*
X129713678Y-120913926D01*
X129707884Y-120915687D01*
X129707793Y-120915390D01*
X129679715Y-120922554D01*
X129653564Y-120925364D01*
X129592875Y-120916640D01*
X129586320Y-120913925D01*
X129586314Y-120913924D01*
X129476743Y-120899500D01*
X129476741Y-120899500D01*
X129123257Y-120899500D01*
X129123255Y-120899500D01*
X129013695Y-120913922D01*
X129013691Y-120913923D01*
X129013687Y-120913923D01*
X129013686Y-120913924D01*
X129013681Y-120913925D01*
X129013679Y-120913925D01*
X129013678Y-120913926D01*
X129007884Y-120915687D01*
X129007793Y-120915390D01*
X128979715Y-120922554D01*
X128953564Y-120925364D01*
X128892875Y-120916640D01*
X128886320Y-120913925D01*
X128886314Y-120913924D01*
X128776743Y-120899500D01*
X128776741Y-120899500D01*
X128423257Y-120899500D01*
X128423255Y-120899500D01*
X128313695Y-120913922D01*
X128313691Y-120913923D01*
X128313687Y-120913923D01*
X128313686Y-120913924D01*
X128313681Y-120913925D01*
X128313679Y-120913925D01*
X128313678Y-120913926D01*
X128307884Y-120915687D01*
X128307793Y-120915390D01*
X128279715Y-120922554D01*
X128253564Y-120925364D01*
X128192875Y-120916640D01*
X128186320Y-120913925D01*
X128186313Y-120913924D01*
X128076744Y-120899500D01*
X128076742Y-120899500D01*
X128076741Y-120899500D01*
X127942330Y-120899500D01*
X127907389Y-120894475D01*
X127892390Y-120890070D01*
X127833644Y-120852327D01*
X127832457Y-120850958D01*
X127804977Y-120796083D01*
X127803332Y-120788521D01*
X127800500Y-120762168D01*
X127800500Y-120620973D01*
X127800065Y-120618972D01*
X127774136Y-120488624D01*
X127772469Y-120477726D01*
X127770548Y-120459893D01*
X127770549Y-120459893D01*
X127768400Y-120439946D01*
X127780792Y-120371188D01*
X127828388Y-120320045D01*
X127832913Y-120317358D01*
X127896187Y-120300000D01*
X128547836Y-120300000D01*
X128547847Y-120299999D01*
X128583560Y-120296158D01*
X128607372Y-120293598D01*
X128607379Y-120293596D01*
X128742086Y-120243354D01*
X128742093Y-120243350D01*
X128857187Y-120157190D01*
X128857190Y-120157187D01*
X128943350Y-120042093D01*
X128943354Y-120042086D01*
X128993596Y-119907379D01*
X128993598Y-119907372D01*
X128999148Y-119855761D01*
X128999998Y-119847860D01*
X129000000Y-119847827D01*
X129000000Y-119550000D01*
X126500000Y-119550000D01*
X126500000Y-119847849D01*
X126506400Y-119907370D01*
X126506402Y-119907378D01*
X126506403Y-119907380D01*
X126514197Y-119928277D01*
X126521698Y-119962764D01*
X126522813Y-119978356D01*
X126507961Y-120046628D01*
X126500471Y-120060345D01*
X126479321Y-120088599D01*
X126378209Y-120189711D01*
X126290613Y-120320807D01*
X126290603Y-120320824D01*
X126290598Y-120320833D01*
X126230264Y-120466496D01*
X126230257Y-120466527D01*
X126199500Y-120621150D01*
X126199500Y-120759883D01*
X126197313Y-120783071D01*
X126193099Y-120805208D01*
X126161225Y-120867384D01*
X126100801Y-120902456D01*
X126090971Y-120904865D01*
X126046670Y-120907544D01*
X126000001Y-120901939D01*
X126000000Y-120901939D01*
X126000000Y-120951299D01*
X125994976Y-120986237D01*
X125987496Y-121011709D01*
X125962622Y-121056945D01*
X125962720Y-121057020D01*
X125962231Y-121057656D01*
X125961758Y-121058518D01*
X125960256Y-121060230D01*
X125870403Y-121177329D01*
X125845383Y-121237735D01*
X125819817Y-121269459D01*
X125801240Y-121295218D01*
X125767218Y-121308600D01*
X125765980Y-121309194D01*
X125764886Y-121309517D01*
X125736220Y-121320793D01*
X125667694Y-121307157D01*
X125617419Y-121258637D01*
X125604499Y-121225792D01*
X125603321Y-121220805D01*
X125600000Y-121192299D01*
X125600000Y-120901941D01*
X125526163Y-120910806D01*
X125382959Y-120967279D01*
X125382953Y-120967282D01*
X125260296Y-121060296D01*
X125167282Y-121182953D01*
X125167279Y-121182959D01*
X125110807Y-121326162D01*
X125110806Y-121326166D01*
X125100000Y-121416163D01*
X125100000Y-121900000D01*
X125610123Y-121900000D01*
X125610125Y-121900000D01*
X125613389Y-121898217D01*
X125681658Y-121883362D01*
X125747123Y-121907775D01*
X125788997Y-121963703D01*
X125791678Y-121970889D01*
X125799500Y-122014233D01*
X125799500Y-122158172D01*
X125794478Y-122193105D01*
X125790075Y-122208101D01*
X125752329Y-122266855D01*
X125750960Y-122268042D01*
X125696096Y-122295519D01*
X125688537Y-122297164D01*
X125662169Y-122300000D01*
X125100001Y-122300000D01*
X125100001Y-122657670D01*
X125094976Y-122692614D01*
X125090571Y-122707612D01*
X125052828Y-122766355D01*
X125051459Y-122767542D01*
X124996598Y-122795018D01*
X124989040Y-122796663D01*
X124962669Y-122799500D01*
X124723255Y-122799500D01*
X124613686Y-122813924D01*
X124613684Y-122813924D01*
X124613678Y-122813926D01*
X124477332Y-122870402D01*
X124420122Y-122914301D01*
X124360246Y-122960246D01*
X124270403Y-123077331D01*
X124270402Y-123077332D01*
X124270402Y-123077333D01*
X124215609Y-123209614D01*
X124214274Y-123212538D01*
X124213924Y-123213678D01*
X124199500Y-123323255D01*
X124199500Y-123676744D01*
X124213922Y-123786303D01*
X124213923Y-123786307D01*
X124213925Y-123786320D01*
X124215686Y-123792111D01*
X124215388Y-123792201D01*
X124222553Y-123820276D01*
X124225364Y-123846431D01*
X124216640Y-123907123D01*
X124213926Y-123913675D01*
X124213924Y-123913684D01*
X124199500Y-124023255D01*
X124199500Y-124376744D01*
X124213922Y-124486303D01*
X124213923Y-124486307D01*
X124213925Y-124486320D01*
X124215686Y-124492111D01*
X124215388Y-124492201D01*
X124222553Y-124520276D01*
X124225364Y-124546431D01*
X124216640Y-124607123D01*
X124213926Y-124613675D01*
X124213924Y-124613684D01*
X124199500Y-124723255D01*
X124199500Y-124857670D01*
X124194475Y-124892614D01*
X124190070Y-124907612D01*
X124152327Y-124966355D01*
X124150958Y-124967542D01*
X124096097Y-124995018D01*
X124088539Y-124996663D01*
X124062168Y-124999500D01*
X124017928Y-124999500D01*
X123982992Y-124994477D01*
X123957750Y-124987065D01*
X123905005Y-124955769D01*
X123515106Y-124565870D01*
X123499687Y-124547083D01*
X123499251Y-124546431D01*
X123486374Y-124527158D01*
X123474920Y-124505732D01*
X123452434Y-124451443D01*
X123452427Y-124451430D01*
X123354572Y-124304981D01*
X123354569Y-124304977D01*
X123354564Y-124304971D01*
X123230028Y-124180435D01*
X123230022Y-124180430D01*
X123230021Y-124180429D01*
X123083564Y-124082569D01*
X123083565Y-124082569D01*
X123083555Y-124082564D01*
X122920831Y-124015163D01*
X122920804Y-124015157D01*
X122759809Y-123983133D01*
X122697898Y-123950748D01*
X122663324Y-123890032D01*
X122660001Y-123861516D01*
X122660001Y-123605000D01*
X122403484Y-123605000D01*
X122336445Y-123585315D01*
X122290690Y-123532511D01*
X122281866Y-123505190D01*
X122274171Y-123466502D01*
X122274171Y-123466501D01*
X122251935Y-123354715D01*
X122249838Y-123344171D01*
X122182527Y-123181668D01*
X122182434Y-123181444D01*
X122182431Y-123181438D01*
X122182431Y-123181437D01*
X122182428Y-123181432D01*
X122182427Y-123181430D01*
X122084572Y-123034981D01*
X122084569Y-123034977D01*
X122084564Y-123034971D01*
X121960024Y-122910431D01*
X121960021Y-122910429D01*
X121875589Y-122854013D01*
X122262569Y-122854013D01*
X122262569Y-122854015D01*
X123445934Y-124037380D01*
X123445934Y-124037379D01*
X123445935Y-124037380D01*
X123451986Y-124028326D01*
X123451986Y-124028325D01*
X123451986Y-124028324D01*
X123452667Y-124027306D01*
X123454312Y-124022708D01*
X123519355Y-123865683D01*
X123519357Y-123865677D01*
X123536630Y-123778842D01*
X123553701Y-123693026D01*
X123553701Y-123516972D01*
X123521424Y-123354715D01*
X123519357Y-123344322D01*
X123519355Y-123344316D01*
X123494731Y-123284869D01*
X123490492Y-123274633D01*
X123451988Y-123181676D01*
X123451983Y-123181668D01*
X123427161Y-123144519D01*
X123411929Y-123112682D01*
X123407257Y-123097761D01*
X123406003Y-123027932D01*
X123406481Y-123026188D01*
X123436830Y-122972870D01*
X123442213Y-122967291D01*
X123462548Y-122950297D01*
X123516421Y-122914301D01*
X123620299Y-122810423D01*
X123620302Y-122810420D01*
X123701921Y-122688269D01*
X123758141Y-122552542D01*
X123786801Y-122408455D01*
X123786801Y-122261545D01*
X123758141Y-122117458D01*
X123701921Y-121981731D01*
X123701920Y-121981730D01*
X123701919Y-121981727D01*
X123620300Y-121859577D01*
X123620299Y-121859576D01*
X123620294Y-121859570D01*
X123516426Y-121755702D01*
X123394283Y-121674087D01*
X123394256Y-121674072D01*
X123349212Y-121655415D01*
X123333695Y-121642910D01*
X123258545Y-121617861D01*
X123258546Y-121617861D01*
X123258543Y-121617860D01*
X123258539Y-121617859D01*
X123258535Y-121617858D01*
X123258533Y-121617857D01*
X123258509Y-121617852D01*
X123114463Y-121589200D01*
X123114460Y-121589200D01*
X123114456Y-121589200D01*
X122967546Y-121589200D01*
X122967541Y-121589200D01*
X122967536Y-121589200D01*
X122823472Y-121617856D01*
X122823466Y-121617858D01*
X122823456Y-121617861D01*
X122823451Y-121617862D01*
X122823433Y-121617869D01*
X122687744Y-121674072D01*
X122687717Y-121674087D01*
X122565574Y-121755702D01*
X122461703Y-121859573D01*
X122380088Y-121981716D01*
X122380073Y-121981743D01*
X122323870Y-122117432D01*
X122323857Y-122117471D01*
X122295201Y-122261535D01*
X122295201Y-122408463D01*
X122323855Y-122552520D01*
X122323863Y-122552549D01*
X122348908Y-122613013D01*
X122357635Y-122647208D01*
X122359668Y-122666115D01*
X122349932Y-122729188D01*
X122345885Y-122738413D01*
X122331165Y-122763483D01*
X122262569Y-122854013D01*
X121875589Y-122854013D01*
X121813567Y-122812571D01*
X121813565Y-122812570D01*
X121806853Y-122809790D01*
X121778037Y-122797853D01*
X121747687Y-122779845D01*
X121735513Y-122770035D01*
X121695673Y-122712658D01*
X121695100Y-122710937D01*
X121690718Y-122649764D01*
X121692094Y-122642134D01*
X121699559Y-122616713D01*
X121726141Y-122552542D01*
X121754801Y-122408455D01*
X121754801Y-122261545D01*
X121726141Y-122117458D01*
X121669921Y-121981731D01*
X121669920Y-121981730D01*
X121669919Y-121981727D01*
X121588300Y-121859577D01*
X121588299Y-121859576D01*
X121588294Y-121859570D01*
X121484426Y-121755702D01*
X121362283Y-121674087D01*
X121362256Y-121674072D01*
X121317212Y-121655415D01*
X121301695Y-121642910D01*
X121226545Y-121617861D01*
X121226546Y-121617861D01*
X121226543Y-121617860D01*
X121226539Y-121617859D01*
X121226535Y-121617858D01*
X121226533Y-121617857D01*
X121226509Y-121617852D01*
X121082463Y-121589200D01*
X121082460Y-121589200D01*
X121082456Y-121589200D01*
X120935546Y-121589200D01*
X120935541Y-121589200D01*
X120935536Y-121589200D01*
X120791472Y-121617856D01*
X120791466Y-121617858D01*
X120791456Y-121617861D01*
X120791451Y-121617862D01*
X120791433Y-121617869D01*
X120655744Y-121674072D01*
X120655717Y-121674087D01*
X120533574Y-121755702D01*
X120429703Y-121859573D01*
X120348088Y-121981716D01*
X120348073Y-121981743D01*
X120291870Y-122117432D01*
X120291857Y-122117471D01*
X120263201Y-122261535D01*
X120263201Y-122408462D01*
X120291853Y-122552508D01*
X120291861Y-122552542D01*
X120291862Y-122552545D01*
X120302245Y-122577612D01*
X120348073Y-122688255D01*
X120348088Y-122688282D01*
X120396175Y-122760248D01*
X120420507Y-122796663D01*
X120429702Y-122810423D01*
X120429706Y-122810428D01*
X120533572Y-122914294D01*
X120533576Y-122914297D01*
X120533578Y-122914299D01*
X120533581Y-122914301D01*
X120533582Y-122914302D01*
X120533585Y-122914304D01*
X120533584Y-122914304D01*
X120533647Y-122914356D01*
X120533684Y-122914370D01*
X120583294Y-122947518D01*
X120609546Y-122971098D01*
X120619572Y-122983094D01*
X120647460Y-123047157D01*
X120647464Y-123047192D01*
X120647689Y-123048987D01*
X120640043Y-123109806D01*
X120637210Y-123117007D01*
X120624923Y-123140499D01*
X120597569Y-123181438D01*
X120597564Y-123181448D01*
X120530164Y-123344168D01*
X120530156Y-123344203D01*
X120495801Y-123516920D01*
X120495801Y-123693078D01*
X120530156Y-123865795D01*
X120530164Y-123865830D01*
X120597565Y-124028554D01*
X120597570Y-124028564D01*
X120638421Y-124089701D01*
X120682912Y-124156285D01*
X120698145Y-124188126D01*
X120702816Y-124203046D01*
X120704064Y-124272893D01*
X120700463Y-124286022D01*
X120683981Y-124322114D01*
X120597585Y-124451413D01*
X120597570Y-124451437D01*
X120597563Y-124451449D01*
X120530164Y-124614168D01*
X120530156Y-124614203D01*
X120495801Y-124786920D01*
X120495801Y-124850772D01*
X120490777Y-124885709D01*
X120483365Y-124910950D01*
X120452070Y-124963694D01*
X120115785Y-125299977D01*
X120115777Y-125299989D01*
X120107871Y-125313684D01*
X120102456Y-125323064D01*
X120083718Y-125355520D01*
X120036725Y-125436914D01*
X119995801Y-125589642D01*
X119995801Y-125589644D01*
X119995801Y-125760099D01*
X119995802Y-125760150D01*
X119995802Y-128209632D01*
X119995801Y-128209650D01*
X119995801Y-128272464D01*
X119995801Y-128333263D01*
X119989903Y-128353348D01*
X119995800Y-128375356D01*
X120029172Y-128499901D01*
X120036727Y-128528094D01*
X120044882Y-128542218D01*
X120044885Y-128542223D01*
X120052155Y-128554814D01*
X120052158Y-128554818D01*
X120054503Y-128558879D01*
X120054503Y-128558881D01*
X120055269Y-128560206D01*
X120055291Y-128560244D01*
X120115779Y-128665014D01*
X120115783Y-128665019D01*
X120157197Y-128706433D01*
X120181929Y-128741776D01*
X120184463Y-128747218D01*
X120186761Y-128753735D01*
X120191755Y-128762880D01*
X120193437Y-128766493D01*
X120194158Y-128771259D01*
X120202641Y-128794639D01*
X120230259Y-128933485D01*
X120230260Y-128933490D01*
X120230261Y-128933491D01*
X120230264Y-128933501D01*
X120230267Y-128933509D01*
X120230272Y-128933523D01*
X120290598Y-129079165D01*
X120290603Y-129079174D01*
X120290613Y-129079191D01*
X120378211Y-129210290D01*
X120378212Y-129210291D01*
X120378217Y-129210297D01*
X120489701Y-129321781D01*
X120489707Y-129321786D01*
X120489711Y-129321789D01*
X120620814Y-129409390D01*
X120620827Y-129409397D01*
X120718853Y-129450000D01*
X120766503Y-129469737D01*
X120849567Y-129486259D01*
X120889932Y-129494288D01*
X120923207Y-129506027D01*
X120930456Y-129509818D01*
X120935277Y-129512340D01*
X120985558Y-129560853D01*
X121001630Y-129628849D01*
X120982716Y-129688325D01*
X120978312Y-129695314D01*
X120961085Y-129716888D01*
X120855481Y-129822492D01*
X120716657Y-130013565D01*
X120716656Y-130013567D01*
X120609433Y-130224003D01*
X120536446Y-130448631D01*
X120536445Y-130448634D01*
X120536445Y-130448636D01*
X120499500Y-130681896D01*
X120499500Y-130918102D01*
X120518768Y-131039753D01*
X120536446Y-131151368D01*
X120609433Y-131375996D01*
X120679785Y-131514068D01*
X120716657Y-131586433D01*
X120855483Y-131777510D01*
X121022490Y-131944517D01*
X121213567Y-132083343D01*
X121312991Y-132134002D01*
X121424003Y-132190566D01*
X121424005Y-132190566D01*
X121424008Y-132190568D01*
X121424009Y-132190568D01*
X121424880Y-132191012D01*
X121428627Y-132192069D01*
X121493628Y-132213189D01*
X121521367Y-132222202D01*
X121648631Y-132263553D01*
X121881903Y-132300500D01*
X121881908Y-132300500D01*
X122118096Y-132300500D01*
X122118097Y-132300500D01*
X122351368Y-132263553D01*
X122370117Y-132257461D01*
X122575992Y-132190568D01*
X122786433Y-132083343D01*
X122977510Y-131944517D01*
X123144517Y-131777510D01*
X123283343Y-131586433D01*
X123287061Y-131579134D01*
X123307395Y-131550285D01*
X123316928Y-131540191D01*
X123377270Y-131504971D01*
X123447024Y-131507947D01*
X123449409Y-131508760D01*
X123506529Y-131548992D01*
X123516838Y-131564140D01*
X123519480Y-131568715D01*
X123519482Y-131568717D01*
X123638349Y-131687584D01*
X123638355Y-131687589D01*
X124163955Y-132213189D01*
X124185107Y-132241444D01*
X124196192Y-132261745D01*
X124211250Y-132315984D01*
X124211373Y-132318922D01*
X124210421Y-132340293D01*
X124199500Y-132423253D01*
X124199500Y-132776744D01*
X124213921Y-132886301D01*
X124213922Y-132886304D01*
X124213926Y-132886320D01*
X124223859Y-132910301D01*
X124232587Y-132944499D01*
X124235722Y-132973664D01*
X124231508Y-133021512D01*
X124202267Y-133122157D01*
X124202266Y-133122163D01*
X124199500Y-133157315D01*
X124199500Y-133776000D01*
X124179815Y-133843039D01*
X124127011Y-133888794D01*
X124075500Y-133900000D01*
X119824500Y-133900000D01*
X119757461Y-133880315D01*
X119711706Y-133827511D01*
X119700500Y-133776000D01*
X119700500Y-118752124D01*
X121599500Y-118752124D01*
X121599500Y-119847872D01*
X121599659Y-119849806D01*
X121599885Y-119851454D01*
X121605907Y-119907482D01*
X121628917Y-119969173D01*
X121656202Y-120042328D01*
X121656206Y-120042335D01*
X121699086Y-120099616D01*
X121742450Y-120157542D01*
X121742452Y-120157544D01*
X121742455Y-120157547D01*
X121857664Y-120243793D01*
X121857671Y-120243797D01*
X121992517Y-120294091D01*
X121992516Y-120294091D01*
X121999444Y-120294835D01*
X122052127Y-120300500D01*
X123647872Y-120300499D01*
X123707483Y-120294091D01*
X123842331Y-120243796D01*
X123957546Y-120157546D01*
X124043796Y-120042331D01*
X124094091Y-119907483D01*
X124100500Y-119847873D01*
X124100499Y-118752146D01*
X126500000Y-118752146D01*
X126500000Y-118752155D01*
X126500000Y-119050000D01*
X127500000Y-119050000D01*
X127500000Y-118300000D01*
X126952146Y-118300000D01*
X126892628Y-118306400D01*
X126892621Y-118306402D01*
X126757910Y-118356646D01*
X126757907Y-118356648D01*
X126642813Y-118442807D01*
X126642807Y-118442813D01*
X126556648Y-118557907D01*
X126556646Y-118557910D01*
X126506402Y-118692621D01*
X126506400Y-118692628D01*
X126500000Y-118752146D01*
X124100499Y-118752146D01*
X124100499Y-118752128D01*
X124095299Y-118703757D01*
X124094091Y-118692516D01*
X124043797Y-118557671D01*
X124043793Y-118557664D01*
X123957815Y-118442813D01*
X123957548Y-118442456D01*
X123957542Y-118442450D01*
X123899616Y-118399086D01*
X123842335Y-118356206D01*
X123842332Y-118356204D01*
X123842330Y-118356203D01*
X123842328Y-118356202D01*
X123707482Y-118305908D01*
X123707483Y-118305908D01*
X123647883Y-118299501D01*
X123647881Y-118299500D01*
X123647873Y-118299500D01*
X123647864Y-118299500D01*
X123646841Y-118299500D01*
X122052123Y-118299500D01*
X122050192Y-118299659D01*
X122048545Y-118299885D01*
X121992516Y-118305908D01*
X121866707Y-118352832D01*
X121857666Y-118356204D01*
X121857665Y-118356205D01*
X121742456Y-118442450D01*
X121742450Y-118442456D01*
X121656205Y-118557665D01*
X121656203Y-118557668D01*
X121605907Y-118692516D01*
X121600289Y-118744782D01*
X121599910Y-118748312D01*
X121599909Y-118748322D01*
X121599908Y-118748321D01*
X121599500Y-118752124D01*
X119700500Y-118752124D01*
X119700500Y-110718912D01*
X119712007Y-110679723D01*
X119719702Y-110648381D01*
X119770402Y-110600305D01*
X119839045Y-110587271D01*
X119903838Y-110613418D01*
X119928123Y-110639029D01*
X119931204Y-110643381D01*
X119945353Y-110669538D01*
X119966078Y-110722094D01*
X119966079Y-110722095D01*
X119966081Y-110722099D01*
X120012740Y-110783627D01*
X120057435Y-110842564D01*
X120177903Y-110933919D01*
X120177904Y-110933920D01*
X120318556Y-110989386D01*
X120406946Y-111000000D01*
X120750000Y-111000000D01*
X120750000Y-110141829D01*
X120755023Y-110106893D01*
X120759427Y-110091895D01*
X120797172Y-110033144D01*
X120798541Y-110031957D01*
X120853420Y-110004477D01*
X120860979Y-110002833D01*
X120887332Y-110000000D01*
X121108170Y-110000000D01*
X121143106Y-110005023D01*
G37*
%TD.AperFunction*%
%TA.AperFunction,Conductor*%
G36*
X139143106Y-110005023D02*
G01*
X139158104Y-110009427D01*
X139216855Y-110047172D01*
X139218042Y-110048541D01*
X139245518Y-110103402D01*
X139247163Y-110110960D01*
X139250000Y-110137331D01*
X139250000Y-111000000D01*
X139593049Y-111000000D01*
X139593054Y-111000000D01*
X139681443Y-110989386D01*
X139822095Y-110933920D01*
X139942564Y-110842564D01*
X140033921Y-110722094D01*
X140053606Y-110672175D01*
X140078681Y-110639948D01*
X140097314Y-110613632D01*
X140162108Y-110587489D01*
X140230751Y-110600526D01*
X140281448Y-110648605D01*
X140294654Y-110681335D01*
X140295925Y-110686513D01*
X140299500Y-110716073D01*
X140299500Y-133776000D01*
X140279815Y-133843039D01*
X140227011Y-133888794D01*
X140175500Y-133900000D01*
X135924000Y-133900000D01*
X135856961Y-133880315D01*
X135811206Y-133827511D01*
X135800000Y-133776000D01*
X135800000Y-133750000D01*
X134850000Y-133750000D01*
X134850000Y-133776000D01*
X134830315Y-133843039D01*
X134777511Y-133888794D01*
X134726000Y-133900000D01*
X134474000Y-133900000D01*
X134406961Y-133880315D01*
X134361206Y-133827511D01*
X134350000Y-133776000D01*
X134350000Y-133750000D01*
X133400001Y-133750000D01*
X133400001Y-133776000D01*
X133380316Y-133843039D01*
X133327512Y-133888794D01*
X133276001Y-133900000D01*
X130624000Y-133900000D01*
X130556961Y-133880315D01*
X130511206Y-133827511D01*
X130500000Y-133776000D01*
X130500000Y-133157371D01*
X133400000Y-133157371D01*
X133400000Y-133157374D01*
X133400000Y-133157379D01*
X133400000Y-133250000D01*
X134350000Y-133250000D01*
X134850000Y-133250000D01*
X135799999Y-133250000D01*
X135799999Y-133157396D01*
X135799998Y-133157374D01*
X135797234Y-133122243D01*
X135753530Y-132971810D01*
X135673792Y-132836980D01*
X135673785Y-132836971D01*
X135563028Y-132726214D01*
X135563019Y-132726207D01*
X135428189Y-132646469D01*
X135277753Y-132602764D01*
X135277754Y-132602764D01*
X135242627Y-132600000D01*
X135242620Y-132600000D01*
X134850000Y-132600000D01*
X134850000Y-133250000D01*
X134350000Y-133250000D01*
X134350000Y-132600000D01*
X133957381Y-132600000D01*
X133922247Y-132602764D01*
X133922246Y-132602764D01*
X133771809Y-132646469D01*
X133771808Y-132646469D01*
X133636982Y-132726205D01*
X133636970Y-132726214D01*
X133526214Y-132836970D01*
X133526205Y-132836982D01*
X133446469Y-132971808D01*
X133446469Y-132971809D01*
X133402764Y-133122244D01*
X133400000Y-133157371D01*
X130500000Y-133157371D01*
X130500000Y-130800000D01*
X126948594Y-130800000D01*
X126881555Y-130780315D01*
X126835800Y-130727511D01*
X126825856Y-130658353D01*
X126854881Y-130594797D01*
X126860913Y-130588319D01*
X127472491Y-129976741D01*
X128151273Y-129297959D01*
X128151277Y-129297957D01*
X128168715Y-129280519D01*
X128168716Y-129280519D01*
X128280520Y-129168715D01*
X128359577Y-129031783D01*
X128400500Y-128879056D01*
X128400500Y-126697594D01*
X128405521Y-126662664D01*
X128414864Y-126630845D01*
X128430740Y-126596892D01*
X128437805Y-126586320D01*
X128509394Y-126479179D01*
X128510404Y-126476742D01*
X128568060Y-126337544D01*
X128569222Y-126334997D01*
X128569730Y-126333510D01*
X128569735Y-126333501D01*
X128569737Y-126333497D01*
X128600499Y-126178848D01*
X128600500Y-126178844D01*
X128600500Y-126020974D01*
X128600068Y-126018990D01*
X128599014Y-126013684D01*
X128599009Y-126013660D01*
X128599009Y-126013659D01*
X128573679Y-125886319D01*
X128569737Y-125866503D01*
X128532557Y-125776741D01*
X128509397Y-125720827D01*
X128509390Y-125720814D01*
X128421789Y-125589711D01*
X128421786Y-125589707D01*
X128421781Y-125589701D01*
X128310297Y-125478217D01*
X128310291Y-125478212D01*
X128310290Y-125478211D01*
X128179191Y-125390613D01*
X128179190Y-125390612D01*
X128179185Y-125390609D01*
X128179172Y-125390602D01*
X128179165Y-125390598D01*
X128033502Y-125330264D01*
X128033471Y-125330257D01*
X127878847Y-125299500D01*
X127878845Y-125299500D01*
X127878842Y-125299500D01*
X127721158Y-125299500D01*
X127721155Y-125299500D01*
X127721153Y-125299500D01*
X127566527Y-125330257D01*
X127566496Y-125330264D01*
X127420833Y-125390598D01*
X127420824Y-125390603D01*
X127420807Y-125390613D01*
X127289708Y-125478211D01*
X127289707Y-125478212D01*
X127289701Y-125478217D01*
X127178217Y-125589701D01*
X127178212Y-125589707D01*
X127178211Y-125589708D01*
X127090613Y-125720807D01*
X127090603Y-125720824D01*
X127090598Y-125720833D01*
X127030264Y-125866496D01*
X127030257Y-125866527D01*
X126999500Y-126021150D01*
X126999500Y-126021153D01*
X126999500Y-126178846D01*
X126999500Y-126178848D01*
X126999499Y-126178848D01*
X127030257Y-126333471D01*
X127030264Y-126333502D01*
X127090598Y-126479165D01*
X127090602Y-126479172D01*
X127090609Y-126479185D01*
X127168697Y-126596050D01*
X127183928Y-126627886D01*
X127193834Y-126659522D01*
X127199500Y-126696575D01*
X127199500Y-128482071D01*
X127194476Y-128517008D01*
X127187064Y-128542249D01*
X127155769Y-128594993D01*
X126817315Y-128933447D01*
X126789062Y-128954598D01*
X126776913Y-128961232D01*
X126708640Y-128976084D01*
X126643175Y-128951668D01*
X126604578Y-128903663D01*
X126602825Y-128899802D01*
X126592793Y-128864722D01*
X126586074Y-128813680D01*
X126583611Y-128807735D01*
X126581042Y-128795226D01*
X126581023Y-128795199D01*
X126580953Y-128794794D01*
X126574182Y-128761828D01*
X126574113Y-128756375D01*
X126574453Y-128751890D01*
X126574006Y-128747734D01*
X126573933Y-128741864D01*
X126578839Y-128724350D01*
X126583365Y-128692858D01*
X126586074Y-128686320D01*
X126600500Y-128576741D01*
X126600499Y-128223260D01*
X126600499Y-128223257D01*
X126586075Y-128113683D01*
X126586074Y-128113681D01*
X126580455Y-128100116D01*
X126578029Y-128084079D01*
X126578304Y-128082055D01*
X126577345Y-128078788D01*
X126574634Y-128053572D01*
X126583351Y-127992891D01*
X126583674Y-127992111D01*
X126583690Y-127992092D01*
X126583684Y-127992090D01*
X126586073Y-127986322D01*
X126586074Y-127986320D01*
X126600500Y-127876741D01*
X126600499Y-127523260D01*
X126600499Y-127523257D01*
X126586075Y-127413683D01*
X126586074Y-127413681D01*
X126580455Y-127400116D01*
X126578029Y-127384079D01*
X126578304Y-127382056D01*
X126577345Y-127378790D01*
X126574634Y-127353573D01*
X126583365Y-127292858D01*
X126586074Y-127286320D01*
X126600500Y-127176741D01*
X126600499Y-126823260D01*
X126600498Y-126823255D01*
X126599078Y-126812465D01*
X126596083Y-126789711D01*
X126586075Y-126713683D01*
X126586074Y-126713681D01*
X126580935Y-126701275D01*
X126578393Y-126686342D01*
X126578727Y-126683496D01*
X126577345Y-126678790D01*
X126574634Y-126653573D01*
X126583365Y-126592858D01*
X126586074Y-126586320D01*
X126600500Y-126476741D01*
X126600499Y-126123260D01*
X126600499Y-126123257D01*
X126586075Y-126013683D01*
X126586074Y-126013681D01*
X126580455Y-126000116D01*
X126578029Y-125984079D01*
X126578304Y-125982056D01*
X126577345Y-125978790D01*
X126574634Y-125953573D01*
X126583365Y-125892858D01*
X126586074Y-125886320D01*
X126600500Y-125776741D01*
X126600499Y-125423260D01*
X126600499Y-125423257D01*
X126586075Y-125313683D01*
X126586074Y-125313681D01*
X126584298Y-125309394D01*
X126580454Y-125300115D01*
X126578028Y-125284078D01*
X126578303Y-125282054D01*
X126577345Y-125278788D01*
X126574633Y-125253568D01*
X126583365Y-125192859D01*
X126586074Y-125186320D01*
X126600500Y-125076741D01*
X126600499Y-124723260D01*
X126600499Y-124723257D01*
X126586075Y-124613683D01*
X126586074Y-124613681D01*
X126580455Y-124600116D01*
X126578029Y-124584079D01*
X126578304Y-124582056D01*
X126577345Y-124578790D01*
X126574634Y-124553573D01*
X126583365Y-124492858D01*
X126586074Y-124486320D01*
X126600500Y-124376741D01*
X126600499Y-124023260D01*
X126600499Y-124023257D01*
X126586075Y-123913683D01*
X126586074Y-123913681D01*
X126580455Y-123900116D01*
X126578029Y-123884079D01*
X126578304Y-123882056D01*
X126577345Y-123878790D01*
X126574634Y-123853573D01*
X126583366Y-123792856D01*
X126586074Y-123786320D01*
X126600500Y-123676741D01*
X126600499Y-123437107D01*
X126605522Y-123402172D01*
X126609925Y-123387177D01*
X126647693Y-123328405D01*
X126652334Y-123324383D01*
X126715888Y-123295353D01*
X126717132Y-123295181D01*
X126786320Y-123286074D01*
X126792469Y-123283526D01*
X126804674Y-123281046D01*
X126805196Y-123280686D01*
X126812051Y-123279547D01*
X126838920Y-123274087D01*
X126844756Y-123274039D01*
X126848748Y-123274384D01*
X126852544Y-123273975D01*
X126858668Y-123273926D01*
X126876195Y-123278917D01*
X126907135Y-123283362D01*
X126913680Y-123286074D01*
X127023259Y-123300500D01*
X127157671Y-123300499D01*
X127192605Y-123305521D01*
X127195893Y-123306487D01*
X127207602Y-123309925D01*
X127266338Y-123347651D01*
X127267738Y-123349265D01*
X127295100Y-123403558D01*
X127296534Y-123409998D01*
X127299499Y-123436946D01*
X127299499Y-123583139D01*
X127300085Y-123592709D01*
X127299995Y-123603378D01*
X127299472Y-123605229D01*
X127299153Y-123615002D01*
X127299897Y-123615075D01*
X127299879Y-123617306D01*
X127299500Y-123621157D01*
X127299500Y-123778846D01*
X127299500Y-123778848D01*
X127299499Y-123778848D01*
X127330257Y-123933471D01*
X127330264Y-123933502D01*
X127390598Y-124079165D01*
X127390603Y-124079174D01*
X127390613Y-124079191D01*
X127478211Y-124210290D01*
X127478212Y-124210291D01*
X127478217Y-124210297D01*
X127589701Y-124321781D01*
X127589707Y-124321786D01*
X127589711Y-124321789D01*
X127720814Y-124409390D01*
X127720827Y-124409397D01*
X127822327Y-124451439D01*
X127866503Y-124469737D01*
X127866505Y-124469737D01*
X127866510Y-124469739D01*
X127949785Y-124486303D01*
X128021153Y-124500499D01*
X128021156Y-124500500D01*
X128021158Y-124500500D01*
X128178844Y-124500500D01*
X128178845Y-124500499D01*
X128333497Y-124469737D01*
X128479179Y-124409394D01*
X128610289Y-124321789D01*
X128721789Y-124210289D01*
X128809394Y-124079179D01*
X128869737Y-123933497D01*
X128900500Y-123778842D01*
X128900500Y-123621158D01*
X128900500Y-123621157D01*
X128900500Y-123621155D01*
X128900500Y-123621029D01*
X128900330Y-123620266D01*
X128900188Y-123619591D01*
X128898373Y-123610464D01*
X128869737Y-123466503D01*
X128866325Y-123458268D01*
X128863952Y-123446959D01*
X128864231Y-123443415D01*
X128862017Y-123434740D01*
X128860873Y-123424102D01*
X128860684Y-123422339D01*
X128873091Y-123353580D01*
X128920702Y-123302444D01*
X128984711Y-123285088D01*
X128999468Y-123285176D01*
X129014899Y-123286234D01*
X129123259Y-123300500D01*
X129476740Y-123300499D01*
X129476742Y-123300499D01*
X129578829Y-123287060D01*
X129579364Y-123286995D01*
X129579657Y-123287043D01*
X129582325Y-123286868D01*
X129582329Y-123286868D01*
X129590349Y-123285543D01*
X129595019Y-123284928D01*
X129621087Y-123277358D01*
X129646425Y-123274634D01*
X129707133Y-123283362D01*
X129707925Y-123283690D01*
X129713680Y-123286074D01*
X129823259Y-123300500D01*
X130176740Y-123300499D01*
X130176742Y-123300499D01*
X130278829Y-123287060D01*
X130279364Y-123286995D01*
X130279657Y-123287043D01*
X130282325Y-123286868D01*
X130282329Y-123286868D01*
X130290349Y-123285543D01*
X130295019Y-123284928D01*
X130321087Y-123277358D01*
X130346425Y-123274634D01*
X130407133Y-123283362D01*
X130407925Y-123283690D01*
X130413680Y-123286074D01*
X130523259Y-123300500D01*
X130876740Y-123300499D01*
X130876742Y-123300499D01*
X130978829Y-123287060D01*
X130979364Y-123286995D01*
X130979657Y-123287043D01*
X130982325Y-123286868D01*
X130982329Y-123286868D01*
X130990349Y-123285543D01*
X130995019Y-123284928D01*
X131021087Y-123277358D01*
X131046425Y-123274634D01*
X131107133Y-123283362D01*
X131107925Y-123283690D01*
X131113680Y-123286074D01*
X131223259Y-123300500D01*
X131576740Y-123300499D01*
X131576742Y-123300499D01*
X131678829Y-123287060D01*
X131679364Y-123286995D01*
X131679657Y-123287043D01*
X131682325Y-123286868D01*
X131682329Y-123286868D01*
X131690349Y-123285543D01*
X131695019Y-123284928D01*
X131721087Y-123277358D01*
X131746425Y-123274634D01*
X131807133Y-123283362D01*
X131807925Y-123283690D01*
X131813680Y-123286074D01*
X131923259Y-123300500D01*
X132276740Y-123300499D01*
X132276742Y-123300499D01*
X132378829Y-123287060D01*
X132379364Y-123286995D01*
X132379657Y-123287043D01*
X132382325Y-123286868D01*
X132382329Y-123286868D01*
X132390349Y-123285543D01*
X132395019Y-123284928D01*
X132421087Y-123277358D01*
X132446425Y-123274634D01*
X132507133Y-123283362D01*
X132507925Y-123283690D01*
X132513680Y-123286074D01*
X132623259Y-123300500D01*
X132976740Y-123300499D01*
X132976742Y-123300499D01*
X133086316Y-123286075D01*
X133086317Y-123286074D01*
X133086320Y-123286074D01*
X133086321Y-123286073D01*
X133090342Y-123285544D01*
X133090349Y-123285543D01*
X133095017Y-123284928D01*
X133121083Y-123277358D01*
X133146430Y-123274633D01*
X133207142Y-123283364D01*
X133213681Y-123286074D01*
X133323260Y-123300500D01*
X133676741Y-123300499D01*
X133681310Y-123299897D01*
X133721991Y-123306236D01*
X133755855Y-123311171D01*
X133769758Y-123323264D01*
X133778506Y-123328946D01*
X133782418Y-123332321D01*
X133781454Y-123333438D01*
X133808572Y-123357026D01*
X133828130Y-123424102D01*
X133808319Y-123491105D01*
X133785155Y-123517734D01*
X133782443Y-123520075D01*
X133748873Y-123540769D01*
X133731236Y-123548074D01*
X133677329Y-123570404D01*
X133670293Y-123574467D01*
X133669831Y-123573666D01*
X133661375Y-123577451D01*
X133639630Y-123588395D01*
X133632026Y-123590566D01*
X133628079Y-123591167D01*
X133622862Y-123593184D01*
X133617442Y-123594732D01*
X133609269Y-123594671D01*
X133583389Y-123599500D01*
X133120934Y-123599500D01*
X133039367Y-123621355D01*
X133039361Y-123621359D01*
X132968217Y-123640422D01*
X132968215Y-123640422D01*
X132968214Y-123640423D01*
X132968212Y-123640423D01*
X132968143Y-123640453D01*
X132967334Y-123640930D01*
X132831298Y-123719470D01*
X132831294Y-123719472D01*
X132831290Y-123719475D01*
X132831282Y-123719481D01*
X132831278Y-123719484D01*
X132831276Y-123719485D01*
X132797944Y-123752818D01*
X132769689Y-123773969D01*
X132740592Y-123789857D01*
X132705357Y-123802642D01*
X132566514Y-123830259D01*
X132566508Y-123830261D01*
X132566498Y-123830264D01*
X132566493Y-123830265D01*
X132566475Y-123830272D01*
X132420833Y-123890598D01*
X132420824Y-123890603D01*
X132420807Y-123890613D01*
X132289708Y-123978211D01*
X132289707Y-123978212D01*
X132289701Y-123978217D01*
X132178217Y-124089701D01*
X132178212Y-124089707D01*
X132178211Y-124089708D01*
X132090613Y-124220807D01*
X132090603Y-124220824D01*
X132090598Y-124220833D01*
X132030264Y-124366496D01*
X132030257Y-124366527D01*
X131999500Y-124521150D01*
X131999500Y-124521153D01*
X131999500Y-124678846D01*
X131999500Y-124678848D01*
X131999499Y-124678848D01*
X132030257Y-124833471D01*
X132030264Y-124833502D01*
X132090598Y-124979165D01*
X132090603Y-124979174D01*
X132090613Y-124979191D01*
X132178211Y-125110290D01*
X132178212Y-125110291D01*
X132178217Y-125110297D01*
X132289701Y-125221781D01*
X132289707Y-125221786D01*
X132289711Y-125221789D01*
X132420814Y-125309390D01*
X132420827Y-125309397D01*
X132532182Y-125355521D01*
X132566503Y-125369737D01*
X132566505Y-125369737D01*
X132566510Y-125369739D01*
X132650279Y-125386401D01*
X132721153Y-125400499D01*
X132721156Y-125400500D01*
X132721158Y-125400500D01*
X132878844Y-125400500D01*
X132878845Y-125400499D01*
X133033497Y-125369737D01*
X133113166Y-125336736D01*
X133146167Y-125323067D01*
X133146169Y-125323065D01*
X133172624Y-125312108D01*
X133177534Y-125310397D01*
X133183990Y-125307400D01*
X133202944Y-125299550D01*
X133217611Y-125287292D01*
X133230040Y-125282655D01*
X133237430Y-125280340D01*
X133307285Y-125279085D01*
X133366733Y-125315797D01*
X133396895Y-125378821D01*
X133396897Y-125378835D01*
X133398647Y-125389634D01*
X133399096Y-125419162D01*
X133399765Y-125419206D01*
X133399500Y-125423248D01*
X133399500Y-125776741D01*
X133413922Y-125886303D01*
X133413923Y-125886307D01*
X133413925Y-125886320D01*
X133415686Y-125892111D01*
X133415388Y-125892201D01*
X133422553Y-125920276D01*
X133425364Y-125946431D01*
X133416640Y-126007123D01*
X133413933Y-126013660D01*
X133413927Y-126013673D01*
X133413924Y-126013684D01*
X133399500Y-126123255D01*
X133399500Y-126476744D01*
X133413922Y-126586303D01*
X133413923Y-126586307D01*
X133413925Y-126586320D01*
X133415686Y-126592111D01*
X133415388Y-126592201D01*
X133422553Y-126620276D01*
X133425364Y-126646431D01*
X133416640Y-126707123D01*
X133413926Y-126713675D01*
X133413924Y-126713684D01*
X133399500Y-126823255D01*
X133399500Y-127176744D01*
X133413922Y-127286303D01*
X133413923Y-127286307D01*
X133413925Y-127286320D01*
X133415686Y-127292111D01*
X133415388Y-127292201D01*
X133422553Y-127320276D01*
X133425364Y-127346431D01*
X133416640Y-127407123D01*
X133413926Y-127413675D01*
X133413924Y-127413684D01*
X133399500Y-127523255D01*
X133399500Y-127876744D01*
X133413922Y-127986303D01*
X133413923Y-127986307D01*
X133413925Y-127986320D01*
X133415686Y-127992111D01*
X133415388Y-127992201D01*
X133422553Y-128020276D01*
X133425364Y-128046431D01*
X133416640Y-128107123D01*
X133413926Y-128113675D01*
X133413924Y-128113684D01*
X133399500Y-128223255D01*
X133399500Y-128576744D01*
X133413922Y-128686303D01*
X133413923Y-128686307D01*
X133413925Y-128686320D01*
X133415686Y-128692111D01*
X133415388Y-128692201D01*
X133422553Y-128720276D01*
X133425364Y-128746431D01*
X133416640Y-128807123D01*
X133413926Y-128813675D01*
X133413924Y-128813684D01*
X133399500Y-128923255D01*
X133399500Y-129276744D01*
X133413922Y-129386303D01*
X133413923Y-129386307D01*
X133413925Y-129386320D01*
X133415686Y-129392111D01*
X133415388Y-129392201D01*
X133422553Y-129420276D01*
X133425364Y-129446431D01*
X133416640Y-129507123D01*
X133413926Y-129513675D01*
X133413925Y-129513682D01*
X133399500Y-129623255D01*
X133399500Y-129976744D01*
X133413922Y-130086303D01*
X133413923Y-130086307D01*
X133413925Y-130086320D01*
X133415686Y-130092111D01*
X133415388Y-130092201D01*
X133422553Y-130120276D01*
X133425364Y-130146431D01*
X133416640Y-130207123D01*
X133413926Y-130213675D01*
X133413924Y-130213684D01*
X133399500Y-130323255D01*
X133399500Y-130676744D01*
X133413924Y-130786312D01*
X133413924Y-130786314D01*
X133413926Y-130786320D01*
X133470403Y-130922668D01*
X133472666Y-130926055D01*
X133475350Y-130929115D01*
X133560246Y-131039754D01*
X133677331Y-131129596D01*
X133813680Y-131186074D01*
X133923259Y-131200500D01*
X135276740Y-131200499D01*
X135276742Y-131200499D01*
X135341128Y-131192022D01*
X135386320Y-131186074D01*
X135522669Y-131129596D01*
X135639754Y-131039754D01*
X135729596Y-130922669D01*
X135786074Y-130786320D01*
X135799821Y-130681896D01*
X136499500Y-130681896D01*
X136499500Y-130918102D01*
X136518768Y-131039753D01*
X136536446Y-131151368D01*
X136609433Y-131375996D01*
X136679785Y-131514068D01*
X136716657Y-131586433D01*
X136855483Y-131777510D01*
X137022490Y-131944517D01*
X137213567Y-132083343D01*
X137312991Y-132134002D01*
X137424003Y-132190566D01*
X137424005Y-132190566D01*
X137424008Y-132190568D01*
X137424009Y-132190568D01*
X137424880Y-132191012D01*
X137428627Y-132192069D01*
X137493628Y-132213189D01*
X137521367Y-132222202D01*
X137648631Y-132263553D01*
X137881903Y-132300500D01*
X137881908Y-132300500D01*
X138118096Y-132300500D01*
X138118097Y-132300500D01*
X138351368Y-132263553D01*
X138370117Y-132257461D01*
X138575992Y-132190568D01*
X138786433Y-132083343D01*
X138977510Y-131944517D01*
X139144517Y-131777510D01*
X139283343Y-131586433D01*
X139390568Y-131375992D01*
X139463553Y-131151368D01*
X139481231Y-131039753D01*
X139500500Y-130918097D01*
X139500500Y-130681902D01*
X139463553Y-130448631D01*
X139390566Y-130224003D01*
X139390564Y-130224000D01*
X139390564Y-130223998D01*
X139328682Y-130102549D01*
X139323409Y-130092201D01*
X139283343Y-130013567D01*
X139144517Y-129822490D01*
X138977510Y-129655483D01*
X138786433Y-129516657D01*
X138780592Y-129513681D01*
X138780590Y-129513679D01*
X138780590Y-129513680D01*
X138575996Y-129409433D01*
X138351368Y-129336446D01*
X138351362Y-129336445D01*
X138118102Y-129299500D01*
X138118097Y-129299500D01*
X138118092Y-129299500D01*
X137881908Y-129299500D01*
X137881903Y-129299500D01*
X137881898Y-129299500D01*
X137648636Y-129336445D01*
X137648634Y-129336445D01*
X137648631Y-129336446D01*
X137424003Y-129409433D01*
X137344387Y-129450000D01*
X137213573Y-129516653D01*
X137213560Y-129516661D01*
X137111425Y-129590867D01*
X137034360Y-129646858D01*
X137026981Y-129650990D01*
X136850990Y-129826981D01*
X136846858Y-129834360D01*
X136826398Y-129862521D01*
X136743412Y-129976741D01*
X136716657Y-130013566D01*
X136609433Y-130224003D01*
X136536446Y-130448631D01*
X136536445Y-130448634D01*
X136536445Y-130448636D01*
X136499500Y-130681896D01*
X135799821Y-130681896D01*
X135800500Y-130676741D01*
X135800499Y-130323260D01*
X135800498Y-130323255D01*
X135796288Y-130291271D01*
X135787433Y-130224003D01*
X135786075Y-130213683D01*
X135786074Y-130213681D01*
X135782476Y-130204996D01*
X135779796Y-130193354D01*
X135780102Y-130188183D01*
X135777345Y-130178790D01*
X135774634Y-130153573D01*
X135783365Y-130092858D01*
X135786074Y-130086320D01*
X135800500Y-129976741D01*
X135800499Y-129623260D01*
X135796235Y-129590867D01*
X135786075Y-129513683D01*
X135786074Y-129513681D01*
X135780925Y-129501251D01*
X135778385Y-129486294D01*
X135778718Y-129483466D01*
X135777345Y-129478790D01*
X135774634Y-129453572D01*
X135783365Y-129392858D01*
X135786074Y-129386320D01*
X135800500Y-129276741D01*
X135800499Y-128923260D01*
X135800499Y-128923257D01*
X135786075Y-128813683D01*
X135786074Y-128813681D01*
X135780455Y-128800116D01*
X135778029Y-128784079D01*
X135778304Y-128782056D01*
X135777345Y-128778790D01*
X135774634Y-128753573D01*
X135783365Y-128692858D01*
X135786074Y-128686320D01*
X135800500Y-128576741D01*
X135800499Y-128223260D01*
X135800499Y-128223257D01*
X135786075Y-128113683D01*
X135786074Y-128113681D01*
X135780455Y-128100116D01*
X135778029Y-128084079D01*
X135778304Y-128082055D01*
X135777345Y-128078788D01*
X135774634Y-128053572D01*
X135783351Y-127992891D01*
X135783674Y-127992111D01*
X135783690Y-127992092D01*
X135783684Y-127992090D01*
X135786073Y-127986322D01*
X135786074Y-127986320D01*
X135800500Y-127876741D01*
X135800499Y-127523260D01*
X135800499Y-127523257D01*
X135786075Y-127413683D01*
X135786074Y-127413681D01*
X135780455Y-127400116D01*
X135778029Y-127384079D01*
X135778304Y-127382056D01*
X135777345Y-127378790D01*
X135774634Y-127353573D01*
X135783365Y-127292858D01*
X135786074Y-127286320D01*
X135800500Y-127176741D01*
X135800499Y-126823260D01*
X135800498Y-126823255D01*
X135799078Y-126812465D01*
X135796083Y-126789711D01*
X135786075Y-126713683D01*
X135786074Y-126713681D01*
X135780935Y-126701275D01*
X135778393Y-126686342D01*
X135778727Y-126683496D01*
X135777345Y-126678790D01*
X135774634Y-126653573D01*
X135783365Y-126592858D01*
X135786074Y-126586320D01*
X135800500Y-126476741D01*
X135800499Y-126123260D01*
X135800499Y-126123257D01*
X135786075Y-126013683D01*
X135786074Y-126013681D01*
X135780455Y-126000116D01*
X135778029Y-125984079D01*
X135778304Y-125982056D01*
X135777345Y-125978790D01*
X135774634Y-125953573D01*
X135783365Y-125892858D01*
X135786074Y-125886320D01*
X135800500Y-125776741D01*
X135800499Y-125423260D01*
X135800499Y-125423257D01*
X135786075Y-125313683D01*
X135786074Y-125313681D01*
X135784298Y-125309394D01*
X135780454Y-125300115D01*
X135778028Y-125284078D01*
X135778303Y-125282054D01*
X135777345Y-125278788D01*
X135774633Y-125253568D01*
X135783365Y-125192859D01*
X135786074Y-125186320D01*
X135800500Y-125076741D01*
X135800499Y-124723260D01*
X135800499Y-124723257D01*
X135786075Y-124613683D01*
X135786074Y-124613681D01*
X135780455Y-124600116D01*
X135778029Y-124584079D01*
X135778304Y-124582056D01*
X135777345Y-124578790D01*
X135774634Y-124553573D01*
X135783365Y-124492858D01*
X135786074Y-124486320D01*
X135800500Y-124376741D01*
X135800499Y-124023260D01*
X135790504Y-123947333D01*
X135790924Y-123912048D01*
X135794270Y-123890598D01*
X135794490Y-123889189D01*
X135815565Y-123836990D01*
X135817262Y-123834575D01*
X135831011Y-123818222D01*
X136380520Y-123268716D01*
X136459577Y-123131784D01*
X136500501Y-122979057D01*
X136500501Y-122820942D01*
X136500501Y-122813347D01*
X136500501Y-122811661D01*
X136500500Y-122811589D01*
X136500500Y-120438013D01*
X136505523Y-120403077D01*
X136509927Y-120388079D01*
X136547672Y-120329328D01*
X136549041Y-120328141D01*
X136603920Y-120300661D01*
X136604670Y-120300498D01*
X136606959Y-120300000D01*
X136611479Y-120299017D01*
X136637832Y-120296184D01*
X136899450Y-120296184D01*
X137399450Y-120296184D01*
X137947278Y-120296184D01*
X137947286Y-120296184D01*
X137947297Y-120296183D01*
X137983010Y-120292342D01*
X138006822Y-120289782D01*
X138006829Y-120289780D01*
X138141536Y-120239538D01*
X138141543Y-120239534D01*
X138256637Y-120153374D01*
X138256640Y-120153371D01*
X138342800Y-120038277D01*
X138342804Y-120038270D01*
X138393046Y-119903563D01*
X138393048Y-119903556D01*
X138394519Y-119889873D01*
X138399448Y-119844044D01*
X138399450Y-119844011D01*
X138399450Y-119546184D01*
X137399450Y-119546184D01*
X137399450Y-120296184D01*
X136899450Y-120296184D01*
X136899450Y-119046184D01*
X137399450Y-119046184D01*
X138399450Y-119046184D01*
X138399450Y-118748356D01*
X138399449Y-118748339D01*
X138399448Y-118748322D01*
X138393458Y-118692620D01*
X138393048Y-118688811D01*
X138393046Y-118688804D01*
X138342804Y-118554097D01*
X138342800Y-118554090D01*
X138278300Y-118467931D01*
X138256641Y-118438997D01*
X138256635Y-118438991D01*
X138146635Y-118356645D01*
X138141543Y-118352833D01*
X138141536Y-118352829D01*
X138074182Y-118327708D01*
X138006827Y-118302586D01*
X138006820Y-118302584D01*
X137947302Y-118296184D01*
X137947294Y-118296184D01*
X137399450Y-118296184D01*
X137399450Y-119046184D01*
X136899450Y-119046184D01*
X136899450Y-118296184D01*
X136642330Y-118296184D01*
X136607389Y-118291159D01*
X136592390Y-118286754D01*
X136533644Y-118249011D01*
X136532457Y-118247642D01*
X136504977Y-118192767D01*
X136503332Y-118185205D01*
X136500500Y-118158852D01*
X136500500Y-117238512D01*
X136505523Y-117203576D01*
X136509927Y-117188578D01*
X136547672Y-117129827D01*
X136549041Y-117128640D01*
X136603920Y-117101160D01*
X136611479Y-117099516D01*
X136637832Y-117096683D01*
X137947321Y-117096683D01*
X137947322Y-117096683D01*
X138006933Y-117090275D01*
X138141781Y-117039980D01*
X138256996Y-116953730D01*
X138343246Y-116838515D01*
X138393541Y-116703667D01*
X138399950Y-116644057D01*
X138399949Y-115548312D01*
X138393541Y-115488701D01*
X138386191Y-115468995D01*
X138343247Y-115353855D01*
X138343243Y-115353848D01*
X138278679Y-115267603D01*
X138256998Y-115238640D01*
X138256992Y-115238634D01*
X138146881Y-115156205D01*
X138141785Y-115152390D01*
X138141782Y-115152388D01*
X138141780Y-115152387D01*
X138141778Y-115152386D01*
X138006932Y-115102092D01*
X138006933Y-115102092D01*
X137947333Y-115095685D01*
X137947331Y-115095684D01*
X137947323Y-115095684D01*
X137947315Y-115095684D01*
X137946291Y-115095684D01*
X136414112Y-115095684D01*
X136379176Y-115090661D01*
X136353934Y-115083249D01*
X136301189Y-115051953D01*
X135649426Y-114400190D01*
X135628274Y-114371934D01*
X135615667Y-114348845D01*
X135600500Y-114289420D01*
X135600500Y-113497594D01*
X135605521Y-113462664D01*
X135614864Y-113430845D01*
X135630768Y-113396851D01*
X135631617Y-113395581D01*
X135709394Y-113279179D01*
X135769737Y-113133497D01*
X135800500Y-112978842D01*
X135800500Y-112821158D01*
X135800500Y-112821155D01*
X135800500Y-112820973D01*
X135800065Y-112818972D01*
X135770398Y-112669830D01*
X135769983Y-112667403D01*
X135769737Y-112666504D01*
X135726462Y-112562026D01*
X135709397Y-112520827D01*
X135709390Y-112520814D01*
X135621789Y-112389711D01*
X135621786Y-112389707D01*
X135541332Y-112309253D01*
X135520183Y-112281000D01*
X135513532Y-112268819D01*
X135498681Y-112200545D01*
X135523097Y-112135085D01*
X135523811Y-112134131D01*
X135569666Y-112096551D01*
X135574702Y-112094149D01*
X135574701Y-112094148D01*
X135589740Y-112086974D01*
X135597616Y-112083546D01*
X135722342Y-112034361D01*
X135842922Y-111942922D01*
X135847176Y-111937311D01*
X135890423Y-111880282D01*
X135915529Y-111855483D01*
X135926695Y-111847232D01*
X135992306Y-111823222D01*
X136060484Y-111838494D01*
X136067250Y-111842243D01*
X136067617Y-111842447D01*
X136106314Y-111875980D01*
X136112032Y-111883520D01*
X136157077Y-111942922D01*
X136277656Y-112034360D01*
X136277657Y-112034360D01*
X136277876Y-112034526D01*
X136280596Y-112035519D01*
X136418436Y-112089877D01*
X136506898Y-112100500D01*
X136506903Y-112100500D01*
X137493097Y-112100500D01*
X137493102Y-112100500D01*
X137581564Y-112089877D01*
X137722342Y-112034361D01*
X137842922Y-111942922D01*
X137934361Y-111822342D01*
X137989877Y-111681564D01*
X138000500Y-111593102D01*
X138000500Y-111063978D01*
X138005522Y-111029045D01*
X138005784Y-111028153D01*
X138009433Y-111015726D01*
X138047206Y-110956949D01*
X138110725Y-110927928D01*
X138111793Y-110927775D01*
X138171012Y-110933673D01*
X138215186Y-110949379D01*
X138221063Y-110950939D01*
X138318556Y-110989386D01*
X138406946Y-111000000D01*
X138750000Y-111000000D01*
X138750000Y-110141829D01*
X138755023Y-110106893D01*
X138759427Y-110091895D01*
X138797172Y-110033144D01*
X138798541Y-110031957D01*
X138853420Y-110004477D01*
X138860979Y-110002833D01*
X138887332Y-110000000D01*
X139108170Y-110000000D01*
X139143106Y-110005023D01*
G37*
%TD.AperFunction*%
%TA.AperFunction,Conductor*%
G36*
X128060484Y-111838494D02*
G01*
X128067250Y-111842243D01*
X128067617Y-111842447D01*
X128106315Y-111875982D01*
X128112031Y-111883520D01*
X128136853Y-111948832D01*
X128135174Y-111966900D01*
X128190771Y-112176270D01*
X128194882Y-112211322D01*
X128194278Y-112234513D01*
X128180124Y-112288896D01*
X128178816Y-112291389D01*
X128167388Y-112309265D01*
X128123880Y-112365964D01*
X128064637Y-112508992D01*
X128064636Y-112508994D01*
X128064634Y-112509008D01*
X128049500Y-112623945D01*
X128049500Y-112876050D01*
X128059031Y-112948431D01*
X128059030Y-112948432D01*
X128059031Y-112948434D01*
X128063574Y-112982944D01*
X128063573Y-112982948D01*
X128063838Y-112986995D01*
X128064635Y-112990999D01*
X128073222Y-113011729D01*
X128081949Y-113045925D01*
X128085080Y-113075043D01*
X128085501Y-113078956D01*
X128083860Y-113116242D01*
X128051104Y-113282041D01*
X128039407Y-113315336D01*
X128034081Y-113325551D01*
X128032735Y-113324849D01*
X127994086Y-113373767D01*
X127992518Y-113374879D01*
X127947157Y-113394897D01*
X127944013Y-113395581D01*
X127944012Y-113395581D01*
X127939030Y-113396664D01*
X127912668Y-113399500D01*
X127169398Y-113399500D01*
X127134462Y-113394477D01*
X127109220Y-113387065D01*
X127056475Y-113355769D01*
X126749426Y-113048720D01*
X126728274Y-113020464D01*
X126715667Y-112997375D01*
X126700500Y-112937950D01*
X126700500Y-112242329D01*
X126705523Y-112207393D01*
X126709927Y-112192395D01*
X126747672Y-112133644D01*
X126749041Y-112132457D01*
X126803920Y-112104977D01*
X126811479Y-112103333D01*
X126837832Y-112100500D01*
X127493097Y-112100500D01*
X127493102Y-112100500D01*
X127581564Y-112089877D01*
X127722342Y-112034361D01*
X127842922Y-111942922D01*
X127847176Y-111937311D01*
X127890423Y-111880282D01*
X127915529Y-111855483D01*
X127926695Y-111847232D01*
X127992306Y-111823222D01*
X128060484Y-111838494D01*
G37*
%TD.AperFunction*%
%TA.AperFunction,Conductor*%
G36*
X123234451Y-100908233D02*
G01*
X123291465Y-100940700D01*
X125450573Y-103099808D01*
X125471723Y-103128060D01*
X125484331Y-103151149D01*
X125499500Y-103210578D01*
X125499500Y-109757670D01*
X125494475Y-109792614D01*
X125490070Y-109807612D01*
X125452327Y-109866355D01*
X125450958Y-109867542D01*
X125396097Y-109895018D01*
X125388539Y-109896663D01*
X125362168Y-109899500D01*
X124506898Y-109899500D01*
X124496560Y-109900741D01*
X124467853Y-109904187D01*
X124467853Y-109904188D01*
X124461920Y-109904900D01*
X124418439Y-109910121D01*
X124277653Y-109965640D01*
X124157081Y-110057073D01*
X124157076Y-110057078D01*
X124109575Y-110119718D01*
X124084466Y-110144518D01*
X124073306Y-110152765D01*
X124007691Y-110176776D01*
X123939515Y-110161504D01*
X123932391Y-110157556D01*
X123893686Y-110124020D01*
X123842922Y-110057077D01*
X123831666Y-110048541D01*
X123722345Y-109965640D01*
X123722343Y-109965639D01*
X123614981Y-109923301D01*
X123581559Y-109910121D01*
X123542152Y-109905389D01*
X123535926Y-109904642D01*
X123535925Y-109904641D01*
X123508220Y-109901315D01*
X123493102Y-109899500D01*
X123493098Y-109899500D01*
X122506901Y-109899500D01*
X122506898Y-109899500D01*
X122496560Y-109900741D01*
X122467853Y-109904187D01*
X122467853Y-109904188D01*
X122461920Y-109904900D01*
X122418439Y-109910121D01*
X122336732Y-109942341D01*
X122336732Y-109942342D01*
X122302856Y-109955702D01*
X122300267Y-109956723D01*
X122282386Y-109962256D01*
X122253639Y-109968822D01*
X122183900Y-109964559D01*
X122127560Y-109923301D01*
X122126304Y-109921660D01*
X122102854Y-109868917D01*
X122102081Y-109864753D01*
X122100000Y-109842133D01*
X122100000Y-109506952D01*
X122100000Y-109506951D01*
X122100000Y-109506946D01*
X122089386Y-109418556D01*
X122033920Y-109277904D01*
X121942565Y-109157434D01*
X121942563Y-109157431D01*
X121879869Y-109109889D01*
X121855068Y-109084778D01*
X121846819Y-109073615D01*
X121822808Y-109008001D01*
X121838081Y-108939828D01*
X121842035Y-108932691D01*
X121875564Y-108894000D01*
X121942922Y-108842922D01*
X122034361Y-108722342D01*
X122089877Y-108581564D01*
X122100500Y-108493102D01*
X122100500Y-107506898D01*
X122089877Y-107418436D01*
X122034361Y-107277658D01*
X122034360Y-107277657D01*
X122034360Y-107277656D01*
X122030630Y-107272737D01*
X122030318Y-107272140D01*
X122029240Y-107270904D01*
X121942925Y-107157081D01*
X121942921Y-107157076D01*
X121880283Y-107109577D01*
X121855482Y-107084466D01*
X121847233Y-107073303D01*
X121823222Y-107007689D01*
X121838496Y-106939513D01*
X121842446Y-106932384D01*
X121875978Y-106893686D01*
X121942922Y-106842922D01*
X122034360Y-106722343D01*
X122034359Y-106722342D01*
X122034361Y-106722342D01*
X122034361Y-106722340D01*
X122044656Y-106708764D01*
X122044657Y-106708763D01*
X122044659Y-106708760D01*
X122047144Y-106705482D01*
X122046689Y-106702914D01*
X122054581Y-106671066D01*
X122089877Y-106581564D01*
X122100500Y-106493102D01*
X122100500Y-105506898D01*
X122089877Y-105418436D01*
X122034361Y-105277658D01*
X122034360Y-105277657D01*
X122034360Y-105277656D01*
X122030630Y-105272737D01*
X122030318Y-105272140D01*
X122029240Y-105270904D01*
X121942925Y-105157081D01*
X121942921Y-105157076D01*
X121880283Y-105109577D01*
X121855482Y-105084466D01*
X121847233Y-105073303D01*
X121823222Y-105007689D01*
X121838496Y-104939513D01*
X121842446Y-104932384D01*
X121875978Y-104893686D01*
X121942922Y-104842922D01*
X122000867Y-104766510D01*
X122034361Y-104722342D01*
X122089877Y-104581564D01*
X122100500Y-104493102D01*
X122100500Y-103817926D01*
X122105522Y-103782993D01*
X122112934Y-103757748D01*
X122144228Y-103705006D01*
X122321305Y-103527930D01*
X122502060Y-103347173D01*
X122530307Y-103326029D01*
X122559403Y-103310141D01*
X122594628Y-103297360D01*
X122644388Y-103287462D01*
X122733497Y-103269737D01*
X122879179Y-103209394D01*
X123010289Y-103121789D01*
X123121789Y-103010289D01*
X123209394Y-102879179D01*
X123209793Y-102878217D01*
X123246079Y-102790613D01*
X123269737Y-102733497D01*
X123300500Y-102578842D01*
X123300500Y-102421158D01*
X123300500Y-102421155D01*
X123300500Y-102420973D01*
X123300065Y-102418972D01*
X123270397Y-102269824D01*
X123269994Y-102267467D01*
X123269738Y-102266508D01*
X123269737Y-102266506D01*
X123269737Y-102266503D01*
X123269735Y-102266498D01*
X123209397Y-102120827D01*
X123209390Y-102120814D01*
X123121789Y-101989711D01*
X123121786Y-101989707D01*
X123121781Y-101989701D01*
X123010297Y-101878217D01*
X123010291Y-101878212D01*
X123010290Y-101878211D01*
X122879191Y-101790613D01*
X122879190Y-101790612D01*
X122879185Y-101790609D01*
X122879172Y-101790602D01*
X122879165Y-101790598D01*
X122733502Y-101730264D01*
X122733471Y-101730257D01*
X122578847Y-101699500D01*
X122578845Y-101699500D01*
X122578842Y-101699500D01*
X122466927Y-101699500D01*
X122456012Y-101696294D01*
X122451555Y-101697265D01*
X122422797Y-101686541D01*
X122399888Y-101679815D01*
X122397564Y-101677133D01*
X122386088Y-101672854D01*
X122344212Y-101616924D01*
X122339221Y-101547233D01*
X122372701Y-101485906D01*
X122400949Y-101464756D01*
X122409384Y-101460149D01*
X122444625Y-101447360D01*
X122486085Y-101439113D01*
X122583497Y-101419737D01*
X122729179Y-101359394D01*
X122860289Y-101271789D01*
X122971789Y-101160289D01*
X123059394Y-101029179D01*
X123067287Y-101010123D01*
X123075442Y-100990434D01*
X123093450Y-100960086D01*
X123102161Y-100949277D01*
X123159555Y-100909430D01*
X123229372Y-100906937D01*
X123234451Y-100908233D01*
G37*
%TD.AperFunction*%
%TA.AperFunction,Conductor*%
G36*
X139496936Y-77500649D02*
G01*
X139503028Y-77500948D01*
X139509071Y-77501393D01*
X139516031Y-77502078D01*
X139516049Y-77502085D01*
X139516050Y-77502080D01*
X139528772Y-77503333D01*
X139637781Y-77514069D01*
X139649776Y-77515848D01*
X139661688Y-77518217D01*
X139673474Y-77521169D01*
X139788446Y-77556046D01*
X139799905Y-77560147D01*
X139811099Y-77564784D01*
X139822097Y-77569986D01*
X139924068Y-77624491D01*
X139924069Y-77624491D01*
X139924086Y-77624500D01*
X139928030Y-77626608D01*
X139938459Y-77632858D01*
X139948567Y-77639612D01*
X139958324Y-77646849D01*
X140051184Y-77723057D01*
X140060200Y-77731229D01*
X140068769Y-77739798D01*
X140076941Y-77748814D01*
X140153149Y-77841674D01*
X140160392Y-77851440D01*
X140165454Y-77859015D01*
X140167130Y-77861523D01*
X140173386Y-77871960D01*
X140230010Y-77977894D01*
X140235216Y-77988901D01*
X140239857Y-78000107D01*
X140243953Y-78011558D01*
X140278823Y-78126507D01*
X140281780Y-78138312D01*
X140284146Y-78150207D01*
X140285932Y-78162244D01*
X140298604Y-78290903D01*
X140299052Y-78296970D01*
X140299351Y-78303054D01*
X140299500Y-78309141D01*
X140299500Y-87281086D01*
X140287991Y-87320278D01*
X140280308Y-87351599D01*
X140229616Y-87399684D01*
X140160975Y-87412730D01*
X140096178Y-87386594D01*
X140071890Y-87360990D01*
X140068806Y-87356635D01*
X140054646Y-87330462D01*
X140053603Y-87327818D01*
X140033920Y-87277904D01*
X139942564Y-87157435D01*
X139822095Y-87066079D01*
X139822096Y-87066079D01*
X139681441Y-87010612D01*
X139632062Y-87004683D01*
X139593054Y-87000000D01*
X139593049Y-87000000D01*
X139250000Y-87000000D01*
X139250000Y-87858170D01*
X139244975Y-87893114D01*
X139240570Y-87908112D01*
X139202827Y-87966855D01*
X139201458Y-87968042D01*
X139146597Y-87995518D01*
X139139039Y-87997163D01*
X139112668Y-88000000D01*
X139000000Y-88000000D01*
X139000000Y-88108170D01*
X138994975Y-88143114D01*
X138990570Y-88158112D01*
X138952827Y-88216855D01*
X138951458Y-88218042D01*
X138896597Y-88245518D01*
X138889039Y-88247163D01*
X138862668Y-88250000D01*
X137900000Y-88250000D01*
X137900000Y-88493053D01*
X137906164Y-88544395D01*
X137910612Y-88581439D01*
X137910612Y-88581440D01*
X137910613Y-88581443D01*
X137957793Y-88701083D01*
X137966080Y-88722097D01*
X138057435Y-88842567D01*
X138120129Y-88890109D01*
X138144931Y-88915221D01*
X138153179Y-88926383D01*
X138177189Y-88991998D01*
X138161916Y-89060172D01*
X138157971Y-89067292D01*
X138124433Y-89105998D01*
X138057080Y-89157074D01*
X138057074Y-89157080D01*
X137965640Y-89277653D01*
X137910121Y-89418439D01*
X137904900Y-89461920D01*
X137904188Y-89467853D01*
X137899500Y-89506898D01*
X137899500Y-90493102D01*
X137905126Y-90539954D01*
X137910122Y-90581561D01*
X137963073Y-90715835D01*
X137965640Y-90722345D01*
X138057076Y-90842922D01*
X138119717Y-90890424D01*
X138144513Y-90915528D01*
X138148875Y-90921431D01*
X138152761Y-90926689D01*
X138176776Y-90992300D01*
X138161506Y-91060481D01*
X138161501Y-91060490D01*
X138157555Y-91067611D01*
X138124020Y-91106312D01*
X138057079Y-91157075D01*
X138057073Y-91157081D01*
X137965640Y-91277653D01*
X137910121Y-91418439D01*
X137904900Y-91461920D01*
X137904188Y-91467853D01*
X137899500Y-91506898D01*
X137899500Y-92493102D01*
X137905126Y-92539954D01*
X137910122Y-92581561D01*
X137960284Y-92708763D01*
X137965640Y-92722345D01*
X138057076Y-92842922D01*
X138119717Y-92890424D01*
X138144513Y-92915528D01*
X138148875Y-92921431D01*
X138152761Y-92926689D01*
X138176776Y-92992300D01*
X138161506Y-93060481D01*
X138161501Y-93060490D01*
X138157555Y-93067611D01*
X138124020Y-93106312D01*
X138057079Y-93157075D01*
X138057073Y-93157081D01*
X137965640Y-93277653D01*
X137910121Y-93418439D01*
X137904900Y-93461920D01*
X137904188Y-93467853D01*
X137899500Y-93506898D01*
X137899500Y-94493102D01*
X137905126Y-94539954D01*
X137910122Y-94581561D01*
X137960284Y-94708763D01*
X137965640Y-94722345D01*
X138057076Y-94842922D01*
X138119717Y-94890424D01*
X138144513Y-94915528D01*
X138148875Y-94921431D01*
X138152761Y-94926689D01*
X138176776Y-94992300D01*
X138161506Y-95060481D01*
X138161501Y-95060490D01*
X138157555Y-95067611D01*
X138124020Y-95106312D01*
X138057079Y-95157075D01*
X138057073Y-95157081D01*
X137965640Y-95277653D01*
X137910121Y-95418439D01*
X137906332Y-95450000D01*
X137904188Y-95467853D01*
X137899500Y-95506898D01*
X137899500Y-96493102D01*
X137905126Y-96539954D01*
X137910122Y-96581561D01*
X137960284Y-96708763D01*
X137965640Y-96722345D01*
X138057076Y-96842922D01*
X138119717Y-96890424D01*
X138144513Y-96915528D01*
X138148875Y-96921431D01*
X138152761Y-96926689D01*
X138176776Y-96992300D01*
X138161506Y-97060481D01*
X138161501Y-97060490D01*
X138157555Y-97067611D01*
X138124020Y-97106312D01*
X138057079Y-97157075D01*
X138057073Y-97157081D01*
X137965640Y-97277653D01*
X137910121Y-97418439D01*
X137904900Y-97461920D01*
X137904188Y-97467853D01*
X137899500Y-97506898D01*
X137899500Y-98493102D01*
X137905126Y-98539954D01*
X137910122Y-98581561D01*
X137960284Y-98708763D01*
X137965640Y-98722345D01*
X138057076Y-98842922D01*
X138119717Y-98890424D01*
X138144513Y-98915528D01*
X138148875Y-98921431D01*
X138152761Y-98926689D01*
X138176776Y-98992300D01*
X138161506Y-99060481D01*
X138161501Y-99060490D01*
X138157555Y-99067611D01*
X138124020Y-99106312D01*
X138057079Y-99157075D01*
X138057073Y-99157081D01*
X137965640Y-99277653D01*
X137910121Y-99418439D01*
X137905051Y-99460663D01*
X137904188Y-99467853D01*
X137899500Y-99506898D01*
X137899500Y-100493102D01*
X137905126Y-100539954D01*
X137910122Y-100581561D01*
X137963073Y-100715835D01*
X137965640Y-100722345D01*
X138057076Y-100842922D01*
X138119717Y-100890424D01*
X138144513Y-100915528D01*
X138147497Y-100919565D01*
X138152761Y-100926689D01*
X138176776Y-100992300D01*
X138161506Y-101060481D01*
X138161501Y-101060490D01*
X138157555Y-101067611D01*
X138124020Y-101106312D01*
X138057079Y-101157075D01*
X138057073Y-101157081D01*
X137965640Y-101277653D01*
X137910121Y-101418440D01*
X137906752Y-101446499D01*
X137906751Y-101446512D01*
X137906256Y-101450638D01*
X137899500Y-101506898D01*
X137899500Y-101506903D01*
X137899500Y-101585308D01*
X137899331Y-101588543D01*
X137898041Y-101592212D01*
X137894476Y-101617010D01*
X137887064Y-101642251D01*
X137855769Y-101694995D01*
X136900191Y-102650573D01*
X136871940Y-102671722D01*
X136848852Y-102684330D01*
X136789422Y-102699500D01*
X136721153Y-102699500D01*
X136566527Y-102730257D01*
X136566496Y-102730264D01*
X136420833Y-102790598D01*
X136420824Y-102790603D01*
X136420807Y-102790613D01*
X136289712Y-102878209D01*
X136289707Y-102878212D01*
X136289701Y-102878217D01*
X136178217Y-102989701D01*
X136178212Y-102989707D01*
X136178211Y-102989708D01*
X136090613Y-103120807D01*
X136090603Y-103120824D01*
X136090598Y-103120833D01*
X136030264Y-103266496D01*
X136030257Y-103266527D01*
X135999500Y-103421150D01*
X135999500Y-103421153D01*
X135999500Y-103578846D01*
X135999500Y-103578848D01*
X135999499Y-103578848D01*
X136030257Y-103733471D01*
X136030264Y-103733502D01*
X136090598Y-103879165D01*
X136090603Y-103879174D01*
X136090613Y-103879191D01*
X136178206Y-104010282D01*
X136178211Y-104010290D01*
X136178217Y-104010297D01*
X136289701Y-104121781D01*
X136289707Y-104121786D01*
X136289711Y-104121789D01*
X136420814Y-104209390D01*
X136420827Y-104209397D01*
X136501847Y-104242956D01*
X136566503Y-104269737D01*
X136671418Y-104290606D01*
X136713512Y-104298979D01*
X136716247Y-104299703D01*
X136721155Y-104300500D01*
X136878844Y-104300500D01*
X136881843Y-104300500D01*
X136885578Y-104299278D01*
X136888177Y-104298642D01*
X137033497Y-104269737D01*
X137072429Y-104253609D01*
X137081660Y-104251354D01*
X137085960Y-104251551D01*
X137097837Y-104248519D01*
X137106785Y-104247557D01*
X137143605Y-104254198D01*
X137151456Y-104254559D01*
X137153450Y-104255974D01*
X137175543Y-104259959D01*
X137226683Y-104307568D01*
X137243965Y-104375266D01*
X137225542Y-104436008D01*
X137222849Y-104440368D01*
X137205032Y-104462887D01*
X137178221Y-104489697D01*
X137178219Y-104489699D01*
X137178207Y-104489714D01*
X137090613Y-104620807D01*
X137090603Y-104620824D01*
X137090598Y-104620833D01*
X137030264Y-104766496D01*
X137030262Y-104766506D01*
X136999500Y-104921150D01*
X136999500Y-104921153D01*
X136999500Y-105078846D01*
X136999500Y-105078848D01*
X136999499Y-105078848D01*
X137030257Y-105233471D01*
X137030264Y-105233502D01*
X137090598Y-105379165D01*
X137090603Y-105379174D01*
X137090613Y-105379191D01*
X137178211Y-105510290D01*
X137178212Y-105510291D01*
X137178217Y-105510297D01*
X137289701Y-105621781D01*
X137289707Y-105621786D01*
X137289711Y-105621789D01*
X137420814Y-105709390D01*
X137420827Y-105709397D01*
X137566498Y-105769735D01*
X137566503Y-105769737D01*
X137700496Y-105796390D01*
X137713537Y-105798984D01*
X137716251Y-105799704D01*
X137721155Y-105800500D01*
X137721156Y-105800500D01*
X137757670Y-105800500D01*
X137792606Y-105805523D01*
X137807604Y-105809927D01*
X137866355Y-105847672D01*
X137867542Y-105849041D01*
X137895018Y-105903902D01*
X137896663Y-105911460D01*
X137899500Y-105937831D01*
X137899500Y-106493102D01*
X137905126Y-106539954D01*
X137910122Y-106581561D01*
X137960284Y-106708763D01*
X137965640Y-106722345D01*
X138057076Y-106842922D01*
X138119717Y-106890424D01*
X138144513Y-106915528D01*
X138148875Y-106921431D01*
X138152761Y-106926689D01*
X138176776Y-106992300D01*
X138161506Y-107060481D01*
X138161501Y-107060490D01*
X138157555Y-107067611D01*
X138124020Y-107106312D01*
X138057079Y-107157075D01*
X138057073Y-107157081D01*
X137965640Y-107277653D01*
X137910121Y-107418439D01*
X137904900Y-107461920D01*
X137904188Y-107467853D01*
X137899500Y-107506898D01*
X137899500Y-108493102D01*
X137905126Y-108539954D01*
X137910122Y-108581561D01*
X137964824Y-108720276D01*
X137965640Y-108722345D01*
X138057073Y-108842917D01*
X138057077Y-108842922D01*
X138120130Y-108890736D01*
X138144928Y-108915843D01*
X138153177Y-108927006D01*
X138177189Y-108992619D01*
X138161916Y-109060799D01*
X138161915Y-109060802D01*
X138157968Y-109067925D01*
X138124432Y-109106627D01*
X138057437Y-109157431D01*
X137966078Y-109277905D01*
X137910612Y-109418557D01*
X137904303Y-109471101D01*
X137900000Y-109506946D01*
X137900000Y-109506951D01*
X137900000Y-109835721D01*
X137894975Y-109870662D01*
X137891064Y-109883979D01*
X137853287Y-109942755D01*
X137789734Y-109971776D01*
X137787689Y-109972070D01*
X137730277Y-109966782D01*
X137697553Y-109955702D01*
X137691830Y-109953606D01*
X137591159Y-109913906D01*
X137591154Y-109913904D01*
X137581564Y-109910123D01*
X137581563Y-109910122D01*
X137581561Y-109910122D01*
X137567551Y-109908439D01*
X137567544Y-109908438D01*
X137540084Y-109905141D01*
X137535926Y-109904642D01*
X137535925Y-109904641D01*
X137508220Y-109901315D01*
X137493102Y-109899500D01*
X137493098Y-109899500D01*
X136506901Y-109899500D01*
X136506898Y-109899500D01*
X136496560Y-109900741D01*
X136467853Y-109904187D01*
X136467853Y-109904188D01*
X136461920Y-109904900D01*
X136418439Y-109910121D01*
X136277653Y-109965640D01*
X136157081Y-110057073D01*
X136157076Y-110057078D01*
X136109575Y-110119718D01*
X136084466Y-110144518D01*
X136073306Y-110152765D01*
X136007691Y-110176776D01*
X135939515Y-110161504D01*
X135932391Y-110157556D01*
X135893686Y-110124020D01*
X135842922Y-110057077D01*
X135831666Y-110048541D01*
X135722345Y-109965640D01*
X135722343Y-109965639D01*
X135614981Y-109923301D01*
X135581559Y-109910121D01*
X135542152Y-109905389D01*
X135535926Y-109904642D01*
X135535925Y-109904641D01*
X135508220Y-109901315D01*
X135493102Y-109899500D01*
X135493098Y-109899500D01*
X134609326Y-109899500D01*
X134574387Y-109894476D01*
X134552917Y-109888171D01*
X134494140Y-109850394D01*
X134480695Y-109831513D01*
X134480521Y-109831286D01*
X134480520Y-109831284D01*
X134368716Y-109719480D01*
X134368715Y-109719479D01*
X134364385Y-109715149D01*
X134364374Y-109715139D01*
X130649426Y-106000191D01*
X130628274Y-105971935D01*
X130615667Y-105948846D01*
X130600500Y-105889421D01*
X130600500Y-101720943D01*
X130594754Y-101699500D01*
X130576476Y-101631284D01*
X130559577Y-101568216D01*
X130553594Y-101557853D01*
X130480524Y-101431290D01*
X130480521Y-101431286D01*
X130480520Y-101431284D01*
X130368716Y-101319480D01*
X130368715Y-101319479D01*
X130364385Y-101315149D01*
X130363363Y-101314127D01*
X130363320Y-101314085D01*
X125494171Y-96444936D01*
X128000000Y-96444936D01*
X128015120Y-96579138D01*
X128071912Y-96741440D01*
X128074663Y-96749301D01*
X128170577Y-96901948D01*
X128298051Y-97029422D01*
X128450698Y-97125336D01*
X128541421Y-97157081D01*
X128620861Y-97184878D01*
X128688329Y-97192479D01*
X128737672Y-97198038D01*
X128745275Y-97200000D01*
X128755070Y-97200000D01*
X129750000Y-97200000D01*
X130250000Y-97200000D01*
X131244930Y-97200000D01*
X131270429Y-97200000D01*
X131275561Y-97197197D01*
X131288047Y-97195141D01*
X131314164Y-97192198D01*
X131379141Y-97184877D01*
X131549301Y-97125336D01*
X131701948Y-97029422D01*
X131829422Y-96901948D01*
X131925336Y-96749301D01*
X131984877Y-96579141D01*
X131995141Y-96488047D01*
X132000000Y-96476483D01*
X132000000Y-95450000D01*
X130250000Y-95450000D01*
X130250000Y-97200000D01*
X129750000Y-97200000D01*
X129750000Y-95450000D01*
X128000000Y-95450000D01*
X128000000Y-96444936D01*
X125494171Y-96444936D01*
X124649426Y-95600191D01*
X124628274Y-95571935D01*
X124615667Y-95548846D01*
X124600500Y-95489421D01*
X124600500Y-93955062D01*
X128000000Y-93955062D01*
X128000000Y-93955069D01*
X128000000Y-94950000D01*
X129750000Y-94950000D01*
X130250000Y-94950000D01*
X132000000Y-94950000D01*
X132000000Y-93945274D01*
X131998038Y-93937669D01*
X131984878Y-93820861D01*
X131925336Y-93650699D01*
X131925336Y-93650698D01*
X131829422Y-93498051D01*
X131701948Y-93370577D01*
X131549301Y-93274663D01*
X131549300Y-93274662D01*
X131549299Y-93274662D01*
X131379138Y-93215120D01*
X131244936Y-93200000D01*
X131244930Y-93200000D01*
X130250000Y-93200000D01*
X130250000Y-94950000D01*
X129750000Y-94950000D01*
X129750000Y-93200000D01*
X128755063Y-93200000D01*
X128620860Y-93215121D01*
X128450699Y-93274662D01*
X128298050Y-93370577D01*
X128170577Y-93498050D01*
X128074662Y-93650699D01*
X128015120Y-93820860D01*
X128000000Y-93955062D01*
X124600500Y-93955062D01*
X124600500Y-91991452D01*
X124600501Y-91991401D01*
X124600501Y-91820946D01*
X124600501Y-91820944D01*
X124559576Y-91668214D01*
X124559573Y-91668209D01*
X124559573Y-91668208D01*
X124559549Y-91668151D01*
X124559068Y-91667334D01*
X124541853Y-91637517D01*
X124480524Y-91531290D01*
X124480518Y-91531282D01*
X124480514Y-91531278D01*
X124480513Y-91531276D01*
X123049523Y-90100287D01*
X123028371Y-90072031D01*
X123020879Y-90058310D01*
X123006027Y-89990050D01*
X123006156Y-89988241D01*
X123025522Y-89930046D01*
X123029715Y-89923522D01*
X123046336Y-89902897D01*
X125442289Y-87506946D01*
X137900000Y-87506946D01*
X137900000Y-87750000D01*
X138750000Y-87750000D01*
X138750000Y-87000000D01*
X138406952Y-87000000D01*
X138406946Y-87000000D01*
X138367159Y-87004777D01*
X138318557Y-87010612D01*
X138177904Y-87066078D01*
X138177903Y-87066079D01*
X138057435Y-87157435D01*
X137966079Y-87277903D01*
X137966078Y-87277904D01*
X137910612Y-87418557D01*
X137904303Y-87471101D01*
X137900000Y-87506946D01*
X125442289Y-87506946D01*
X125533682Y-87415553D01*
X126089878Y-86859357D01*
X129230521Y-83718715D01*
X129309578Y-83581783D01*
X129350502Y-83429056D01*
X129350502Y-83270941D01*
X129350502Y-83263346D01*
X129350502Y-83261662D01*
X129350501Y-83261588D01*
X129350501Y-82567925D01*
X129355523Y-82532992D01*
X129362935Y-82507747D01*
X129394229Y-82455005D01*
X129678297Y-82170938D01*
X129972880Y-81876353D01*
X130001126Y-81855210D01*
X130003278Y-81854034D01*
X130013306Y-81848558D01*
X130081578Y-81833706D01*
X130147043Y-81858122D01*
X130147046Y-81858124D01*
X130155861Y-81864723D01*
X130184649Y-81895095D01*
X130228210Y-81960288D01*
X130228213Y-81960292D01*
X130228214Y-81960293D01*
X130228217Y-81960297D01*
X130339701Y-82071781D01*
X130339707Y-82071786D01*
X130339711Y-82071789D01*
X130470814Y-82159390D01*
X130470827Y-82159397D01*
X130616498Y-82219735D01*
X130616503Y-82219737D01*
X130771153Y-82250499D01*
X130771156Y-82250500D01*
X130771158Y-82250500D01*
X130928844Y-82250500D01*
X130928845Y-82250499D01*
X131083497Y-82219737D01*
X131229179Y-82159394D01*
X131360289Y-82071789D01*
X131471789Y-81960289D01*
X131559394Y-81829179D01*
X131619737Y-81683497D01*
X131647160Y-81545629D01*
X131658897Y-81512360D01*
X131674269Y-81482972D01*
X131696459Y-81452774D01*
X132601272Y-80547960D01*
X132601279Y-80547956D01*
X132618715Y-80530520D01*
X132618716Y-80530520D01*
X132730520Y-80418716D01*
X132797923Y-80301970D01*
X132809577Y-80281785D01*
X132850501Y-80129057D01*
X132850501Y-79999676D01*
X132855524Y-79964740D01*
X132855939Y-79963329D01*
X132859928Y-79949741D01*
X132897700Y-79890967D01*
X132901724Y-79887480D01*
X132950087Y-79861619D01*
X132951594Y-79861205D01*
X132971162Y-79857491D01*
X133007372Y-79853598D01*
X133007379Y-79853596D01*
X133142086Y-79803354D01*
X133142093Y-79803350D01*
X133257187Y-79717190D01*
X133257190Y-79717187D01*
X133343350Y-79602093D01*
X133343354Y-79602086D01*
X133393596Y-79467379D01*
X133393598Y-79467372D01*
X133396398Y-79441332D01*
X133399998Y-79407860D01*
X133400000Y-79407827D01*
X133400000Y-79010000D01*
X132992330Y-79010000D01*
X132957389Y-79004975D01*
X132942390Y-79000570D01*
X132883644Y-78962827D01*
X132882457Y-78961458D01*
X132854977Y-78906583D01*
X132853332Y-78899021D01*
X132850500Y-78872668D01*
X132850500Y-78851829D01*
X132855523Y-78816893D01*
X132859927Y-78801895D01*
X132897672Y-78743144D01*
X132899041Y-78741957D01*
X132953920Y-78714477D01*
X132961479Y-78712833D01*
X132987832Y-78710000D01*
X133249042Y-78710000D01*
X133261185Y-78710595D01*
X133271709Y-78711632D01*
X133287149Y-78715500D01*
X133294999Y-78715500D01*
X133295000Y-78715500D01*
X133567670Y-78715500D01*
X133602606Y-78720523D01*
X133617604Y-78724927D01*
X133676355Y-78762672D01*
X133677542Y-78764041D01*
X133705018Y-78818902D01*
X133706663Y-78826460D01*
X133709500Y-78852831D01*
X133709500Y-79375038D01*
X133709537Y-79378411D01*
X133709538Y-79378456D01*
X133709545Y-79378817D01*
X133709638Y-79381597D01*
X133709669Y-79382515D01*
X133709671Y-79382557D01*
X133711670Y-79426534D01*
X133712151Y-79433558D01*
X133712154Y-79433595D01*
X133712191Y-79434003D01*
X133712240Y-79434532D01*
X133713014Y-79441332D01*
X133716034Y-79463478D01*
X133716466Y-79466423D01*
X133716475Y-79466481D01*
X133716477Y-79466494D01*
X133716547Y-79466940D01*
X133717182Y-79470682D01*
X133721156Y-79492538D01*
X133721862Y-79496175D01*
X133721916Y-79496442D01*
X133721975Y-79496727D01*
X133722604Y-79499628D01*
X133727615Y-79521680D01*
X133729468Y-79529001D01*
X133729739Y-79529973D01*
X133731994Y-79537342D01*
X133745983Y-79579306D01*
X133748218Y-79585571D01*
X133748469Y-79586229D01*
X133748481Y-79586258D01*
X133750881Y-79592192D01*
X133759882Y-79613193D01*
X133760287Y-79614130D01*
X133760359Y-79614295D01*
X133761077Y-79615916D01*
X133770077Y-79635916D01*
X133772759Y-79641568D01*
X133773116Y-79642283D01*
X133773123Y-79642296D01*
X133775992Y-79647768D01*
X133786972Y-79667734D01*
X133790241Y-79673393D01*
X133790688Y-79674130D01*
X133794295Y-79679804D01*
X133804305Y-79694818D01*
X133805973Y-79697388D01*
X133806145Y-79697661D01*
X133806184Y-79697726D01*
X133806360Y-79698001D01*
X133816067Y-79713371D01*
X133819109Y-79717866D01*
X133821574Y-79721508D01*
X133822108Y-79722245D01*
X133822320Y-79722538D01*
X133827513Y-79729261D01*
X133828308Y-79730290D01*
X133828640Y-79730689D01*
X133856226Y-79764186D01*
X133857502Y-79765708D01*
X133857991Y-79766292D01*
X133858212Y-79766551D01*
X133858245Y-79766589D01*
X133858262Y-79766609D01*
X133859858Y-79768448D01*
X133874909Y-79785506D01*
X133881546Y-79792571D01*
X133881575Y-79792601D01*
X133882397Y-79793423D01*
X133882413Y-79793438D01*
X133882421Y-79793446D01*
X133889493Y-79800090D01*
X133906551Y-79815141D01*
X133908390Y-79816737D01*
X133908449Y-79816788D01*
X133908708Y-79817009D01*
X133910791Y-79818754D01*
X133910813Y-79818772D01*
X133944760Y-79846729D01*
X133944796Y-79846759D01*
X133944812Y-79846771D01*
X133952461Y-79852679D01*
X133952477Y-79852691D01*
X133953494Y-79853427D01*
X133953744Y-79853596D01*
X133961628Y-79858932D01*
X133999660Y-79882952D01*
X134002293Y-79884577D01*
X134002347Y-79884610D01*
X134002359Y-79884617D01*
X134002689Y-79884816D01*
X134005079Y-79886228D01*
X134024079Y-79897228D01*
X134030986Y-79900997D01*
X134031892Y-79901462D01*
X134039084Y-79904923D01*
X134059084Y-79913923D01*
X134060705Y-79914641D01*
X134060870Y-79914713D01*
X134061807Y-79915118D01*
X134082807Y-79924118D01*
X134088704Y-79926504D01*
X134089481Y-79926800D01*
X134095665Y-79929007D01*
X134137665Y-79943007D01*
X134145040Y-79945264D01*
X134145986Y-79945528D01*
X134149416Y-79946395D01*
X134149415Y-79946399D01*
X134149486Y-79946413D01*
X134151762Y-79946989D01*
X134152585Y-79947198D01*
X134153388Y-79947406D01*
X134154275Y-79947600D01*
X134175322Y-79952384D01*
X134178397Y-79953050D01*
X134178824Y-79953138D01*
X134182394Y-79953831D01*
X134204394Y-79957831D01*
X134208013Y-79958445D01*
X134208451Y-79958514D01*
X134208497Y-79958520D01*
X134208505Y-79958522D01*
X134211631Y-79958981D01*
X134215206Y-79959468D01*
X134233639Y-79961982D01*
X134240493Y-79962762D01*
X134241390Y-79962844D01*
X134241402Y-79962844D01*
X134241404Y-79962845D01*
X134241624Y-79962860D01*
X134242458Y-79962917D01*
X134242522Y-79962924D01*
X134242789Y-79962940D01*
X134243858Y-79963013D01*
X134248485Y-79963330D01*
X134292485Y-79965330D01*
X134295511Y-79965398D01*
X134299542Y-79965490D01*
X134299546Y-79965490D01*
X134300458Y-79965490D01*
X134303984Y-79965410D01*
X134307515Y-79965330D01*
X134351515Y-79963330D01*
X134358610Y-79962844D01*
X134359507Y-79962762D01*
X134366361Y-79961982D01*
X134388361Y-79958982D01*
X134391549Y-79958514D01*
X134391987Y-79958445D01*
X134395606Y-79957831D01*
X134417606Y-79953831D01*
X134421176Y-79953138D01*
X134421603Y-79953050D01*
X134424678Y-79952384D01*
X134446678Y-79947384D01*
X134454014Y-79945528D01*
X134454960Y-79945264D01*
X134462335Y-79943007D01*
X134504335Y-79929007D01*
X134510519Y-79926800D01*
X134511296Y-79926504D01*
X134517193Y-79924118D01*
X134538193Y-79915118D01*
X134539130Y-79914713D01*
X134539295Y-79914641D01*
X134540916Y-79913923D01*
X134560916Y-79904923D01*
X134568108Y-79901462D01*
X134569014Y-79900997D01*
X134575921Y-79897228D01*
X134594921Y-79886228D01*
X134597311Y-79884816D01*
X134597641Y-79884617D01*
X134600376Y-79882929D01*
X134638376Y-79858929D01*
X134646506Y-79853427D01*
X134647523Y-79852691D01*
X134655209Y-79846754D01*
X134689209Y-79818754D01*
X134691292Y-79817009D01*
X134691551Y-79816788D01*
X134693498Y-79815098D01*
X134710498Y-79800098D01*
X134717571Y-79793453D01*
X134718453Y-79792571D01*
X134725098Y-79785498D01*
X134740098Y-79768498D01*
X134741788Y-79766551D01*
X134742009Y-79766292D01*
X134743754Y-79764209D01*
X134771754Y-79730209D01*
X134777691Y-79722523D01*
X134778427Y-79721506D01*
X134783929Y-79713376D01*
X134794837Y-79696105D01*
X134804310Y-79681896D01*
X136499500Y-79681896D01*
X136499500Y-79918102D01*
X136518424Y-80037583D01*
X136536446Y-80151368D01*
X136609433Y-80375996D01*
X136679785Y-80514068D01*
X136716657Y-80586433D01*
X136855483Y-80777510D01*
X137022490Y-80944517D01*
X137213567Y-81083343D01*
X137312991Y-81134002D01*
X137424003Y-81190566D01*
X137424876Y-81191011D01*
X137428630Y-81192070D01*
X137476335Y-81207569D01*
X137544410Y-81229688D01*
X137544411Y-81229689D01*
X137544412Y-81229689D01*
X137648631Y-81263553D01*
X137881903Y-81300500D01*
X137881908Y-81300500D01*
X138118096Y-81300500D01*
X138118097Y-81300500D01*
X138351368Y-81263553D01*
X138575992Y-81190568D01*
X138786433Y-81083343D01*
X138977510Y-80944517D01*
X139144517Y-80777510D01*
X139283343Y-80586433D01*
X139390568Y-80375992D01*
X139463553Y-80151368D01*
X139481575Y-80037583D01*
X139500500Y-79918097D01*
X139500500Y-79681902D01*
X139463553Y-79448631D01*
X139390566Y-79224003D01*
X139283342Y-79013566D01*
X139247282Y-78963934D01*
X139247282Y-78963933D01*
X139247281Y-78963933D01*
X139246477Y-78962827D01*
X139144517Y-78822490D01*
X138977510Y-78655483D01*
X138786433Y-78516657D01*
X138703095Y-78474194D01*
X138575996Y-78409433D01*
X138351368Y-78336446D01*
X138347024Y-78335758D01*
X138118102Y-78299500D01*
X138118097Y-78299500D01*
X138118092Y-78299500D01*
X137881908Y-78299500D01*
X137881903Y-78299500D01*
X137881898Y-78299500D01*
X137648636Y-78336445D01*
X137648634Y-78336445D01*
X137648631Y-78336446D01*
X137424003Y-78409433D01*
X137386702Y-78428439D01*
X137213566Y-78516656D01*
X137167674Y-78550000D01*
X137034361Y-78646858D01*
X137026980Y-78650991D01*
X136850990Y-78826981D01*
X136846858Y-78834360D01*
X136826398Y-78862521D01*
X136719248Y-79010000D01*
X136716657Y-79013566D01*
X136609433Y-79224003D01*
X136536446Y-79448631D01*
X136536445Y-79448634D01*
X136536445Y-79448636D01*
X136499500Y-79681896D01*
X134804310Y-79681896D01*
X134805705Y-79679803D01*
X134809321Y-79674115D01*
X134809762Y-79673387D01*
X134813014Y-79667757D01*
X134824014Y-79647757D01*
X134826884Y-79642283D01*
X134827241Y-79641568D01*
X134829923Y-79635916D01*
X134838923Y-79615916D01*
X134839641Y-79614295D01*
X134839713Y-79614130D01*
X134840118Y-79613193D01*
X134849118Y-79592193D01*
X134851504Y-79586296D01*
X134851800Y-79585519D01*
X134854007Y-79579335D01*
X134868007Y-79537335D01*
X134870264Y-79529960D01*
X134870528Y-79529014D01*
X134872384Y-79521678D01*
X134877384Y-79499678D01*
X134878050Y-79496603D01*
X134878138Y-79496176D01*
X134878831Y-79492606D01*
X134882831Y-79470606D01*
X134883445Y-79466987D01*
X134883514Y-79466549D01*
X134883982Y-79463361D01*
X134886982Y-79441361D01*
X134887762Y-79434507D01*
X134887844Y-79433610D01*
X134888330Y-79426515D01*
X134890330Y-79382515D01*
X134890452Y-79378878D01*
X134890462Y-79378424D01*
X134890500Y-79375000D01*
X134890500Y-77642329D01*
X134895523Y-77607393D01*
X134899927Y-77592395D01*
X134937672Y-77533644D01*
X134939041Y-77532457D01*
X134993920Y-77504977D01*
X135001479Y-77503333D01*
X135027832Y-77500500D01*
X139490857Y-77500500D01*
X139496936Y-77500649D01*
G37*
%TD.AperFunction*%
%TA.AperFunction,Conductor*%
G36*
X125002606Y-77505523D02*
G01*
X125017604Y-77509927D01*
X125076355Y-77547672D01*
X125077542Y-77549041D01*
X125105018Y-77603902D01*
X125106663Y-77611460D01*
X125109500Y-77637831D01*
X125109500Y-79375038D01*
X125109537Y-79378411D01*
X125109538Y-79378456D01*
X125109545Y-79378817D01*
X125109638Y-79381597D01*
X125109669Y-79382515D01*
X125109671Y-79382557D01*
X125111670Y-79426534D01*
X125112151Y-79433558D01*
X125112154Y-79433595D01*
X125112191Y-79434003D01*
X125112240Y-79434532D01*
X125113014Y-79441332D01*
X125116034Y-79463478D01*
X125116466Y-79466423D01*
X125116475Y-79466481D01*
X125116477Y-79466494D01*
X125116547Y-79466940D01*
X125117182Y-79470682D01*
X125121156Y-79492538D01*
X125121862Y-79496175D01*
X125121916Y-79496442D01*
X125121975Y-79496727D01*
X125122604Y-79499628D01*
X125127615Y-79521680D01*
X125129468Y-79529001D01*
X125129739Y-79529973D01*
X125131994Y-79537342D01*
X125145983Y-79579306D01*
X125148218Y-79585571D01*
X125148469Y-79586229D01*
X125148481Y-79586258D01*
X125150881Y-79592192D01*
X125159882Y-79613193D01*
X125160287Y-79614130D01*
X125160359Y-79614295D01*
X125161077Y-79615916D01*
X125170077Y-79635916D01*
X125172759Y-79641568D01*
X125173116Y-79642283D01*
X125173123Y-79642296D01*
X125175992Y-79647768D01*
X125186972Y-79667734D01*
X125190241Y-79673393D01*
X125190688Y-79674130D01*
X125194295Y-79679804D01*
X125204305Y-79694818D01*
X125205973Y-79697388D01*
X125206145Y-79697661D01*
X125206184Y-79697726D01*
X125206360Y-79698001D01*
X125216067Y-79713371D01*
X125219109Y-79717866D01*
X125221574Y-79721508D01*
X125222108Y-79722245D01*
X125222320Y-79722538D01*
X125227513Y-79729261D01*
X125228308Y-79730290D01*
X125228640Y-79730689D01*
X125256226Y-79764186D01*
X125257502Y-79765708D01*
X125257991Y-79766292D01*
X125258212Y-79766551D01*
X125258245Y-79766589D01*
X125258262Y-79766609D01*
X125259858Y-79768448D01*
X125274909Y-79785506D01*
X125281546Y-79792571D01*
X125281575Y-79792601D01*
X125282397Y-79793423D01*
X125282413Y-79793438D01*
X125282421Y-79793446D01*
X125289493Y-79800090D01*
X125306551Y-79815141D01*
X125308390Y-79816737D01*
X125308449Y-79816788D01*
X125308708Y-79817009D01*
X125310791Y-79818754D01*
X125310813Y-79818772D01*
X125344760Y-79846729D01*
X125344796Y-79846759D01*
X125344812Y-79846771D01*
X125352461Y-79852679D01*
X125352477Y-79852691D01*
X125353494Y-79853427D01*
X125353744Y-79853596D01*
X125361628Y-79858932D01*
X125399660Y-79882952D01*
X125402293Y-79884577D01*
X125402347Y-79884610D01*
X125402359Y-79884617D01*
X125402689Y-79884816D01*
X125405079Y-79886228D01*
X125424079Y-79897228D01*
X125430986Y-79900997D01*
X125431892Y-79901462D01*
X125439084Y-79904923D01*
X125459084Y-79913923D01*
X125460705Y-79914641D01*
X125460870Y-79914713D01*
X125461807Y-79915118D01*
X125482807Y-79924118D01*
X125488704Y-79926504D01*
X125489481Y-79926800D01*
X125495665Y-79929007D01*
X125537665Y-79943007D01*
X125545040Y-79945264D01*
X125545986Y-79945528D01*
X125549416Y-79946395D01*
X125549415Y-79946399D01*
X125549486Y-79946413D01*
X125551762Y-79946989D01*
X125552585Y-79947198D01*
X125553388Y-79947406D01*
X125554275Y-79947600D01*
X125575322Y-79952384D01*
X125578397Y-79953050D01*
X125578824Y-79953138D01*
X125582394Y-79953831D01*
X125604394Y-79957831D01*
X125608013Y-79958445D01*
X125608451Y-79958514D01*
X125608497Y-79958520D01*
X125608505Y-79958522D01*
X125611631Y-79958981D01*
X125615206Y-79959468D01*
X125633639Y-79961982D01*
X125640493Y-79962762D01*
X125641390Y-79962844D01*
X125641402Y-79962844D01*
X125641404Y-79962845D01*
X125641624Y-79962860D01*
X125642458Y-79962917D01*
X125642522Y-79962924D01*
X125642789Y-79962940D01*
X125643858Y-79963013D01*
X125648485Y-79963330D01*
X125692485Y-79965330D01*
X125695511Y-79965398D01*
X125699542Y-79965490D01*
X125699546Y-79965490D01*
X125700458Y-79965490D01*
X125703984Y-79965410D01*
X125707515Y-79965330D01*
X125751515Y-79963330D01*
X125758610Y-79962844D01*
X125759507Y-79962762D01*
X125766361Y-79961982D01*
X125788361Y-79958982D01*
X125791549Y-79958514D01*
X125791987Y-79958445D01*
X125795606Y-79957831D01*
X125817606Y-79953831D01*
X125821176Y-79953138D01*
X125821603Y-79953050D01*
X125824678Y-79952384D01*
X125846678Y-79947384D01*
X125854014Y-79945528D01*
X125854960Y-79945264D01*
X125862335Y-79943007D01*
X125904335Y-79929007D01*
X125910519Y-79926800D01*
X125911296Y-79926504D01*
X125917193Y-79924118D01*
X125938193Y-79915118D01*
X125939130Y-79914713D01*
X125939295Y-79914641D01*
X125940916Y-79913923D01*
X125960916Y-79904923D01*
X125968108Y-79901462D01*
X125969014Y-79900997D01*
X125975921Y-79897228D01*
X125994921Y-79886228D01*
X125997311Y-79884816D01*
X125997641Y-79884617D01*
X126000376Y-79882929D01*
X126038376Y-79858929D01*
X126046506Y-79853427D01*
X126047523Y-79852691D01*
X126055209Y-79846754D01*
X126089209Y-79818754D01*
X126091292Y-79817009D01*
X126091551Y-79816788D01*
X126093498Y-79815098D01*
X126110498Y-79800098D01*
X126117571Y-79793453D01*
X126118453Y-79792571D01*
X126125098Y-79785498D01*
X126140098Y-79768498D01*
X126141788Y-79766551D01*
X126142009Y-79766292D01*
X126143754Y-79764209D01*
X126171754Y-79730209D01*
X126177691Y-79722523D01*
X126178427Y-79721506D01*
X126183929Y-79713376D01*
X126193687Y-79697923D01*
X126194480Y-79696687D01*
X126195226Y-79695538D01*
X126196059Y-79694271D01*
X126204309Y-79681898D01*
X126204311Y-79681893D01*
X126205699Y-79679813D01*
X126208660Y-79675153D01*
X126209107Y-79674467D01*
X126209312Y-79674128D01*
X126209321Y-79674115D01*
X126209762Y-79673387D01*
X126213014Y-79667757D01*
X126224014Y-79647757D01*
X126226884Y-79642283D01*
X126227241Y-79641568D01*
X126229923Y-79635916D01*
X126238923Y-79615916D01*
X126239641Y-79614295D01*
X126239713Y-79614130D01*
X126240118Y-79613193D01*
X126249118Y-79592193D01*
X126251504Y-79586296D01*
X126251800Y-79585519D01*
X126254007Y-79579335D01*
X126268007Y-79537335D01*
X126270264Y-79529960D01*
X126270528Y-79529014D01*
X126272384Y-79521678D01*
X126277384Y-79499678D01*
X126278050Y-79496603D01*
X126278138Y-79496176D01*
X126278831Y-79492606D01*
X126282831Y-79470606D01*
X126283445Y-79466987D01*
X126283514Y-79466549D01*
X126283982Y-79463361D01*
X126286982Y-79441361D01*
X126287762Y-79434507D01*
X126287844Y-79433610D01*
X126288330Y-79426515D01*
X126289178Y-79407852D01*
X126600000Y-79407852D01*
X126606400Y-79467370D01*
X126606402Y-79467377D01*
X126618340Y-79499384D01*
X126656645Y-79602086D01*
X126656649Y-79602093D01*
X126686745Y-79642296D01*
X126742807Y-79717185D01*
X126742813Y-79717191D01*
X126760199Y-79730206D01*
X126857906Y-79803350D01*
X126857913Y-79803354D01*
X126992620Y-79853596D01*
X126992627Y-79853598D01*
X126999468Y-79854333D01*
X127052138Y-79859998D01*
X127052155Y-79859999D01*
X127052172Y-79860000D01*
X127100000Y-79860000D01*
X127100000Y-79010000D01*
X126600000Y-79010000D01*
X126600000Y-79407852D01*
X126289178Y-79407852D01*
X126290330Y-79382515D01*
X126290452Y-79378878D01*
X126290462Y-79378424D01*
X126290500Y-79375000D01*
X126290500Y-78857329D01*
X126295523Y-78822393D01*
X126299927Y-78807395D01*
X126337672Y-78748644D01*
X126339041Y-78747457D01*
X126393920Y-78719977D01*
X126401479Y-78718333D01*
X126427832Y-78715500D01*
X126730623Y-78715500D01*
X126735505Y-78712834D01*
X126761863Y-78710000D01*
X127100000Y-78710000D01*
X127100000Y-77860000D01*
X127052169Y-77860000D01*
X127052165Y-77860000D01*
X127025479Y-77862869D01*
X126990209Y-77861609D01*
X126975831Y-77859015D01*
X126913352Y-77827740D01*
X126878265Y-77769789D01*
X126874918Y-77757588D01*
X126870500Y-77724784D01*
X126870500Y-77642329D01*
X126875523Y-77607393D01*
X126879927Y-77592395D01*
X126917672Y-77533644D01*
X126919041Y-77532457D01*
X126973920Y-77504977D01*
X126981479Y-77503333D01*
X127007832Y-77500500D01*
X132987670Y-77500500D01*
X133022606Y-77505523D01*
X133037604Y-77509927D01*
X133096355Y-77547672D01*
X133097542Y-77549041D01*
X133125018Y-77603902D01*
X133126663Y-77611460D01*
X133129500Y-77637831D01*
X133129500Y-77723655D01*
X133124475Y-77758598D01*
X133120357Y-77772619D01*
X133082578Y-77831395D01*
X133021214Y-77860080D01*
X133008728Y-77862103D01*
X132975645Y-77862989D01*
X132947840Y-77860000D01*
X132947830Y-77860000D01*
X132900000Y-77860000D01*
X132900000Y-78343570D01*
X132894976Y-78378508D01*
X132891789Y-78389361D01*
X132854014Y-78448138D01*
X132790457Y-78477161D01*
X132721307Y-78467220D01*
X132714329Y-78464033D01*
X132678157Y-78438919D01*
X132648926Y-78409688D01*
X132627774Y-78381432D01*
X132615167Y-78358343D01*
X132600000Y-78298918D01*
X132600000Y-77860000D01*
X132552155Y-77860000D01*
X132552146Y-77860000D01*
X132492628Y-77866400D01*
X132492621Y-77866402D01*
X132357910Y-77916646D01*
X132357907Y-77916648D01*
X132242813Y-78002807D01*
X132242811Y-78002809D01*
X132242801Y-78002821D01*
X132156649Y-78117905D01*
X132156647Y-78117907D01*
X132156640Y-78117923D01*
X132155862Y-78120010D01*
X132138955Y-78150965D01*
X132126465Y-78167649D01*
X132079466Y-78205783D01*
X132074705Y-78207996D01*
X132046635Y-78217166D01*
X132039508Y-78218584D01*
X132008146Y-78220761D01*
X132002934Y-78220459D01*
X132002924Y-78220459D01*
X132000320Y-78220739D01*
X131962902Y-78219063D01*
X131914826Y-78209500D01*
X131914822Y-78209500D01*
X131914820Y-78209500D01*
X131585180Y-78209500D01*
X131585178Y-78209500D01*
X131585176Y-78209500D01*
X131567376Y-78213040D01*
X131556428Y-78214713D01*
X131500333Y-78220737D01*
X131462902Y-78219063D01*
X131414826Y-78209500D01*
X131414822Y-78209500D01*
X131414820Y-78209500D01*
X131085180Y-78209500D01*
X131085178Y-78209500D01*
X131085176Y-78209500D01*
X131067376Y-78213040D01*
X131056428Y-78214713D01*
X131000333Y-78220737D01*
X130962902Y-78219063D01*
X130914826Y-78209500D01*
X130914822Y-78209500D01*
X130914820Y-78209500D01*
X130585180Y-78209500D01*
X130585178Y-78209500D01*
X130585176Y-78209500D01*
X130567376Y-78213040D01*
X130556428Y-78214713D01*
X130500333Y-78220737D01*
X130462902Y-78219063D01*
X130414826Y-78209500D01*
X130414822Y-78209500D01*
X130414820Y-78209500D01*
X130085180Y-78209500D01*
X130085178Y-78209500D01*
X130085177Y-78209500D01*
X130067368Y-78213042D01*
X130057537Y-78214590D01*
X130028768Y-78217943D01*
X130028718Y-78217690D01*
X130014225Y-78219246D01*
X130012805Y-78219804D01*
X130003476Y-78220892D01*
X130001219Y-78220505D01*
X129992517Y-78221679D01*
X129991970Y-78221694D01*
X129964380Y-78219358D01*
X129958156Y-78218120D01*
X129921451Y-78204520D01*
X129909739Y-78197917D01*
X129908997Y-78197529D01*
X129908908Y-78197449D01*
X129908043Y-78196961D01*
X129908153Y-78196764D01*
X129862761Y-78155618D01*
X129857969Y-78148305D01*
X129845503Y-78123675D01*
X129843353Y-78117912D01*
X129843352Y-78117910D01*
X129843351Y-78117907D01*
X129757190Y-78002812D01*
X129757187Y-78002809D01*
X129757185Y-78002807D01*
X129699317Y-77959487D01*
X129642093Y-77916649D01*
X129642088Y-77916646D01*
X129642089Y-77916646D01*
X129507377Y-77866402D01*
X129507370Y-77866400D01*
X129447852Y-77860000D01*
X129447844Y-77860000D01*
X129400000Y-77860000D01*
X129400000Y-78343570D01*
X129394976Y-78378508D01*
X129391789Y-78389361D01*
X129354014Y-78448138D01*
X129290457Y-78477161D01*
X129221307Y-78467220D01*
X129214329Y-78464033D01*
X129178157Y-78438919D01*
X129148926Y-78409688D01*
X129127774Y-78381432D01*
X129115167Y-78358343D01*
X129100000Y-78298918D01*
X129100000Y-77860000D01*
X129052155Y-77860000D01*
X129052146Y-77860000D01*
X128992628Y-77866400D01*
X128992621Y-77866402D01*
X128857910Y-77916646D01*
X128857907Y-77916648D01*
X128742813Y-78002807D01*
X128742811Y-78002809D01*
X128742801Y-78002821D01*
X128656649Y-78117905D01*
X128656647Y-78117907D01*
X128656640Y-78117923D01*
X128655862Y-78120010D01*
X128638955Y-78150965D01*
X128626465Y-78167649D01*
X128579466Y-78205783D01*
X128574705Y-78207996D01*
X128546635Y-78217166D01*
X128539508Y-78218584D01*
X128508146Y-78220761D01*
X128502934Y-78220459D01*
X128502924Y-78220459D01*
X128500320Y-78220739D01*
X128462902Y-78219063D01*
X128414826Y-78209500D01*
X128414822Y-78209500D01*
X128414820Y-78209500D01*
X128085180Y-78209500D01*
X128085178Y-78209500D01*
X128085177Y-78209500D01*
X128067368Y-78213042D01*
X128057537Y-78214590D01*
X128028768Y-78217943D01*
X128028718Y-78217690D01*
X128014225Y-78219246D01*
X128012805Y-78219804D01*
X128003476Y-78220892D01*
X128001219Y-78220505D01*
X127992517Y-78221679D01*
X127991970Y-78221694D01*
X127964380Y-78219358D01*
X127958156Y-78218120D01*
X127921451Y-78204520D01*
X127909739Y-78197917D01*
X127908997Y-78197529D01*
X127908908Y-78197449D01*
X127908043Y-78196961D01*
X127908153Y-78196764D01*
X127862761Y-78155618D01*
X127857969Y-78148305D01*
X127845503Y-78123675D01*
X127843353Y-78117912D01*
X127843352Y-78117910D01*
X127843351Y-78117907D01*
X127757190Y-78002812D01*
X127757187Y-78002809D01*
X127757185Y-78002807D01*
X127699317Y-77959487D01*
X127642093Y-77916649D01*
X127642086Y-77916645D01*
X127522292Y-77871965D01*
X127507377Y-77866402D01*
X127507370Y-77866400D01*
X127447852Y-77860000D01*
X127447844Y-77860000D01*
X127400000Y-77860000D01*
X127400000Y-79860000D01*
X127447828Y-79860000D01*
X127447836Y-79860000D01*
X127447847Y-79859999D01*
X127483560Y-79856158D01*
X127507372Y-79853598D01*
X127507379Y-79853596D01*
X127642086Y-79803354D01*
X127642093Y-79803350D01*
X127757187Y-79717190D01*
X127757190Y-79717187D01*
X127843351Y-79602092D01*
X127843351Y-79602091D01*
X127843351Y-79602090D01*
X127844675Y-79600322D01*
X127861039Y-79569039D01*
X127873530Y-79552353D01*
X127920520Y-79514222D01*
X127925282Y-79512008D01*
X127953361Y-79502833D01*
X127958722Y-79501767D01*
X127958723Y-79501766D01*
X127960498Y-79501413D01*
X127991862Y-79499238D01*
X127997057Y-79499539D01*
X127997120Y-79499532D01*
X127997146Y-79499536D01*
X128002175Y-79499413D01*
X128002200Y-79500448D01*
X128065881Y-79511931D01*
X128067797Y-79512911D01*
X128079338Y-79518948D01*
X128129610Y-79567448D01*
X128133246Y-79573833D01*
X128149501Y-79635207D01*
X128149501Y-82163329D01*
X128149500Y-82163347D01*
X128149500Y-82339045D01*
X128149501Y-82339058D01*
X128149501Y-83032071D01*
X128144477Y-83067008D01*
X128137065Y-83092249D01*
X128105770Y-83144993D01*
X122117726Y-89133036D01*
X122089470Y-89154188D01*
X122075749Y-89161680D01*
X122007492Y-89176532D01*
X122001274Y-89176088D01*
X121935807Y-89151679D01*
X121935181Y-89151207D01*
X121879869Y-89109263D01*
X121855068Y-89084152D01*
X121846819Y-89072989D01*
X121822808Y-89007375D01*
X121838081Y-88939202D01*
X121842037Y-88932063D01*
X121875563Y-88893374D01*
X121942563Y-88842566D01*
X122033920Y-88722095D01*
X122089386Y-88581443D01*
X122100000Y-88493053D01*
X122100000Y-88250000D01*
X121141830Y-88250000D01*
X121106889Y-88244975D01*
X121091890Y-88240570D01*
X121033144Y-88202827D01*
X121031957Y-88201458D01*
X121004477Y-88146583D01*
X121002832Y-88139021D01*
X121000000Y-88112668D01*
X121000000Y-88000000D01*
X120891830Y-88000000D01*
X120856889Y-87994975D01*
X120841890Y-87990570D01*
X120783144Y-87952827D01*
X120781957Y-87951458D01*
X120754477Y-87896583D01*
X120752832Y-87889021D01*
X120750000Y-87862668D01*
X120750000Y-87750000D01*
X121250000Y-87750000D01*
X122100000Y-87750000D01*
X122100000Y-87506946D01*
X122089386Y-87418556D01*
X122033920Y-87277904D01*
X121942564Y-87157435D01*
X121822095Y-87066079D01*
X121822096Y-87066079D01*
X121681441Y-87010612D01*
X121632062Y-87004683D01*
X121593054Y-87000000D01*
X121593049Y-87000000D01*
X121250000Y-87000000D01*
X121250000Y-87750000D01*
X120750000Y-87750000D01*
X120750000Y-87000000D01*
X120406946Y-87000000D01*
X120367159Y-87004777D01*
X120318557Y-87010612D01*
X120177904Y-87066078D01*
X120177903Y-87066079D01*
X120057435Y-87157435D01*
X119966080Y-87277901D01*
X119966077Y-87277907D01*
X119946395Y-87327818D01*
X119921317Y-87360049D01*
X119902667Y-87386380D01*
X119837868Y-87412511D01*
X119769228Y-87399461D01*
X119718539Y-87351374D01*
X119705339Y-87318641D01*
X119704069Y-87313463D01*
X119700500Y-87283925D01*
X119700500Y-79681896D01*
X120499500Y-79681896D01*
X120499500Y-79918102D01*
X120518424Y-80037583D01*
X120536446Y-80151368D01*
X120609433Y-80375996D01*
X120679785Y-80514068D01*
X120716657Y-80586433D01*
X120855483Y-80777510D01*
X121022490Y-80944517D01*
X121213567Y-81083343D01*
X121312991Y-81134002D01*
X121424003Y-81190566D01*
X121424876Y-81191011D01*
X121428630Y-81192070D01*
X121476335Y-81207569D01*
X121544410Y-81229688D01*
X121544411Y-81229689D01*
X121544412Y-81229689D01*
X121648631Y-81263553D01*
X121881903Y-81300500D01*
X121881908Y-81300500D01*
X122118096Y-81300500D01*
X122118097Y-81300500D01*
X122351368Y-81263553D01*
X122575992Y-81190568D01*
X122786433Y-81083343D01*
X122977510Y-80944517D01*
X123144517Y-80777510D01*
X123283343Y-80586433D01*
X123390568Y-80375992D01*
X123463553Y-80151368D01*
X123481575Y-80037583D01*
X123500500Y-79918097D01*
X123500500Y-79681902D01*
X123463553Y-79448631D01*
X123390566Y-79224003D01*
X123283342Y-79013566D01*
X123247282Y-78963934D01*
X123247282Y-78963933D01*
X123247281Y-78963933D01*
X123246477Y-78962827D01*
X123144517Y-78822490D01*
X122977510Y-78655483D01*
X122786433Y-78516657D01*
X122703095Y-78474194D01*
X122575996Y-78409433D01*
X122351368Y-78336446D01*
X122347024Y-78335758D01*
X122118102Y-78299500D01*
X122118097Y-78299500D01*
X122118092Y-78299500D01*
X121881908Y-78299500D01*
X121881903Y-78299500D01*
X121881898Y-78299500D01*
X121648636Y-78336445D01*
X121648634Y-78336445D01*
X121648631Y-78336446D01*
X121424003Y-78409433D01*
X121386702Y-78428439D01*
X121213566Y-78516656D01*
X121167674Y-78550000D01*
X121034361Y-78646858D01*
X121026980Y-78650991D01*
X120850990Y-78826981D01*
X120846858Y-78834360D01*
X120826398Y-78862521D01*
X120719248Y-79010000D01*
X120716657Y-79013566D01*
X120609433Y-79224003D01*
X120536446Y-79448631D01*
X120536445Y-79448634D01*
X120536445Y-79448636D01*
X120499500Y-79681896D01*
X119700500Y-79681896D01*
X119700500Y-78309142D01*
X119700649Y-78303058D01*
X119700948Y-78296971D01*
X119701396Y-78290901D01*
X119708210Y-78221715D01*
X119708453Y-78219246D01*
X119714068Y-78162227D01*
X119715849Y-78150217D01*
X119718218Y-78138306D01*
X119721168Y-78126530D01*
X119756049Y-78011541D01*
X119760146Y-78000094D01*
X119764781Y-77988904D01*
X119764783Y-77988901D01*
X119764783Y-77988898D01*
X119769971Y-77977927D01*
X119826617Y-77871951D01*
X119832868Y-77861523D01*
X119833833Y-77860080D01*
X119839609Y-77851435D01*
X119846854Y-77841668D01*
X119848907Y-77839168D01*
X119923070Y-77748798D01*
X119931229Y-77739798D01*
X119939803Y-77731223D01*
X119948788Y-77723078D01*
X120041699Y-77646827D01*
X120051443Y-77639603D01*
X120061534Y-77632860D01*
X120071945Y-77626620D01*
X120177920Y-77569975D01*
X120188898Y-77564783D01*
X120198213Y-77560924D01*
X120200094Y-77560146D01*
X120211541Y-77556049D01*
X120326530Y-77521168D01*
X120338306Y-77518218D01*
X120350217Y-77515849D01*
X120362221Y-77514069D01*
X120485170Y-77501960D01*
X120490931Y-77501393D01*
X120490932Y-77501393D01*
X120496972Y-77500948D01*
X120503060Y-77500649D01*
X120509143Y-77500500D01*
X124967670Y-77500500D01*
X125002606Y-77505523D01*
G37*
%TD.AperFunction*%
%TA.AperFunction,Conductor*%
G36*
X130065884Y-79511934D02*
G01*
X130067859Y-79512944D01*
X130075508Y-79516945D01*
X130125787Y-79565460D01*
X130141856Y-79633457D01*
X130131721Y-79662193D01*
X130135357Y-79663215D01*
X130129411Y-79684371D01*
X130147764Y-79922601D01*
X130145439Y-79957819D01*
X130140294Y-79982110D01*
X130107145Y-80043616D01*
X130106666Y-80044097D01*
X129574789Y-80575974D01*
X129546539Y-80597123D01*
X129536612Y-80602544D01*
X129468339Y-80617398D01*
X129402874Y-80592984D01*
X129361001Y-80537052D01*
X129358314Y-80529846D01*
X129350501Y-80486526D01*
X129350501Y-79999676D01*
X129355524Y-79964740D01*
X129355939Y-79963329D01*
X129359928Y-79949741D01*
X129397700Y-79890967D01*
X129401724Y-79887480D01*
X129450087Y-79861619D01*
X129451594Y-79861205D01*
X129471162Y-79857491D01*
X129507372Y-79853598D01*
X129507379Y-79853596D01*
X129642086Y-79803354D01*
X129642093Y-79803350D01*
X129757187Y-79717190D01*
X129757190Y-79717187D01*
X129843351Y-79602092D01*
X129843351Y-79602091D01*
X129843351Y-79602090D01*
X129844675Y-79600322D01*
X129861038Y-79569040D01*
X129872908Y-79553183D01*
X129921655Y-79514250D01*
X129923321Y-79513508D01*
X129960576Y-79503462D01*
X129971285Y-79502310D01*
X129971286Y-79502311D01*
X129997127Y-79499531D01*
X130065884Y-79511934D01*
G37*
%TD.AperFunction*%
%TD*%
M02*
