%TF.GenerationSoftware,KiCad,Pcbnew,10.0.0*%
%TF.CreationDate,2026-04-13T21:30:17-04:00*%
%TF.ProjectId,leaf_dongle,6c656166-5f64-46f6-9e67-6c652e6b6963,rev?*%
%TF.SameCoordinates,Original*%
%TF.FileFunction,Soldermask,Top*%
%TF.FilePolarity,Negative*%
%FSLAX46Y46*%
G04 Gerber Fmt 4.6, Leading zero omitted, Abs format (unit mm)*
G04 Created by KiCad (PCBNEW 10.0.0) date 2026-04-13 21:30:17*
%MOMM*%
%LPD*%
G01*
G04 APERTURE LIST*
G04 Aperture macros list*
%AMRoundRect*
0 Rectangle with rounded corners*
0 $1 Rounding radius*
0 $2 $3 $4 $5 $6 $7 $8 $9 X,Y pos of 4 corners*
0 Add a 4 corners polygon primitive as box body*
4,1,4,$2,$3,$4,$5,$6,$7,$8,$9,$2,$3,0*
0 Add four circle primitives for the rounded corners*
1,1,$1+$1,$2,$3*
1,1,$1+$1,$4,$5*
1,1,$1+$1,$6,$7*
1,1,$1+$1,$8,$9*
0 Add four rect primitives between the rounded corners*
20,1,$1+$1,$2,$3,$4,$5,0*
20,1,$1+$1,$4,$5,$6,$7,0*
20,1,$1+$1,$6,$7,$8,$9,0*
20,1,$1+$1,$8,$9,$2,$3,0*%
G04 Aperture macros list end*
%ADD10C,0.010000*%
%ADD11C,0.990600*%
%ADD12C,0.787400*%
%ADD13RoundRect,0.055080X0.595720X-0.495720X0.595720X0.495720X-0.595720X0.495720X-0.595720X-0.495720X0*%
%ADD14RoundRect,0.055080X0.495720X0.595720X-0.495720X0.595720X-0.495720X-0.595720X0.495720X-0.595720X0*%
%ADD15RoundRect,0.055080X-0.595720X0.495720X-0.595720X-0.495720X0.595720X-0.495720X0.595720X0.495720X0*%
%ADD16RoundRect,0.310160X-1.240640X-1.240640X1.240640X-1.240640X1.240640X1.240640X-1.240640X1.240640X0*%
%ADD17R,1.500000X1.000000*%
%ADD18RoundRect,0.120000X0.580000X0.280000X-0.580000X0.280000X-0.580000X-0.280000X0.580000X-0.280000X0*%
%ADD19RoundRect,0.060000X0.640000X0.140000X-0.640000X0.140000X-0.640000X-0.140000X0.640000X-0.140000X0*%
%ADD20RoundRect,0.060000X-0.140000X0.640000X-0.140000X-0.640000X0.140000X-0.640000X0.140000X0.640000X0*%
%ADD21RoundRect,0.060000X-0.640000X-0.140000X0.640000X-0.140000X0.640000X0.140000X-0.640000X0.140000X0*%
%ADD22RoundRect,0.060000X0.440000X0.140000X-0.440000X0.140000X-0.440000X-0.140000X0.440000X-0.140000X0*%
%ADD23RoundRect,0.250000X0.262500X0.450000X-0.262500X0.450000X-0.262500X-0.450000X0.262500X-0.450000X0*%
%ADD24RoundRect,0.250000X-0.450000X0.262500X-0.450000X-0.262500X0.450000X-0.262500X0.450000X0.262500X0*%
%ADD25RoundRect,0.102000X0.150000X0.500000X-0.150000X0.500000X-0.150000X-0.500000X0.150000X-0.500000X0*%
G04 APERTURE END LIST*
D10*
%TO.C,J1*%
X126805000Y-78650000D02*
X126225000Y-78650000D01*
X126225000Y-79375000D01*
X126224000Y-79402000D01*
X126222000Y-79430000D01*
X126219000Y-79457000D01*
X126214000Y-79484000D01*
X126207000Y-79511000D01*
X126199000Y-79537000D01*
X126190000Y-79563000D01*
X126180000Y-79589000D01*
X126168000Y-79613000D01*
X126155000Y-79637000D01*
X126140000Y-79661000D01*
X126125000Y-79684000D01*
X126108000Y-79705000D01*
X126090000Y-79726000D01*
X126071000Y-79746000D01*
X126051000Y-79765000D01*
X126030000Y-79783000D01*
X126009000Y-79800000D01*
X125986000Y-79815000D01*
X125963000Y-79830000D01*
X125938000Y-79843000D01*
X125914000Y-79855000D01*
X125888000Y-79865000D01*
X125862000Y-79874000D01*
X125836000Y-79882000D01*
X125809000Y-79889000D01*
X125782000Y-79894000D01*
X125755000Y-79897000D01*
X125727000Y-79899000D01*
X125700000Y-79900000D01*
X125673000Y-79899000D01*
X125645000Y-79897000D01*
X125618000Y-79894000D01*
X125591000Y-79889000D01*
X125564000Y-79882000D01*
X125538000Y-79874000D01*
X125512000Y-79865000D01*
X125486000Y-79855000D01*
X125462000Y-79843000D01*
X125437000Y-79830000D01*
X125414000Y-79815000D01*
X125391000Y-79800000D01*
X125370000Y-79783000D01*
X125349000Y-79765000D01*
X125329000Y-79746000D01*
X125310000Y-79726000D01*
X125292000Y-79705000D01*
X125275000Y-79684000D01*
X125260000Y-79661000D01*
X125245000Y-79638000D01*
X125232000Y-79613000D01*
X125220000Y-79589000D01*
X125210000Y-79563000D01*
X125201000Y-79537000D01*
X125193000Y-79511000D01*
X125186000Y-79484000D01*
X125181000Y-79457000D01*
X125178000Y-79430000D01*
X125176000Y-79402000D01*
X125175000Y-79375000D01*
X125175000Y-77450000D01*
X126805000Y-77450000D01*
X126805000Y-78650000D01*
G36*
X126805000Y-78650000D02*
G01*
X126225000Y-78650000D01*
X126225000Y-79375000D01*
X126224000Y-79402000D01*
X126222000Y-79430000D01*
X126219000Y-79457000D01*
X126214000Y-79484000D01*
X126207000Y-79511000D01*
X126199000Y-79537000D01*
X126190000Y-79563000D01*
X126180000Y-79589000D01*
X126168000Y-79613000D01*
X126155000Y-79637000D01*
X126140000Y-79661000D01*
X126125000Y-79684000D01*
X126108000Y-79705000D01*
X126090000Y-79726000D01*
X126071000Y-79746000D01*
X126051000Y-79765000D01*
X126030000Y-79783000D01*
X126009000Y-79800000D01*
X125986000Y-79815000D01*
X125963000Y-79830000D01*
X125938000Y-79843000D01*
X125914000Y-79855000D01*
X125888000Y-79865000D01*
X125862000Y-79874000D01*
X125836000Y-79882000D01*
X125809000Y-79889000D01*
X125782000Y-79894000D01*
X125755000Y-79897000D01*
X125727000Y-79899000D01*
X125700000Y-79900000D01*
X125673000Y-79899000D01*
X125645000Y-79897000D01*
X125618000Y-79894000D01*
X125591000Y-79889000D01*
X125564000Y-79882000D01*
X125538000Y-79874000D01*
X125512000Y-79865000D01*
X125486000Y-79855000D01*
X125462000Y-79843000D01*
X125437000Y-79830000D01*
X125414000Y-79815000D01*
X125391000Y-79800000D01*
X125370000Y-79783000D01*
X125349000Y-79765000D01*
X125329000Y-79746000D01*
X125310000Y-79726000D01*
X125292000Y-79705000D01*
X125275000Y-79684000D01*
X125260000Y-79661000D01*
X125245000Y-79638000D01*
X125232000Y-79613000D01*
X125220000Y-79589000D01*
X125210000Y-79563000D01*
X125201000Y-79537000D01*
X125193000Y-79511000D01*
X125186000Y-79484000D01*
X125181000Y-79457000D01*
X125178000Y-79430000D01*
X125176000Y-79402000D01*
X125175000Y-79375000D01*
X125175000Y-77450000D01*
X126805000Y-77450000D01*
X126805000Y-78650000D01*
G37*
X134825000Y-79375000D02*
X134824000Y-79402000D01*
X134822000Y-79430000D01*
X134819000Y-79457000D01*
X134814000Y-79484000D01*
X134807000Y-79511000D01*
X134799000Y-79537000D01*
X134790000Y-79563000D01*
X134780000Y-79589000D01*
X134768000Y-79613000D01*
X134755000Y-79638000D01*
X134740000Y-79661000D01*
X134725000Y-79684000D01*
X134708000Y-79705000D01*
X134690000Y-79726000D01*
X134671000Y-79746000D01*
X134651000Y-79765000D01*
X134630000Y-79783000D01*
X134609000Y-79800000D01*
X134586000Y-79815000D01*
X134563000Y-79830000D01*
X134538000Y-79843000D01*
X134514000Y-79855000D01*
X134488000Y-79865000D01*
X134462000Y-79874000D01*
X134436000Y-79882000D01*
X134409000Y-79889000D01*
X134382000Y-79894000D01*
X134355000Y-79897000D01*
X134327000Y-79899000D01*
X134300000Y-79900000D01*
X134273000Y-79899000D01*
X134245000Y-79897000D01*
X134218000Y-79894000D01*
X134191000Y-79889000D01*
X134164000Y-79882000D01*
X134138000Y-79874000D01*
X134112000Y-79865000D01*
X134086000Y-79855000D01*
X134062000Y-79843000D01*
X134037000Y-79830000D01*
X134014000Y-79815000D01*
X133991000Y-79800000D01*
X133970000Y-79783000D01*
X133949000Y-79765000D01*
X133929000Y-79746000D01*
X133910000Y-79726000D01*
X133892000Y-79705000D01*
X133875000Y-79684000D01*
X133860000Y-79661000D01*
X133845000Y-79637000D01*
X133832000Y-79613000D01*
X133820000Y-79589000D01*
X133810000Y-79563000D01*
X133801000Y-79537000D01*
X133793000Y-79511000D01*
X133786000Y-79484000D01*
X133781000Y-79457000D01*
X133778000Y-79430000D01*
X133776000Y-79402000D01*
X133775000Y-79375000D01*
X133775000Y-78650000D01*
X133195000Y-78650000D01*
X133195000Y-77450000D01*
X134825000Y-77450000D01*
X134825000Y-79375000D01*
G36*
X134825000Y-79375000D02*
G01*
X134824000Y-79402000D01*
X134822000Y-79430000D01*
X134819000Y-79457000D01*
X134814000Y-79484000D01*
X134807000Y-79511000D01*
X134799000Y-79537000D01*
X134790000Y-79563000D01*
X134780000Y-79589000D01*
X134768000Y-79613000D01*
X134755000Y-79638000D01*
X134740000Y-79661000D01*
X134725000Y-79684000D01*
X134708000Y-79705000D01*
X134690000Y-79726000D01*
X134671000Y-79746000D01*
X134651000Y-79765000D01*
X134630000Y-79783000D01*
X134609000Y-79800000D01*
X134586000Y-79815000D01*
X134563000Y-79830000D01*
X134538000Y-79843000D01*
X134514000Y-79855000D01*
X134488000Y-79865000D01*
X134462000Y-79874000D01*
X134436000Y-79882000D01*
X134409000Y-79889000D01*
X134382000Y-79894000D01*
X134355000Y-79897000D01*
X134327000Y-79899000D01*
X134300000Y-79900000D01*
X134273000Y-79899000D01*
X134245000Y-79897000D01*
X134218000Y-79894000D01*
X134191000Y-79889000D01*
X134164000Y-79882000D01*
X134138000Y-79874000D01*
X134112000Y-79865000D01*
X134086000Y-79855000D01*
X134062000Y-79843000D01*
X134037000Y-79830000D01*
X134014000Y-79815000D01*
X133991000Y-79800000D01*
X133970000Y-79783000D01*
X133949000Y-79765000D01*
X133929000Y-79746000D01*
X133910000Y-79726000D01*
X133892000Y-79705000D01*
X133875000Y-79684000D01*
X133860000Y-79661000D01*
X133845000Y-79637000D01*
X133832000Y-79613000D01*
X133820000Y-79589000D01*
X133810000Y-79563000D01*
X133801000Y-79537000D01*
X133793000Y-79511000D01*
X133786000Y-79484000D01*
X133781000Y-79457000D01*
X133778000Y-79430000D01*
X133776000Y-79402000D01*
X133775000Y-79375000D01*
X133775000Y-78650000D01*
X133195000Y-78650000D01*
X133195000Y-77450000D01*
X134825000Y-77450000D01*
X134825000Y-79375000D01*
G37*
%TD*%
D11*
%TO.C,J2*%
X122025001Y-127415000D03*
X121009001Y-122335000D03*
X123041001Y-122335000D03*
D12*
X122660001Y-126145000D03*
X121390001Y-126145000D03*
X122660001Y-124875000D03*
X121390001Y-124875000D03*
X122660001Y-123605000D03*
X121390001Y-123605000D03*
%TD*%
D13*
%TO.C,1*%
X121000000Y-88000000D03*
X121000000Y-90000000D03*
X121000000Y-92000000D03*
X121000000Y-94000000D03*
X121000000Y-96000000D03*
X121000000Y-98000000D03*
X121000000Y-100000000D03*
X121000000Y-102000000D03*
X121000000Y-104000000D03*
X121000000Y-106000000D03*
X121000000Y-108000000D03*
X121000000Y-110000000D03*
D14*
X123000000Y-111000000D03*
X125000000Y-111000000D03*
X127000000Y-111000000D03*
X129000000Y-111000000D03*
X131000000Y-111000000D03*
X133000000Y-111000000D03*
X135000000Y-111000000D03*
X137000000Y-111000000D03*
D15*
X139000000Y-110000000D03*
X139000000Y-108000000D03*
X139000000Y-106000000D03*
X139000000Y-104000000D03*
X139000000Y-102000000D03*
X139000000Y-100000000D03*
X139000000Y-98000000D03*
X139000000Y-96000000D03*
X139000000Y-94000000D03*
X139000000Y-92000000D03*
X139000000Y-90000000D03*
X139000000Y-88000000D03*
D16*
X130000000Y-95200000D03*
%TD*%
D17*
%TO.C,D1*%
X137149450Y-119296184D03*
X137149450Y-116096184D03*
X132249450Y-116096184D03*
X132249450Y-119296184D03*
%TD*%
D18*
%TO.C,U1*%
X134600000Y-133500000D03*
D19*
X134600000Y-130500000D03*
X134600000Y-129800000D03*
X134600000Y-129100000D03*
X134600000Y-128400000D03*
X134600000Y-127700000D03*
X134600000Y-127000000D03*
X134600000Y-126300000D03*
X134600000Y-125600000D03*
X134600000Y-124900000D03*
X134600000Y-124200000D03*
D20*
X134200000Y-122100000D03*
X133500001Y-122100000D03*
X132800000Y-122100000D03*
X132100000Y-122100000D03*
X131400000Y-122100000D03*
X130700000Y-122100000D03*
X130000000Y-122100000D03*
X129300000Y-122100000D03*
X128600000Y-122100000D03*
X127900000Y-122100000D03*
X127200000Y-122100000D03*
X126500000Y-122100000D03*
X125800000Y-122100000D03*
D21*
X125400000Y-123500000D03*
D19*
X125400000Y-124200000D03*
X125400000Y-124900000D03*
X125400000Y-125600000D03*
X125400000Y-126300000D03*
X125400000Y-127000000D03*
X125400000Y-127700000D03*
X125400000Y-128400000D03*
X125400000Y-129100000D03*
X125400000Y-129800000D03*
X125400000Y-130500000D03*
X125400000Y-131200000D03*
X125400000Y-131900000D03*
X125400000Y-132600000D03*
D18*
X125400000Y-133500000D03*
D22*
X127100000Y-132950000D03*
X127100000Y-131550000D03*
%TD*%
D23*
%TO.C,R2*%
X126512500Y-113500000D03*
X124687500Y-113500000D03*
%TD*%
D17*
%TO.C,D2*%
X127750000Y-119300000D03*
X127750000Y-116100000D03*
X122850000Y-116100000D03*
X122850000Y-119300000D03*
%TD*%
D24*
%TO.C,R1*%
X130000000Y-113487500D03*
X130000000Y-115312500D03*
%TD*%
D25*
%TO.C,J1*%
X127250000Y-78860000D03*
X127750000Y-78860000D03*
X128250000Y-78860000D03*
X128750000Y-78860000D03*
X131250000Y-78860000D03*
X131750000Y-78860000D03*
X132250000Y-78860000D03*
X132750000Y-78860000D03*
X130750000Y-78860000D03*
X130250000Y-78860000D03*
X129750000Y-78860000D03*
X129250000Y-78860000D03*
%TD*%
M02*
