%TF.GenerationSoftware,KiCad,Pcbnew,9.0.8*%
%TF.CreationDate,2026-04-01T17:17:51-04:00*%
%TF.ProjectId,3leaf_fall,336c6561-665f-4666-916c-6c2e6b696361,rev?*%
%TF.SameCoordinates,Original*%
%TF.FileFunction,Profile,NP*%
%FSLAX46Y46*%
G04 Gerber Fmt 4.6, Leading zero omitted, Abs format (unit mm)*
G04 Created by KiCad (PCBNEW 9.0.8) date 2026-04-01 17:17:51*
%MOMM*%
%LPD*%
G01*
G04 APERTURE LIST*
%TA.AperFunction,Profile*%
%ADD10C,0.200000*%
%TD*%
%TA.AperFunction,Profile*%
%ADD11C,0.050000*%
%TD*%
G04 APERTURE END LIST*
D10*
X214599996Y-44153110D02*
X223839996Y-44153110D01*
X97853476Y-52649503D02*
X97853472Y-101523001D01*
X97853476Y-52649503D02*
G75*
G02*
X101163718Y-47943736I4999924J3D01*
G01*
X101163714Y-47943726D02*
G75*
G02*
X133806339Y-42253104I32686686J-91029974D01*
G01*
X102296931Y-106463240D02*
G75*
G02*
X97853441Y-101523001I554869J4967540D01*
G01*
X102296931Y-106463240D02*
X113486312Y-107826793D01*
X115187682Y-104830966D02*
G75*
G02*
X112487682Y-104830966I-1350000J0D01*
G01*
X112487682Y-104830966D02*
G75*
G02*
X115187682Y-104830966I1350000J0D01*
G01*
X116849768Y-104672734D02*
G75*
G02*
X113486313Y-107826787I-2999968J-171266D01*
G01*
X116849768Y-104672734D02*
G75*
G02*
X119893717Y-101495990I3000832J171334D01*
G01*
X119893717Y-101495973D02*
X133849774Y-101495969D01*
X132199982Y-45253110D02*
G75*
G02*
X129499982Y-45253110I-1350000J0D01*
G01*
X129499982Y-45253110D02*
G75*
G02*
X132199982Y-45253110I1350000J0D01*
G01*
X136719487Y-99370978D02*
G75*
G02*
X133849774Y-101495973I-2869687J875178D01*
G01*
X136719487Y-99370978D02*
G75*
G02*
X139589191Y-97245989I2869713J-875222D01*
G01*
X139589191Y-97246014D02*
X143812971Y-97245973D01*
X143812971Y-97245973D02*
G75*
G02*
X148853309Y-102320892I29J-5040427D01*
G01*
X148853332Y-102320892D02*
X148853332Y-107745973D01*
X149178243Y-42253113D02*
X133806339Y-42253113D01*
X151166546Y-41503115D02*
G75*
G02*
X149178243Y-42253077I-1972346J2218415D01*
G01*
X151166546Y-41503115D02*
G75*
G02*
X153138820Y-40753114I1972254J-2218185D01*
G01*
X153853320Y-112745973D02*
G75*
G02*
X148853327Y-107745973I-20J4999973D01*
G01*
X153853320Y-112745973D02*
X166017020Y-112745973D01*
X166017020Y-40753113D02*
X153138820Y-40753115D01*
X166017020Y-40753113D02*
G75*
G02*
X167849907Y-41378102I80J-2999887D01*
G01*
X166017020Y-112745973D02*
G75*
G02*
X167849890Y-113370989I-20J-3000027D01*
G01*
X169682820Y-42003113D02*
G75*
G02*
X167849887Y-41378128I-20J3000213D01*
G01*
X169682820Y-113995973D02*
G75*
G02*
X167849894Y-113370983I-20J3000173D01*
G01*
X169682820Y-113995973D02*
X182548820Y-113995973D01*
X182548820Y-113995973D02*
G75*
G02*
X184849888Y-115070955I-20J-3000327D01*
G01*
X182548920Y-42003113D02*
X169682820Y-42003113D01*
X182548920Y-42003113D02*
G75*
G02*
X184849942Y-43078117I-20J-3000187D01*
G01*
X187150920Y-116145973D02*
G75*
G02*
X184849840Y-115070995I-20J3000273D01*
G01*
X187150920Y-116145973D02*
X222104606Y-116145973D01*
X187151000Y-44153143D02*
X214599996Y-44153110D01*
X187151020Y-44153143D02*
G75*
G02*
X184849925Y-43078131I-20J3000243D01*
G01*
X206049982Y-94299970D02*
G75*
G02*
X203349982Y-94299970I-1350000J0D01*
G01*
X203349982Y-94299970D02*
G75*
G02*
X206049982Y-94299970I1350000J0D01*
G01*
X223839996Y-44153126D02*
X230173320Y-44153143D01*
X225661453Y-114680711D02*
G75*
G02*
X222104606Y-116145974I-3556853J3584411D01*
G01*
X230173320Y-44153143D02*
G75*
G02*
X234999814Y-47847599I-20J-4999957D01*
G01*
X233045251Y-47169727D02*
G75*
G02*
X230345251Y-47169727I-1350000J0D01*
G01*
X230345251Y-47169727D02*
G75*
G02*
X233045251Y-47169727I1350000J0D01*
G01*
X240005703Y-75995823D02*
G75*
G02*
X240786380Y-74176314I1545497J414123D01*
G01*
X240005703Y-75995823D02*
X244402326Y-92404240D01*
X241567045Y-72356754D02*
X234999835Y-47847593D01*
X241567045Y-72356754D02*
G75*
G02*
X240786379Y-74176313I-1545545J-414146D01*
G01*
X243108238Y-97233783D02*
X225661453Y-114680711D01*
X244402326Y-92404240D02*
G75*
G02*
X243108235Y-97233780I-4829526J-1294060D01*
G01*
D11*
%TO.C,BT1*%
X205851215Y-61043726D02*
X205851215Y-63643726D01*
X206051215Y-63843726D02*
X207651215Y-63843726D01*
X207651215Y-60843726D02*
X206051215Y-60843726D01*
X207851215Y-63643726D02*
X207851215Y-61043726D01*
X205851215Y-61043726D02*
G75*
G02*
X206051215Y-60843726I200001J-1D01*
G01*
X206051215Y-63843726D02*
G75*
G02*
X205851215Y-63643726I1J200001D01*
G01*
X207651215Y-60843726D02*
G75*
G02*
X207851215Y-61043726I-1J-200001D01*
G01*
X207851215Y-63643726D02*
G75*
G02*
X207651215Y-63843726I-200001J1D01*
G01*
%TO.C,S15*%
X152850000Y-87350000D02*
X152850000Y-83150000D01*
X153850000Y-83150000D02*
X153850000Y-87350000D01*
X164850000Y-87350000D02*
X164850000Y-83150000D01*
X165850000Y-83150000D02*
X165850000Y-87350000D01*
X152850000Y-83150000D02*
G75*
G02*
X153350000Y-82650000I500001J-1D01*
G01*
X153350000Y-82650000D02*
G75*
G02*
X153850000Y-83150000I-1J-500001D01*
G01*
X153350000Y-87850000D02*
G75*
G02*
X152850000Y-87350000I1J500001D01*
G01*
X153849999Y-87350000D02*
G75*
G02*
X153350000Y-87849999I-499998J-1D01*
G01*
X164850000Y-83150000D02*
G75*
G02*
X165350000Y-82650000I500000J0D01*
G01*
X165350000Y-82650000D02*
G75*
G02*
X165850000Y-83150000I0J-500000D01*
G01*
X165350000Y-87850000D02*
G75*
G02*
X164850000Y-87350000I0J500000D01*
G01*
X165850000Y-87350000D02*
G75*
G02*
X165350000Y-87850000I-500000J0D01*
G01*
%TO.C,S11*%
X118850000Y-76100000D02*
X118850000Y-71900000D01*
X119850000Y-71900000D02*
X119850000Y-76100000D01*
X130850000Y-76100000D02*
X130850000Y-71900000D01*
X131850000Y-71900000D02*
X131850000Y-76100000D01*
X118850000Y-71900000D02*
G75*
G02*
X119350000Y-71400000I500001J-1D01*
G01*
X119350000Y-71400000D02*
G75*
G02*
X119850000Y-71900000I-1J-500001D01*
G01*
X119350000Y-76600000D02*
G75*
G02*
X118850000Y-76100000I1J500001D01*
G01*
X119849999Y-76100000D02*
G75*
G02*
X119350000Y-76599999I-499998J-1D01*
G01*
X130850000Y-71900000D02*
G75*
G02*
X131350000Y-71400000I500000J0D01*
G01*
X131350000Y-71400000D02*
G75*
G02*
X131850000Y-71900000I0J-500000D01*
G01*
X131350000Y-76600000D02*
G75*
G02*
X130850000Y-76100000I0J500000D01*
G01*
X131850000Y-76100000D02*
G75*
G02*
X131350000Y-76600000I-500000J0D01*
G01*
%TO.C,S16*%
X135850000Y-88850000D02*
X135850000Y-84650000D01*
X136850000Y-84650000D02*
X136850000Y-88850000D01*
X147850000Y-88850000D02*
X147850000Y-84650000D01*
X148850000Y-84650000D02*
X148850000Y-88850000D01*
X135850000Y-84650000D02*
G75*
G02*
X136350000Y-84150000I500001J-1D01*
G01*
X136350000Y-84150000D02*
G75*
G02*
X136850000Y-84650000I-1J-500001D01*
G01*
X136350000Y-89350000D02*
G75*
G02*
X135850000Y-88850000I1J500001D01*
G01*
X136849999Y-88850000D02*
G75*
G02*
X136350000Y-89349999I-499998J-1D01*
G01*
X147850000Y-84650000D02*
G75*
G02*
X148350000Y-84150000I500000J0D01*
G01*
X148350000Y-84150000D02*
G75*
G02*
X148850000Y-84650000I0J-500000D01*
G01*
X148350000Y-89350000D02*
G75*
G02*
X147850000Y-88850000I0J500000D01*
G01*
X148850000Y-88850000D02*
G75*
G02*
X148350000Y-89350000I-500000J0D01*
G01*
%TO.C,S19*%
X203850000Y-107750000D02*
X203850000Y-103550000D01*
X204850000Y-103550000D02*
X204850000Y-107750000D01*
X215850000Y-107750000D02*
X215850000Y-103550000D01*
X216850000Y-103550000D02*
X216850000Y-107750000D01*
X203850000Y-103550000D02*
G75*
G02*
X204350000Y-103050000I500001J-1D01*
G01*
X204350000Y-103050000D02*
G75*
G02*
X204850000Y-103550000I-1J-500001D01*
G01*
X204350000Y-108250000D02*
G75*
G02*
X203850000Y-107750000I1J500001D01*
G01*
X204849999Y-107750000D02*
G75*
G02*
X204350000Y-108249999I-499998J-1D01*
G01*
X215850000Y-103550000D02*
G75*
G02*
X216350000Y-103050000I500000J0D01*
G01*
X216350000Y-103050000D02*
G75*
G02*
X216850000Y-103550000I0J-500000D01*
G01*
X216350000Y-108250000D02*
G75*
G02*
X215850000Y-107750000I0J500000D01*
G01*
X216850000Y-107750000D02*
G75*
G02*
X216350000Y-108250000I-500000J0D01*
G01*
%TO.C,S6*%
X101850000Y-60850000D02*
X101850000Y-56650000D01*
X102850000Y-56650000D02*
X102850000Y-60850000D01*
X113850000Y-60850000D02*
X113850000Y-56650000D01*
X114850000Y-56650000D02*
X114850000Y-60850000D01*
X101850000Y-56650000D02*
G75*
G02*
X102350000Y-56150000I500001J-1D01*
G01*
X102350000Y-56150000D02*
G75*
G02*
X102850000Y-56650000I-1J-500001D01*
G01*
X102350000Y-61350000D02*
G75*
G02*
X101850000Y-60850000I1J500001D01*
G01*
X102849999Y-60850000D02*
G75*
G02*
X102350000Y-61349999I-499998J-1D01*
G01*
X113850000Y-56650000D02*
G75*
G02*
X114350000Y-56150000I500000J0D01*
G01*
X114350000Y-56150000D02*
G75*
G02*
X114850000Y-56650000I0J-500000D01*
G01*
X114350000Y-61350000D02*
G75*
G02*
X113850000Y-60850000I0J500000D01*
G01*
X114850000Y-60850000D02*
G75*
G02*
X114350000Y-61350000I-500000J0D01*
G01*
%TO.C,S20*%
X186850000Y-107750000D02*
X186850000Y-103550000D01*
X187850000Y-103550000D02*
X187850000Y-107750000D01*
X198850000Y-107750000D02*
X198850000Y-103550000D01*
X199850000Y-103550000D02*
X199850000Y-107750000D01*
X186850000Y-103550000D02*
G75*
G02*
X187350000Y-103050000I500001J-1D01*
G01*
X187350000Y-103050000D02*
G75*
G02*
X187850000Y-103550000I-1J-500001D01*
G01*
X187350000Y-108250000D02*
G75*
G02*
X186850000Y-107750000I1J500001D01*
G01*
X187849999Y-107750000D02*
G75*
G02*
X187350000Y-108249999I-499998J-1D01*
G01*
X198850000Y-103550000D02*
G75*
G02*
X199350000Y-103050000I500000J0D01*
G01*
X199350000Y-103050000D02*
G75*
G02*
X199850000Y-103550000I0J-500000D01*
G01*
X199350000Y-108250000D02*
G75*
G02*
X198850000Y-107750000I0J500000D01*
G01*
X199850000Y-107750000D02*
G75*
G02*
X199350000Y-108250000I-500000J0D01*
G01*
%TO.C,S2*%
X169850000Y-54600000D02*
X169850000Y-50400000D01*
X170850000Y-50400000D02*
X170850000Y-54600000D01*
X181850000Y-54600000D02*
X181850000Y-50400000D01*
X182850000Y-50400000D02*
X182850000Y-54600000D01*
X169850000Y-50400000D02*
G75*
G02*
X170350000Y-49900000I500001J-1D01*
G01*
X170350000Y-49900000D02*
G75*
G02*
X170850000Y-50400000I-1J-500001D01*
G01*
X170350000Y-55100000D02*
G75*
G02*
X169850000Y-54600000I1J500001D01*
G01*
X170849999Y-54600000D02*
G75*
G02*
X170350000Y-55099999I-499998J-1D01*
G01*
X181850000Y-50400000D02*
G75*
G02*
X182350000Y-49900000I500000J0D01*
G01*
X182350000Y-49900000D02*
G75*
G02*
X182850000Y-50400000I0J-500000D01*
G01*
X182350000Y-55100000D02*
G75*
G02*
X181850000Y-54600000I0J500000D01*
G01*
X182850000Y-54600000D02*
G75*
G02*
X182350000Y-55100000I-500000J0D01*
G01*
%TO.C,S18*%
X101850000Y-94850000D02*
X101850000Y-90650000D01*
X102850000Y-90650000D02*
X102850000Y-94850000D01*
X113850000Y-94850000D02*
X113850000Y-90650000D01*
X114850000Y-90650000D02*
X114850000Y-94850000D01*
X101850000Y-90650000D02*
G75*
G02*
X102350000Y-90150000I500001J-1D01*
G01*
X102350000Y-90150000D02*
G75*
G02*
X102850000Y-90650000I-1J-500001D01*
G01*
X102350000Y-95350000D02*
G75*
G02*
X101850000Y-94850000I1J500001D01*
G01*
X102849999Y-94850000D02*
G75*
G02*
X102350000Y-95349999I-499998J-1D01*
G01*
X113850000Y-90650000D02*
G75*
G02*
X114350000Y-90150000I500000J0D01*
G01*
X114350000Y-90150000D02*
G75*
G02*
X114850000Y-90650000I0J-500000D01*
G01*
X114350000Y-95350000D02*
G75*
G02*
X113850000Y-94850000I0J500000D01*
G01*
X114850000Y-94850000D02*
G75*
G02*
X114350000Y-95350000I-500000J0D01*
G01*
%TO.C,S9*%
X152850000Y-70350000D02*
X152850000Y-66150000D01*
X153850000Y-66150000D02*
X153850000Y-70350000D01*
X164850000Y-70350000D02*
X164850000Y-66150000D01*
X165850000Y-66150000D02*
X165850000Y-70350000D01*
X152850000Y-66150000D02*
G75*
G02*
X153350000Y-65650000I500001J-1D01*
G01*
X153350000Y-65650000D02*
G75*
G02*
X153850000Y-66150000I-1J-500001D01*
G01*
X153350000Y-70850000D02*
G75*
G02*
X152850000Y-70350000I1J500001D01*
G01*
X153849999Y-70350000D02*
G75*
G02*
X153350000Y-70849999I-499998J-1D01*
G01*
X164850000Y-66150000D02*
G75*
G02*
X165350000Y-65650000I500000J0D01*
G01*
X165350000Y-65650000D02*
G75*
G02*
X165850000Y-66150000I0J-500000D01*
G01*
X165350000Y-70850000D02*
G75*
G02*
X164850000Y-70350000I0J500000D01*
G01*
X165850000Y-70350000D02*
G75*
G02*
X165350000Y-70850000I-500000J0D01*
G01*
%TO.C,S17*%
X118850000Y-93100000D02*
X118850000Y-88900000D01*
X119850000Y-88900000D02*
X119850000Y-93100000D01*
X130850000Y-93100000D02*
X130850000Y-88900000D01*
X131850000Y-88900000D02*
X131850000Y-93100000D01*
X118850000Y-88900000D02*
G75*
G02*
X119350000Y-88400000I500001J-1D01*
G01*
X119350000Y-88400000D02*
G75*
G02*
X119850000Y-88900000I-1J-500001D01*
G01*
X119350000Y-93600000D02*
G75*
G02*
X118850000Y-93100000I1J500001D01*
G01*
X119849999Y-93100000D02*
G75*
G02*
X119350000Y-93599999I-499998J-1D01*
G01*
X130850000Y-88900000D02*
G75*
G02*
X131350000Y-88400000I500000J0D01*
G01*
X131350000Y-88400000D02*
G75*
G02*
X131850000Y-88900000I0J-500000D01*
G01*
X131350000Y-93600000D02*
G75*
G02*
X130850000Y-93100000I0J500000D01*
G01*
X131850000Y-93100000D02*
G75*
G02*
X131350000Y-93600000I-500000J0D01*
G01*
%TO.C,S4*%
X135850000Y-54850000D02*
X135850000Y-50650000D01*
X136850000Y-50650000D02*
X136850000Y-54850000D01*
X147850000Y-54850000D02*
X147850000Y-50650000D01*
X148850000Y-50650000D02*
X148850000Y-54850000D01*
X135850000Y-50650000D02*
G75*
G02*
X136350000Y-50150000I500001J-1D01*
G01*
X136350000Y-50150000D02*
G75*
G02*
X136850000Y-50650000I-1J-500001D01*
G01*
X136350000Y-55350000D02*
G75*
G02*
X135850000Y-54850000I1J500001D01*
G01*
X136849999Y-54850000D02*
G75*
G02*
X136350000Y-55349999I-499998J-1D01*
G01*
X147850000Y-50650000D02*
G75*
G02*
X148350000Y-50150000I500000J0D01*
G01*
X148350000Y-50150000D02*
G75*
G02*
X148850000Y-50650000I0J-500000D01*
G01*
X148350000Y-55350000D02*
G75*
G02*
X147850000Y-54850000I0J500000D01*
G01*
X148850000Y-54850000D02*
G75*
G02*
X148350000Y-55350000I-500000J0D01*
G01*
%TO.C,S12*%
X101850000Y-77850000D02*
X101850000Y-73650000D01*
X102850000Y-73650000D02*
X102850000Y-77850000D01*
X113850000Y-77850000D02*
X113850000Y-73650000D01*
X114850000Y-73650000D02*
X114850000Y-77850000D01*
X101850000Y-73650000D02*
G75*
G02*
X102350000Y-73150000I500001J-1D01*
G01*
X102350000Y-73150000D02*
G75*
G02*
X102850000Y-73650000I-1J-500001D01*
G01*
X102350000Y-78350000D02*
G75*
G02*
X101850000Y-77850000I1J500001D01*
G01*
X102849999Y-77850000D02*
G75*
G02*
X102350000Y-78349999I-499998J-1D01*
G01*
X113850000Y-73650000D02*
G75*
G02*
X114350000Y-73150000I500000J0D01*
G01*
X114350000Y-73150000D02*
G75*
G02*
X114850000Y-73650000I0J-500000D01*
G01*
X114350000Y-78350000D02*
G75*
G02*
X113850000Y-77850000I0J500000D01*
G01*
X114850000Y-77850000D02*
G75*
G02*
X114350000Y-78350000I-500000J0D01*
G01*
%TO.C,S1*%
X186850000Y-56750000D02*
X186850000Y-52550000D01*
X187850000Y-52550000D02*
X187850000Y-56750000D01*
X198850000Y-56750000D02*
X198850000Y-52550000D01*
X199850000Y-52550000D02*
X199850000Y-56750000D01*
X186850000Y-52550000D02*
G75*
G02*
X187350000Y-52050000I500001J-1D01*
G01*
X187350000Y-52050000D02*
G75*
G02*
X187850000Y-52550000I-1J-500001D01*
G01*
X187350000Y-57250000D02*
G75*
G02*
X186850000Y-56750000I1J500001D01*
G01*
X187849999Y-56750000D02*
G75*
G02*
X187350000Y-57249999I-499998J-1D01*
G01*
X198850000Y-52550000D02*
G75*
G02*
X199350000Y-52050000I500000J0D01*
G01*
X199350000Y-52050000D02*
G75*
G02*
X199850000Y-52550000I0J-500000D01*
G01*
X199350000Y-57250000D02*
G75*
G02*
X198850000Y-56750000I0J500000D01*
G01*
X199850000Y-56750000D02*
G75*
G02*
X199350000Y-57250000I-500000J0D01*
G01*
%TO.C,S13*%
X186850000Y-90750000D02*
X186850000Y-86550000D01*
X187850000Y-86550000D02*
X187850000Y-90750000D01*
X198850000Y-90750000D02*
X198850000Y-86550000D01*
X199850000Y-86550000D02*
X199850000Y-90750000D01*
X186850000Y-86550000D02*
G75*
G02*
X187350000Y-86050000I500001J-1D01*
G01*
X187350000Y-86050000D02*
G75*
G02*
X187850000Y-86550000I-1J-500001D01*
G01*
X187350000Y-91250000D02*
G75*
G02*
X186850000Y-90750000I1J500001D01*
G01*
X187849999Y-90750000D02*
G75*
G02*
X187350000Y-91249999I-499998J-1D01*
G01*
X198850000Y-86550000D02*
G75*
G02*
X199350000Y-86050000I500000J0D01*
G01*
X199350000Y-86050000D02*
G75*
G02*
X199850000Y-86550000I0J-500000D01*
G01*
X199350000Y-91250000D02*
G75*
G02*
X198850000Y-90750000I0J500000D01*
G01*
X199850000Y-90750000D02*
G75*
G02*
X199350000Y-91250000I-500000J0D01*
G01*
%TO.C,S10*%
X135850000Y-71850000D02*
X135850000Y-67650000D01*
X136850000Y-67650000D02*
X136850000Y-71850000D01*
X147850000Y-71850000D02*
X147850000Y-67650000D01*
X148850000Y-67650000D02*
X148850000Y-71850000D01*
X135850000Y-67650000D02*
G75*
G02*
X136350000Y-67150000I500001J-1D01*
G01*
X136350000Y-67150000D02*
G75*
G02*
X136850000Y-67650000I-1J-500001D01*
G01*
X136350000Y-72350000D02*
G75*
G02*
X135850000Y-71850000I1J500001D01*
G01*
X136849999Y-71850000D02*
G75*
G02*
X136350000Y-72349999I-499998J-1D01*
G01*
X147850000Y-67650000D02*
G75*
G02*
X148350000Y-67150000I500000J0D01*
G01*
X148350000Y-67150000D02*
G75*
G02*
X148850000Y-67650000I0J-500000D01*
G01*
X148350000Y-72350000D02*
G75*
G02*
X147850000Y-71850000I0J500000D01*
G01*
X148850000Y-71850000D02*
G75*
G02*
X148350000Y-72350000I-500000J0D01*
G01*
%TO.C,S8*%
X169850000Y-71600000D02*
X169850000Y-67400000D01*
X170850000Y-67400000D02*
X170850000Y-71600000D01*
X181850000Y-71600000D02*
X181850000Y-67400000D01*
X182850000Y-67400000D02*
X182850000Y-71600000D01*
X169850000Y-67400000D02*
G75*
G02*
X170350000Y-66900000I500001J-1D01*
G01*
X170350000Y-66900000D02*
G75*
G02*
X170850000Y-67400000I-1J-500001D01*
G01*
X170350000Y-72100000D02*
G75*
G02*
X169850000Y-71600000I1J500001D01*
G01*
X170849999Y-71600000D02*
G75*
G02*
X170350000Y-72099999I-499998J-1D01*
G01*
X181850000Y-67400000D02*
G75*
G02*
X182350000Y-66900000I500000J0D01*
G01*
X182350000Y-66900000D02*
G75*
G02*
X182850000Y-67400000I0J-500000D01*
G01*
X182350000Y-72100000D02*
G75*
G02*
X181850000Y-71600000I0J500000D01*
G01*
X182850000Y-71600000D02*
G75*
G02*
X182350000Y-72100000I-500000J0D01*
G01*
%TO.C,S14*%
X169850000Y-88600000D02*
X169850000Y-84400000D01*
X170850000Y-84400000D02*
X170850000Y-88600000D01*
X181850000Y-88600000D02*
X181850000Y-84400000D01*
X182850000Y-84400000D02*
X182850000Y-88600000D01*
X169850000Y-84400000D02*
G75*
G02*
X170350000Y-83900000I500001J-1D01*
G01*
X170350000Y-83900000D02*
G75*
G02*
X170850000Y-84400000I-1J-500001D01*
G01*
X170350000Y-89100000D02*
G75*
G02*
X169850000Y-88600000I1J500001D01*
G01*
X170849999Y-88600000D02*
G75*
G02*
X170350000Y-89099999I-499998J-1D01*
G01*
X181850000Y-84400000D02*
G75*
G02*
X182350000Y-83900000I500000J0D01*
G01*
X182350000Y-83900000D02*
G75*
G02*
X182850000Y-84400000I0J-500000D01*
G01*
X182350000Y-89100000D02*
G75*
G02*
X181850000Y-88600000I0J500000D01*
G01*
X182850000Y-88600000D02*
G75*
G02*
X182350000Y-89100000I-500000J0D01*
G01*
%TO.C,S3*%
X152850000Y-53350000D02*
X152850000Y-49150000D01*
X153850000Y-49150000D02*
X153850000Y-53350000D01*
X164850000Y-53350000D02*
X164850000Y-49150000D01*
X165850000Y-49150000D02*
X165850000Y-53350000D01*
X152850000Y-49150000D02*
G75*
G02*
X153350000Y-48650000I500001J-1D01*
G01*
X153350000Y-48650000D02*
G75*
G02*
X153850000Y-49150000I-1J-500001D01*
G01*
X153350000Y-53850000D02*
G75*
G02*
X152850000Y-53350000I1J500001D01*
G01*
X153849999Y-53350000D02*
G75*
G02*
X153350000Y-53849999I-499998J-1D01*
G01*
X164850000Y-49150000D02*
G75*
G02*
X165350000Y-48650000I500000J0D01*
G01*
X165350000Y-48650000D02*
G75*
G02*
X165850000Y-49150000I0J-500000D01*
G01*
X165350000Y-53850000D02*
G75*
G02*
X164850000Y-53350000I0J500000D01*
G01*
X165850000Y-53350000D02*
G75*
G02*
X165350000Y-53850000I-500000J0D01*
G01*
%TO.C,S5*%
X118850000Y-59100000D02*
X118850000Y-54900000D01*
X119850000Y-54900000D02*
X119850000Y-59100000D01*
X130850000Y-59100000D02*
X130850000Y-54900000D01*
X131850000Y-54900000D02*
X131850000Y-59100000D01*
X118850000Y-54900000D02*
G75*
G02*
X119350000Y-54400000I500001J-1D01*
G01*
X119350000Y-54400000D02*
G75*
G02*
X119850000Y-54900000I-1J-500001D01*
G01*
X119350000Y-59600000D02*
G75*
G02*
X118850000Y-59100000I1J500001D01*
G01*
X119849999Y-59100000D02*
G75*
G02*
X119350000Y-59599999I-499998J-1D01*
G01*
X130850000Y-54900000D02*
G75*
G02*
X131350000Y-54400000I500000J0D01*
G01*
X131350000Y-54400000D02*
G75*
G02*
X131850000Y-54900000I0J-500000D01*
G01*
X131350000Y-59600000D02*
G75*
G02*
X130850000Y-59100000I0J500000D01*
G01*
X131850000Y-59100000D02*
G75*
G02*
X131350000Y-59600000I-500000J0D01*
G01*
%TO.C,S21*%
X169850000Y-105600000D02*
X169850000Y-101400000D01*
X170850000Y-101400000D02*
X170850000Y-105600000D01*
X181850000Y-105600000D02*
X181850000Y-101400000D01*
X182850000Y-101400000D02*
X182850000Y-105600000D01*
X169850000Y-101400000D02*
G75*
G02*
X170350000Y-100900000I500001J-1D01*
G01*
X170350000Y-100900000D02*
G75*
G02*
X170850000Y-101400000I-1J-500001D01*
G01*
X170350000Y-106100000D02*
G75*
G02*
X169850000Y-105600000I1J500001D01*
G01*
X170849999Y-105600000D02*
G75*
G02*
X170350000Y-106099999I-499998J-1D01*
G01*
X181850000Y-101400000D02*
G75*
G02*
X182350000Y-100900000I500000J0D01*
G01*
X182350000Y-100900000D02*
G75*
G02*
X182850000Y-101400000I0J-500000D01*
G01*
X182350000Y-106100000D02*
G75*
G02*
X181850000Y-105600000I0J500000D01*
G01*
X182850000Y-105600000D02*
G75*
G02*
X182350000Y-106100000I-500000J0D01*
G01*
%TO.C,S7*%
X186850000Y-73750000D02*
X186850000Y-69550000D01*
X187850000Y-69550000D02*
X187850000Y-73750000D01*
X198850000Y-73750000D02*
X198850000Y-69550000D01*
X199850000Y-69550000D02*
X199850000Y-73750000D01*
X186850000Y-69550000D02*
G75*
G02*
X187350000Y-69050000I500001J-1D01*
G01*
X187350000Y-69050000D02*
G75*
G02*
X187850000Y-69550000I-1J-500001D01*
G01*
X187350000Y-74250000D02*
G75*
G02*
X186850000Y-73750000I1J500001D01*
G01*
X187849999Y-73750000D02*
G75*
G02*
X187350000Y-74249999I-499998J-1D01*
G01*
X198850000Y-69550000D02*
G75*
G02*
X199350000Y-69050000I500000J0D01*
G01*
X199350000Y-69050000D02*
G75*
G02*
X199850000Y-69550000I0J-500000D01*
G01*
X199350000Y-74250000D02*
G75*
G02*
X198850000Y-73750000I0J500000D01*
G01*
X199850000Y-73750000D02*
G75*
G02*
X199350000Y-74250000I-500000J0D01*
G01*
%TO.C,S22*%
X152850000Y-104350000D02*
X152850000Y-100150000D01*
X153850000Y-100150000D02*
X153850000Y-104350000D01*
X164850000Y-104350000D02*
X164850000Y-100150000D01*
X165850000Y-100150000D02*
X165850000Y-104350000D01*
X152850000Y-100150000D02*
G75*
G02*
X153350000Y-99650000I500001J-1D01*
G01*
X153350000Y-99650000D02*
G75*
G02*
X153850000Y-100150000I-1J-500001D01*
G01*
X153350000Y-104850000D02*
G75*
G02*
X152850000Y-104350000I1J500001D01*
G01*
X153849999Y-104350000D02*
G75*
G02*
X153350000Y-104849999I-499998J-1D01*
G01*
X164850000Y-100150000D02*
G75*
G02*
X165350000Y-99650000I500000J0D01*
G01*
X165350000Y-99650000D02*
G75*
G02*
X165850000Y-100150000I0J-500000D01*
G01*
X165350000Y-104850000D02*
G75*
G02*
X164850000Y-104350000I0J500000D01*
G01*
X165850000Y-104350000D02*
G75*
G02*
X165350000Y-104850000I-500000J0D01*
G01*
%TD*%
M02*
