M48
; DRILL file KiCad 10.0.0 date 2026-04-13T21:36:52
; FORMAT={-:-/ absolute / metric / decimal}
; #@! TF.CreationDate,2026-04-13T21:36:52-04:00
; #@! TF.GenerationSoftware,Kicad,Pcbnew,10.0.0
; #@! TF.FileFunction,Plated,1,2,PTH
FMAT,2
METRIC
; #@! TA.AperFunction,Plated,PTH,ViaDrill
T1C0.300
%
G90
G05
T1
X106.264Y-77.144
X106.264Y-94.744
X106.564Y-60.444
X123.064Y-92.944
X123.264Y-58.944
X123.464Y-75.244
X140.064Y-88.844
X140.264Y-71.444
X140.864Y-55.044
X157.164Y-87.244
X157.164Y-104.344
X157.264Y-70.144
X157.664Y-53.644
X173.964Y-88.444
X174.164Y-105.144
X174.464Y-71.244
X174.564Y-54.844
X191.164Y-107.544
X191.464Y-56.444
X191.664Y-73.244
X191.664Y-90.244
X208.464Y-107.644
X214.764Y-93.944
X219.564Y-76.244
X223.064Y-93.444
X223.088Y-94.268
X224.364Y-83.144
X224.964Y-77.844
X227.064Y-93.444
X227.864Y-84.744
X233.064Y-98.444
X235.664Y-94.044
X236.758Y-94.318
X237.064Y-98.544
X238.164Y-93.144
M30
