%TF.GenerationSoftware,KiCad,Pcbnew,10.0.0*%
%TF.CreationDate,2026-04-13T21:36:37-04:00*%
%TF.ProjectId,3leaf_fall,336c6561-665f-4666-916c-6c2e6b696361,rev?*%
%TF.SameCoordinates,Original*%
%TF.FileFunction,Legend,Top*%
%TF.FilePolarity,Positive*%
%FSLAX46Y46*%
G04 Gerber Fmt 4.6, Leading zero omitted, Abs format (unit mm)*
G04 Created by KiCad (PCBNEW 10.0.0) date 2026-04-13 21:36:37*
%MOMM*%
%LPD*%
G01*
G04 APERTURE LIST*
%ADD10C,0.100000*%
%ADD11C,0.150000*%
%ADD12C,0.127000*%
%ADD13C,0.120000*%
G04 APERTURE END LIST*
D10*
X124350000Y-103850000D02*
G75*
G02*
X118350000Y-103850000I-3000000J0D01*
G01*
X118350000Y-103850000D02*
G75*
G02*
X124350000Y-103850000I3000000J0D01*
G01*
X132350000Y-103850000D02*
G75*
G02*
X126350000Y-103850000I-3000000J0D01*
G01*
X126350000Y-103850000D02*
G75*
G02*
X132350000Y-103850000I3000000J0D01*
G01*
D11*
X217870498Y-58634734D02*
X218013355Y-58682353D01*
X218013355Y-58682353D02*
X218060974Y-58729972D01*
X218060974Y-58729972D02*
X218108593Y-58825210D01*
X218108593Y-58825210D02*
X218108593Y-58968067D01*
X218108593Y-58968067D02*
X218060974Y-59063305D01*
X218060974Y-59063305D02*
X218013355Y-59110925D01*
X218013355Y-59110925D02*
X217918117Y-59158544D01*
X217918117Y-59158544D02*
X217537165Y-59158544D01*
X217537165Y-59158544D02*
X217537165Y-58158544D01*
X217537165Y-58158544D02*
X217870498Y-58158544D01*
X217870498Y-58158544D02*
X217965736Y-58206163D01*
X217965736Y-58206163D02*
X218013355Y-58253782D01*
X218013355Y-58253782D02*
X218060974Y-58349020D01*
X218060974Y-58349020D02*
X218060974Y-58444258D01*
X218060974Y-58444258D02*
X218013355Y-58539496D01*
X218013355Y-58539496D02*
X217965736Y-58587115D01*
X217965736Y-58587115D02*
X217870498Y-58634734D01*
X217870498Y-58634734D02*
X217537165Y-58634734D01*
X218394308Y-58158544D02*
X218965736Y-58158544D01*
X218680022Y-59158544D02*
X218680022Y-58158544D01*
X219822879Y-59158544D02*
X219251451Y-59158544D01*
X219537165Y-59158544D02*
X219537165Y-58158544D01*
X219537165Y-58158544D02*
X219441927Y-58301401D01*
X219441927Y-58301401D02*
X219346689Y-58396639D01*
X219346689Y-58396639D02*
X219251451Y-58444258D01*
D10*
X235266690Y-85245779D02*
X234484750Y-85455299D01*
X234484750Y-85455299D02*
X234405082Y-85525945D01*
X234405082Y-85525945D02*
X234371410Y-85584266D01*
X234371410Y-85584266D02*
X234350063Y-85688584D01*
X234350063Y-85688584D02*
X234399362Y-85872570D01*
X234399362Y-85872570D02*
X234470008Y-85952238D01*
X234470008Y-85952238D02*
X234528329Y-85985909D01*
X234528329Y-85985909D02*
X234632647Y-86007257D01*
X234632647Y-86007257D02*
X235414587Y-85797736D01*
X234707480Y-87022481D02*
X234559583Y-86470524D01*
X234633531Y-86746502D02*
X235599457Y-86487683D01*
X235599457Y-86487683D02*
X235436818Y-86432665D01*
X235436818Y-86432665D02*
X235320176Y-86365321D01*
X235320176Y-86365321D02*
X235249530Y-86285653D01*
X136016667Y-100259800D02*
X136159524Y-100307419D01*
X136159524Y-100307419D02*
X136397619Y-100307419D01*
X136397619Y-100307419D02*
X136492857Y-100259800D01*
X136492857Y-100259800D02*
X136540476Y-100212180D01*
X136540476Y-100212180D02*
X136588095Y-100116942D01*
X136588095Y-100116942D02*
X136588095Y-100021704D01*
X136588095Y-100021704D02*
X136540476Y-99926466D01*
X136540476Y-99926466D02*
X136492857Y-99878847D01*
X136492857Y-99878847D02*
X136397619Y-99831228D01*
X136397619Y-99831228D02*
X136207143Y-99783609D01*
X136207143Y-99783609D02*
X136111905Y-99735990D01*
X136111905Y-99735990D02*
X136064286Y-99688371D01*
X136064286Y-99688371D02*
X136016667Y-99593133D01*
X136016667Y-99593133D02*
X136016667Y-99497895D01*
X136016667Y-99497895D02*
X136064286Y-99402657D01*
X136064286Y-99402657D02*
X136111905Y-99355038D01*
X136111905Y-99355038D02*
X136207143Y-99307419D01*
X136207143Y-99307419D02*
X136445238Y-99307419D01*
X136445238Y-99307419D02*
X136588095Y-99355038D01*
X136921429Y-99307419D02*
X137159524Y-100307419D01*
X137159524Y-100307419D02*
X137350000Y-99593133D01*
X137350000Y-99593133D02*
X137540476Y-100307419D01*
X137540476Y-100307419D02*
X137778572Y-99307419D01*
X138683333Y-100307419D02*
X138111905Y-100307419D01*
X138397619Y-100307419D02*
X138397619Y-99307419D01*
X138397619Y-99307419D02*
X138302381Y-99450276D01*
X138302381Y-99450276D02*
X138207143Y-99545514D01*
X138207143Y-99545514D02*
X138111905Y-99593133D01*
D11*
X237699444Y-97811393D02*
X237884315Y-98501340D01*
X237884315Y-98501340D02*
X237875292Y-98651654D01*
X237875292Y-98651654D02*
X237807949Y-98768297D01*
X237807949Y-98768297D02*
X237682284Y-98851267D01*
X237682284Y-98851267D02*
X237590291Y-98875917D01*
X238924189Y-98518500D02*
X238372231Y-98666397D01*
X238648210Y-98592448D02*
X238389391Y-97626522D01*
X238389391Y-97626522D02*
X238334372Y-97789161D01*
X238334372Y-97789161D02*
X238267029Y-97905804D01*
X238267029Y-97905804D02*
X238187361Y-97976449D01*
%TO.C,BT1*%
D12*
X228651215Y-60588726D02*
X229996215Y-60588726D01*
X228651215Y-64098726D02*
X228651215Y-60588726D01*
X228651215Y-64098726D02*
X229996215Y-64098726D01*
D10*
X229151215Y-62343726D02*
G75*
G02*
X209151215Y-62343726I-10000000J0D01*
G01*
X209151215Y-62343726D02*
G75*
G02*
X229151215Y-62343726I10000000J0D01*
G01*
%TO.C,U1*%
X226787625Y-83130140D02*
X225435330Y-83492488D01*
X228023519Y-93151744D02*
X229375815Y-92789399D01*
%TO.C,SW1*%
X140350000Y-103850000D02*
G75*
G02*
X134350000Y-103850000I-3000000J0D01*
G01*
X134350000Y-103850000D02*
G75*
G02*
X140350000Y-103850000I3000000J0D01*
G01*
%TO.C,J1*%
D13*
X235952325Y-97363502D02*
X235787975Y-96750139D01*
X236565688Y-97199152D02*
X235952325Y-97363502D01*
%TD*%
M02*
