%TF.GenerationSoftware,KiCad,Pcbnew,10.0.0*%
%TF.CreationDate,2026-04-13T21:36:37-04:00*%
%TF.ProjectId,3leaf_fall,336c6561-665f-4666-916c-6c2e6b696361,rev?*%
%TF.SameCoordinates,Original*%
%TF.FileFunction,Profile,NP*%
%FSLAX46Y46*%
G04 Gerber Fmt 4.6, Leading zero omitted, Abs format (unit mm)*
G04 Created by KiCad (PCBNEW 10.0.0) date 2026-04-13 21:36:37*
%MOMM*%
%LPD*%
G01*
G04 APERTURE LIST*
%TA.AperFunction,Profile*%
%ADD10C,0.100000*%
%TD*%
%TA.AperFunction,Profile*%
%ADD11C,0.200000*%
%TD*%
%TA.AperFunction,Profile*%
%ADD12C,0.050000*%
%TD*%
G04 APERTURE END LIST*
D10*
X97853471Y-52649542D02*
G75*
G02*
X101163713Y-47943723I4999999J2D01*
G01*
X97853471Y-101494062D02*
X97853471Y-52649542D01*
X101163714Y-47943726D02*
G75*
G02*
X133850167Y-42253097I32686486J-91028874D01*
G01*
X102248643Y-106457350D02*
G75*
G02*
X97853530Y-101494062I604857J4963250D01*
G01*
D11*
X115187682Y-104830966D02*
G75*
G02*
X112487682Y-104830966I-1350000J0D01*
G01*
X112487682Y-104830966D02*
G75*
G02*
X115187682Y-104830966I1350000J0D01*
G01*
X132199982Y-45253110D02*
G75*
G02*
X129499982Y-45253110I-1350000J0D01*
G01*
X129499982Y-45253110D02*
G75*
G02*
X132199982Y-45253110I1350000J0D01*
G01*
D10*
X133850167Y-42253107D02*
X149182207Y-42253107D01*
X151166545Y-41503111D02*
G75*
G02*
X149182207Y-42253104I-1984345J2250111D01*
G01*
X151166545Y-41503111D02*
G75*
G02*
X153150880Y-40753106I1984355J-2250089D01*
G01*
X151705539Y-112484234D02*
X102248643Y-106457350D01*
X153150880Y-40753116D02*
X166017026Y-40753116D01*
X156017014Y-112745967D02*
G75*
G02*
X151705539Y-112484234I-14J35641667D01*
G01*
X166017014Y-112745967D02*
X156017014Y-112745967D01*
X166017014Y-112745967D02*
G75*
G02*
X167849889Y-113370981I-14J-3000033D01*
G01*
X166017026Y-40753116D02*
G75*
G02*
X167849904Y-41378128I-26J-3000084D01*
G01*
X169682765Y-42003107D02*
G75*
G02*
X167849926Y-41378098I35J3000007D01*
G01*
X169682765Y-42003107D02*
X182548949Y-42003107D01*
X169682784Y-113995967D02*
G75*
G02*
X167849906Y-113370958I16J3000067D01*
G01*
X182548896Y-113995967D02*
X169682784Y-113995967D01*
X182548896Y-113995967D02*
G75*
G02*
X184849870Y-115070971I4J-3000033D01*
G01*
X182548949Y-42003107D02*
G75*
G02*
X184849971Y-43078079I51J-3000093D01*
G01*
X187150861Y-116145962D02*
G75*
G02*
X184849904Y-115070942I39J3000062D01*
G01*
X187150918Y-44153107D02*
G75*
G02*
X184849915Y-43078126I-18J3000107D01*
G01*
X187150918Y-44153107D02*
X230173260Y-44153107D01*
D11*
X206049982Y-94299970D02*
G75*
G02*
X203349982Y-94299970I-1350000J0D01*
G01*
X203349982Y-94299970D02*
G75*
G02*
X206049982Y-94299970I1350000J0D01*
G01*
D10*
X222125117Y-116145968D02*
X187150861Y-116145968D01*
X225660652Y-114681498D02*
G75*
G02*
X222125117Y-116145987I-3535552J3535498D01*
G01*
X230173260Y-44153107D02*
G75*
G02*
X235002923Y-47859007I40J-4999993D01*
G01*
D11*
X233045251Y-47169727D02*
G75*
G02*
X230345251Y-47169727I-1350000J0D01*
G01*
X230345251Y-47169727D02*
G75*
G02*
X233045251Y-47169727I1350000J0D01*
G01*
D10*
X235002894Y-47859015D02*
X246402754Y-90403874D01*
X245108654Y-95233506D02*
X225660654Y-114681500D01*
X246402754Y-90403874D02*
G75*
G02*
X245108681Y-95233533I-4829654J-1294126D01*
G01*
%TO.C,S15*%
D12*
X152850000Y-87350000D02*
X152850000Y-83150000D01*
X153850000Y-83150000D02*
X153850000Y-87350000D01*
X164850000Y-87350000D02*
X164850000Y-83150000D01*
X165850000Y-83150000D02*
X165850000Y-87350000D01*
X152850000Y-83150000D02*
G75*
G02*
X153350000Y-82650000I500001J-1D01*
G01*
X153350000Y-82650000D02*
G75*
G02*
X153850000Y-83150000I-1J-500001D01*
G01*
X153350000Y-87850000D02*
G75*
G02*
X152850000Y-87350000I1J500001D01*
G01*
X153849999Y-87350000D02*
G75*
G02*
X153350000Y-87849999I-499998J-1D01*
G01*
X164850000Y-83150000D02*
G75*
G02*
X165350000Y-82650000I500000J0D01*
G01*
X165350000Y-82650000D02*
G75*
G02*
X165850000Y-83150000I0J-500000D01*
G01*
X165350000Y-87850000D02*
G75*
G02*
X164850000Y-87350000I0J500000D01*
G01*
X165850000Y-87350000D02*
G75*
G02*
X165350000Y-87850000I-500000J0D01*
G01*
%TO.C,S11*%
X118850000Y-76100000D02*
X118850000Y-71900000D01*
X119850000Y-71900000D02*
X119850000Y-76100000D01*
X130850000Y-76100000D02*
X130850000Y-71900000D01*
X131850000Y-71900000D02*
X131850000Y-76100000D01*
X118850000Y-71900000D02*
G75*
G02*
X119350000Y-71400000I500001J-1D01*
G01*
X119350000Y-71400000D02*
G75*
G02*
X119850000Y-71900000I-1J-500001D01*
G01*
X119350000Y-76600000D02*
G75*
G02*
X118850000Y-76100000I1J500001D01*
G01*
X119849999Y-76100000D02*
G75*
G02*
X119350000Y-76599999I-499998J-1D01*
G01*
X130850000Y-71900000D02*
G75*
G02*
X131350000Y-71400000I500000J0D01*
G01*
X131350000Y-71400000D02*
G75*
G02*
X131850000Y-71900000I0J-500000D01*
G01*
X131350000Y-76600000D02*
G75*
G02*
X130850000Y-76100000I0J500000D01*
G01*
X131850000Y-76100000D02*
G75*
G02*
X131350000Y-76600000I-500000J0D01*
G01*
%TO.C,S16*%
X135850000Y-88850000D02*
X135850000Y-84650000D01*
X136850000Y-84650000D02*
X136850000Y-88850000D01*
X147850000Y-88850000D02*
X147850000Y-84650000D01*
X148850000Y-84650000D02*
X148850000Y-88850000D01*
X135850000Y-84650000D02*
G75*
G02*
X136350000Y-84150000I500001J-1D01*
G01*
X136350000Y-84150000D02*
G75*
G02*
X136850000Y-84650000I-1J-500001D01*
G01*
X136350000Y-89350000D02*
G75*
G02*
X135850000Y-88850000I1J500001D01*
G01*
X136849999Y-88850000D02*
G75*
G02*
X136350000Y-89349999I-499998J-1D01*
G01*
X147850000Y-84650000D02*
G75*
G02*
X148350000Y-84150000I500000J0D01*
G01*
X148350000Y-84150000D02*
G75*
G02*
X148850000Y-84650000I0J-500000D01*
G01*
X148350000Y-89350000D02*
G75*
G02*
X147850000Y-88850000I0J500000D01*
G01*
X148850000Y-88850000D02*
G75*
G02*
X148350000Y-89350000I-500000J0D01*
G01*
%TO.C,S19*%
X203850000Y-107750000D02*
X203850000Y-103550000D01*
X204850000Y-103550000D02*
X204850000Y-107750000D01*
X215850000Y-107750000D02*
X215850000Y-103550000D01*
X216850000Y-103550000D02*
X216850000Y-107750000D01*
X203850000Y-103550000D02*
G75*
G02*
X204350000Y-103050000I500001J-1D01*
G01*
X204350000Y-103050000D02*
G75*
G02*
X204850000Y-103550000I-1J-500001D01*
G01*
X204350000Y-108250000D02*
G75*
G02*
X203850000Y-107750000I1J500001D01*
G01*
X204849999Y-107750000D02*
G75*
G02*
X204350000Y-108249999I-499998J-1D01*
G01*
X215850000Y-103550000D02*
G75*
G02*
X216350000Y-103050000I500000J0D01*
G01*
X216350000Y-103050000D02*
G75*
G02*
X216850000Y-103550000I0J-500000D01*
G01*
X216350000Y-108250000D02*
G75*
G02*
X215850000Y-107750000I0J500000D01*
G01*
X216850000Y-107750000D02*
G75*
G02*
X216350000Y-108250000I-500000J0D01*
G01*
%TO.C,S6*%
X101850000Y-60850000D02*
X101850000Y-56650000D01*
X102850000Y-56650000D02*
X102850000Y-60850000D01*
X113850000Y-60850000D02*
X113850000Y-56650000D01*
X114850000Y-56650000D02*
X114850000Y-60850000D01*
X101850000Y-56650000D02*
G75*
G02*
X102350000Y-56150000I500001J-1D01*
G01*
X102350000Y-56150000D02*
G75*
G02*
X102850000Y-56650000I-1J-500001D01*
G01*
X102350000Y-61350000D02*
G75*
G02*
X101850000Y-60850000I1J500001D01*
G01*
X102849999Y-60850000D02*
G75*
G02*
X102350000Y-61349999I-499998J-1D01*
G01*
X113850000Y-56650000D02*
G75*
G02*
X114350000Y-56150000I500000J0D01*
G01*
X114350000Y-56150000D02*
G75*
G02*
X114850000Y-56650000I0J-500000D01*
G01*
X114350000Y-61350000D02*
G75*
G02*
X113850000Y-60850000I0J500000D01*
G01*
X114850000Y-60850000D02*
G75*
G02*
X114350000Y-61350000I-500000J0D01*
G01*
%TO.C,S20*%
X186850000Y-107750000D02*
X186850000Y-103550000D01*
X187850000Y-103550000D02*
X187850000Y-107750000D01*
X198850000Y-107750000D02*
X198850000Y-103550000D01*
X199850000Y-103550000D02*
X199850000Y-107750000D01*
X186850000Y-103550000D02*
G75*
G02*
X187350000Y-103050000I500001J-1D01*
G01*
X187350000Y-103050000D02*
G75*
G02*
X187850000Y-103550000I-1J-500001D01*
G01*
X187350000Y-108250000D02*
G75*
G02*
X186850000Y-107750000I1J500001D01*
G01*
X187849999Y-107750000D02*
G75*
G02*
X187350000Y-108249999I-499998J-1D01*
G01*
X198850000Y-103550000D02*
G75*
G02*
X199350000Y-103050000I500000J0D01*
G01*
X199350000Y-103050000D02*
G75*
G02*
X199850000Y-103550000I0J-500000D01*
G01*
X199350000Y-108250000D02*
G75*
G02*
X198850000Y-107750000I0J500000D01*
G01*
X199850000Y-107750000D02*
G75*
G02*
X199350000Y-108250000I-500000J0D01*
G01*
%TO.C,S2*%
X169850000Y-54600000D02*
X169850000Y-50400000D01*
X170850000Y-50400000D02*
X170850000Y-54600000D01*
X181850000Y-54600000D02*
X181850000Y-50400000D01*
X182850000Y-50400000D02*
X182850000Y-54600000D01*
X169850000Y-50400000D02*
G75*
G02*
X170350000Y-49900000I500001J-1D01*
G01*
X170350000Y-49900000D02*
G75*
G02*
X170850000Y-50400000I-1J-500001D01*
G01*
X170350000Y-55100000D02*
G75*
G02*
X169850000Y-54600000I1J500001D01*
G01*
X170849999Y-54600000D02*
G75*
G02*
X170350000Y-55099999I-499998J-1D01*
G01*
X181850000Y-50400000D02*
G75*
G02*
X182350000Y-49900000I500000J0D01*
G01*
X182350000Y-49900000D02*
G75*
G02*
X182850000Y-50400000I0J-500000D01*
G01*
X182350000Y-55100000D02*
G75*
G02*
X181850000Y-54600000I0J500000D01*
G01*
X182850000Y-54600000D02*
G75*
G02*
X182350000Y-55100000I-500000J0D01*
G01*
%TO.C,S18*%
X101850000Y-94850000D02*
X101850000Y-90650000D01*
X102850000Y-90650000D02*
X102850000Y-94850000D01*
X113850000Y-94850000D02*
X113850000Y-90650000D01*
X114850000Y-90650000D02*
X114850000Y-94850000D01*
X101850000Y-90650000D02*
G75*
G02*
X102350000Y-90150000I500001J-1D01*
G01*
X102350000Y-90150000D02*
G75*
G02*
X102850000Y-90650000I-1J-500001D01*
G01*
X102350000Y-95350000D02*
G75*
G02*
X101850000Y-94850000I1J500001D01*
G01*
X102849999Y-94850000D02*
G75*
G02*
X102350000Y-95349999I-499998J-1D01*
G01*
X113850000Y-90650000D02*
G75*
G02*
X114350000Y-90150000I500000J0D01*
G01*
X114350000Y-90150000D02*
G75*
G02*
X114850000Y-90650000I0J-500000D01*
G01*
X114350000Y-95350000D02*
G75*
G02*
X113850000Y-94850000I0J500000D01*
G01*
X114850000Y-94850000D02*
G75*
G02*
X114350000Y-95350000I-500000J0D01*
G01*
%TO.C,S9*%
X152850000Y-70350000D02*
X152850000Y-66150000D01*
X153850000Y-66150000D02*
X153850000Y-70350000D01*
X164850000Y-70350000D02*
X164850000Y-66150000D01*
X165850000Y-66150000D02*
X165850000Y-70350000D01*
X152850000Y-66150000D02*
G75*
G02*
X153350000Y-65650000I500001J-1D01*
G01*
X153350000Y-65650000D02*
G75*
G02*
X153850000Y-66150000I-1J-500001D01*
G01*
X153350000Y-70850000D02*
G75*
G02*
X152850000Y-70350000I1J500001D01*
G01*
X153849999Y-70350000D02*
G75*
G02*
X153350000Y-70849999I-499998J-1D01*
G01*
X164850000Y-66150000D02*
G75*
G02*
X165350000Y-65650000I500000J0D01*
G01*
X165350000Y-65650000D02*
G75*
G02*
X165850000Y-66150000I0J-500000D01*
G01*
X165350000Y-70850000D02*
G75*
G02*
X164850000Y-70350000I0J500000D01*
G01*
X165850000Y-70350000D02*
G75*
G02*
X165350000Y-70850000I-500000J0D01*
G01*
%TO.C,S17*%
X118850000Y-93100000D02*
X118850000Y-88900000D01*
X119850000Y-88900000D02*
X119850000Y-93100000D01*
X130850000Y-93100000D02*
X130850000Y-88900000D01*
X131850000Y-88900000D02*
X131850000Y-93100000D01*
X118850000Y-88900000D02*
G75*
G02*
X119350000Y-88400000I500001J-1D01*
G01*
X119350000Y-88400000D02*
G75*
G02*
X119850000Y-88900000I-1J-500001D01*
G01*
X119350000Y-93600000D02*
G75*
G02*
X118850000Y-93100000I1J500001D01*
G01*
X119849999Y-93100000D02*
G75*
G02*
X119350000Y-93599999I-499998J-1D01*
G01*
X130850000Y-88900000D02*
G75*
G02*
X131350000Y-88400000I500000J0D01*
G01*
X131350000Y-88400000D02*
G75*
G02*
X131850000Y-88900000I0J-500000D01*
G01*
X131350000Y-93600000D02*
G75*
G02*
X130850000Y-93100000I0J500000D01*
G01*
X131850000Y-93100000D02*
G75*
G02*
X131350000Y-93600000I-500000J0D01*
G01*
%TO.C,S4*%
X135850000Y-54850000D02*
X135850000Y-50650000D01*
X136850000Y-50650000D02*
X136850000Y-54850000D01*
X147850000Y-54850000D02*
X147850000Y-50650000D01*
X148850000Y-50650000D02*
X148850000Y-54850000D01*
X135850000Y-50650000D02*
G75*
G02*
X136350000Y-50150000I500001J-1D01*
G01*
X136350000Y-50150000D02*
G75*
G02*
X136850000Y-50650000I-1J-500001D01*
G01*
X136350000Y-55350000D02*
G75*
G02*
X135850000Y-54850000I1J500001D01*
G01*
X136849999Y-54850000D02*
G75*
G02*
X136350000Y-55349999I-499998J-1D01*
G01*
X147850000Y-50650000D02*
G75*
G02*
X148350000Y-50150000I500000J0D01*
G01*
X148350000Y-50150000D02*
G75*
G02*
X148850000Y-50650000I0J-500000D01*
G01*
X148350000Y-55350000D02*
G75*
G02*
X147850000Y-54850000I0J500000D01*
G01*
X148850000Y-54850000D02*
G75*
G02*
X148350000Y-55350000I-500000J0D01*
G01*
%TO.C,S12*%
X101850000Y-77850000D02*
X101850000Y-73650000D01*
X102850000Y-73650000D02*
X102850000Y-77850000D01*
X113850000Y-77850000D02*
X113850000Y-73650000D01*
X114850000Y-73650000D02*
X114850000Y-77850000D01*
X101850000Y-73650000D02*
G75*
G02*
X102350000Y-73150000I500001J-1D01*
G01*
X102350000Y-73150000D02*
G75*
G02*
X102850000Y-73650000I-1J-500001D01*
G01*
X102350000Y-78350000D02*
G75*
G02*
X101850000Y-77850000I1J500001D01*
G01*
X102849999Y-77850000D02*
G75*
G02*
X102350000Y-78349999I-499998J-1D01*
G01*
X113850000Y-73650000D02*
G75*
G02*
X114350000Y-73150000I500000J0D01*
G01*
X114350000Y-73150000D02*
G75*
G02*
X114850000Y-73650000I0J-500000D01*
G01*
X114350000Y-78350000D02*
G75*
G02*
X113850000Y-77850000I0J500000D01*
G01*
X114850000Y-77850000D02*
G75*
G02*
X114350000Y-78350000I-500000J0D01*
G01*
%TO.C,S1*%
X186850000Y-56750000D02*
X186850000Y-52550000D01*
X187850000Y-52550000D02*
X187850000Y-56750000D01*
X198850000Y-56750000D02*
X198850000Y-52550000D01*
X199850000Y-52550000D02*
X199850000Y-56750000D01*
X186850000Y-52550000D02*
G75*
G02*
X187350000Y-52050000I500001J-1D01*
G01*
X187350000Y-52050000D02*
G75*
G02*
X187850000Y-52550000I-1J-500001D01*
G01*
X187350000Y-57250000D02*
G75*
G02*
X186850000Y-56750000I1J500001D01*
G01*
X187849999Y-56750000D02*
G75*
G02*
X187350000Y-57249999I-499998J-1D01*
G01*
X198850000Y-52550000D02*
G75*
G02*
X199350000Y-52050000I500000J0D01*
G01*
X199350000Y-52050000D02*
G75*
G02*
X199850000Y-52550000I0J-500000D01*
G01*
X199350000Y-57250000D02*
G75*
G02*
X198850000Y-56750000I0J500000D01*
G01*
X199850000Y-56750000D02*
G75*
G02*
X199350000Y-57250000I-500000J0D01*
G01*
%TO.C,S13*%
X186850000Y-90750000D02*
X186850000Y-86550000D01*
X187850000Y-86550000D02*
X187850000Y-90750000D01*
X198850000Y-90750000D02*
X198850000Y-86550000D01*
X199850000Y-86550000D02*
X199850000Y-90750000D01*
X186850000Y-86550000D02*
G75*
G02*
X187350000Y-86050000I500001J-1D01*
G01*
X187350000Y-86050000D02*
G75*
G02*
X187850000Y-86550000I-1J-500001D01*
G01*
X187350000Y-91250000D02*
G75*
G02*
X186850000Y-90750000I1J500001D01*
G01*
X187849999Y-90750000D02*
G75*
G02*
X187350000Y-91249999I-499998J-1D01*
G01*
X198850000Y-86550000D02*
G75*
G02*
X199350000Y-86050000I500000J0D01*
G01*
X199350000Y-86050000D02*
G75*
G02*
X199850000Y-86550000I0J-500000D01*
G01*
X199350000Y-91250000D02*
G75*
G02*
X198850000Y-90750000I0J500000D01*
G01*
X199850000Y-90750000D02*
G75*
G02*
X199350000Y-91250000I-500000J0D01*
G01*
%TO.C,S10*%
X135850000Y-71850000D02*
X135850000Y-67650000D01*
X136850000Y-67650000D02*
X136850000Y-71850000D01*
X147850000Y-71850000D02*
X147850000Y-67650000D01*
X148850000Y-67650000D02*
X148850000Y-71850000D01*
X135850000Y-67650000D02*
G75*
G02*
X136350000Y-67150000I500001J-1D01*
G01*
X136350000Y-67150000D02*
G75*
G02*
X136850000Y-67650000I-1J-500001D01*
G01*
X136350000Y-72350000D02*
G75*
G02*
X135850000Y-71850000I1J500001D01*
G01*
X136849999Y-71850000D02*
G75*
G02*
X136350000Y-72349999I-499998J-1D01*
G01*
X147850000Y-67650000D02*
G75*
G02*
X148350000Y-67150000I500000J0D01*
G01*
X148350000Y-67150000D02*
G75*
G02*
X148850000Y-67650000I0J-500000D01*
G01*
X148350000Y-72350000D02*
G75*
G02*
X147850000Y-71850000I0J500000D01*
G01*
X148850000Y-71850000D02*
G75*
G02*
X148350000Y-72350000I-500000J0D01*
G01*
%TO.C,S8*%
X169850000Y-71600000D02*
X169850000Y-67400000D01*
X170850000Y-67400000D02*
X170850000Y-71600000D01*
X181850000Y-71600000D02*
X181850000Y-67400000D01*
X182850000Y-67400000D02*
X182850000Y-71600000D01*
X169850000Y-67400000D02*
G75*
G02*
X170350000Y-66900000I500001J-1D01*
G01*
X170350000Y-66900000D02*
G75*
G02*
X170850000Y-67400000I-1J-500001D01*
G01*
X170350000Y-72100000D02*
G75*
G02*
X169850000Y-71600000I1J500001D01*
G01*
X170849999Y-71600000D02*
G75*
G02*
X170350000Y-72099999I-499998J-1D01*
G01*
X181850000Y-67400000D02*
G75*
G02*
X182350000Y-66900000I500000J0D01*
G01*
X182350000Y-66900000D02*
G75*
G02*
X182850000Y-67400000I0J-500000D01*
G01*
X182350000Y-72100000D02*
G75*
G02*
X181850000Y-71600000I0J500000D01*
G01*
X182850000Y-71600000D02*
G75*
G02*
X182350000Y-72100000I-500000J0D01*
G01*
%TO.C,BT1*%
X205851215Y-61043726D02*
X205851215Y-63643726D01*
X206051215Y-63843726D02*
X207651215Y-63843726D01*
X207651215Y-60843726D02*
X206051215Y-60843726D01*
X207851215Y-63643726D02*
X207851215Y-61043726D01*
X205851215Y-61043726D02*
G75*
G02*
X206051215Y-60843726I200001J-1D01*
G01*
X206051215Y-63843726D02*
G75*
G02*
X205851215Y-63643726I1J200001D01*
G01*
X207651215Y-60843726D02*
G75*
G02*
X207851215Y-61043726I-1J-200001D01*
G01*
X207851215Y-63643726D02*
G75*
G02*
X207651215Y-63843726I-200001J1D01*
G01*
%TO.C,S14*%
X169850000Y-88600000D02*
X169850000Y-84400000D01*
X170850000Y-84400000D02*
X170850000Y-88600000D01*
X181850000Y-88600000D02*
X181850000Y-84400000D01*
X182850000Y-84400000D02*
X182850000Y-88600000D01*
X169850000Y-84400000D02*
G75*
G02*
X170350000Y-83900000I500001J-1D01*
G01*
X170350000Y-83900000D02*
G75*
G02*
X170850000Y-84400000I-1J-500001D01*
G01*
X170350000Y-89100000D02*
G75*
G02*
X169850000Y-88600000I1J500001D01*
G01*
X170849999Y-88600000D02*
G75*
G02*
X170350000Y-89099999I-499998J-1D01*
G01*
X181850000Y-84400000D02*
G75*
G02*
X182350000Y-83900000I500000J0D01*
G01*
X182350000Y-83900000D02*
G75*
G02*
X182850000Y-84400000I0J-500000D01*
G01*
X182350000Y-89100000D02*
G75*
G02*
X181850000Y-88600000I0J500000D01*
G01*
X182850000Y-88600000D02*
G75*
G02*
X182350000Y-89100000I-500000J0D01*
G01*
%TO.C,S3*%
X152850000Y-53350000D02*
X152850000Y-49150000D01*
X153850000Y-49150000D02*
X153850000Y-53350000D01*
X164850000Y-53350000D02*
X164850000Y-49150000D01*
X165850000Y-49150000D02*
X165850000Y-53350000D01*
X152850000Y-49150000D02*
G75*
G02*
X153350000Y-48650000I500001J-1D01*
G01*
X153350000Y-48650000D02*
G75*
G02*
X153850000Y-49150000I-1J-500001D01*
G01*
X153350000Y-53850000D02*
G75*
G02*
X152850000Y-53350000I1J500001D01*
G01*
X153849999Y-53350000D02*
G75*
G02*
X153350000Y-53849999I-499998J-1D01*
G01*
X164850000Y-49150000D02*
G75*
G02*
X165350000Y-48650000I500000J0D01*
G01*
X165350000Y-48650000D02*
G75*
G02*
X165850000Y-49150000I0J-500000D01*
G01*
X165350000Y-53850000D02*
G75*
G02*
X164850000Y-53350000I0J500000D01*
G01*
X165850000Y-53350000D02*
G75*
G02*
X165350000Y-53850000I-500000J0D01*
G01*
%TO.C,S5*%
X118850000Y-59100000D02*
X118850000Y-54900000D01*
X119850000Y-54900000D02*
X119850000Y-59100000D01*
X130850000Y-59100000D02*
X130850000Y-54900000D01*
X131850000Y-54900000D02*
X131850000Y-59100000D01*
X118850000Y-54900000D02*
G75*
G02*
X119350000Y-54400000I500001J-1D01*
G01*
X119350000Y-54400000D02*
G75*
G02*
X119850000Y-54900000I-1J-500001D01*
G01*
X119350000Y-59600000D02*
G75*
G02*
X118850000Y-59100000I1J500001D01*
G01*
X119849999Y-59100000D02*
G75*
G02*
X119350000Y-59599999I-499998J-1D01*
G01*
X130850000Y-54900000D02*
G75*
G02*
X131350000Y-54400000I500000J0D01*
G01*
X131350000Y-54400000D02*
G75*
G02*
X131850000Y-54900000I0J-500000D01*
G01*
X131350000Y-59600000D02*
G75*
G02*
X130850000Y-59100000I0J500000D01*
G01*
X131850000Y-59100000D02*
G75*
G02*
X131350000Y-59600000I-500000J0D01*
G01*
%TO.C,S21*%
X169850000Y-105600000D02*
X169850000Y-101400000D01*
X170850000Y-101400000D02*
X170850000Y-105600000D01*
X181850000Y-105600000D02*
X181850000Y-101400000D01*
X182850000Y-101400000D02*
X182850000Y-105600000D01*
X169850000Y-101400000D02*
G75*
G02*
X170350000Y-100900000I500001J-1D01*
G01*
X170350000Y-100900000D02*
G75*
G02*
X170850000Y-101400000I-1J-500001D01*
G01*
X170350000Y-106100000D02*
G75*
G02*
X169850000Y-105600000I1J500001D01*
G01*
X170849999Y-105600000D02*
G75*
G02*
X170350000Y-106099999I-499998J-1D01*
G01*
X181850000Y-101400000D02*
G75*
G02*
X182350000Y-100900000I500000J0D01*
G01*
X182350000Y-100900000D02*
G75*
G02*
X182850000Y-101400000I0J-500000D01*
G01*
X182350000Y-106100000D02*
G75*
G02*
X181850000Y-105600000I0J500000D01*
G01*
X182850000Y-105600000D02*
G75*
G02*
X182350000Y-106100000I-500000J0D01*
G01*
%TO.C,S7*%
X186850000Y-73750000D02*
X186850000Y-69550000D01*
X187850000Y-69550000D02*
X187850000Y-73750000D01*
X198850000Y-73750000D02*
X198850000Y-69550000D01*
X199850000Y-69550000D02*
X199850000Y-73750000D01*
X186850000Y-69550000D02*
G75*
G02*
X187350000Y-69050000I500001J-1D01*
G01*
X187350000Y-69050000D02*
G75*
G02*
X187850000Y-69550000I-1J-500001D01*
G01*
X187350000Y-74250000D02*
G75*
G02*
X186850000Y-73750000I1J500001D01*
G01*
X187849999Y-73750000D02*
G75*
G02*
X187350000Y-74249999I-499998J-1D01*
G01*
X198850000Y-69550000D02*
G75*
G02*
X199350000Y-69050000I500000J0D01*
G01*
X199350000Y-69050000D02*
G75*
G02*
X199850000Y-69550000I0J-500000D01*
G01*
X199350000Y-74250000D02*
G75*
G02*
X198850000Y-73750000I0J500000D01*
G01*
X199850000Y-73750000D02*
G75*
G02*
X199350000Y-74250000I-500000J0D01*
G01*
%TO.C,S22*%
X152850000Y-104350000D02*
X152850000Y-100150000D01*
X153850000Y-100150000D02*
X153850000Y-104350000D01*
X164850000Y-104350000D02*
X164850000Y-100150000D01*
X165850000Y-100150000D02*
X165850000Y-104350000D01*
X152850000Y-100150000D02*
G75*
G02*
X153350000Y-99650000I500001J-1D01*
G01*
X153350000Y-99650000D02*
G75*
G02*
X153850000Y-100150000I-1J-500001D01*
G01*
X153350000Y-104850000D02*
G75*
G02*
X152850000Y-104350000I1J500001D01*
G01*
X153849999Y-104350000D02*
G75*
G02*
X153350000Y-104849999I-499998J-1D01*
G01*
X164850000Y-100150000D02*
G75*
G02*
X165350000Y-99650000I500000J0D01*
G01*
X165350000Y-99650000D02*
G75*
G02*
X165850000Y-100150000I0J-500000D01*
G01*
X165350000Y-104850000D02*
G75*
G02*
X164850000Y-104350000I0J500000D01*
G01*
X165850000Y-104350000D02*
G75*
G02*
X165350000Y-104850000I-500000J0D01*
G01*
%TD*%
M02*
