%TF.GenerationSoftware,KiCad,Pcbnew,9.0.8*%
%TF.CreationDate,2026-04-01T17:17:51-04:00*%
%TF.ProjectId,3leaf_fall,336c6561-665f-4666-916c-6c2e6b696361,rev?*%
%TF.SameCoordinates,Original*%
%TF.FileFunction,Copper,L2,Bot*%
%TF.FilePolarity,Positive*%
%FSLAX46Y46*%
G04 Gerber Fmt 4.6, Leading zero omitted, Abs format (unit mm)*
G04 Created by KiCad (PCBNEW 9.0.8) date 2026-04-01 17:17:51*
%MOMM*%
%LPD*%
G01*
G04 APERTURE LIST*
%TA.AperFunction,ViaPad*%
%ADD10C,0.600000*%
%TD*%
%TA.AperFunction,Conductor*%
%ADD11C,0.200000*%
%TD*%
G04 APERTURE END LIST*
D10*
%TO.N,GND*%
X228963715Y-83243726D03*
X219563715Y-76243726D03*
X214763715Y-93943726D03*
%TO.N,VCC*%
X224363715Y-83743726D03*
X225963715Y-78343726D03*
%TD*%
D11*
%TO.N,VCC*%
X224363715Y-79943726D02*
X225963715Y-78343726D01*
X224363715Y-83743726D02*
X224363715Y-79943726D01*
%TD*%
%TA.AperFunction,Conductor*%
%TO.N,GND*%
G36*
X165915060Y-41853615D02*
G01*
X166013644Y-41853613D01*
X166020429Y-41853799D01*
X166023902Y-41853989D01*
X166217921Y-41864624D01*
X166231389Y-41866105D01*
X166423172Y-41897903D01*
X166436417Y-41900852D01*
X166529984Y-41927136D01*
X166623550Y-41953420D01*
X166636401Y-41957802D01*
X166816663Y-42030513D01*
X166828957Y-42036273D01*
X167000200Y-42128262D01*
X167011779Y-42135325D01*
X167174766Y-42247429D01*
X167180209Y-42251397D01*
X167310974Y-42352362D01*
X167310979Y-42352365D01*
X167310984Y-42352369D01*
X167460553Y-42449314D01*
X167593837Y-42535704D01*
X167890792Y-42695215D01*
X167950689Y-42721303D01*
X168199816Y-42829813D01*
X168199828Y-42829817D01*
X168199835Y-42829820D01*
X168297719Y-42863197D01*
X168518852Y-42938601D01*
X168518866Y-42938605D01*
X168518881Y-42938610D01*
X168845778Y-43020852D01*
X169178322Y-43075991D01*
X169514269Y-43103656D01*
X169514281Y-43103655D01*
X169514282Y-43103656D01*
X169660339Y-43103618D01*
X169682812Y-43103613D01*
X169784788Y-43103614D01*
X169784793Y-43103613D01*
X182545041Y-43103613D01*
X182552779Y-43103855D01*
X182777772Y-43117923D01*
X182793122Y-43119849D01*
X182901968Y-43140479D01*
X183010812Y-43161109D01*
X183025794Y-43164929D01*
X183236664Y-43232985D01*
X183251044Y-43238639D01*
X183430525Y-43322490D01*
X183451787Y-43332423D01*
X183465371Y-43339835D01*
X183652865Y-43457886D01*
X183665408Y-43466923D01*
X183836756Y-43607420D01*
X183848065Y-43617939D01*
X183852957Y-43623095D01*
X184003243Y-43781489D01*
X184008386Y-43787259D01*
X184071346Y-43862509D01*
X184071371Y-43862529D01*
X184075358Y-43867293D01*
X184075358Y-43867294D01*
X184075359Y-43867295D01*
X184120982Y-43921819D01*
X184120996Y-43921834D01*
X184374267Y-44175760D01*
X184374271Y-44175764D01*
X184374277Y-44175769D01*
X184374280Y-44175772D01*
X184648773Y-44406637D01*
X184942371Y-44612658D01*
X185086198Y-44695862D01*
X185252824Y-44792257D01*
X185252828Y-44792259D01*
X185252832Y-44792260D01*
X185252834Y-44792262D01*
X185577791Y-44944077D01*
X185577805Y-44944082D01*
X185914750Y-45066942D01*
X185914756Y-45066943D01*
X185914760Y-45066945D01*
X186261169Y-45159928D01*
X186614373Y-45222314D01*
X186614383Y-45222314D01*
X186614384Y-45222315D01*
X186971669Y-45253629D01*
X186971722Y-45253629D01*
X187064347Y-45253636D01*
X187064390Y-45253643D01*
X187149701Y-45253642D01*
X187149759Y-45253642D01*
X187151009Y-45253643D01*
X187252986Y-45253644D01*
X187252989Y-45253643D01*
X187262968Y-45253643D01*
X187262980Y-45253641D01*
X214686608Y-45253610D01*
X223748306Y-45253610D01*
X223748713Y-45253626D01*
X223911729Y-45253626D01*
X229846445Y-45253641D01*
X229913484Y-45273326D01*
X229959238Y-45326130D01*
X229969182Y-45395288D01*
X229940157Y-45458844D01*
X229934126Y-45465322D01*
X229865171Y-45534277D01*
X229693569Y-45749460D01*
X229547135Y-45982508D01*
X229427718Y-46230480D01*
X229336816Y-46490261D01*
X229336812Y-46490273D01*
X229275568Y-46758602D01*
X229275566Y-46758618D01*
X229244751Y-47032105D01*
X229244751Y-47307348D01*
X229275566Y-47580835D01*
X229275568Y-47580851D01*
X229336812Y-47849180D01*
X229336816Y-47849192D01*
X229427718Y-48108973D01*
X229547135Y-48356945D01*
X229547137Y-48356948D01*
X229693570Y-48589995D01*
X229821594Y-48750531D01*
X229860645Y-48799501D01*
X229865176Y-48805182D01*
X230059796Y-48999802D01*
X230274983Y-49171408D01*
X230508030Y-49317841D01*
X230756008Y-49437261D01*
X230926604Y-49496955D01*
X231015785Y-49528161D01*
X231015797Y-49528165D01*
X231284130Y-49589410D01*
X231557629Y-49620226D01*
X231557630Y-49620227D01*
X231557634Y-49620227D01*
X231832872Y-49620227D01*
X231832872Y-49620226D01*
X232106372Y-49589410D01*
X232374705Y-49528165D01*
X232634494Y-49437261D01*
X232882472Y-49317841D01*
X233115519Y-49171408D01*
X233330706Y-48999802D01*
X233525326Y-48805182D01*
X233696932Y-48589995D01*
X233799857Y-48426189D01*
X233852190Y-48379900D01*
X233921244Y-48369251D01*
X233985092Y-48397626D01*
X234023464Y-48456016D01*
X234024625Y-48460069D01*
X240502258Y-72634927D01*
X240505079Y-72648414D01*
X240518601Y-72737505D01*
X240519686Y-72765000D01*
X240513724Y-72847963D01*
X240508719Y-72875020D01*
X240484607Y-72954627D01*
X240473759Y-72979912D01*
X240432682Y-73052244D01*
X240416526Y-73074512D01*
X240360511Y-73136002D01*
X240339840Y-73154161D01*
X240265960Y-73205754D01*
X240254242Y-73213003D01*
X240166208Y-73260916D01*
X240165338Y-73261444D01*
X240128372Y-73281583D01*
X239881942Y-73453659D01*
X239656138Y-73652005D01*
X239453727Y-73874189D01*
X239277215Y-74117466D01*
X239277214Y-74117467D01*
X239128800Y-74378801D01*
X239128794Y-74378812D01*
X239010281Y-74655026D01*
X239010280Y-74655028D01*
X238923151Y-74942671D01*
X238923150Y-74942675D01*
X238868474Y-75238219D01*
X238846928Y-75538000D01*
X238846928Y-75538006D01*
X238858777Y-75838325D01*
X238903875Y-76135479D01*
X238903877Y-76135490D01*
X238918956Y-76191871D01*
X238919196Y-76192927D01*
X238920284Y-76196989D01*
X238920285Y-76196994D01*
X239020049Y-76569321D01*
X239074138Y-76771183D01*
X239072475Y-76841033D01*
X239033312Y-76898895D01*
X238986457Y-76923051D01*
X238492970Y-77055282D01*
X242582311Y-92316910D01*
X243075800Y-92184679D01*
X243145647Y-92186342D01*
X243203510Y-92225504D01*
X243227666Y-92272360D01*
X243280596Y-92469894D01*
X243332745Y-92664515D01*
X243338566Y-92686241D01*
X243339950Y-92691948D01*
X243416947Y-93045898D01*
X243418904Y-93057535D01*
X243461556Y-93414263D01*
X243462398Y-93426033D01*
X243470947Y-93785205D01*
X243470666Y-93797002D01*
X243445035Y-94155354D01*
X243443634Y-94167071D01*
X243384057Y-94521361D01*
X243381549Y-94532892D01*
X243288561Y-94879923D01*
X243284968Y-94891163D01*
X243159411Y-95227789D01*
X243154765Y-95238636D01*
X242997789Y-95561783D01*
X242992134Y-95572140D01*
X242805146Y-95878911D01*
X242798532Y-95888684D01*
X242583224Y-96176298D01*
X242575710Y-96185397D01*
X242332050Y-96453429D01*
X242327979Y-96457699D01*
X242257962Y-96527715D01*
X242257958Y-96527719D01*
X242255236Y-96530442D01*
X242255235Y-96530441D01*
X242255228Y-96530448D01*
X242255229Y-96530449D01*
X224888262Y-113897558D01*
X224884016Y-113901607D01*
X224636692Y-114126569D01*
X224628423Y-114133459D01*
X224364323Y-114334754D01*
X224355487Y-114340901D01*
X224074935Y-114518527D01*
X224065600Y-114523885D01*
X223770690Y-114676519D01*
X223760925Y-114681046D01*
X223453885Y-114807532D01*
X223443766Y-114811196D01*
X223191797Y-114890229D01*
X223127355Y-114910443D01*
X223126937Y-114910574D01*
X223116536Y-114913347D01*
X222792261Y-114984878D01*
X222781660Y-114986738D01*
X222452414Y-115029878D01*
X222441691Y-115030812D01*
X222107250Y-115045356D01*
X222101863Y-115045473D01*
X187154794Y-115045473D01*
X187147056Y-115045231D01*
X186922061Y-115031163D01*
X186906708Y-115029236D01*
X186689021Y-114987977D01*
X186674028Y-114984153D01*
X186463174Y-114916105D01*
X186448773Y-114910443D01*
X186445653Y-114908985D01*
X186248026Y-114816658D01*
X186234453Y-114809252D01*
X186046961Y-114691202D01*
X186034408Y-114682159D01*
X186030550Y-114678996D01*
X185863070Y-114541671D01*
X185851740Y-114531132D01*
X185696569Y-114367592D01*
X185691419Y-114361813D01*
X185677535Y-114345219D01*
X185628468Y-114286573D01*
X185624776Y-114282160D01*
X185624664Y-114282039D01*
X185578823Y-114227256D01*
X185578807Y-114227239D01*
X185325525Y-113973310D01*
X185325511Y-113973297D01*
X185051044Y-113742461D01*
X185051039Y-113742457D01*
X185051037Y-113742455D01*
X185051034Y-113742453D01*
X184757438Y-113536438D01*
X184446978Y-113356840D01*
X184304698Y-113290370D01*
X184122036Y-113205034D01*
X184122032Y-113205032D01*
X184122026Y-113205030D01*
X183785061Y-113082166D01*
X183438658Y-112989186D01*
X183085460Y-112926801D01*
X183085458Y-112926800D01*
X183085448Y-112926799D01*
X182728169Y-112895486D01*
X182639910Y-112895479D01*
X182639910Y-112895478D01*
X182635464Y-112895477D01*
X182635431Y-112895473D01*
X182548832Y-112895473D01*
X182548824Y-112895472D01*
X182440743Y-112895472D01*
X182440723Y-112895473D01*
X169686214Y-112895473D01*
X169679426Y-112895287D01*
X169481933Y-112884459D01*
X169468438Y-112882975D01*
X169276661Y-112851177D01*
X169263410Y-112848226D01*
X169076272Y-112795658D01*
X169063421Y-112791277D01*
X168883136Y-112718558D01*
X168870843Y-112712798D01*
X168699589Y-112620807D01*
X168688012Y-112613745D01*
X168581502Y-112540490D01*
X168525047Y-112501661D01*
X168519533Y-112497640D01*
X168388854Y-112396738D01*
X168388855Y-112396738D01*
X168105980Y-112213381D01*
X167809038Y-112053872D01*
X167500005Y-111919267D01*
X167499996Y-111919263D01*
X167499992Y-111919261D01*
X167499981Y-111919257D01*
X167180955Y-111810472D01*
X167180947Y-111810469D01*
X166963936Y-111755873D01*
X166854050Y-111728228D01*
X166770913Y-111714443D01*
X166521508Y-111673090D01*
X166185544Y-111645427D01*
X166017013Y-111645473D01*
X153856195Y-111645473D01*
X153850468Y-111645341D01*
X153499248Y-111629102D01*
X153487843Y-111628045D01*
X153142465Y-111579866D01*
X153131207Y-111577761D01*
X152791759Y-111497923D01*
X152780743Y-111494789D01*
X152450098Y-111383967D01*
X152439418Y-111379829D01*
X152120414Y-111238974D01*
X152110161Y-111233869D01*
X151937755Y-111137839D01*
X151805511Y-111064179D01*
X151795779Y-111058153D01*
X151508078Y-110861072D01*
X151498938Y-110854170D01*
X151230663Y-110631397D01*
X151222199Y-110623681D01*
X150975623Y-110377105D01*
X150967906Y-110368641D01*
X150745123Y-110100352D01*
X150738221Y-110091212D01*
X150541146Y-109803517D01*
X150535117Y-109793779D01*
X150497312Y-109725906D01*
X150365422Y-109489119D01*
X150360330Y-109478892D01*
X150219468Y-109159868D01*
X150215340Y-109149214D01*
X150104509Y-108818539D01*
X150101382Y-108807549D01*
X150021539Y-108468079D01*
X150019436Y-108456828D01*
X149999059Y-108310750D01*
X149971258Y-108111446D01*
X149970202Y-108100049D01*
X149969787Y-108091082D01*
X149953964Y-107748828D01*
X149953832Y-107743101D01*
X149953832Y-102324906D01*
X149953835Y-102324078D01*
X149955347Y-102097648D01*
X149947444Y-101982084D01*
X149923855Y-101637165D01*
X149857890Y-101180345D01*
X149757824Y-100729764D01*
X149624221Y-100287965D01*
X149612673Y-100258085D01*
X151749499Y-100258085D01*
X151749500Y-100258106D01*
X151749500Y-104242893D01*
X151749499Y-104242919D01*
X151749500Y-104310185D01*
X151749500Y-104464469D01*
X151749501Y-104464473D01*
X151782081Y-104691076D01*
X151782084Y-104691087D01*
X151846584Y-104910752D01*
X151941681Y-105118986D01*
X151941690Y-105119002D01*
X152065461Y-105311593D01*
X152065467Y-105311600D01*
X152215383Y-105484614D01*
X152215385Y-105484616D01*
X152388399Y-105634532D01*
X152388406Y-105634538D01*
X152580997Y-105758309D01*
X152581013Y-105758318D01*
X152789247Y-105853415D01*
X152789251Y-105853416D01*
X152789253Y-105853417D01*
X153008918Y-105917917D01*
X153008919Y-105917917D01*
X153008922Y-105917918D01*
X153076492Y-105927632D01*
X153235527Y-105950499D01*
X153349997Y-105950500D01*
X153451973Y-105950501D01*
X153451984Y-105950499D01*
X153464468Y-105950499D01*
X153691078Y-105917918D01*
X153910745Y-105853418D01*
X153910748Y-105853416D01*
X153910750Y-105853416D01*
X154118984Y-105758319D01*
X154118988Y-105758316D01*
X154118996Y-105758313D01*
X154311593Y-105634539D01*
X154484615Y-105484615D01*
X154634539Y-105311593D01*
X154758313Y-105118996D01*
X154758318Y-105118986D01*
X154758319Y-105118984D01*
X154853416Y-104910750D01*
X154853417Y-104910747D01*
X154853418Y-104910745D01*
X154917918Y-104691078D01*
X154950499Y-104464468D01*
X154950499Y-104441746D01*
X154950500Y-104441721D01*
X154950500Y-100258085D01*
X163749499Y-100258085D01*
X163749500Y-100258106D01*
X163749500Y-104248021D01*
X163749499Y-104248027D01*
X163749500Y-104310185D01*
X163749500Y-104464469D01*
X163749501Y-104464473D01*
X163782081Y-104691076D01*
X163782084Y-104691087D01*
X163846584Y-104910752D01*
X163941681Y-105118986D01*
X163941690Y-105119002D01*
X164065461Y-105311593D01*
X164065467Y-105311600D01*
X164215383Y-105484614D01*
X164215385Y-105484616D01*
X164388399Y-105634532D01*
X164388406Y-105634538D01*
X164580997Y-105758309D01*
X164581013Y-105758318D01*
X164789247Y-105853415D01*
X164789251Y-105853416D01*
X164789253Y-105853417D01*
X165008918Y-105917917D01*
X165008919Y-105917917D01*
X165008922Y-105917918D01*
X165070299Y-105926742D01*
X165235527Y-105950499D01*
X165242428Y-105950499D01*
X165248016Y-105950499D01*
X165248027Y-105950501D01*
X165350000Y-105950500D01*
X165451973Y-105950501D01*
X165451978Y-105950500D01*
X165458075Y-105950500D01*
X165458116Y-105950499D01*
X165464472Y-105950499D01*
X165464473Y-105950499D01*
X165669181Y-105921066D01*
X165691077Y-105917918D01*
X165691078Y-105917917D01*
X165691082Y-105917917D01*
X165910747Y-105853417D01*
X165910750Y-105853415D01*
X165910752Y-105853415D01*
X166118986Y-105758318D01*
X166118990Y-105758315D01*
X166118998Y-105758312D01*
X166311594Y-105634538D01*
X166484615Y-105484615D01*
X166634538Y-105311594D01*
X166758312Y-105118998D01*
X166758315Y-105118990D01*
X166758318Y-105118986D01*
X166853415Y-104910752D01*
X166853415Y-104910750D01*
X166853417Y-104910747D01*
X166917917Y-104691082D01*
X166950499Y-104464473D01*
X166950499Y-104436615D01*
X166950500Y-104436611D01*
X166950500Y-104310185D01*
X166950501Y-104248027D01*
X166950500Y-104248021D01*
X166950500Y-101508085D01*
X168749499Y-101508085D01*
X168749500Y-101508106D01*
X168749500Y-105492893D01*
X168749499Y-105492919D01*
X168749500Y-105551915D01*
X168749500Y-105714469D01*
X168749501Y-105714473D01*
X168782081Y-105941076D01*
X168782084Y-105941087D01*
X168846584Y-106160752D01*
X168941681Y-106368986D01*
X168941690Y-106369002D01*
X169065461Y-106561593D01*
X169065467Y-106561600D01*
X169215383Y-106734614D01*
X169215385Y-106734616D01*
X169388399Y-106884532D01*
X169388406Y-106884538D01*
X169580997Y-107008309D01*
X169581013Y-107008318D01*
X169789247Y-107103415D01*
X169789251Y-107103416D01*
X169789253Y-107103417D01*
X170008918Y-107167917D01*
X170008919Y-107167917D01*
X170008922Y-107167918D01*
X170076492Y-107177632D01*
X170235527Y-107200499D01*
X170349997Y-107200500D01*
X170451973Y-107200501D01*
X170451984Y-107200499D01*
X170464468Y-107200499D01*
X170691078Y-107167918D01*
X170910745Y-107103418D01*
X170910748Y-107103416D01*
X170910750Y-107103416D01*
X171118984Y-107008319D01*
X171118988Y-107008316D01*
X171118996Y-107008313D01*
X171311593Y-106884539D01*
X171484615Y-106734615D01*
X171634539Y-106561593D01*
X171758313Y-106368996D01*
X171758318Y-106368986D01*
X171758319Y-106368984D01*
X171853416Y-106160750D01*
X171853417Y-106160747D01*
X171853418Y-106160745D01*
X171917918Y-105941078D01*
X171950499Y-105714468D01*
X171950499Y-105691746D01*
X171950500Y-105691721D01*
X171950500Y-101508085D01*
X180749499Y-101508085D01*
X180749500Y-101508106D01*
X180749500Y-105498021D01*
X180749499Y-105498027D01*
X180749500Y-105551915D01*
X180749500Y-105714469D01*
X180749501Y-105714473D01*
X180782081Y-105941076D01*
X180782084Y-105941087D01*
X180846584Y-106160752D01*
X180941681Y-106368986D01*
X180941690Y-106369002D01*
X181065461Y-106561593D01*
X181065467Y-106561600D01*
X181215383Y-106734614D01*
X181215385Y-106734616D01*
X181388399Y-106884532D01*
X181388406Y-106884538D01*
X181580997Y-107008309D01*
X181581013Y-107008318D01*
X181789247Y-107103415D01*
X181789251Y-107103416D01*
X181789253Y-107103417D01*
X182008918Y-107167917D01*
X182008919Y-107167917D01*
X182008922Y-107167918D01*
X182070299Y-107176742D01*
X182235527Y-107200499D01*
X182242428Y-107200499D01*
X182248016Y-107200499D01*
X182248027Y-107200501D01*
X182350000Y-107200500D01*
X182451973Y-107200501D01*
X182451978Y-107200500D01*
X182458075Y-107200500D01*
X182458116Y-107200499D01*
X182464472Y-107200499D01*
X182464473Y-107200499D01*
X182650470Y-107173756D01*
X182691077Y-107167918D01*
X182691078Y-107167917D01*
X182691082Y-107167917D01*
X182910747Y-107103417D01*
X182910750Y-107103415D01*
X182910752Y-107103415D01*
X183118986Y-107008318D01*
X183118990Y-107008315D01*
X183118998Y-107008312D01*
X183311594Y-106884538D01*
X183484615Y-106734615D01*
X183634538Y-106561594D01*
X183758312Y-106368998D01*
X183758315Y-106368990D01*
X183758318Y-106368986D01*
X183853415Y-106160752D01*
X183853415Y-106160750D01*
X183853417Y-106160747D01*
X183917917Y-105941082D01*
X183921248Y-105917919D01*
X183930521Y-105853418D01*
X183950499Y-105714473D01*
X183950499Y-105686615D01*
X183950500Y-105686611D01*
X183950500Y-105551915D01*
X183950501Y-105498027D01*
X183950500Y-105498021D01*
X183950500Y-103658085D01*
X185749499Y-103658085D01*
X185749500Y-103658106D01*
X185749500Y-107642893D01*
X185749499Y-107642919D01*
X185749500Y-107700830D01*
X185749500Y-107864469D01*
X185749501Y-107864473D01*
X185782081Y-108091076D01*
X185782084Y-108091087D01*
X185846584Y-108310752D01*
X185941681Y-108518986D01*
X185941690Y-108519002D01*
X186065461Y-108711593D01*
X186065467Y-108711600D01*
X186215383Y-108884614D01*
X186215385Y-108884616D01*
X186388399Y-109034532D01*
X186388406Y-109034538D01*
X186580997Y-109158309D01*
X186581013Y-109158318D01*
X186789247Y-109253415D01*
X186789251Y-109253416D01*
X186789253Y-109253417D01*
X187008918Y-109317917D01*
X187008919Y-109317917D01*
X187008922Y-109317918D01*
X187076492Y-109327632D01*
X187235527Y-109350499D01*
X187349997Y-109350500D01*
X187451973Y-109350501D01*
X187451984Y-109350499D01*
X187464468Y-109350499D01*
X187691078Y-109317918D01*
X187910745Y-109253418D01*
X187910748Y-109253416D01*
X187910750Y-109253416D01*
X188118984Y-109158319D01*
X188118988Y-109158316D01*
X188118996Y-109158313D01*
X188311593Y-109034539D01*
X188484615Y-108884615D01*
X188634539Y-108711593D01*
X188758313Y-108518996D01*
X188758318Y-108518986D01*
X188758319Y-108518984D01*
X188853416Y-108310750D01*
X188853417Y-108310747D01*
X188853418Y-108310745D01*
X188917918Y-108091078D01*
X188950499Y-107864468D01*
X188950499Y-107841746D01*
X188950500Y-107841721D01*
X188950500Y-103658085D01*
X197749499Y-103658085D01*
X197749500Y-103658106D01*
X197749500Y-107648021D01*
X197749499Y-107648027D01*
X197749500Y-107700830D01*
X197749500Y-107864469D01*
X197749501Y-107864473D01*
X197782081Y-108091076D01*
X197782084Y-108091087D01*
X197846584Y-108310752D01*
X197941681Y-108518986D01*
X197941690Y-108519002D01*
X198065461Y-108711593D01*
X198065467Y-108711600D01*
X198215383Y-108884614D01*
X198215385Y-108884616D01*
X198388399Y-109034532D01*
X198388406Y-109034538D01*
X198580997Y-109158309D01*
X198581013Y-109158318D01*
X198789247Y-109253415D01*
X198789251Y-109253416D01*
X198789253Y-109253417D01*
X199008918Y-109317917D01*
X199008919Y-109317917D01*
X199008922Y-109317918D01*
X199070299Y-109326742D01*
X199235527Y-109350499D01*
X199242428Y-109350499D01*
X199248016Y-109350499D01*
X199248027Y-109350501D01*
X199350000Y-109350500D01*
X199451973Y-109350501D01*
X199451978Y-109350500D01*
X199458075Y-109350500D01*
X199458116Y-109350499D01*
X199464472Y-109350499D01*
X199464473Y-109350499D01*
X199650470Y-109323756D01*
X199691077Y-109317918D01*
X199691078Y-109317917D01*
X199691082Y-109317917D01*
X199910747Y-109253417D01*
X199910750Y-109253415D01*
X199910752Y-109253415D01*
X200118986Y-109158318D01*
X200118990Y-109158315D01*
X200118998Y-109158312D01*
X200311594Y-109034538D01*
X200484615Y-108884615D01*
X200634538Y-108711594D01*
X200758312Y-108518998D01*
X200758315Y-108518990D01*
X200758318Y-108518986D01*
X200853415Y-108310752D01*
X200853415Y-108310750D01*
X200853417Y-108310747D01*
X200917917Y-108091082D01*
X200918422Y-108087574D01*
X200933074Y-107985662D01*
X200950499Y-107864473D01*
X200950499Y-107836615D01*
X200950500Y-107836611D01*
X200950500Y-107700830D01*
X200950501Y-107648027D01*
X200950500Y-107648021D01*
X200950500Y-103658085D01*
X202749499Y-103658085D01*
X202749500Y-103658106D01*
X202749500Y-107648021D01*
X202749499Y-107648027D01*
X202749500Y-107700830D01*
X202749500Y-107864469D01*
X202749501Y-107864473D01*
X202782081Y-108091076D01*
X202782084Y-108091087D01*
X202846584Y-108310752D01*
X202941681Y-108518986D01*
X202941690Y-108519002D01*
X203065461Y-108711593D01*
X203065467Y-108711600D01*
X203215383Y-108884614D01*
X203215385Y-108884616D01*
X203388399Y-109034532D01*
X203388406Y-109034538D01*
X203580997Y-109158309D01*
X203581013Y-109158318D01*
X203789247Y-109253415D01*
X203789251Y-109253416D01*
X203789253Y-109253417D01*
X204008918Y-109317917D01*
X204008919Y-109317917D01*
X204008922Y-109317918D01*
X204076492Y-109327632D01*
X204235527Y-109350499D01*
X204349997Y-109350500D01*
X204451973Y-109350501D01*
X204451984Y-109350499D01*
X204464468Y-109350499D01*
X204691078Y-109317918D01*
X204910745Y-109253418D01*
X204910748Y-109253416D01*
X204910750Y-109253416D01*
X205118984Y-109158319D01*
X205118988Y-109158316D01*
X205118996Y-109158313D01*
X205311593Y-109034539D01*
X205484615Y-108884615D01*
X205634539Y-108711593D01*
X205758313Y-108518996D01*
X205758318Y-108518986D01*
X205758319Y-108518984D01*
X205853416Y-108310750D01*
X205853417Y-108310747D01*
X205853418Y-108310745D01*
X205917918Y-108091078D01*
X205950499Y-107864468D01*
X205950499Y-107841746D01*
X205950500Y-107841721D01*
X205950500Y-103658085D01*
X214749499Y-103658085D01*
X214749500Y-103658106D01*
X214749500Y-107648021D01*
X214749499Y-107648027D01*
X214749500Y-107700830D01*
X214749500Y-107864469D01*
X214749501Y-107864473D01*
X214782081Y-108091076D01*
X214782084Y-108091087D01*
X214846584Y-108310752D01*
X214941681Y-108518986D01*
X214941690Y-108519002D01*
X215065461Y-108711593D01*
X215065467Y-108711600D01*
X215215383Y-108884614D01*
X215215385Y-108884616D01*
X215388399Y-109034532D01*
X215388406Y-109034538D01*
X215580997Y-109158309D01*
X215581013Y-109158318D01*
X215789247Y-109253415D01*
X215789251Y-109253416D01*
X215789253Y-109253417D01*
X216008918Y-109317917D01*
X216008919Y-109317917D01*
X216008922Y-109317918D01*
X216070299Y-109326742D01*
X216235527Y-109350499D01*
X216242428Y-109350499D01*
X216248016Y-109350499D01*
X216248027Y-109350501D01*
X216350000Y-109350500D01*
X216451973Y-109350501D01*
X216451978Y-109350500D01*
X216458075Y-109350500D01*
X216458116Y-109350499D01*
X216464472Y-109350499D01*
X216464473Y-109350499D01*
X216650470Y-109323756D01*
X216691077Y-109317918D01*
X216691078Y-109317917D01*
X216691082Y-109317917D01*
X216910747Y-109253417D01*
X216910750Y-109253415D01*
X216910752Y-109253415D01*
X217118986Y-109158318D01*
X217118990Y-109158315D01*
X217118998Y-109158312D01*
X217311594Y-109034538D01*
X217484615Y-108884615D01*
X217634538Y-108711594D01*
X217758312Y-108518998D01*
X217758315Y-108518990D01*
X217758318Y-108518986D01*
X217853415Y-108310752D01*
X217853415Y-108310750D01*
X217853417Y-108310747D01*
X217917917Y-108091082D01*
X217918422Y-108087574D01*
X217933074Y-107985662D01*
X217950499Y-107864473D01*
X217950499Y-107836615D01*
X217950500Y-107836611D01*
X217950500Y-107700830D01*
X217950501Y-107648027D01*
X217950500Y-107648021D01*
X217950500Y-103651978D01*
X217950501Y-103651973D01*
X217950500Y-103549997D01*
X217950500Y-103533234D01*
X217950500Y-103463389D01*
X217950500Y-103457276D01*
X217950499Y-103457254D01*
X217950499Y-103435528D01*
X217917918Y-103208922D01*
X217917915Y-103208912D01*
X217898620Y-103143198D01*
X217853417Y-102989253D01*
X217853416Y-102989251D01*
X217853415Y-102989247D01*
X217758318Y-102781013D01*
X217758309Y-102780997D01*
X217634538Y-102588406D01*
X217634532Y-102588399D01*
X217484616Y-102415385D01*
X217484614Y-102415383D01*
X217311600Y-102265467D01*
X217311593Y-102265461D01*
X217119002Y-102141690D01*
X217118986Y-102141681D01*
X216910752Y-102046584D01*
X216691087Y-101982084D01*
X216691076Y-101982081D01*
X216464476Y-101949501D01*
X216464466Y-101949500D01*
X216451983Y-101949500D01*
X216451973Y-101949499D01*
X216350000Y-101949499D01*
X216248027Y-101949499D01*
X216248016Y-101949500D01*
X216235533Y-101949500D01*
X216235523Y-101949501D01*
X216008923Y-101982081D01*
X216008912Y-101982084D01*
X215789247Y-102046584D01*
X215581013Y-102141681D01*
X215580997Y-102141690D01*
X215388406Y-102265461D01*
X215388399Y-102265467D01*
X215215385Y-102415383D01*
X215215383Y-102415385D01*
X215065467Y-102588399D01*
X215065461Y-102588406D01*
X214941690Y-102780997D01*
X214941681Y-102781013D01*
X214846584Y-102989247D01*
X214782084Y-103208912D01*
X214782081Y-103208923D01*
X214749501Y-103435526D01*
X214749500Y-103435530D01*
X214749500Y-103549997D01*
X214749499Y-103658085D01*
X205950500Y-103658085D01*
X205950500Y-103651978D01*
X205950501Y-103651973D01*
X205950500Y-103549997D01*
X205950500Y-103533234D01*
X205950500Y-103463389D01*
X205950499Y-103463384D01*
X205950499Y-103435527D01*
X205927179Y-103273337D01*
X205917918Y-103208922D01*
X205917915Y-103208912D01*
X205898620Y-103143198D01*
X205853417Y-102989253D01*
X205853416Y-102989251D01*
X205853415Y-102989247D01*
X205758318Y-102781013D01*
X205758309Y-102780997D01*
X205634538Y-102588406D01*
X205634532Y-102588399D01*
X205484616Y-102415385D01*
X205484614Y-102415383D01*
X205311600Y-102265467D01*
X205311593Y-102265461D01*
X205119002Y-102141690D01*
X205118986Y-102141681D01*
X204910752Y-102046584D01*
X204691087Y-101982084D01*
X204691076Y-101982081D01*
X204464476Y-101949501D01*
X204464466Y-101949500D01*
X204451983Y-101949500D01*
X204451973Y-101949499D01*
X204350000Y-101949499D01*
X204248027Y-101949499D01*
X204248016Y-101949500D01*
X204235533Y-101949500D01*
X204235523Y-101949501D01*
X204008923Y-101982081D01*
X204008912Y-101982084D01*
X203789247Y-102046584D01*
X203581013Y-102141681D01*
X203580997Y-102141690D01*
X203388406Y-102265461D01*
X203388399Y-102265467D01*
X203215385Y-102415383D01*
X203215383Y-102415385D01*
X203065467Y-102588399D01*
X203065461Y-102588406D01*
X202941690Y-102780997D01*
X202941681Y-102781013D01*
X202846584Y-102989247D01*
X202782084Y-103208912D01*
X202782081Y-103208923D01*
X202749501Y-103435526D01*
X202749500Y-103435530D01*
X202749500Y-103549997D01*
X202749499Y-103658085D01*
X200950500Y-103658085D01*
X200950500Y-103651978D01*
X200950501Y-103651973D01*
X200950500Y-103549997D01*
X200950500Y-103533234D01*
X200950500Y-103463389D01*
X200950499Y-103463384D01*
X200950499Y-103435527D01*
X200927179Y-103273337D01*
X200917918Y-103208922D01*
X200917915Y-103208912D01*
X200898620Y-103143198D01*
X200853417Y-102989253D01*
X200853416Y-102989251D01*
X200853415Y-102989247D01*
X200758318Y-102781013D01*
X200758309Y-102780997D01*
X200634538Y-102588406D01*
X200634532Y-102588399D01*
X200484616Y-102415385D01*
X200484614Y-102415383D01*
X200311600Y-102265467D01*
X200311593Y-102265461D01*
X200119002Y-102141690D01*
X200118986Y-102141681D01*
X199910752Y-102046584D01*
X199691087Y-101982084D01*
X199691076Y-101982081D01*
X199464476Y-101949501D01*
X199464466Y-101949500D01*
X199451983Y-101949500D01*
X199451973Y-101949499D01*
X199350000Y-101949499D01*
X199248027Y-101949499D01*
X199248016Y-101949500D01*
X199235533Y-101949500D01*
X199235523Y-101949501D01*
X199008923Y-101982081D01*
X199008912Y-101982084D01*
X198789247Y-102046584D01*
X198581013Y-102141681D01*
X198580997Y-102141690D01*
X198388406Y-102265461D01*
X198388399Y-102265467D01*
X198215385Y-102415383D01*
X198215383Y-102415385D01*
X198065467Y-102588399D01*
X198065461Y-102588406D01*
X197941690Y-102780997D01*
X197941681Y-102781013D01*
X197846584Y-102989247D01*
X197782084Y-103208912D01*
X197782081Y-103208923D01*
X197749501Y-103435526D01*
X197749500Y-103435530D01*
X197749500Y-103549997D01*
X197749499Y-103658085D01*
X188950500Y-103658085D01*
X188950500Y-103651978D01*
X188950501Y-103651973D01*
X188950500Y-103549997D01*
X188950500Y-103533234D01*
X188950500Y-103463389D01*
X188950499Y-103463384D01*
X188950499Y-103435527D01*
X188927179Y-103273337D01*
X188917918Y-103208922D01*
X188917915Y-103208912D01*
X188898620Y-103143198D01*
X188853417Y-102989253D01*
X188853416Y-102989251D01*
X188853415Y-102989247D01*
X188758318Y-102781013D01*
X188758309Y-102780997D01*
X188634538Y-102588406D01*
X188634532Y-102588399D01*
X188484616Y-102415385D01*
X188484614Y-102415383D01*
X188311600Y-102265467D01*
X188311593Y-102265461D01*
X188119002Y-102141690D01*
X188118986Y-102141681D01*
X187910752Y-102046584D01*
X187691087Y-101982084D01*
X187691076Y-101982081D01*
X187464476Y-101949501D01*
X187464466Y-101949500D01*
X187451983Y-101949500D01*
X187451973Y-101949499D01*
X187350000Y-101949499D01*
X187248027Y-101949499D01*
X187248016Y-101949500D01*
X187235533Y-101949500D01*
X187235523Y-101949501D01*
X187008923Y-101982081D01*
X187008912Y-101982084D01*
X186789247Y-102046584D01*
X186581013Y-102141681D01*
X186580997Y-102141690D01*
X186388406Y-102265461D01*
X186388399Y-102265467D01*
X186215385Y-102415383D01*
X186215383Y-102415385D01*
X186065467Y-102588399D01*
X186065461Y-102588406D01*
X185941690Y-102780997D01*
X185941681Y-102781013D01*
X185846584Y-102989247D01*
X185782084Y-103208912D01*
X185782081Y-103208923D01*
X185749501Y-103435526D01*
X185749500Y-103435530D01*
X185749500Y-103549997D01*
X185749499Y-103658085D01*
X183950500Y-103658085D01*
X183950500Y-101501978D01*
X183950501Y-101501973D01*
X183950500Y-101399997D01*
X183950500Y-101379660D01*
X183950500Y-101313389D01*
X183950500Y-101307276D01*
X183950499Y-101307254D01*
X183950499Y-101285528D01*
X183949595Y-101279244D01*
X183935375Y-101180341D01*
X183917918Y-101058922D01*
X183917915Y-101058912D01*
X183866078Y-100882371D01*
X183853417Y-100839253D01*
X183853416Y-100839251D01*
X183853415Y-100839247D01*
X183758318Y-100631013D01*
X183758309Y-100630997D01*
X183634538Y-100438406D01*
X183634532Y-100438399D01*
X183484616Y-100265385D01*
X183484614Y-100265383D01*
X183311600Y-100115467D01*
X183311593Y-100115461D01*
X183119002Y-99991690D01*
X183118986Y-99991681D01*
X182910752Y-99896584D01*
X182691087Y-99832084D01*
X182691076Y-99832081D01*
X182464476Y-99799501D01*
X182464466Y-99799500D01*
X182451983Y-99799500D01*
X182451973Y-99799499D01*
X182350000Y-99799499D01*
X182248027Y-99799499D01*
X182248016Y-99799500D01*
X182235533Y-99799500D01*
X182235523Y-99799501D01*
X182008923Y-99832081D01*
X182008912Y-99832084D01*
X181789247Y-99896584D01*
X181581013Y-99991681D01*
X181580997Y-99991690D01*
X181388406Y-100115461D01*
X181388399Y-100115467D01*
X181215385Y-100265383D01*
X181215383Y-100265385D01*
X181065467Y-100438399D01*
X181065461Y-100438406D01*
X180941690Y-100630997D01*
X180941681Y-100631013D01*
X180846584Y-100839247D01*
X180782084Y-101058912D01*
X180782081Y-101058923D01*
X180749501Y-101285526D01*
X180749500Y-101285530D01*
X180749500Y-101399997D01*
X180749499Y-101508085D01*
X171950500Y-101508085D01*
X171950500Y-101501978D01*
X171950501Y-101501973D01*
X171950500Y-101399997D01*
X171950500Y-101379660D01*
X171950500Y-101313389D01*
X171950499Y-101313384D01*
X171950499Y-101285527D01*
X171935375Y-101180341D01*
X171917918Y-101058922D01*
X171917915Y-101058912D01*
X171866078Y-100882371D01*
X171853417Y-100839253D01*
X171853416Y-100839251D01*
X171853415Y-100839247D01*
X171758318Y-100631013D01*
X171758309Y-100630997D01*
X171634538Y-100438406D01*
X171634532Y-100438399D01*
X171484616Y-100265385D01*
X171484614Y-100265383D01*
X171311600Y-100115467D01*
X171311593Y-100115461D01*
X171119002Y-99991690D01*
X171118986Y-99991681D01*
X170910752Y-99896584D01*
X170691087Y-99832084D01*
X170691076Y-99832081D01*
X170464476Y-99799501D01*
X170464466Y-99799500D01*
X170451983Y-99799500D01*
X170451973Y-99799499D01*
X170350000Y-99799499D01*
X170248027Y-99799499D01*
X170248016Y-99799500D01*
X170235533Y-99799500D01*
X170235523Y-99799501D01*
X170008923Y-99832081D01*
X170008912Y-99832084D01*
X169789247Y-99896584D01*
X169581013Y-99991681D01*
X169580997Y-99991690D01*
X169388406Y-100115461D01*
X169388399Y-100115467D01*
X169215385Y-100265383D01*
X169215383Y-100265385D01*
X169065467Y-100438399D01*
X169065461Y-100438406D01*
X168941690Y-100630997D01*
X168941681Y-100631013D01*
X168846584Y-100839247D01*
X168782084Y-101058912D01*
X168782081Y-101058923D01*
X168749501Y-101285526D01*
X168749500Y-101285530D01*
X168749500Y-101399997D01*
X168749499Y-101508085D01*
X166950500Y-101508085D01*
X166950500Y-100251978D01*
X166950501Y-100251973D01*
X166950500Y-100149997D01*
X166950500Y-100100037D01*
X166950500Y-100063389D01*
X166950500Y-100057276D01*
X166950499Y-100057254D01*
X166950499Y-100035528D01*
X166917918Y-99808922D01*
X166917915Y-99808912D01*
X166915152Y-99799500D01*
X166853417Y-99589253D01*
X166853416Y-99589251D01*
X166853415Y-99589247D01*
X166758318Y-99381013D01*
X166758309Y-99380997D01*
X166634538Y-99188406D01*
X166634532Y-99188399D01*
X166484616Y-99015385D01*
X166484614Y-99015383D01*
X166311600Y-98865467D01*
X166311593Y-98865461D01*
X166119002Y-98741690D01*
X166118986Y-98741681D01*
X165910752Y-98646584D01*
X165691087Y-98582084D01*
X165691076Y-98582081D01*
X165464476Y-98549501D01*
X165464466Y-98549500D01*
X165451983Y-98549500D01*
X165451973Y-98549499D01*
X165350000Y-98549499D01*
X165248027Y-98549499D01*
X165248016Y-98549500D01*
X165235533Y-98549500D01*
X165235523Y-98549501D01*
X165008923Y-98582081D01*
X165008912Y-98582084D01*
X164789247Y-98646584D01*
X164581013Y-98741681D01*
X164580997Y-98741690D01*
X164388406Y-98865461D01*
X164388399Y-98865467D01*
X164215385Y-99015383D01*
X164215383Y-99015385D01*
X164065467Y-99188399D01*
X164065461Y-99188406D01*
X163941690Y-99380997D01*
X163941681Y-99381013D01*
X163846584Y-99589247D01*
X163782084Y-99808912D01*
X163782081Y-99808923D01*
X163749501Y-100035526D01*
X163749500Y-100035530D01*
X163749500Y-100149997D01*
X163749499Y-100258085D01*
X154950500Y-100258085D01*
X154950500Y-100251978D01*
X154950501Y-100251973D01*
X154950500Y-100149997D01*
X154950500Y-100100037D01*
X154950500Y-100063389D01*
X154950499Y-100063384D01*
X154950499Y-100035527D01*
X154925337Y-99860525D01*
X154917918Y-99808922D01*
X154917915Y-99808912D01*
X154915152Y-99799500D01*
X154853417Y-99589253D01*
X154853416Y-99589251D01*
X154853415Y-99589247D01*
X154758318Y-99381013D01*
X154758309Y-99380997D01*
X154634538Y-99188406D01*
X154634532Y-99188399D01*
X154484616Y-99015385D01*
X154484614Y-99015383D01*
X154311600Y-98865467D01*
X154311593Y-98865461D01*
X154119002Y-98741690D01*
X154118986Y-98741681D01*
X153910752Y-98646584D01*
X153691087Y-98582084D01*
X153691076Y-98582081D01*
X153464476Y-98549501D01*
X153464466Y-98549500D01*
X153451983Y-98549500D01*
X153451973Y-98549499D01*
X153350000Y-98549499D01*
X153248027Y-98549499D01*
X153248016Y-98549500D01*
X153235533Y-98549500D01*
X153235523Y-98549501D01*
X153008923Y-98582081D01*
X153008912Y-98582084D01*
X152789247Y-98646584D01*
X152581013Y-98741681D01*
X152580997Y-98741690D01*
X152388406Y-98865461D01*
X152388399Y-98865467D01*
X152215385Y-99015383D01*
X152215383Y-99015385D01*
X152065467Y-99188399D01*
X152065461Y-99188406D01*
X151941690Y-99380997D01*
X151941681Y-99381013D01*
X151846584Y-99589247D01*
X151782084Y-99808912D01*
X151782081Y-99808923D01*
X151749501Y-100035526D01*
X151749500Y-100035530D01*
X151749500Y-100149997D01*
X151749499Y-100258085D01*
X149612673Y-100258085D01*
X149457836Y-99857439D01*
X149259607Y-99440616D01*
X149030652Y-99039847D01*
X148772263Y-98657392D01*
X148485898Y-98295410D01*
X148346160Y-98143723D01*
X148173184Y-97955954D01*
X148173165Y-97955935D01*
X147835848Y-97640903D01*
X147835827Y-97640886D01*
X147475838Y-97352076D01*
X147475827Y-97352068D01*
X147095151Y-97091075D01*
X146695972Y-96859397D01*
X146695965Y-96859393D01*
X146695956Y-96859388D01*
X146654853Y-96839495D01*
X146280512Y-96658322D01*
X146280509Y-96658320D01*
X146280497Y-96658315D01*
X145851118Y-96488992D01*
X145410242Y-96352374D01*
X145410233Y-96352371D01*
X145410230Y-96352371D01*
X144960375Y-96249236D01*
X144960352Y-96249231D01*
X144503996Y-96180146D01*
X144503987Y-96180145D01*
X144043744Y-96145508D01*
X144043740Y-96145508D01*
X143904477Y-96145486D01*
X143904092Y-96145472D01*
X143899571Y-96145472D01*
X143725104Y-96145473D01*
X139498055Y-96145514D01*
X139497367Y-96145541D01*
X139402386Y-96145541D01*
X139402385Y-96145541D01*
X139402375Y-96145541D01*
X139402368Y-96145541D01*
X139402355Y-96145542D01*
X139030295Y-96179511D01*
X139030280Y-96179513D01*
X138798147Y-96222259D01*
X138662811Y-96247181D01*
X138662810Y-96247181D01*
X138303011Y-96347982D01*
X138303008Y-96347983D01*
X137953904Y-96481068D01*
X137953885Y-96481076D01*
X137618298Y-96645367D01*
X137299038Y-96839495D01*
X137299036Y-96839497D01*
X136998753Y-97061847D01*
X136719935Y-97310580D01*
X136719930Y-97310586D01*
X136464886Y-97583636D01*
X136235719Y-97878758D01*
X136034343Y-98193483D01*
X135862413Y-98525228D01*
X135721362Y-98871227D01*
X135697593Y-98949149D01*
X135697594Y-98949150D01*
X135696603Y-98952398D01*
X135696600Y-98952406D01*
X135682177Y-98999697D01*
X135668003Y-99046170D01*
X135668001Y-99046172D01*
X135665459Y-99053648D01*
X135584440Y-99269054D01*
X135577948Y-99283456D01*
X135472056Y-99483310D01*
X135463786Y-99496769D01*
X135333344Y-99681542D01*
X135323431Y-99693840D01*
X135170561Y-99860525D01*
X135159164Y-99871463D01*
X134986339Y-100017365D01*
X134973643Y-100026766D01*
X134783667Y-100149514D01*
X134769881Y-100157224D01*
X134565846Y-100254822D01*
X134551190Y-100260717D01*
X134336405Y-100331582D01*
X134321120Y-100335566D01*
X134099063Y-100378552D01*
X134083393Y-100380560D01*
X133853729Y-100395216D01*
X133845832Y-100395468D01*
X133742695Y-100395468D01*
X133742669Y-100395469D01*
X119902424Y-100395471D01*
X119900657Y-100395458D01*
X119722086Y-100392913D01*
X119348304Y-100421711D01*
X119348303Y-100421711D01*
X118978716Y-100484441D01*
X118978712Y-100484441D01*
X118978712Y-100484442D01*
X118616369Y-100580583D01*
X118616365Y-100580584D01*
X118264301Y-100709332D01*
X118264300Y-100709332D01*
X117925421Y-100869623D01*
X117602562Y-101060117D01*
X117602544Y-101060129D01*
X117298400Y-101279232D01*
X117298386Y-101279244D01*
X117015446Y-101525164D01*
X116756080Y-101795847D01*
X116522470Y-102089013D01*
X116316525Y-102402264D01*
X116139982Y-102732962D01*
X116139982Y-102732963D01*
X115994300Y-103078379D01*
X115994296Y-103078389D01*
X115944937Y-103233603D01*
X115905861Y-103291524D01*
X115841674Y-103319125D01*
X115772754Y-103307642D01*
X115729821Y-103273337D01*
X115667757Y-103195511D01*
X115473136Y-103000890D01*
X115297086Y-102860495D01*
X115257950Y-102829285D01*
X115024903Y-102682852D01*
X115024900Y-102682850D01*
X114776928Y-102563433D01*
X114517147Y-102472531D01*
X114517135Y-102472527D01*
X114248806Y-102411283D01*
X114248790Y-102411281D01*
X113975303Y-102380466D01*
X113975299Y-102380466D01*
X113700065Y-102380466D01*
X113700061Y-102380466D01*
X113426573Y-102411281D01*
X113426557Y-102411283D01*
X113158228Y-102472527D01*
X113158216Y-102472531D01*
X112898435Y-102563433D01*
X112650463Y-102682850D01*
X112417415Y-102829284D01*
X112202227Y-103000890D01*
X112007606Y-103195511D01*
X111836000Y-103410699D01*
X111689566Y-103643747D01*
X111570149Y-103891719D01*
X111479247Y-104151500D01*
X111479243Y-104151512D01*
X111417999Y-104419841D01*
X111417997Y-104419857D01*
X111387182Y-104693344D01*
X111387182Y-104968587D01*
X111417997Y-105242074D01*
X111417999Y-105242090D01*
X111479243Y-105510419D01*
X111479247Y-105510431D01*
X111570149Y-105770212D01*
X111689566Y-106018184D01*
X111689568Y-106018187D01*
X111836001Y-106251234D01*
X111859815Y-106281096D01*
X111881725Y-106308570D01*
X111908134Y-106373257D01*
X111895377Y-106441952D01*
X111847507Y-106492846D01*
X111779720Y-106509780D01*
X111769778Y-106508972D01*
X102536558Y-105383799D01*
X102536557Y-105383799D01*
X102525766Y-105382483D01*
X102520459Y-105380865D01*
X102424812Y-105370180D01*
X102424143Y-105370099D01*
X102424142Y-105370098D01*
X102420041Y-105369599D01*
X102415320Y-105368932D01*
X102052140Y-105310426D01*
X102040383Y-105307942D01*
X101686674Y-105215111D01*
X101675214Y-105211501D01*
X101332164Y-105084877D01*
X101321107Y-105080176D01*
X100991900Y-104920934D01*
X100981349Y-104915183D01*
X100974069Y-104910745D01*
X100854212Y-104837675D01*
X100669116Y-104724833D01*
X100659172Y-104718089D01*
X100366824Y-104498411D01*
X100357579Y-104490736D01*
X100087865Y-104243795D01*
X100079406Y-104235261D01*
X99834861Y-103963375D01*
X99827268Y-103954063D01*
X99610180Y-103659778D01*
X99603524Y-103649774D01*
X99415945Y-103335871D01*
X99410288Y-103325270D01*
X99253968Y-102994677D01*
X99249364Y-102983579D01*
X99176619Y-102781002D01*
X99125772Y-102639404D01*
X99122265Y-102627915D01*
X99114309Y-102596472D01*
X99032565Y-102273396D01*
X99030187Y-102261620D01*
X98975224Y-101900100D01*
X98973995Y-101888147D01*
X98954152Y-101520610D01*
X98953972Y-101513925D01*
X98953973Y-90758096D01*
X98953973Y-90758085D01*
X100749499Y-90758085D01*
X100749500Y-90758106D01*
X100749500Y-94742892D01*
X100749499Y-94742918D01*
X100749500Y-94849997D01*
X100749500Y-94964469D01*
X100749501Y-94964473D01*
X100782081Y-95191076D01*
X100782084Y-95191087D01*
X100846584Y-95410752D01*
X100941681Y-95618986D01*
X100941690Y-95619002D01*
X101065461Y-95811593D01*
X101065467Y-95811600D01*
X101215383Y-95984614D01*
X101215385Y-95984616D01*
X101388399Y-96134532D01*
X101388406Y-96134538D01*
X101580997Y-96258309D01*
X101581013Y-96258318D01*
X101789247Y-96353415D01*
X101789251Y-96353416D01*
X101789253Y-96353417D01*
X102008918Y-96417917D01*
X102008919Y-96417917D01*
X102008922Y-96417918D01*
X102076492Y-96427632D01*
X102235527Y-96450499D01*
X102349997Y-96450500D01*
X102451973Y-96450501D01*
X102451984Y-96450499D01*
X102464468Y-96450499D01*
X102691078Y-96417918D01*
X102910745Y-96353418D01*
X102910748Y-96353416D01*
X102910750Y-96353416D01*
X103118984Y-96258319D01*
X103118988Y-96258316D01*
X103118996Y-96258313D01*
X103311593Y-96134539D01*
X103484615Y-95984615D01*
X103634539Y-95811593D01*
X103758313Y-95618996D01*
X103758318Y-95618986D01*
X103758319Y-95618984D01*
X103853416Y-95410750D01*
X103853417Y-95410747D01*
X103853418Y-95410745D01*
X103917918Y-95191078D01*
X103950499Y-94964468D01*
X103950499Y-94941746D01*
X103950500Y-94941721D01*
X103950500Y-90758085D01*
X112749499Y-90758085D01*
X112749500Y-90758096D01*
X112749500Y-94748021D01*
X112749499Y-94748027D01*
X112749500Y-94849997D01*
X112749500Y-94964469D01*
X112749501Y-94964473D01*
X112782081Y-95191076D01*
X112782084Y-95191087D01*
X112846584Y-95410752D01*
X112941681Y-95618986D01*
X112941690Y-95619002D01*
X113065461Y-95811593D01*
X113065467Y-95811600D01*
X113215383Y-95984614D01*
X113215385Y-95984616D01*
X113388399Y-96134532D01*
X113388406Y-96134538D01*
X113580997Y-96258309D01*
X113581013Y-96258318D01*
X113789247Y-96353415D01*
X113789251Y-96353416D01*
X113789253Y-96353417D01*
X114008918Y-96417917D01*
X114008919Y-96417917D01*
X114008922Y-96417918D01*
X114070299Y-96426742D01*
X114235527Y-96450499D01*
X114242428Y-96450499D01*
X114248016Y-96450499D01*
X114248027Y-96450501D01*
X114350000Y-96450500D01*
X114451973Y-96450501D01*
X114451978Y-96450500D01*
X114458075Y-96450500D01*
X114458116Y-96450499D01*
X114464472Y-96450499D01*
X114464473Y-96450499D01*
X114650470Y-96423756D01*
X114691077Y-96417918D01*
X114691078Y-96417917D01*
X114691082Y-96417917D01*
X114910747Y-96353417D01*
X114910750Y-96353415D01*
X114910752Y-96353415D01*
X115118986Y-96258318D01*
X115118990Y-96258315D01*
X115118998Y-96258312D01*
X115311594Y-96134538D01*
X115484615Y-95984615D01*
X115634538Y-95811594D01*
X115758312Y-95618998D01*
X115758315Y-95618990D01*
X115758318Y-95618986D01*
X115853415Y-95410752D01*
X115853415Y-95410750D01*
X115853417Y-95410747D01*
X115917917Y-95191082D01*
X115950499Y-94964473D01*
X115950499Y-94936615D01*
X115950500Y-94936611D01*
X115950500Y-94849997D01*
X115950501Y-94748027D01*
X115950500Y-94748021D01*
X115950500Y-90751978D01*
X115950501Y-90751973D01*
X115950500Y-90649997D01*
X115950500Y-90648021D01*
X115950500Y-90563389D01*
X115950500Y-90557276D01*
X115950499Y-90557254D01*
X115950499Y-90535528D01*
X115917918Y-90308922D01*
X115917915Y-90308912D01*
X115903060Y-90258319D01*
X115853417Y-90089253D01*
X115853416Y-90089251D01*
X115853415Y-90089247D01*
X115758318Y-89881013D01*
X115758309Y-89880997D01*
X115634538Y-89688406D01*
X115634532Y-89688399D01*
X115484616Y-89515385D01*
X115484614Y-89515383D01*
X115311600Y-89365467D01*
X115311593Y-89365461D01*
X115119002Y-89241690D01*
X115118986Y-89241681D01*
X114910752Y-89146584D01*
X114862351Y-89132372D01*
X114802684Y-89114852D01*
X114691087Y-89082084D01*
X114691076Y-89082081D01*
X114464476Y-89049501D01*
X114464466Y-89049500D01*
X114451983Y-89049500D01*
X114451973Y-89049499D01*
X114350000Y-89049499D01*
X114248027Y-89049499D01*
X114248016Y-89049500D01*
X114235533Y-89049500D01*
X114235523Y-89049501D01*
X114008923Y-89082081D01*
X114008912Y-89082084D01*
X113789247Y-89146584D01*
X113581013Y-89241681D01*
X113580997Y-89241690D01*
X113388406Y-89365461D01*
X113388399Y-89365467D01*
X113215385Y-89515383D01*
X113215383Y-89515385D01*
X113065467Y-89688399D01*
X113065461Y-89688406D01*
X112941690Y-89880997D01*
X112941681Y-89881013D01*
X112846584Y-90089247D01*
X112782084Y-90308912D01*
X112782081Y-90308923D01*
X112749501Y-90535526D01*
X112749500Y-90535530D01*
X112749500Y-90649997D01*
X112749499Y-90758085D01*
X103950500Y-90758085D01*
X103950500Y-90751978D01*
X103950501Y-90751973D01*
X103950500Y-90649997D01*
X103950500Y-90648021D01*
X103950500Y-90563389D01*
X103950499Y-90563384D01*
X103950499Y-90535527D01*
X103938274Y-90450499D01*
X103917918Y-90308922D01*
X103917915Y-90308912D01*
X103903060Y-90258319D01*
X103853417Y-90089253D01*
X103853416Y-90089251D01*
X103853415Y-90089247D01*
X103758318Y-89881013D01*
X103758309Y-89880997D01*
X103634538Y-89688406D01*
X103634532Y-89688399D01*
X103484616Y-89515385D01*
X103484614Y-89515383D01*
X103311600Y-89365467D01*
X103311593Y-89365461D01*
X103119002Y-89241690D01*
X103118986Y-89241681D01*
X102910752Y-89146584D01*
X102691087Y-89082084D01*
X102691076Y-89082081D01*
X102464476Y-89049501D01*
X102464466Y-89049500D01*
X102451983Y-89049500D01*
X102451973Y-89049499D01*
X102350000Y-89049499D01*
X102248027Y-89049499D01*
X102248016Y-89049500D01*
X102235533Y-89049500D01*
X102235523Y-89049501D01*
X102008923Y-89082081D01*
X102008912Y-89082084D01*
X101789247Y-89146584D01*
X101581013Y-89241681D01*
X101580997Y-89241690D01*
X101388406Y-89365461D01*
X101388399Y-89365467D01*
X101215385Y-89515383D01*
X101215383Y-89515385D01*
X101065467Y-89688399D01*
X101065461Y-89688406D01*
X100941690Y-89880997D01*
X100941681Y-89881013D01*
X100846584Y-90089247D01*
X100782084Y-90308912D01*
X100782081Y-90308923D01*
X100749501Y-90535526D01*
X100749500Y-90535530D01*
X100749500Y-90649997D01*
X100749499Y-90758085D01*
X98953973Y-90758085D01*
X98953973Y-89008085D01*
X117749499Y-89008085D01*
X117749500Y-89008106D01*
X117749500Y-92992893D01*
X117749499Y-92992919D01*
X117749500Y-93051672D01*
X117749500Y-93214469D01*
X117749501Y-93214473D01*
X117782081Y-93441076D01*
X117782084Y-93441087D01*
X117846584Y-93660752D01*
X117941681Y-93868986D01*
X117941690Y-93869002D01*
X118065461Y-94061593D01*
X118065467Y-94061600D01*
X118215383Y-94234614D01*
X118215385Y-94234616D01*
X118388399Y-94384532D01*
X118388406Y-94384538D01*
X118580997Y-94508309D01*
X118581013Y-94508318D01*
X118789247Y-94603415D01*
X118789251Y-94603416D01*
X118789253Y-94603417D01*
X119008918Y-94667917D01*
X119008919Y-94667917D01*
X119008922Y-94667918D01*
X119076492Y-94677632D01*
X119235527Y-94700499D01*
X119349997Y-94700500D01*
X119451973Y-94700501D01*
X119451984Y-94700499D01*
X119464468Y-94700499D01*
X119691078Y-94667918D01*
X119910745Y-94603418D01*
X119910748Y-94603416D01*
X119910750Y-94603416D01*
X120118984Y-94508319D01*
X120118988Y-94508316D01*
X120118996Y-94508313D01*
X120120383Y-94507422D01*
X120229048Y-94437587D01*
X120311593Y-94384539D01*
X120484615Y-94234615D01*
X120634539Y-94061593D01*
X120758313Y-93868996D01*
X120758318Y-93868986D01*
X120758319Y-93868984D01*
X120853416Y-93660750D01*
X120853417Y-93660747D01*
X120853418Y-93660745D01*
X120917918Y-93441078D01*
X120950499Y-93214468D01*
X120950499Y-93191746D01*
X120950500Y-93191721D01*
X120950500Y-89008085D01*
X129749499Y-89008085D01*
X129749500Y-89008106D01*
X129749500Y-92998021D01*
X129749499Y-92998027D01*
X129749500Y-93045898D01*
X129749500Y-93214469D01*
X129749501Y-93214473D01*
X129782081Y-93441076D01*
X129782084Y-93441087D01*
X129846584Y-93660752D01*
X129941681Y-93868986D01*
X129941690Y-93869002D01*
X130065461Y-94061593D01*
X130065467Y-94061600D01*
X130215383Y-94234614D01*
X130215385Y-94234616D01*
X130388399Y-94384532D01*
X130388406Y-94384538D01*
X130580997Y-94508309D01*
X130581013Y-94508318D01*
X130789247Y-94603415D01*
X130789251Y-94603416D01*
X130789253Y-94603417D01*
X131008918Y-94667917D01*
X131008919Y-94667917D01*
X131008922Y-94667918D01*
X131070299Y-94676742D01*
X131235527Y-94700499D01*
X131242428Y-94700499D01*
X131248016Y-94700499D01*
X131248027Y-94700501D01*
X131350000Y-94700500D01*
X131451973Y-94700501D01*
X131451978Y-94700500D01*
X131458075Y-94700500D01*
X131458116Y-94700499D01*
X131464472Y-94700499D01*
X131464473Y-94700499D01*
X131650470Y-94673756D01*
X131691077Y-94667918D01*
X131691078Y-94667917D01*
X131691082Y-94667917D01*
X131910747Y-94603417D01*
X131910750Y-94603415D01*
X131910752Y-94603415D01*
X132118986Y-94508318D01*
X132118990Y-94508315D01*
X132118998Y-94508312D01*
X132311594Y-94384538D01*
X132484615Y-94234615D01*
X132543142Y-94167071D01*
X132547235Y-94162348D01*
X202249482Y-94162348D01*
X202249482Y-94437591D01*
X202280297Y-94711078D01*
X202280299Y-94711094D01*
X202341543Y-94979423D01*
X202341547Y-94979435D01*
X202432449Y-95239216D01*
X202551866Y-95487188D01*
X202551868Y-95487191D01*
X202698301Y-95720238D01*
X202869907Y-95935425D01*
X203064527Y-96130045D01*
X203279714Y-96301651D01*
X203512761Y-96448084D01*
X203760739Y-96567504D01*
X203955847Y-96635775D01*
X204020516Y-96658404D01*
X204020528Y-96658408D01*
X204288861Y-96719653D01*
X204562360Y-96750469D01*
X204562361Y-96750470D01*
X204562365Y-96750470D01*
X204837603Y-96750470D01*
X204837603Y-96750469D01*
X205111103Y-96719653D01*
X205379436Y-96658408D01*
X205639225Y-96567504D01*
X205887203Y-96448084D01*
X206120250Y-96301651D01*
X206335437Y-96130045D01*
X206530057Y-95935425D01*
X206701663Y-95720238D01*
X206848096Y-95487191D01*
X206967516Y-95239213D01*
X207058420Y-94979424D01*
X207119665Y-94711091D01*
X207150482Y-94437587D01*
X207150482Y-94162353D01*
X207119665Y-93888849D01*
X207058420Y-93620516D01*
X206967516Y-93360727D01*
X206848096Y-93112749D01*
X206701663Y-92879702D01*
X206530057Y-92664515D01*
X206335437Y-92469895D01*
X206120250Y-92298289D01*
X205887203Y-92151856D01*
X205887200Y-92151854D01*
X205639228Y-92032437D01*
X205379447Y-91941535D01*
X205379435Y-91941531D01*
X205111106Y-91880287D01*
X205111090Y-91880285D01*
X204837603Y-91849470D01*
X204837599Y-91849470D01*
X204562365Y-91849470D01*
X204562361Y-91849470D01*
X204288873Y-91880285D01*
X204288857Y-91880287D01*
X204020528Y-91941531D01*
X204020516Y-91941535D01*
X203760735Y-92032437D01*
X203512763Y-92151854D01*
X203279715Y-92298288D01*
X203064527Y-92469894D01*
X202869908Y-92664514D01*
X202698300Y-92879703D01*
X202551866Y-93112751D01*
X202432449Y-93360723D01*
X202341547Y-93620504D01*
X202341543Y-93620516D01*
X202280299Y-93888845D01*
X202280297Y-93888861D01*
X202249482Y-94162348D01*
X132547235Y-94162348D01*
X132620607Y-94077672D01*
X132620607Y-94077671D01*
X132634538Y-94061594D01*
X132758312Y-93868998D01*
X132758315Y-93868990D01*
X132758318Y-93868986D01*
X132853415Y-93660752D01*
X132853415Y-93660750D01*
X132853417Y-93660747D01*
X132917917Y-93441082D01*
X132950499Y-93214473D01*
X132950499Y-93186615D01*
X132950500Y-93186611D01*
X132950500Y-93051672D01*
X132950501Y-92998027D01*
X132950500Y-92998021D01*
X132950500Y-89001978D01*
X132950501Y-89001973D01*
X132950500Y-88899997D01*
X132950500Y-88849997D01*
X132950500Y-88813389D01*
X132950500Y-88807276D01*
X132950499Y-88807254D01*
X132950499Y-88785528D01*
X132917918Y-88558921D01*
X132917915Y-88558912D01*
X132900038Y-88498027D01*
X132853417Y-88339253D01*
X132853416Y-88339251D01*
X132853415Y-88339247D01*
X132758318Y-88131013D01*
X132758309Y-88130997D01*
X132634538Y-87938406D01*
X132634532Y-87938399D01*
X132484616Y-87765385D01*
X132484614Y-87765383D01*
X132311600Y-87615467D01*
X132311593Y-87615461D01*
X132119002Y-87491690D01*
X132118986Y-87491681D01*
X131910752Y-87396584D01*
X131691087Y-87332084D01*
X131691076Y-87332081D01*
X131464476Y-87299501D01*
X131464466Y-87299500D01*
X131451983Y-87299500D01*
X131451973Y-87299499D01*
X131350000Y-87299499D01*
X131248027Y-87299499D01*
X131248016Y-87299500D01*
X131235533Y-87299500D01*
X131235523Y-87299501D01*
X131008923Y-87332081D01*
X131008912Y-87332084D01*
X130789247Y-87396584D01*
X130581013Y-87491681D01*
X130580997Y-87491690D01*
X130388406Y-87615461D01*
X130388399Y-87615467D01*
X130215385Y-87765383D01*
X130215383Y-87765385D01*
X130065467Y-87938399D01*
X130065461Y-87938406D01*
X129941690Y-88130997D01*
X129941681Y-88131013D01*
X129846584Y-88339247D01*
X129782084Y-88558912D01*
X129782082Y-88558921D01*
X129749501Y-88785526D01*
X129749500Y-88785530D01*
X129749500Y-88899997D01*
X129749499Y-89008085D01*
X120950500Y-89008085D01*
X120950500Y-89001978D01*
X120950501Y-89001973D01*
X120950500Y-88899997D01*
X120950500Y-88849997D01*
X120950500Y-88813389D01*
X120950499Y-88813384D01*
X120950499Y-88785527D01*
X120936278Y-88686617D01*
X120917918Y-88558921D01*
X120917915Y-88558912D01*
X120900038Y-88498027D01*
X120853417Y-88339253D01*
X120853416Y-88339251D01*
X120853415Y-88339247D01*
X120758318Y-88131013D01*
X120758309Y-88130997D01*
X120634538Y-87938406D01*
X120634532Y-87938399D01*
X120484616Y-87765385D01*
X120484614Y-87765383D01*
X120311600Y-87615467D01*
X120311593Y-87615461D01*
X120119002Y-87491690D01*
X120118986Y-87491681D01*
X119910752Y-87396584D01*
X119691087Y-87332084D01*
X119691076Y-87332081D01*
X119464476Y-87299501D01*
X119464466Y-87299500D01*
X119451983Y-87299500D01*
X119451973Y-87299499D01*
X119350000Y-87299499D01*
X119248027Y-87299499D01*
X119248016Y-87299500D01*
X119235533Y-87299500D01*
X119235523Y-87299501D01*
X119008923Y-87332081D01*
X119008912Y-87332084D01*
X118789247Y-87396584D01*
X118581013Y-87491681D01*
X118580997Y-87491690D01*
X118388406Y-87615461D01*
X118388399Y-87615467D01*
X118215385Y-87765383D01*
X118215383Y-87765385D01*
X118065467Y-87938399D01*
X118065461Y-87938406D01*
X117941690Y-88130997D01*
X117941681Y-88131013D01*
X117846584Y-88339247D01*
X117782084Y-88558912D01*
X117782082Y-88558921D01*
X117749501Y-88785526D01*
X117749500Y-88785530D01*
X117749500Y-88899997D01*
X117749499Y-89008085D01*
X98953973Y-89008085D01*
X98953973Y-84758096D01*
X98953973Y-84758085D01*
X134749499Y-84758085D01*
X134749500Y-84758106D01*
X134749500Y-88742893D01*
X134749499Y-88742919D01*
X134749500Y-88799247D01*
X134749500Y-88964469D01*
X134749501Y-88964473D01*
X134782081Y-89191076D01*
X134782084Y-89191087D01*
X134846584Y-89410752D01*
X134941681Y-89618986D01*
X134941690Y-89619002D01*
X135065461Y-89811593D01*
X135065467Y-89811600D01*
X135215383Y-89984614D01*
X135215385Y-89984616D01*
X135388399Y-90134532D01*
X135388406Y-90134538D01*
X135580997Y-90258309D01*
X135581013Y-90258318D01*
X135789247Y-90353415D01*
X135789251Y-90353416D01*
X135789253Y-90353417D01*
X136008918Y-90417917D01*
X136008919Y-90417917D01*
X136008922Y-90417918D01*
X136076492Y-90427632D01*
X136235527Y-90450499D01*
X136349997Y-90450500D01*
X136451973Y-90450501D01*
X136451984Y-90450499D01*
X136464468Y-90450499D01*
X136691078Y-90417918D01*
X136910745Y-90353418D01*
X136910748Y-90353416D01*
X136910750Y-90353416D01*
X137118984Y-90258319D01*
X137118988Y-90258316D01*
X137118996Y-90258313D01*
X137311593Y-90134539D01*
X137484615Y-89984615D01*
X137634539Y-89811593D01*
X137758313Y-89618996D01*
X137758318Y-89618986D01*
X137758319Y-89618984D01*
X137853416Y-89410750D01*
X137853417Y-89410747D01*
X137853418Y-89410745D01*
X137917918Y-89191078D01*
X137950499Y-88964468D01*
X137950499Y-88941746D01*
X137950500Y-88941721D01*
X137950500Y-84758085D01*
X146749499Y-84758085D01*
X146749500Y-84758096D01*
X146749500Y-88748021D01*
X146749499Y-88748027D01*
X146749500Y-88785526D01*
X146749500Y-88964469D01*
X146749501Y-88964473D01*
X146782081Y-89191076D01*
X146782084Y-89191087D01*
X146846584Y-89410752D01*
X146941681Y-89618986D01*
X146941690Y-89619002D01*
X147065461Y-89811593D01*
X147065467Y-89811600D01*
X147215383Y-89984614D01*
X147215385Y-89984616D01*
X147388399Y-90134532D01*
X147388406Y-90134538D01*
X147580997Y-90258309D01*
X147581013Y-90258318D01*
X147789247Y-90353415D01*
X147789251Y-90353416D01*
X147789253Y-90353417D01*
X148008918Y-90417917D01*
X148008919Y-90417917D01*
X148008922Y-90417918D01*
X148070299Y-90426742D01*
X148235527Y-90450499D01*
X148242428Y-90450499D01*
X148248016Y-90450499D01*
X148248027Y-90450501D01*
X148350000Y-90450500D01*
X148451973Y-90450501D01*
X148451978Y-90450500D01*
X148458075Y-90450500D01*
X148458116Y-90450499D01*
X148464472Y-90450499D01*
X148464473Y-90450499D01*
X148650470Y-90423756D01*
X148691077Y-90417918D01*
X148691078Y-90417917D01*
X148691082Y-90417917D01*
X148910747Y-90353417D01*
X148910750Y-90353415D01*
X148910752Y-90353415D01*
X149118986Y-90258318D01*
X149118990Y-90258315D01*
X149118998Y-90258312D01*
X149311594Y-90134538D01*
X149484615Y-89984615D01*
X149634538Y-89811594D01*
X149758312Y-89618998D01*
X149758315Y-89618990D01*
X149758318Y-89618986D01*
X149853415Y-89410752D01*
X149853415Y-89410750D01*
X149853417Y-89410747D01*
X149917917Y-89191082D01*
X149950499Y-88964473D01*
X149950499Y-88936615D01*
X149950500Y-88936611D01*
X149950500Y-88799247D01*
X149950501Y-88748027D01*
X149950500Y-88748021D01*
X149950500Y-84751978D01*
X149950501Y-84751973D01*
X149950500Y-84649997D01*
X149950500Y-84644576D01*
X149950500Y-84563389D01*
X149950500Y-84557276D01*
X149950499Y-84557254D01*
X149950499Y-84535528D01*
X149917918Y-84308922D01*
X149917915Y-84308912D01*
X149917429Y-84307255D01*
X149853417Y-84089253D01*
X149853416Y-84089251D01*
X149853415Y-84089247D01*
X149758318Y-83881013D01*
X149758309Y-83880997D01*
X149634538Y-83688406D01*
X149634532Y-83688399D01*
X149484616Y-83515385D01*
X149484614Y-83515383D01*
X149311600Y-83365467D01*
X149311595Y-83365463D01*
X149311594Y-83365462D01*
X149195259Y-83290698D01*
X149144513Y-83258085D01*
X151749499Y-83258085D01*
X151749500Y-83258106D01*
X151749500Y-87242893D01*
X151749499Y-87242919D01*
X151749500Y-87299499D01*
X151749500Y-87464469D01*
X151749501Y-87464473D01*
X151782081Y-87691076D01*
X151782084Y-87691087D01*
X151846584Y-87910752D01*
X151941681Y-88118986D01*
X151941690Y-88119002D01*
X152065461Y-88311593D01*
X152065467Y-88311600D01*
X152215383Y-88484614D01*
X152215385Y-88484616D01*
X152388399Y-88634532D01*
X152388406Y-88634538D01*
X152580997Y-88758309D01*
X152581013Y-88758318D01*
X152789247Y-88853415D01*
X152789251Y-88853416D01*
X152789253Y-88853417D01*
X153008918Y-88917917D01*
X153008919Y-88917917D01*
X153008922Y-88917918D01*
X153076492Y-88927632D01*
X153235527Y-88950499D01*
X153349997Y-88950500D01*
X153451973Y-88950501D01*
X153451984Y-88950499D01*
X153464468Y-88950499D01*
X153691078Y-88917918D01*
X153910745Y-88853418D01*
X153910748Y-88853416D01*
X153910750Y-88853416D01*
X154118984Y-88758319D01*
X154118988Y-88758316D01*
X154118996Y-88758313D01*
X154311593Y-88634539D01*
X154484615Y-88484615D01*
X154634539Y-88311593D01*
X154758313Y-88118996D01*
X154758318Y-88118986D01*
X154758319Y-88118984D01*
X154853416Y-87910750D01*
X154853417Y-87910747D01*
X154853418Y-87910745D01*
X154917918Y-87691078D01*
X154950499Y-87464468D01*
X154950499Y-87441746D01*
X154950500Y-87441721D01*
X154950500Y-83258085D01*
X163749499Y-83258085D01*
X163749500Y-83258106D01*
X163749500Y-87248021D01*
X163749499Y-87248027D01*
X163749500Y-87299499D01*
X163749500Y-87464469D01*
X163749501Y-87464473D01*
X163782081Y-87691076D01*
X163782084Y-87691087D01*
X163846584Y-87910752D01*
X163941681Y-88118986D01*
X163941690Y-88119002D01*
X164065461Y-88311593D01*
X164065467Y-88311600D01*
X164215383Y-88484614D01*
X164215385Y-88484616D01*
X164388399Y-88634532D01*
X164388406Y-88634538D01*
X164580997Y-88758309D01*
X164581013Y-88758318D01*
X164789247Y-88853415D01*
X164789251Y-88853416D01*
X164789253Y-88853417D01*
X165008918Y-88917917D01*
X165008919Y-88917917D01*
X165008922Y-88917918D01*
X165070299Y-88926742D01*
X165235527Y-88950499D01*
X165242428Y-88950499D01*
X165248016Y-88950499D01*
X165248027Y-88950501D01*
X165350000Y-88950500D01*
X165451973Y-88950501D01*
X165451978Y-88950500D01*
X165458075Y-88950500D01*
X165458116Y-88950499D01*
X165464472Y-88950499D01*
X165464473Y-88950499D01*
X165650470Y-88923756D01*
X165691077Y-88917918D01*
X165691078Y-88917917D01*
X165691082Y-88917917D01*
X165910747Y-88853417D01*
X165910750Y-88853415D01*
X165910752Y-88853415D01*
X166118986Y-88758318D01*
X166118990Y-88758315D01*
X166118998Y-88758312D01*
X166311594Y-88634538D01*
X166484615Y-88484615D01*
X166634538Y-88311594D01*
X166758312Y-88118998D01*
X166758315Y-88118990D01*
X166758318Y-88118986D01*
X166853415Y-87910752D01*
X166853415Y-87910750D01*
X166853417Y-87910747D01*
X166917917Y-87691082D01*
X166950499Y-87464473D01*
X166950499Y-87436615D01*
X166950500Y-87436611D01*
X166950500Y-87299499D01*
X166950501Y-87248027D01*
X166950500Y-87248021D01*
X166950500Y-84508085D01*
X168749499Y-84508085D01*
X168749500Y-84508106D01*
X168749500Y-88492893D01*
X168749499Y-88492919D01*
X168749500Y-88558918D01*
X168749500Y-88714469D01*
X168749501Y-88714473D01*
X168782081Y-88941076D01*
X168782084Y-88941087D01*
X168846584Y-89160752D01*
X168941681Y-89368986D01*
X168941690Y-89369002D01*
X169065461Y-89561593D01*
X169065467Y-89561600D01*
X169215383Y-89734614D01*
X169215385Y-89734616D01*
X169388399Y-89884532D01*
X169388406Y-89884538D01*
X169580997Y-90008309D01*
X169581013Y-90008318D01*
X169789247Y-90103415D01*
X169789251Y-90103416D01*
X169789253Y-90103417D01*
X170008918Y-90167917D01*
X170008919Y-90167917D01*
X170008922Y-90167918D01*
X170076492Y-90177632D01*
X170235527Y-90200499D01*
X170349997Y-90200500D01*
X170451973Y-90200501D01*
X170451984Y-90200499D01*
X170464468Y-90200499D01*
X170691078Y-90167918D01*
X170910745Y-90103418D01*
X170910748Y-90103416D01*
X170910750Y-90103416D01*
X171118984Y-90008319D01*
X171118988Y-90008316D01*
X171118996Y-90008313D01*
X171311593Y-89884539D01*
X171484615Y-89734615D01*
X171634539Y-89561593D01*
X171758313Y-89368996D01*
X171758318Y-89368986D01*
X171758319Y-89368984D01*
X171853416Y-89160750D01*
X171853417Y-89160747D01*
X171853418Y-89160745D01*
X171917918Y-88941078D01*
X171950499Y-88714468D01*
X171950499Y-88691746D01*
X171950500Y-88691721D01*
X171950500Y-84508085D01*
X180749499Y-84508085D01*
X180749500Y-84508106D01*
X180749500Y-88498021D01*
X180749499Y-88498027D01*
X180749500Y-88558912D01*
X180749500Y-88714469D01*
X180749501Y-88714473D01*
X180782081Y-88941076D01*
X180782084Y-88941087D01*
X180846584Y-89160752D01*
X180941681Y-89368986D01*
X180941690Y-89369002D01*
X181065461Y-89561593D01*
X181065467Y-89561600D01*
X181215383Y-89734614D01*
X181215385Y-89734616D01*
X181388399Y-89884532D01*
X181388406Y-89884538D01*
X181580997Y-90008309D01*
X181581013Y-90008318D01*
X181789247Y-90103415D01*
X181789251Y-90103416D01*
X181789253Y-90103417D01*
X182008918Y-90167917D01*
X182008919Y-90167917D01*
X182008922Y-90167918D01*
X182070299Y-90176742D01*
X182235527Y-90200499D01*
X182242428Y-90200499D01*
X182248016Y-90200499D01*
X182248027Y-90200501D01*
X182350000Y-90200500D01*
X182451973Y-90200501D01*
X182451978Y-90200500D01*
X182458075Y-90200500D01*
X182458116Y-90200499D01*
X182464472Y-90200499D01*
X182464473Y-90200499D01*
X182650470Y-90173756D01*
X182691077Y-90167918D01*
X182691078Y-90167917D01*
X182691082Y-90167917D01*
X182910747Y-90103417D01*
X182910750Y-90103415D01*
X182910752Y-90103415D01*
X183118986Y-90008318D01*
X183118990Y-90008315D01*
X183118998Y-90008312D01*
X183311594Y-89884538D01*
X183484615Y-89734615D01*
X183634538Y-89561594D01*
X183758312Y-89368998D01*
X183758315Y-89368990D01*
X183758318Y-89368986D01*
X183853415Y-89160752D01*
X183853415Y-89160750D01*
X183853417Y-89160747D01*
X183917917Y-88941082D01*
X183918560Y-88936615D01*
X183930521Y-88853418D01*
X183950499Y-88714473D01*
X183950499Y-88686615D01*
X183950500Y-88686611D01*
X183950500Y-88558918D01*
X183950501Y-88498027D01*
X183950500Y-88498021D01*
X183950500Y-86658085D01*
X185749499Y-86658085D01*
X185749500Y-86658106D01*
X185749500Y-90642893D01*
X185749499Y-90642919D01*
X185749500Y-90731818D01*
X185749500Y-90864469D01*
X185749501Y-90864473D01*
X185782081Y-91091076D01*
X185782084Y-91091087D01*
X185846584Y-91310752D01*
X185941681Y-91518986D01*
X185941690Y-91519002D01*
X186065461Y-91711593D01*
X186065467Y-91711600D01*
X186215383Y-91884614D01*
X186215385Y-91884616D01*
X186388399Y-92034532D01*
X186388406Y-92034538D01*
X186580997Y-92158309D01*
X186581013Y-92158318D01*
X186789247Y-92253415D01*
X186789251Y-92253416D01*
X186789253Y-92253417D01*
X187008918Y-92317917D01*
X187008919Y-92317917D01*
X187008922Y-92317918D01*
X187076492Y-92327632D01*
X187235527Y-92350499D01*
X187349997Y-92350500D01*
X187451973Y-92350501D01*
X187451984Y-92350499D01*
X187464468Y-92350499D01*
X187691078Y-92317918D01*
X187910745Y-92253418D01*
X187910748Y-92253416D01*
X187910750Y-92253416D01*
X188118984Y-92158319D01*
X188118988Y-92158316D01*
X188118996Y-92158313D01*
X188129047Y-92151854D01*
X188142488Y-92143215D01*
X188311593Y-92034539D01*
X188484615Y-91884615D01*
X188634539Y-91711593D01*
X188758313Y-91518996D01*
X188758318Y-91518986D01*
X188758319Y-91518984D01*
X188853416Y-91310750D01*
X188853417Y-91310747D01*
X188853418Y-91310745D01*
X188917918Y-91091078D01*
X188950499Y-90864468D01*
X188950499Y-90841746D01*
X188950500Y-90841721D01*
X188950500Y-86658085D01*
X197749499Y-86658085D01*
X197749500Y-86658106D01*
X197749500Y-90648021D01*
X197749499Y-90648027D01*
X197749500Y-90731818D01*
X197749500Y-90864469D01*
X197749501Y-90864473D01*
X197782081Y-91091076D01*
X197782084Y-91091087D01*
X197846584Y-91310752D01*
X197941681Y-91518986D01*
X197941690Y-91519002D01*
X198065461Y-91711593D01*
X198065467Y-91711600D01*
X198215383Y-91884614D01*
X198215385Y-91884616D01*
X198388399Y-92034532D01*
X198388406Y-92034538D01*
X198580997Y-92158309D01*
X198581013Y-92158318D01*
X198789247Y-92253415D01*
X198789251Y-92253416D01*
X198789253Y-92253417D01*
X199008918Y-92317917D01*
X199008919Y-92317917D01*
X199008922Y-92317918D01*
X199070299Y-92326742D01*
X199235527Y-92350499D01*
X199242428Y-92350499D01*
X199248016Y-92350499D01*
X199248027Y-92350501D01*
X199350000Y-92350500D01*
X199451973Y-92350501D01*
X199451978Y-92350500D01*
X199458075Y-92350500D01*
X199458116Y-92350499D01*
X199464472Y-92350499D01*
X199464473Y-92350499D01*
X199650470Y-92323756D01*
X199691077Y-92317918D01*
X199691078Y-92317917D01*
X199691082Y-92317917D01*
X199910747Y-92253417D01*
X199910750Y-92253415D01*
X199910752Y-92253415D01*
X200118986Y-92158318D01*
X200118990Y-92158315D01*
X200118998Y-92158312D01*
X200311594Y-92034538D01*
X200484615Y-91884615D01*
X200634538Y-91711594D01*
X200758312Y-91518998D01*
X200758315Y-91518990D01*
X200758318Y-91518986D01*
X200853415Y-91310752D01*
X200853415Y-91310750D01*
X200853417Y-91310747D01*
X200917917Y-91091082D01*
X200950499Y-90864473D01*
X200950499Y-90836615D01*
X200950500Y-90836611D01*
X200950500Y-90731818D01*
X200950501Y-90648027D01*
X200950500Y-90648021D01*
X200950500Y-86651978D01*
X200950501Y-86651973D01*
X200950500Y-86549997D01*
X200950500Y-86533234D01*
X200950500Y-86463389D01*
X200950500Y-86457276D01*
X200950499Y-86457254D01*
X200950499Y-86435528D01*
X200917918Y-86208922D01*
X200917915Y-86208912D01*
X200853415Y-85989247D01*
X200758318Y-85781013D01*
X200758309Y-85780997D01*
X200634538Y-85588406D01*
X200634532Y-85588399D01*
X200484616Y-85415385D01*
X200484614Y-85415383D01*
X200311600Y-85265467D01*
X200311593Y-85265461D01*
X200119002Y-85141690D01*
X200118986Y-85141681D01*
X199910752Y-85046584D01*
X199691087Y-84982084D01*
X199691076Y-84982081D01*
X199464476Y-84949501D01*
X199464466Y-84949500D01*
X199451983Y-84949500D01*
X199451973Y-84949499D01*
X199350000Y-84949499D01*
X199248027Y-84949499D01*
X199248016Y-84949500D01*
X199235533Y-84949500D01*
X199235523Y-84949501D01*
X199008923Y-84982081D01*
X199008912Y-84982084D01*
X198789247Y-85046584D01*
X198581013Y-85141681D01*
X198580997Y-85141690D01*
X198388406Y-85265461D01*
X198388399Y-85265467D01*
X198215385Y-85415383D01*
X198215383Y-85415385D01*
X198065467Y-85588399D01*
X198065461Y-85588406D01*
X197941690Y-85780997D01*
X197941681Y-85781013D01*
X197846584Y-85989247D01*
X197782084Y-86208912D01*
X197782081Y-86208923D01*
X197749501Y-86435526D01*
X197749500Y-86435530D01*
X197749500Y-86549997D01*
X197749499Y-86658085D01*
X188950500Y-86658085D01*
X188950500Y-86651978D01*
X188950501Y-86651973D01*
X188950500Y-86549997D01*
X188950500Y-86533234D01*
X188950500Y-86463389D01*
X188950499Y-86463384D01*
X188950499Y-86435527D01*
X188917917Y-86208918D01*
X188853417Y-85989253D01*
X188853416Y-85989251D01*
X188853415Y-85989247D01*
X188758318Y-85781013D01*
X188758309Y-85780997D01*
X188634538Y-85588406D01*
X188634532Y-85588399D01*
X188484616Y-85415385D01*
X188484614Y-85415383D01*
X188311600Y-85265467D01*
X188311593Y-85265461D01*
X188119002Y-85141690D01*
X188118986Y-85141681D01*
X187910752Y-85046584D01*
X187691087Y-84982084D01*
X187691076Y-84982081D01*
X187464476Y-84949501D01*
X187464466Y-84949500D01*
X187451983Y-84949500D01*
X187451973Y-84949499D01*
X187350000Y-84949499D01*
X187248027Y-84949499D01*
X187248016Y-84949500D01*
X187235533Y-84949500D01*
X187235523Y-84949501D01*
X187008923Y-84982081D01*
X187008912Y-84982084D01*
X186789247Y-85046584D01*
X186581013Y-85141681D01*
X186580997Y-85141690D01*
X186388406Y-85265461D01*
X186388399Y-85265467D01*
X186215385Y-85415383D01*
X186215383Y-85415385D01*
X186065467Y-85588399D01*
X186065461Y-85588406D01*
X185941690Y-85780997D01*
X185941681Y-85781013D01*
X185846584Y-85989247D01*
X185782084Y-86208912D01*
X185782081Y-86208923D01*
X185749501Y-86435526D01*
X185749500Y-86435530D01*
X185749500Y-86549997D01*
X185749499Y-86658085D01*
X183950500Y-86658085D01*
X183950500Y-84501978D01*
X183950501Y-84501973D01*
X183950500Y-84399997D01*
X183950500Y-84353080D01*
X183950500Y-84313389D01*
X183950500Y-84307276D01*
X183950499Y-84307254D01*
X183950499Y-84285528D01*
X183917918Y-84058922D01*
X183917915Y-84058912D01*
X183887759Y-83956211D01*
X183853417Y-83839253D01*
X183776693Y-83671251D01*
X223813215Y-83671251D01*
X223813215Y-83816201D01*
X223830579Y-83881002D01*
X223850732Y-83956214D01*
X223923203Y-84081737D01*
X223923205Y-84081739D01*
X223923206Y-84081741D01*
X224025700Y-84184235D01*
X224025701Y-84184236D01*
X224025703Y-84184237D01*
X224151226Y-84256708D01*
X224151227Y-84256708D01*
X224151230Y-84256710D01*
X224291240Y-84294226D01*
X224291243Y-84294226D01*
X224436187Y-84294226D01*
X224436190Y-84294226D01*
X224576200Y-84256710D01*
X224701730Y-84184235D01*
X224804224Y-84081741D01*
X224876699Y-83956211D01*
X224914215Y-83816201D01*
X224914215Y-83671251D01*
X224876699Y-83531241D01*
X224867543Y-83515383D01*
X224804226Y-83405714D01*
X224804221Y-83405708D01*
X224750534Y-83352021D01*
X224717049Y-83290698D01*
X224714215Y-83264340D01*
X224714215Y-80140270D01*
X224733900Y-80073231D01*
X224750534Y-80052589D01*
X225872578Y-78930545D01*
X225933901Y-78897060D01*
X225960259Y-78894226D01*
X226036187Y-78894226D01*
X226036190Y-78894226D01*
X226176200Y-78856710D01*
X226301730Y-78784235D01*
X226404224Y-78681741D01*
X226476699Y-78556211D01*
X226514215Y-78416201D01*
X226514215Y-78271251D01*
X226476699Y-78131241D01*
X226404224Y-78005711D01*
X226301730Y-77903217D01*
X226301728Y-77903216D01*
X226301726Y-77903214D01*
X226176203Y-77830743D01*
X226176200Y-77830742D01*
X226036190Y-77793226D01*
X225891240Y-77793226D01*
X225762708Y-77827666D01*
X225751226Y-77830743D01*
X225625703Y-77903214D01*
X225625697Y-77903219D01*
X225523208Y-78005708D01*
X225523203Y-78005714D01*
X225450732Y-78131237D01*
X225450731Y-78131241D01*
X225413215Y-78271251D01*
X225413215Y-78271253D01*
X225413215Y-78347182D01*
X225393530Y-78414221D01*
X225376896Y-78434863D01*
X224083246Y-79728512D01*
X224083242Y-79728517D01*
X224037102Y-79808435D01*
X224037101Y-79808438D01*
X224013215Y-79897582D01*
X224013215Y-83264340D01*
X223993530Y-83331379D01*
X223976896Y-83352021D01*
X223923208Y-83405708D01*
X223923203Y-83405714D01*
X223850732Y-83531237D01*
X223850731Y-83531241D01*
X223813215Y-83671251D01*
X183776693Y-83671251D01*
X183758312Y-83631002D01*
X183694199Y-83531241D01*
X183634538Y-83438406D01*
X183634532Y-83438399D01*
X183484616Y-83265385D01*
X183484614Y-83265383D01*
X183311600Y-83115467D01*
X183311593Y-83115461D01*
X183119002Y-82991690D01*
X183118986Y-82991681D01*
X182910752Y-82896584D01*
X182691087Y-82832084D01*
X182691076Y-82832081D01*
X182464476Y-82799501D01*
X182464466Y-82799500D01*
X182451983Y-82799500D01*
X182451973Y-82799499D01*
X182350000Y-82799499D01*
X182248027Y-82799499D01*
X182248016Y-82799500D01*
X182235533Y-82799500D01*
X182235523Y-82799501D01*
X182008923Y-82832081D01*
X182008912Y-82832084D01*
X181789247Y-82896584D01*
X181581013Y-82991681D01*
X181580997Y-82991690D01*
X181388406Y-83115461D01*
X181388399Y-83115467D01*
X181215385Y-83265383D01*
X181215383Y-83265385D01*
X181065467Y-83438399D01*
X181065461Y-83438406D01*
X180941690Y-83630997D01*
X180941681Y-83631013D01*
X180846584Y-83839247D01*
X180782084Y-84058912D01*
X180782081Y-84058923D01*
X180749501Y-84285526D01*
X180749500Y-84285530D01*
X180749500Y-84399997D01*
X180749499Y-84508085D01*
X171950500Y-84508085D01*
X171950500Y-84501978D01*
X171950501Y-84501973D01*
X171950500Y-84399997D01*
X171950500Y-84353080D01*
X171950500Y-84313389D01*
X171950499Y-84313384D01*
X171950499Y-84285527D01*
X171942261Y-84228232D01*
X171917918Y-84058922D01*
X171917915Y-84058912D01*
X171865676Y-83881002D01*
X171853417Y-83839253D01*
X171853416Y-83839251D01*
X171853415Y-83839247D01*
X171758318Y-83631013D01*
X171758309Y-83630997D01*
X171634538Y-83438406D01*
X171634532Y-83438399D01*
X171484616Y-83265385D01*
X171484614Y-83265383D01*
X171311600Y-83115467D01*
X171311593Y-83115461D01*
X171119002Y-82991690D01*
X171118986Y-82991681D01*
X170910752Y-82896584D01*
X170691087Y-82832084D01*
X170691076Y-82832081D01*
X170464476Y-82799501D01*
X170464466Y-82799500D01*
X170451983Y-82799500D01*
X170451973Y-82799499D01*
X170350000Y-82799499D01*
X170248027Y-82799499D01*
X170248016Y-82799500D01*
X170235533Y-82799500D01*
X170235523Y-82799501D01*
X170008923Y-82832081D01*
X170008912Y-82832084D01*
X169789247Y-82896584D01*
X169581013Y-82991681D01*
X169580997Y-82991690D01*
X169388406Y-83115461D01*
X169388399Y-83115467D01*
X169215385Y-83265383D01*
X169215383Y-83265385D01*
X169065467Y-83438399D01*
X169065461Y-83438406D01*
X168941690Y-83630997D01*
X168941681Y-83631013D01*
X168846584Y-83839247D01*
X168782084Y-84058912D01*
X168782081Y-84058923D01*
X168749501Y-84285526D01*
X168749500Y-84285530D01*
X168749500Y-84399997D01*
X168749499Y-84508085D01*
X166950500Y-84508085D01*
X166950500Y-83251978D01*
X166950501Y-83251973D01*
X166950500Y-83149997D01*
X166950500Y-83115462D01*
X166950500Y-83063389D01*
X166950500Y-83057276D01*
X166950499Y-83057254D01*
X166950499Y-83035528D01*
X166917918Y-82808922D01*
X166917915Y-82808912D01*
X166915152Y-82799500D01*
X166853417Y-82589253D01*
X166853416Y-82589251D01*
X166853415Y-82589247D01*
X166758318Y-82381013D01*
X166758309Y-82380997D01*
X166634538Y-82188406D01*
X166634532Y-82188399D01*
X166484616Y-82015385D01*
X166484614Y-82015383D01*
X166311600Y-81865467D01*
X166311593Y-81865461D01*
X166119002Y-81741690D01*
X166118986Y-81741681D01*
X165910752Y-81646584D01*
X165691087Y-81582084D01*
X165691076Y-81582081D01*
X165464476Y-81549501D01*
X165464466Y-81549500D01*
X165451983Y-81549500D01*
X165451973Y-81549499D01*
X165350000Y-81549499D01*
X165248027Y-81549499D01*
X165248016Y-81549500D01*
X165235533Y-81549500D01*
X165235523Y-81549501D01*
X165008923Y-81582081D01*
X165008912Y-81582084D01*
X164789247Y-81646584D01*
X164581013Y-81741681D01*
X164580997Y-81741690D01*
X164388406Y-81865461D01*
X164388399Y-81865467D01*
X164215385Y-82015383D01*
X164215383Y-82015385D01*
X164065467Y-82188399D01*
X164065461Y-82188406D01*
X163941690Y-82380997D01*
X163941681Y-82381013D01*
X163846584Y-82589247D01*
X163782084Y-82808912D01*
X163782081Y-82808923D01*
X163749501Y-83035526D01*
X163749500Y-83035530D01*
X163749500Y-83149997D01*
X163749499Y-83258085D01*
X154950500Y-83258085D01*
X154950500Y-83251978D01*
X154950501Y-83251973D01*
X154950500Y-83149997D01*
X154950500Y-83115462D01*
X154950500Y-83063389D01*
X154950499Y-83063384D01*
X154950499Y-83035527D01*
X154921248Y-82832083D01*
X154917918Y-82808922D01*
X154917915Y-82808912D01*
X154915152Y-82799500D01*
X154853417Y-82589253D01*
X154853416Y-82589251D01*
X154853415Y-82589247D01*
X154758318Y-82381013D01*
X154758309Y-82380997D01*
X154634538Y-82188406D01*
X154634532Y-82188399D01*
X154484616Y-82015385D01*
X154484614Y-82015383D01*
X154311600Y-81865467D01*
X154311593Y-81865461D01*
X154119002Y-81741690D01*
X154118986Y-81741681D01*
X153910752Y-81646584D01*
X153691087Y-81582084D01*
X153691076Y-81582081D01*
X153464476Y-81549501D01*
X153464466Y-81549500D01*
X153451983Y-81549500D01*
X153451973Y-81549499D01*
X153350000Y-81549499D01*
X153248027Y-81549499D01*
X153248016Y-81549500D01*
X153235533Y-81549500D01*
X153235523Y-81549501D01*
X153008923Y-81582081D01*
X153008912Y-81582084D01*
X152789247Y-81646584D01*
X152581013Y-81741681D01*
X152580997Y-81741690D01*
X152388406Y-81865461D01*
X152388399Y-81865467D01*
X152215385Y-82015383D01*
X152215383Y-82015385D01*
X152065467Y-82188399D01*
X152065461Y-82188406D01*
X151941690Y-82380997D01*
X151941681Y-82381013D01*
X151846584Y-82589247D01*
X151782084Y-82808912D01*
X151782081Y-82808923D01*
X151749501Y-83035526D01*
X151749500Y-83035530D01*
X151749500Y-83149997D01*
X151749499Y-83258085D01*
X149144513Y-83258085D01*
X149119002Y-83241690D01*
X149118986Y-83241681D01*
X148910752Y-83146584D01*
X148691087Y-83082084D01*
X148691076Y-83082081D01*
X148464476Y-83049501D01*
X148464466Y-83049500D01*
X148451983Y-83049500D01*
X148451973Y-83049499D01*
X148350000Y-83049499D01*
X148248027Y-83049499D01*
X148248016Y-83049500D01*
X148235533Y-83049500D01*
X148235523Y-83049501D01*
X148008923Y-83082081D01*
X148008912Y-83082084D01*
X147789247Y-83146584D01*
X147581013Y-83241681D01*
X147580997Y-83241690D01*
X147388406Y-83365461D01*
X147388399Y-83365467D01*
X147215385Y-83515383D01*
X147215383Y-83515385D01*
X147065467Y-83688399D01*
X147065461Y-83688406D01*
X146941690Y-83880997D01*
X146941681Y-83881013D01*
X146846584Y-84089247D01*
X146782084Y-84308912D01*
X146782081Y-84308923D01*
X146749501Y-84535526D01*
X146749500Y-84535530D01*
X146749500Y-84649997D01*
X146749499Y-84758085D01*
X137950500Y-84758085D01*
X137950500Y-84751978D01*
X137950501Y-84751973D01*
X137950500Y-84649997D01*
X137950500Y-84644576D01*
X137950500Y-84563389D01*
X137950499Y-84563384D01*
X137950499Y-84535527D01*
X137942261Y-84478232D01*
X137917918Y-84308922D01*
X137917915Y-84308912D01*
X137917429Y-84307255D01*
X137853417Y-84089253D01*
X137853416Y-84089251D01*
X137853415Y-84089247D01*
X137758318Y-83881013D01*
X137758309Y-83880997D01*
X137634538Y-83688406D01*
X137634532Y-83688399D01*
X137484616Y-83515385D01*
X137484614Y-83515383D01*
X137311600Y-83365467D01*
X137311593Y-83365461D01*
X137119002Y-83241690D01*
X137118986Y-83241681D01*
X136910752Y-83146584D01*
X136691087Y-83082084D01*
X136691076Y-83082081D01*
X136464476Y-83049501D01*
X136464466Y-83049500D01*
X136451983Y-83049500D01*
X136451973Y-83049499D01*
X136350000Y-83049499D01*
X136248027Y-83049499D01*
X136248016Y-83049500D01*
X136235533Y-83049500D01*
X136235523Y-83049501D01*
X136008923Y-83082081D01*
X136008912Y-83082084D01*
X135789247Y-83146584D01*
X135581013Y-83241681D01*
X135580997Y-83241690D01*
X135388406Y-83365461D01*
X135388399Y-83365467D01*
X135215385Y-83515383D01*
X135215383Y-83515385D01*
X135065467Y-83688399D01*
X135065461Y-83688406D01*
X134941690Y-83880997D01*
X134941681Y-83881013D01*
X134846584Y-84089247D01*
X134782084Y-84308912D01*
X134782081Y-84308923D01*
X134749501Y-84535526D01*
X134749500Y-84535530D01*
X134749500Y-84649997D01*
X134749499Y-84758085D01*
X98953973Y-84758085D01*
X98953974Y-83149997D01*
X98953974Y-73758085D01*
X100749499Y-73758085D01*
X100749500Y-73758106D01*
X100749500Y-77742893D01*
X100749499Y-77742919D01*
X100749500Y-77830742D01*
X100749500Y-77964469D01*
X100749501Y-77964473D01*
X100782081Y-78191076D01*
X100782084Y-78191087D01*
X100846584Y-78410752D01*
X100941681Y-78618986D01*
X100941690Y-78619002D01*
X101065461Y-78811593D01*
X101065467Y-78811600D01*
X101215383Y-78984614D01*
X101215385Y-78984616D01*
X101388399Y-79134532D01*
X101388406Y-79134538D01*
X101580997Y-79258309D01*
X101581013Y-79258318D01*
X101789247Y-79353415D01*
X101789251Y-79353416D01*
X101789253Y-79353417D01*
X102008918Y-79417917D01*
X102008919Y-79417917D01*
X102008922Y-79417918D01*
X102076492Y-79427632D01*
X102235527Y-79450499D01*
X102349997Y-79450500D01*
X102451973Y-79450501D01*
X102451984Y-79450499D01*
X102464468Y-79450499D01*
X102691078Y-79417918D01*
X102910745Y-79353418D01*
X102910748Y-79353416D01*
X102910750Y-79353416D01*
X103118984Y-79258319D01*
X103118988Y-79258316D01*
X103118996Y-79258313D01*
X103311593Y-79134539D01*
X103484615Y-78984615D01*
X103634539Y-78811593D01*
X103758313Y-78618996D01*
X103758318Y-78618986D01*
X103758319Y-78618984D01*
X103853416Y-78410750D01*
X103853417Y-78410747D01*
X103853418Y-78410745D01*
X103917918Y-78191078D01*
X103950499Y-77964468D01*
X103950499Y-77941746D01*
X103950500Y-77941721D01*
X103950500Y-73758085D01*
X112749499Y-73758085D01*
X112749500Y-73758096D01*
X112749500Y-77748021D01*
X112749499Y-77748027D01*
X112749500Y-77793226D01*
X112749500Y-77964469D01*
X112749501Y-77964473D01*
X112782081Y-78191076D01*
X112782084Y-78191087D01*
X112846584Y-78410752D01*
X112941681Y-78618986D01*
X112941690Y-78619002D01*
X113065461Y-78811593D01*
X113065467Y-78811600D01*
X113215383Y-78984614D01*
X113215385Y-78984616D01*
X113388399Y-79134532D01*
X113388406Y-79134538D01*
X113580997Y-79258309D01*
X113581013Y-79258318D01*
X113789247Y-79353415D01*
X113789251Y-79353416D01*
X113789253Y-79353417D01*
X114008918Y-79417917D01*
X114008919Y-79417917D01*
X114008922Y-79417918D01*
X114070299Y-79426742D01*
X114235527Y-79450499D01*
X114242428Y-79450499D01*
X114248016Y-79450499D01*
X114248027Y-79450501D01*
X114350000Y-79450500D01*
X114451973Y-79450501D01*
X114451978Y-79450500D01*
X114458075Y-79450500D01*
X114458116Y-79450499D01*
X114464472Y-79450499D01*
X114464473Y-79450499D01*
X114650470Y-79423756D01*
X114691077Y-79417918D01*
X114691078Y-79417917D01*
X114691082Y-79417917D01*
X114910747Y-79353417D01*
X114910750Y-79353415D01*
X114910752Y-79353415D01*
X115118986Y-79258318D01*
X115118990Y-79258315D01*
X115118998Y-79258312D01*
X115311594Y-79134538D01*
X115484615Y-78984615D01*
X115634538Y-78811594D01*
X115758312Y-78618998D01*
X115758315Y-78618990D01*
X115758318Y-78618986D01*
X115853415Y-78410752D01*
X115853415Y-78410750D01*
X115853417Y-78410747D01*
X115917917Y-78191082D01*
X115950499Y-77964473D01*
X115950499Y-77936615D01*
X115950500Y-77936611D01*
X115950500Y-77830742D01*
X115950501Y-77748027D01*
X115950500Y-77748021D01*
X115950500Y-73751978D01*
X115950501Y-73751973D01*
X115950500Y-73649997D01*
X115950500Y-73648021D01*
X115950500Y-73563389D01*
X115950500Y-73557276D01*
X115950499Y-73557254D01*
X115950499Y-73535528D01*
X115917918Y-73308922D01*
X115917915Y-73308912D01*
X115909891Y-73281583D01*
X115853417Y-73089253D01*
X115853416Y-73089251D01*
X115853415Y-73089247D01*
X115758318Y-72881013D01*
X115758309Y-72880997D01*
X115634538Y-72688406D01*
X115634532Y-72688399D01*
X115484616Y-72515385D01*
X115484614Y-72515383D01*
X115311600Y-72365467D01*
X115311593Y-72365461D01*
X115119002Y-72241690D01*
X115118986Y-72241681D01*
X114910752Y-72146584D01*
X114862351Y-72132372D01*
X114802684Y-72114852D01*
X114691087Y-72082084D01*
X114691076Y-72082081D01*
X114464476Y-72049501D01*
X114464466Y-72049500D01*
X114451983Y-72049500D01*
X114451973Y-72049499D01*
X114350000Y-72049499D01*
X114248027Y-72049499D01*
X114248016Y-72049500D01*
X114235533Y-72049500D01*
X114235523Y-72049501D01*
X114008923Y-72082081D01*
X114008912Y-72082084D01*
X113789247Y-72146584D01*
X113581013Y-72241681D01*
X113580997Y-72241690D01*
X113388406Y-72365461D01*
X113388399Y-72365467D01*
X113215385Y-72515383D01*
X113215383Y-72515385D01*
X113065467Y-72688399D01*
X113065461Y-72688406D01*
X112941690Y-72880997D01*
X112941681Y-72881013D01*
X112846584Y-73089247D01*
X112782084Y-73308912D01*
X112782081Y-73308923D01*
X112749501Y-73535526D01*
X112749500Y-73535530D01*
X112749500Y-73649997D01*
X112749499Y-73758085D01*
X103950500Y-73758085D01*
X103950500Y-73751978D01*
X103950501Y-73751973D01*
X103950500Y-73649997D01*
X103950500Y-73648021D01*
X103950500Y-73563389D01*
X103950499Y-73563384D01*
X103950499Y-73535527D01*
X103938274Y-73450499D01*
X103917918Y-73308922D01*
X103917915Y-73308912D01*
X103909891Y-73281583D01*
X103853417Y-73089253D01*
X103853416Y-73089251D01*
X103853415Y-73089247D01*
X103758318Y-72881013D01*
X103758309Y-72880997D01*
X103634538Y-72688406D01*
X103634532Y-72688399D01*
X103484616Y-72515385D01*
X103484614Y-72515383D01*
X103311600Y-72365467D01*
X103311593Y-72365461D01*
X103119002Y-72241690D01*
X103118986Y-72241681D01*
X102910752Y-72146584D01*
X102691087Y-72082084D01*
X102691076Y-72082081D01*
X102464476Y-72049501D01*
X102464466Y-72049500D01*
X102451983Y-72049500D01*
X102451973Y-72049499D01*
X102350000Y-72049499D01*
X102248027Y-72049499D01*
X102248016Y-72049500D01*
X102235533Y-72049500D01*
X102235523Y-72049501D01*
X102008923Y-72082081D01*
X102008912Y-72082084D01*
X101789247Y-72146584D01*
X101581013Y-72241681D01*
X101580997Y-72241690D01*
X101388406Y-72365461D01*
X101388399Y-72365467D01*
X101215385Y-72515383D01*
X101215383Y-72515385D01*
X101065467Y-72688399D01*
X101065461Y-72688406D01*
X100941690Y-72880997D01*
X100941681Y-72881013D01*
X100846584Y-73089247D01*
X100782084Y-73308912D01*
X100782081Y-73308923D01*
X100749501Y-73535526D01*
X100749500Y-73535530D01*
X100749500Y-73649997D01*
X100749499Y-73758085D01*
X98953974Y-73758085D01*
X98953974Y-72008085D01*
X117749499Y-72008085D01*
X117749500Y-72008106D01*
X117749500Y-75992892D01*
X117749499Y-75992918D01*
X117749500Y-76099997D01*
X117749500Y-76214469D01*
X117749501Y-76214473D01*
X117782081Y-76441076D01*
X117782084Y-76441087D01*
X117846584Y-76660752D01*
X117941681Y-76868986D01*
X117941690Y-76869002D01*
X118065461Y-77061593D01*
X118065467Y-77061600D01*
X118215383Y-77234614D01*
X118215385Y-77234616D01*
X118388399Y-77384532D01*
X118388406Y-77384538D01*
X118580997Y-77508309D01*
X118581013Y-77508318D01*
X118789247Y-77603415D01*
X118789251Y-77603416D01*
X118789253Y-77603417D01*
X119008918Y-77667917D01*
X119008919Y-77667917D01*
X119008922Y-77667918D01*
X119076492Y-77677632D01*
X119235527Y-77700499D01*
X119349997Y-77700500D01*
X119451973Y-77700501D01*
X119451984Y-77700499D01*
X119464468Y-77700499D01*
X119691078Y-77667918D01*
X119910745Y-77603418D01*
X119910748Y-77603416D01*
X119910750Y-77603416D01*
X120118984Y-77508319D01*
X120118988Y-77508316D01*
X120118996Y-77508313D01*
X120311593Y-77384539D01*
X120484615Y-77234615D01*
X120634539Y-77061593D01*
X120758313Y-76868996D01*
X120758318Y-76868986D01*
X120758319Y-76868984D01*
X120853416Y-76660750D01*
X120853417Y-76660747D01*
X120853418Y-76660745D01*
X120917918Y-76441078D01*
X120950499Y-76214468D01*
X120950499Y-76191746D01*
X120950500Y-76191721D01*
X120950500Y-72008085D01*
X129749499Y-72008085D01*
X129749500Y-72008106D01*
X129749500Y-75998021D01*
X129749499Y-75998027D01*
X129749500Y-76099997D01*
X129749500Y-76214469D01*
X129749501Y-76214473D01*
X129782081Y-76441076D01*
X129782084Y-76441087D01*
X129846584Y-76660752D01*
X129941681Y-76868986D01*
X129941690Y-76869002D01*
X130065461Y-77061593D01*
X130065467Y-77061600D01*
X130215383Y-77234614D01*
X130215385Y-77234616D01*
X130388399Y-77384532D01*
X130388406Y-77384538D01*
X130580997Y-77508309D01*
X130581013Y-77508318D01*
X130789247Y-77603415D01*
X130789251Y-77603416D01*
X130789253Y-77603417D01*
X131008918Y-77667917D01*
X131008919Y-77667917D01*
X131008922Y-77667918D01*
X131070299Y-77676742D01*
X131235527Y-77700499D01*
X131242428Y-77700499D01*
X131248016Y-77700499D01*
X131248027Y-77700501D01*
X131350000Y-77700500D01*
X131451973Y-77700501D01*
X131451978Y-77700500D01*
X131458075Y-77700500D01*
X131458116Y-77700499D01*
X131464472Y-77700499D01*
X131464473Y-77700499D01*
X131650470Y-77673756D01*
X131691077Y-77667918D01*
X131691078Y-77667917D01*
X131691082Y-77667917D01*
X131910747Y-77603417D01*
X131910750Y-77603415D01*
X131910752Y-77603415D01*
X132118986Y-77508318D01*
X132118990Y-77508315D01*
X132118998Y-77508312D01*
X132311594Y-77384538D01*
X132484615Y-77234615D01*
X132634538Y-77061594D01*
X132758312Y-76868998D01*
X132758315Y-76868990D01*
X132758318Y-76868986D01*
X132853415Y-76660752D01*
X132853415Y-76660750D01*
X132853417Y-76660747D01*
X132917917Y-76441082D01*
X132950499Y-76214473D01*
X132950499Y-76186615D01*
X132950500Y-76186611D01*
X132950500Y-76099997D01*
X132950501Y-75998027D01*
X132950500Y-75998021D01*
X132950500Y-72001978D01*
X132950501Y-72001973D01*
X132950500Y-71899997D01*
X132950500Y-71849997D01*
X132950500Y-71813389D01*
X132950500Y-71807276D01*
X132950499Y-71807254D01*
X132950499Y-71785528D01*
X132917918Y-71558921D01*
X132917915Y-71558912D01*
X132900038Y-71498027D01*
X132853417Y-71339253D01*
X132853416Y-71339251D01*
X132853415Y-71339247D01*
X132758318Y-71131013D01*
X132758309Y-71130997D01*
X132634538Y-70938406D01*
X132634532Y-70938399D01*
X132484616Y-70765385D01*
X132484614Y-70765383D01*
X132311600Y-70615467D01*
X132311593Y-70615461D01*
X132119002Y-70491690D01*
X132118986Y-70491681D01*
X131910752Y-70396584D01*
X131691087Y-70332084D01*
X131691076Y-70332081D01*
X131464476Y-70299501D01*
X131464466Y-70299500D01*
X131451983Y-70299500D01*
X131451973Y-70299499D01*
X131350000Y-70299499D01*
X131248027Y-70299499D01*
X131248016Y-70299500D01*
X131235533Y-70299500D01*
X131235523Y-70299501D01*
X131008923Y-70332081D01*
X131008912Y-70332084D01*
X130789247Y-70396584D01*
X130581013Y-70491681D01*
X130580997Y-70491690D01*
X130388406Y-70615461D01*
X130388399Y-70615467D01*
X130215385Y-70765383D01*
X130215383Y-70765385D01*
X130065467Y-70938399D01*
X130065461Y-70938406D01*
X129941690Y-71130997D01*
X129941681Y-71131013D01*
X129846584Y-71339247D01*
X129782084Y-71558912D01*
X129782082Y-71558921D01*
X129749501Y-71785526D01*
X129749500Y-71785530D01*
X129749500Y-71899997D01*
X129749499Y-72008085D01*
X120950500Y-72008085D01*
X120950500Y-72001978D01*
X120950501Y-72001973D01*
X120950500Y-71899997D01*
X120950500Y-71849997D01*
X120950500Y-71813389D01*
X120950499Y-71813384D01*
X120950499Y-71785527D01*
X120936278Y-71686617D01*
X120917918Y-71558921D01*
X120917915Y-71558912D01*
X120900038Y-71498027D01*
X120853417Y-71339253D01*
X120853416Y-71339251D01*
X120853415Y-71339247D01*
X120758318Y-71131013D01*
X120758309Y-71130997D01*
X120634538Y-70938406D01*
X120634532Y-70938399D01*
X120484616Y-70765385D01*
X120484614Y-70765383D01*
X120311600Y-70615467D01*
X120311593Y-70615461D01*
X120119002Y-70491690D01*
X120118986Y-70491681D01*
X119910752Y-70396584D01*
X119691087Y-70332084D01*
X119691076Y-70332081D01*
X119464476Y-70299501D01*
X119464466Y-70299500D01*
X119451983Y-70299500D01*
X119451973Y-70299499D01*
X119350000Y-70299499D01*
X119248027Y-70299499D01*
X119248016Y-70299500D01*
X119235533Y-70299500D01*
X119235523Y-70299501D01*
X119008923Y-70332081D01*
X119008912Y-70332084D01*
X118789247Y-70396584D01*
X118581013Y-70491681D01*
X118580997Y-70491690D01*
X118388406Y-70615461D01*
X118388399Y-70615467D01*
X118215385Y-70765383D01*
X118215383Y-70765385D01*
X118065467Y-70938399D01*
X118065461Y-70938406D01*
X117941690Y-71130997D01*
X117941681Y-71131013D01*
X117846584Y-71339247D01*
X117782084Y-71558912D01*
X117782082Y-71558921D01*
X117749501Y-71785526D01*
X117749500Y-71785530D01*
X117749500Y-71899997D01*
X117749499Y-72008085D01*
X98953974Y-72008085D01*
X98953974Y-67758085D01*
X134749499Y-67758085D01*
X134749500Y-67758106D01*
X134749500Y-71742893D01*
X134749499Y-71742919D01*
X134749500Y-71799247D01*
X134749500Y-71964469D01*
X134749501Y-71964473D01*
X134782081Y-72191076D01*
X134782084Y-72191087D01*
X134846584Y-72410752D01*
X134941681Y-72618986D01*
X134941690Y-72619002D01*
X135065461Y-72811593D01*
X135065467Y-72811600D01*
X135215383Y-72984614D01*
X135215385Y-72984616D01*
X135388399Y-73134532D01*
X135388406Y-73134538D01*
X135580997Y-73258309D01*
X135581013Y-73258318D01*
X135789247Y-73353415D01*
X135789251Y-73353416D01*
X135789253Y-73353417D01*
X136008918Y-73417917D01*
X136008919Y-73417917D01*
X136008922Y-73417918D01*
X136076492Y-73427632D01*
X136235527Y-73450499D01*
X136349997Y-73450500D01*
X136451973Y-73450501D01*
X136451984Y-73450499D01*
X136464468Y-73450499D01*
X136691078Y-73417918D01*
X136910745Y-73353418D01*
X136910748Y-73353416D01*
X136910750Y-73353416D01*
X137118984Y-73258319D01*
X137118988Y-73258316D01*
X137118996Y-73258313D01*
X137311593Y-73134539D01*
X137484615Y-72984615D01*
X137634539Y-72811593D01*
X137758313Y-72618996D01*
X137758318Y-72618986D01*
X137758319Y-72618984D01*
X137853416Y-72410750D01*
X137853417Y-72410747D01*
X137853418Y-72410745D01*
X137917918Y-72191078D01*
X137950499Y-71964468D01*
X137950499Y-71941746D01*
X137950500Y-71941721D01*
X137950500Y-67758085D01*
X146749499Y-67758085D01*
X146749500Y-67758096D01*
X146749500Y-71748021D01*
X146749499Y-71748027D01*
X146749500Y-71785526D01*
X146749500Y-71964469D01*
X146749501Y-71964473D01*
X146782081Y-72191076D01*
X146782084Y-72191087D01*
X146846584Y-72410752D01*
X146941681Y-72618986D01*
X146941690Y-72619002D01*
X147065461Y-72811593D01*
X147065467Y-72811600D01*
X147215383Y-72984614D01*
X147215385Y-72984616D01*
X147388399Y-73134532D01*
X147388406Y-73134538D01*
X147580997Y-73258309D01*
X147581013Y-73258318D01*
X147789247Y-73353415D01*
X147789251Y-73353416D01*
X147789253Y-73353417D01*
X148008918Y-73417917D01*
X148008919Y-73417917D01*
X148008922Y-73417918D01*
X148070299Y-73426742D01*
X148235527Y-73450499D01*
X148242428Y-73450499D01*
X148248016Y-73450499D01*
X148248027Y-73450501D01*
X148350000Y-73450500D01*
X148451973Y-73450501D01*
X148451978Y-73450500D01*
X148458075Y-73450500D01*
X148458116Y-73450499D01*
X148464472Y-73450499D01*
X148464473Y-73450499D01*
X148650470Y-73423756D01*
X148691077Y-73417918D01*
X148691078Y-73417917D01*
X148691082Y-73417917D01*
X148910747Y-73353417D01*
X148910750Y-73353415D01*
X148910752Y-73353415D01*
X149118986Y-73258318D01*
X149118990Y-73258315D01*
X149118998Y-73258312D01*
X149311594Y-73134538D01*
X149484615Y-72984615D01*
X149634538Y-72811594D01*
X149758312Y-72618998D01*
X149758315Y-72618990D01*
X149758318Y-72618986D01*
X149853415Y-72410752D01*
X149853415Y-72410750D01*
X149853417Y-72410747D01*
X149917917Y-72191082D01*
X149950499Y-71964473D01*
X149950499Y-71936615D01*
X149950500Y-71936611D01*
X149950500Y-71799247D01*
X149950501Y-71748027D01*
X149950500Y-71748021D01*
X149950500Y-67751978D01*
X149950501Y-67751973D01*
X149950500Y-67649997D01*
X149950500Y-67644576D01*
X149950500Y-67563389D01*
X149950500Y-67557276D01*
X149950499Y-67557254D01*
X149950499Y-67535528D01*
X149917918Y-67308922D01*
X149917915Y-67308912D01*
X149917429Y-67307255D01*
X149853417Y-67089253D01*
X149853416Y-67089251D01*
X149853415Y-67089247D01*
X149758318Y-66881013D01*
X149758309Y-66880997D01*
X149634538Y-66688406D01*
X149634532Y-66688399D01*
X149484616Y-66515385D01*
X149484614Y-66515383D01*
X149311600Y-66365467D01*
X149311595Y-66365463D01*
X149311594Y-66365462D01*
X149234685Y-66316035D01*
X149144513Y-66258085D01*
X151749499Y-66258085D01*
X151749500Y-66258106D01*
X151749500Y-70242893D01*
X151749499Y-70242919D01*
X151749500Y-70299499D01*
X151749500Y-70464469D01*
X151749501Y-70464473D01*
X151782081Y-70691076D01*
X151782084Y-70691087D01*
X151846584Y-70910752D01*
X151941681Y-71118986D01*
X151941690Y-71119002D01*
X152065461Y-71311593D01*
X152065467Y-71311600D01*
X152215383Y-71484614D01*
X152215385Y-71484616D01*
X152388399Y-71634532D01*
X152388406Y-71634538D01*
X152580997Y-71758309D01*
X152581013Y-71758318D01*
X152789247Y-71853415D01*
X152789251Y-71853416D01*
X152789253Y-71853417D01*
X153008918Y-71917917D01*
X153008919Y-71917917D01*
X153008922Y-71917918D01*
X153076492Y-71927632D01*
X153235527Y-71950499D01*
X153349997Y-71950500D01*
X153451973Y-71950501D01*
X153451984Y-71950499D01*
X153464468Y-71950499D01*
X153691078Y-71917918D01*
X153910745Y-71853418D01*
X153910748Y-71853416D01*
X153910750Y-71853416D01*
X154118984Y-71758319D01*
X154118988Y-71758316D01*
X154118996Y-71758313D01*
X154311593Y-71634539D01*
X154484615Y-71484615D01*
X154634539Y-71311593D01*
X154758313Y-71118996D01*
X154758318Y-71118986D01*
X154758319Y-71118984D01*
X154853416Y-70910750D01*
X154853417Y-70910747D01*
X154853418Y-70910745D01*
X154917918Y-70691078D01*
X154950499Y-70464468D01*
X154950499Y-70441746D01*
X154950500Y-70441721D01*
X154950500Y-66258085D01*
X163749499Y-66258085D01*
X163749500Y-66258106D01*
X163749500Y-70248021D01*
X163749499Y-70248027D01*
X163749500Y-70299499D01*
X163749500Y-70464469D01*
X163749501Y-70464473D01*
X163782081Y-70691076D01*
X163782084Y-70691087D01*
X163846584Y-70910752D01*
X163941681Y-71118986D01*
X163941690Y-71119002D01*
X164065461Y-71311593D01*
X164065467Y-71311600D01*
X164215383Y-71484614D01*
X164215385Y-71484616D01*
X164388399Y-71634532D01*
X164388406Y-71634538D01*
X164580997Y-71758309D01*
X164581013Y-71758318D01*
X164789247Y-71853415D01*
X164789251Y-71853416D01*
X164789253Y-71853417D01*
X165008918Y-71917917D01*
X165008919Y-71917917D01*
X165008922Y-71917918D01*
X165070299Y-71926742D01*
X165235527Y-71950499D01*
X165242428Y-71950499D01*
X165248016Y-71950499D01*
X165248027Y-71950501D01*
X165350000Y-71950500D01*
X165451973Y-71950501D01*
X165451978Y-71950500D01*
X165458075Y-71950500D01*
X165458116Y-71950499D01*
X165464472Y-71950499D01*
X165464473Y-71950499D01*
X165650470Y-71923756D01*
X165691077Y-71917918D01*
X165691078Y-71917917D01*
X165691082Y-71917917D01*
X165910747Y-71853417D01*
X165910750Y-71853415D01*
X165910752Y-71853415D01*
X166118986Y-71758318D01*
X166118990Y-71758315D01*
X166118998Y-71758312D01*
X166311594Y-71634538D01*
X166484615Y-71484615D01*
X166634538Y-71311594D01*
X166758312Y-71118998D01*
X166758315Y-71118990D01*
X166758318Y-71118986D01*
X166853415Y-70910752D01*
X166853415Y-70910750D01*
X166853417Y-70910747D01*
X166917917Y-70691082D01*
X166950499Y-70464473D01*
X166950499Y-70436615D01*
X166950500Y-70436611D01*
X166950500Y-70299499D01*
X166950501Y-70248027D01*
X166950500Y-70248021D01*
X166950500Y-67508085D01*
X168749499Y-67508085D01*
X168749500Y-67508106D01*
X168749500Y-71492893D01*
X168749499Y-71492919D01*
X168749500Y-71558918D01*
X168749500Y-71714469D01*
X168749501Y-71714473D01*
X168782081Y-71941076D01*
X168782084Y-71941087D01*
X168846584Y-72160752D01*
X168941681Y-72368986D01*
X168941690Y-72369002D01*
X169065461Y-72561593D01*
X169065467Y-72561600D01*
X169215383Y-72734614D01*
X169215385Y-72734616D01*
X169388399Y-72884532D01*
X169388406Y-72884538D01*
X169580997Y-73008309D01*
X169581013Y-73008318D01*
X169789247Y-73103415D01*
X169789251Y-73103416D01*
X169789253Y-73103417D01*
X170008918Y-73167917D01*
X170008919Y-73167917D01*
X170008922Y-73167918D01*
X170076492Y-73177632D01*
X170235527Y-73200499D01*
X170349997Y-73200500D01*
X170451973Y-73200501D01*
X170451984Y-73200499D01*
X170464468Y-73200499D01*
X170691078Y-73167918D01*
X170910745Y-73103418D01*
X170910748Y-73103416D01*
X170910750Y-73103416D01*
X171118984Y-73008319D01*
X171118988Y-73008316D01*
X171118996Y-73008313D01*
X171311593Y-72884539D01*
X171484615Y-72734615D01*
X171634539Y-72561593D01*
X171758313Y-72368996D01*
X171758318Y-72368986D01*
X171758319Y-72368984D01*
X171853416Y-72160750D01*
X171853417Y-72160747D01*
X171853418Y-72160745D01*
X171917918Y-71941078D01*
X171950499Y-71714468D01*
X171950499Y-71691746D01*
X171950500Y-71691721D01*
X171950500Y-67508085D01*
X180749499Y-67508085D01*
X180749500Y-67508106D01*
X180749500Y-71498021D01*
X180749499Y-71498027D01*
X180749500Y-71558912D01*
X180749500Y-71714469D01*
X180749501Y-71714473D01*
X180782081Y-71941076D01*
X180782084Y-71941087D01*
X180846584Y-72160752D01*
X180941681Y-72368986D01*
X180941690Y-72369002D01*
X181065461Y-72561593D01*
X181065467Y-72561600D01*
X181215383Y-72734614D01*
X181215385Y-72734616D01*
X181388399Y-72884532D01*
X181388406Y-72884538D01*
X181580997Y-73008309D01*
X181581013Y-73008318D01*
X181789247Y-73103415D01*
X181789251Y-73103416D01*
X181789253Y-73103417D01*
X182008918Y-73167917D01*
X182008919Y-73167917D01*
X182008922Y-73167918D01*
X182070299Y-73176742D01*
X182235527Y-73200499D01*
X182242428Y-73200499D01*
X182248016Y-73200499D01*
X182248027Y-73200501D01*
X182350000Y-73200500D01*
X182451973Y-73200501D01*
X182451978Y-73200500D01*
X182458075Y-73200500D01*
X182458116Y-73200499D01*
X182464472Y-73200499D01*
X182464473Y-73200499D01*
X182650470Y-73173756D01*
X182691077Y-73167918D01*
X182691078Y-73167917D01*
X182691082Y-73167917D01*
X182910747Y-73103417D01*
X182910750Y-73103415D01*
X182910752Y-73103415D01*
X183118986Y-73008318D01*
X183118990Y-73008315D01*
X183118998Y-73008312D01*
X183311594Y-72884538D01*
X183484615Y-72734615D01*
X183634538Y-72561594D01*
X183758312Y-72368998D01*
X183758315Y-72368990D01*
X183758318Y-72368986D01*
X183853415Y-72160752D01*
X183853415Y-72160750D01*
X183853417Y-72160747D01*
X183917917Y-71941082D01*
X183918560Y-71936615D01*
X183930521Y-71853418D01*
X183950499Y-71714473D01*
X183950499Y-71686615D01*
X183950500Y-71686611D01*
X183950500Y-71558918D01*
X183950501Y-71498027D01*
X183950500Y-71498021D01*
X183950500Y-69658085D01*
X185749499Y-69658085D01*
X185749500Y-69658106D01*
X185749500Y-73642893D01*
X185749499Y-73642919D01*
X185749500Y-73720038D01*
X185749500Y-73864469D01*
X185749501Y-73864473D01*
X185782081Y-74091076D01*
X185782084Y-74091087D01*
X185846584Y-74310752D01*
X185941681Y-74518986D01*
X185941690Y-74519002D01*
X186065461Y-74711593D01*
X186065467Y-74711600D01*
X186215383Y-74884614D01*
X186215385Y-74884616D01*
X186388399Y-75034532D01*
X186388406Y-75034538D01*
X186580997Y-75158309D01*
X186581013Y-75158318D01*
X186789247Y-75253415D01*
X186789251Y-75253416D01*
X186789253Y-75253417D01*
X187008918Y-75317917D01*
X187008919Y-75317917D01*
X187008922Y-75317918D01*
X187076492Y-75327632D01*
X187235527Y-75350499D01*
X187349997Y-75350500D01*
X187451973Y-75350501D01*
X187451984Y-75350499D01*
X187464468Y-75350499D01*
X187691078Y-75317918D01*
X187910745Y-75253418D01*
X187910748Y-75253416D01*
X187910750Y-75253416D01*
X188118984Y-75158319D01*
X188118988Y-75158316D01*
X188118996Y-75158313D01*
X188311593Y-75034539D01*
X188484615Y-74884615D01*
X188634539Y-74711593D01*
X188758313Y-74518996D01*
X188758318Y-74518986D01*
X188758319Y-74518984D01*
X188853416Y-74310750D01*
X188853417Y-74310747D01*
X188853418Y-74310745D01*
X188917918Y-74091078D01*
X188950499Y-73864468D01*
X188950499Y-73841746D01*
X188950500Y-73841721D01*
X188950500Y-69658085D01*
X197749499Y-69658085D01*
X197749500Y-69658106D01*
X197749500Y-73648021D01*
X197749499Y-73648027D01*
X197749500Y-73697556D01*
X197749500Y-73864469D01*
X197749501Y-73864473D01*
X197782081Y-74091076D01*
X197782084Y-74091087D01*
X197846584Y-74310752D01*
X197941681Y-74518986D01*
X197941690Y-74519002D01*
X198065461Y-74711593D01*
X198065467Y-74711600D01*
X198215383Y-74884614D01*
X198215385Y-74884616D01*
X198388399Y-75034532D01*
X198388406Y-75034538D01*
X198580997Y-75158309D01*
X198581013Y-75158318D01*
X198789247Y-75253415D01*
X198789251Y-75253416D01*
X198789253Y-75253417D01*
X199008918Y-75317917D01*
X199008919Y-75317917D01*
X199008922Y-75317918D01*
X199070299Y-75326742D01*
X199235527Y-75350499D01*
X199242428Y-75350499D01*
X199248016Y-75350499D01*
X199248027Y-75350501D01*
X199350000Y-75350500D01*
X199451973Y-75350501D01*
X199451978Y-75350500D01*
X199458075Y-75350500D01*
X199458116Y-75350499D01*
X199464472Y-75350499D01*
X199464473Y-75350499D01*
X199650470Y-75323756D01*
X199691077Y-75317918D01*
X199691078Y-75317917D01*
X199691082Y-75317917D01*
X199910747Y-75253417D01*
X199910750Y-75253415D01*
X199910752Y-75253415D01*
X200118986Y-75158318D01*
X200118990Y-75158315D01*
X200118998Y-75158312D01*
X200311594Y-75034538D01*
X200484615Y-74884615D01*
X200634538Y-74711594D01*
X200758312Y-74518998D01*
X200758315Y-74518990D01*
X200758318Y-74518986D01*
X200853415Y-74310752D01*
X200853415Y-74310750D01*
X200853417Y-74310747D01*
X200917917Y-74091082D01*
X200950499Y-73864473D01*
X200950499Y-73836615D01*
X200950500Y-73836611D01*
X200950500Y-73720038D01*
X200950501Y-73648027D01*
X200950500Y-73648021D01*
X200950500Y-69651978D01*
X200950501Y-69651973D01*
X200950500Y-69549997D01*
X200950500Y-69533234D01*
X200950500Y-69463389D01*
X200950500Y-69457276D01*
X200950499Y-69457254D01*
X200950499Y-69435528D01*
X200917918Y-69208922D01*
X200917915Y-69208912D01*
X200853415Y-68989247D01*
X200758318Y-68781013D01*
X200758309Y-68780997D01*
X200634538Y-68588406D01*
X200634532Y-68588399D01*
X200484616Y-68415385D01*
X200484614Y-68415383D01*
X200311600Y-68265467D01*
X200311593Y-68265461D01*
X200119002Y-68141690D01*
X200118986Y-68141681D01*
X199910752Y-68046584D01*
X199691087Y-67982084D01*
X199691076Y-67982081D01*
X199464476Y-67949501D01*
X199464466Y-67949500D01*
X199451983Y-67949500D01*
X199451973Y-67949499D01*
X199350000Y-67949499D01*
X199248027Y-67949499D01*
X199248016Y-67949500D01*
X199235533Y-67949500D01*
X199235523Y-67949501D01*
X199008923Y-67982081D01*
X199008912Y-67982084D01*
X198789247Y-68046584D01*
X198581013Y-68141681D01*
X198580997Y-68141690D01*
X198388406Y-68265461D01*
X198388399Y-68265467D01*
X198215385Y-68415383D01*
X198215383Y-68415385D01*
X198065467Y-68588399D01*
X198065461Y-68588406D01*
X197941690Y-68780997D01*
X197941681Y-68781013D01*
X197846584Y-68989247D01*
X197782084Y-69208912D01*
X197782081Y-69208923D01*
X197749501Y-69435526D01*
X197749500Y-69435530D01*
X197749500Y-69549997D01*
X197749499Y-69658085D01*
X188950500Y-69658085D01*
X188950500Y-69651978D01*
X188950501Y-69651973D01*
X188950500Y-69549997D01*
X188950500Y-69533234D01*
X188950500Y-69463389D01*
X188950499Y-69463384D01*
X188950499Y-69435527D01*
X188917917Y-69208918D01*
X188853417Y-68989253D01*
X188853416Y-68989251D01*
X188853415Y-68989247D01*
X188758318Y-68781013D01*
X188758309Y-68780997D01*
X188634538Y-68588406D01*
X188634532Y-68588399D01*
X188484616Y-68415385D01*
X188484614Y-68415383D01*
X188311600Y-68265467D01*
X188311593Y-68265461D01*
X188119002Y-68141690D01*
X188118986Y-68141681D01*
X187910752Y-68046584D01*
X187691087Y-67982084D01*
X187691076Y-67982081D01*
X187464476Y-67949501D01*
X187464466Y-67949500D01*
X187451983Y-67949500D01*
X187451973Y-67949499D01*
X187350000Y-67949499D01*
X187248027Y-67949499D01*
X187248016Y-67949500D01*
X187235533Y-67949500D01*
X187235523Y-67949501D01*
X187008923Y-67982081D01*
X187008912Y-67982084D01*
X186789247Y-68046584D01*
X186581013Y-68141681D01*
X186580997Y-68141690D01*
X186388406Y-68265461D01*
X186388399Y-68265467D01*
X186215385Y-68415383D01*
X186215383Y-68415385D01*
X186065467Y-68588399D01*
X186065461Y-68588406D01*
X185941690Y-68780997D01*
X185941681Y-68781013D01*
X185846584Y-68989247D01*
X185782084Y-69208912D01*
X185782081Y-69208923D01*
X185749501Y-69435526D01*
X185749500Y-69435530D01*
X185749500Y-69549997D01*
X185749499Y-69658085D01*
X183950500Y-69658085D01*
X183950500Y-67501978D01*
X183950501Y-67501973D01*
X183950500Y-67399997D01*
X183950500Y-67353080D01*
X183950500Y-67313389D01*
X183950500Y-67307276D01*
X183950499Y-67307254D01*
X183950499Y-67285528D01*
X183917918Y-67058922D01*
X183917915Y-67058912D01*
X183865676Y-66881002D01*
X183853417Y-66839253D01*
X183853416Y-66839251D01*
X183853415Y-66839247D01*
X183758318Y-66631013D01*
X183758309Y-66630997D01*
X183634538Y-66438406D01*
X183634532Y-66438399D01*
X183484616Y-66265385D01*
X183484614Y-66265383D01*
X183311600Y-66115467D01*
X183311593Y-66115461D01*
X183119002Y-65991690D01*
X183118986Y-65991681D01*
X182910752Y-65896584D01*
X182691087Y-65832084D01*
X182691076Y-65832081D01*
X182464476Y-65799501D01*
X182464466Y-65799500D01*
X182451983Y-65799500D01*
X182451973Y-65799499D01*
X182350000Y-65799499D01*
X182248027Y-65799499D01*
X182248016Y-65799500D01*
X182235533Y-65799500D01*
X182235523Y-65799501D01*
X182008923Y-65832081D01*
X182008912Y-65832084D01*
X181789247Y-65896584D01*
X181581013Y-65991681D01*
X181580997Y-65991690D01*
X181388406Y-66115461D01*
X181388399Y-66115467D01*
X181215385Y-66265383D01*
X181215383Y-66265385D01*
X181065467Y-66438399D01*
X181065461Y-66438406D01*
X180941690Y-66630997D01*
X180941681Y-66631013D01*
X180846584Y-66839247D01*
X180782084Y-67058912D01*
X180782081Y-67058923D01*
X180749501Y-67285526D01*
X180749500Y-67285530D01*
X180749500Y-67399997D01*
X180749499Y-67508085D01*
X171950500Y-67508085D01*
X171950500Y-67501978D01*
X171950501Y-67501973D01*
X171950500Y-67399997D01*
X171950500Y-67353080D01*
X171950500Y-67313389D01*
X171950499Y-67313384D01*
X171950499Y-67285527D01*
X171917917Y-67058918D01*
X171853417Y-66839253D01*
X171853416Y-66839251D01*
X171853415Y-66839247D01*
X171758318Y-66631013D01*
X171758309Y-66630997D01*
X171634538Y-66438406D01*
X171634532Y-66438399D01*
X171484616Y-66265385D01*
X171484614Y-66265383D01*
X171311600Y-66115467D01*
X171311593Y-66115461D01*
X171119002Y-65991690D01*
X171118986Y-65991681D01*
X170910752Y-65896584D01*
X170691087Y-65832084D01*
X170691076Y-65832081D01*
X170464476Y-65799501D01*
X170464466Y-65799500D01*
X170451983Y-65799500D01*
X170451973Y-65799499D01*
X170350000Y-65799499D01*
X170248027Y-65799499D01*
X170248016Y-65799500D01*
X170235533Y-65799500D01*
X170235523Y-65799501D01*
X170008923Y-65832081D01*
X170008912Y-65832084D01*
X169789247Y-65896584D01*
X169581013Y-65991681D01*
X169580997Y-65991690D01*
X169388406Y-66115461D01*
X169388399Y-66115467D01*
X169215385Y-66265383D01*
X169215383Y-66265385D01*
X169065467Y-66438399D01*
X169065461Y-66438406D01*
X168941690Y-66630997D01*
X168941681Y-66631013D01*
X168846584Y-66839247D01*
X168782084Y-67058912D01*
X168782081Y-67058923D01*
X168749501Y-67285526D01*
X168749500Y-67285530D01*
X168749500Y-67399997D01*
X168749499Y-67508085D01*
X166950500Y-67508085D01*
X166950500Y-66251978D01*
X166950501Y-66251973D01*
X166950500Y-66149997D01*
X166950500Y-66115462D01*
X166950500Y-66063389D01*
X166950500Y-66057276D01*
X166950499Y-66057254D01*
X166950499Y-66035528D01*
X166917918Y-65808922D01*
X166917915Y-65808912D01*
X166915152Y-65799500D01*
X166853417Y-65589253D01*
X166853416Y-65589251D01*
X166853415Y-65589247D01*
X166758318Y-65381013D01*
X166758309Y-65380997D01*
X166634538Y-65188406D01*
X166634532Y-65188399D01*
X166484616Y-65015385D01*
X166484614Y-65015383D01*
X166311600Y-64865467D01*
X166311593Y-64865461D01*
X166119002Y-64741690D01*
X166118986Y-64741681D01*
X165910752Y-64646584D01*
X165691087Y-64582084D01*
X165691076Y-64582081D01*
X165464476Y-64549501D01*
X165464466Y-64549500D01*
X165451983Y-64549500D01*
X165451973Y-64549499D01*
X165350000Y-64549499D01*
X165248027Y-64549499D01*
X165248016Y-64549500D01*
X165235533Y-64549500D01*
X165235523Y-64549501D01*
X165008923Y-64582081D01*
X165008912Y-64582084D01*
X164789247Y-64646584D01*
X164581013Y-64741681D01*
X164580997Y-64741690D01*
X164388406Y-64865461D01*
X164388399Y-64865467D01*
X164215385Y-65015383D01*
X164215383Y-65015385D01*
X164065467Y-65188399D01*
X164065461Y-65188406D01*
X163941690Y-65380997D01*
X163941681Y-65381013D01*
X163846584Y-65589247D01*
X163782084Y-65808912D01*
X163782081Y-65808923D01*
X163749501Y-66035526D01*
X163749500Y-66035530D01*
X163749500Y-66149997D01*
X163749499Y-66258085D01*
X154950500Y-66258085D01*
X154950500Y-66251978D01*
X154950501Y-66251973D01*
X154950500Y-66149997D01*
X154950500Y-66115462D01*
X154950500Y-66063389D01*
X154950500Y-66057276D01*
X154950499Y-66057254D01*
X154950499Y-66035528D01*
X154917918Y-65808922D01*
X154917915Y-65808912D01*
X154915152Y-65799500D01*
X154853417Y-65589253D01*
X154853416Y-65589251D01*
X154853415Y-65589247D01*
X154758318Y-65381013D01*
X154758309Y-65380997D01*
X154634538Y-65188406D01*
X154634532Y-65188399D01*
X154484616Y-65015385D01*
X154484614Y-65015383D01*
X154311600Y-64865467D01*
X154311593Y-64865461D01*
X154119002Y-64741690D01*
X154118986Y-64741681D01*
X153910752Y-64646584D01*
X153691087Y-64582084D01*
X153691076Y-64582081D01*
X153464476Y-64549501D01*
X153464466Y-64549500D01*
X153451983Y-64549500D01*
X153451973Y-64549499D01*
X153350000Y-64549499D01*
X153248027Y-64549499D01*
X153248016Y-64549500D01*
X153235533Y-64549500D01*
X153235523Y-64549501D01*
X153008923Y-64582081D01*
X153008912Y-64582084D01*
X152789247Y-64646584D01*
X152581013Y-64741681D01*
X152580997Y-64741690D01*
X152388406Y-64865461D01*
X152388399Y-64865467D01*
X152215385Y-65015383D01*
X152215383Y-65015385D01*
X152065467Y-65188399D01*
X152065461Y-65188406D01*
X151941690Y-65380997D01*
X151941681Y-65381013D01*
X151846584Y-65589247D01*
X151782084Y-65808912D01*
X151782081Y-65808923D01*
X151749501Y-66035526D01*
X151749500Y-66035530D01*
X151749500Y-66149997D01*
X151749499Y-66258085D01*
X149144513Y-66258085D01*
X149119002Y-66241690D01*
X149118986Y-66241681D01*
X148910752Y-66146584D01*
X148691087Y-66082084D01*
X148691076Y-66082081D01*
X148464476Y-66049501D01*
X148464466Y-66049500D01*
X148451983Y-66049500D01*
X148451973Y-66049499D01*
X148350000Y-66049499D01*
X148248027Y-66049499D01*
X148248016Y-66049500D01*
X148235533Y-66049500D01*
X148235523Y-66049501D01*
X148008923Y-66082081D01*
X148008912Y-66082084D01*
X147789247Y-66146584D01*
X147581013Y-66241681D01*
X147580997Y-66241690D01*
X147388406Y-66365461D01*
X147388399Y-66365467D01*
X147215385Y-66515383D01*
X147215383Y-66515385D01*
X147065467Y-66688399D01*
X147065461Y-66688406D01*
X146941690Y-66880997D01*
X146941681Y-66881013D01*
X146846584Y-67089247D01*
X146782084Y-67308912D01*
X146782081Y-67308923D01*
X146749501Y-67535526D01*
X146749500Y-67535530D01*
X146749500Y-67649997D01*
X146749499Y-67758085D01*
X137950500Y-67758085D01*
X137950500Y-67751978D01*
X137950501Y-67751973D01*
X137950500Y-67649997D01*
X137950500Y-67644576D01*
X137950500Y-67563389D01*
X137950499Y-67563384D01*
X137950499Y-67535527D01*
X137942261Y-67478232D01*
X137917918Y-67308922D01*
X137917915Y-67308912D01*
X137917429Y-67307255D01*
X137853417Y-67089253D01*
X137853416Y-67089251D01*
X137853415Y-67089247D01*
X137758318Y-66881013D01*
X137758309Y-66880997D01*
X137634538Y-66688406D01*
X137634532Y-66688399D01*
X137484616Y-66515385D01*
X137484614Y-66515383D01*
X137311600Y-66365467D01*
X137311593Y-66365461D01*
X137119002Y-66241690D01*
X137118986Y-66241681D01*
X136910752Y-66146584D01*
X136691087Y-66082084D01*
X136691076Y-66082081D01*
X136464476Y-66049501D01*
X136464466Y-66049500D01*
X136451983Y-66049500D01*
X136451973Y-66049499D01*
X136350000Y-66049499D01*
X136248027Y-66049499D01*
X136248016Y-66049500D01*
X136235533Y-66049500D01*
X136235523Y-66049501D01*
X136008923Y-66082081D01*
X136008912Y-66082084D01*
X135789247Y-66146584D01*
X135581013Y-66241681D01*
X135580997Y-66241690D01*
X135388406Y-66365461D01*
X135388399Y-66365467D01*
X135215385Y-66515383D01*
X135215383Y-66515385D01*
X135065467Y-66688399D01*
X135065461Y-66688406D01*
X134941690Y-66880997D01*
X134941681Y-66881013D01*
X134846584Y-67089247D01*
X134782084Y-67308912D01*
X134782081Y-67308923D01*
X134749501Y-67535526D01*
X134749500Y-67535530D01*
X134749500Y-67649997D01*
X134749499Y-67758085D01*
X98953974Y-67758085D01*
X98953975Y-56758085D01*
X100749499Y-56758085D01*
X100749500Y-56758106D01*
X100749500Y-60742892D01*
X100749499Y-60742918D01*
X100749500Y-60843719D01*
X100749500Y-60964469D01*
X100749501Y-60964473D01*
X100782081Y-61191076D01*
X100782084Y-61191087D01*
X100846584Y-61410752D01*
X100941681Y-61618986D01*
X100941690Y-61619002D01*
X101065461Y-61811593D01*
X101065467Y-61811600D01*
X101215383Y-61984614D01*
X101215385Y-61984616D01*
X101388399Y-62134532D01*
X101388406Y-62134538D01*
X101580997Y-62258309D01*
X101581013Y-62258318D01*
X101789247Y-62353415D01*
X101789251Y-62353416D01*
X101789253Y-62353417D01*
X102008918Y-62417917D01*
X102008919Y-62417917D01*
X102008922Y-62417918D01*
X102076492Y-62427632D01*
X102235527Y-62450499D01*
X102349997Y-62450500D01*
X102451973Y-62450501D01*
X102451984Y-62450499D01*
X102464468Y-62450499D01*
X102691078Y-62417918D01*
X102910745Y-62353418D01*
X102910748Y-62353416D01*
X102910750Y-62353416D01*
X103118984Y-62258319D01*
X103118988Y-62258316D01*
X103118996Y-62258313D01*
X103311593Y-62134539D01*
X103484615Y-61984615D01*
X103634539Y-61811593D01*
X103758313Y-61618996D01*
X103758318Y-61618986D01*
X103758319Y-61618984D01*
X103853416Y-61410750D01*
X103853417Y-61410747D01*
X103853418Y-61410745D01*
X103917918Y-61191078D01*
X103950499Y-60964468D01*
X103950499Y-60941746D01*
X103950500Y-60941721D01*
X103950500Y-56758085D01*
X112749499Y-56758085D01*
X112749500Y-56758096D01*
X112749500Y-60748021D01*
X112749499Y-60748027D01*
X112749500Y-60843719D01*
X112749500Y-60964469D01*
X112749501Y-60964473D01*
X112782081Y-61191076D01*
X112782084Y-61191087D01*
X112846584Y-61410752D01*
X112941681Y-61618986D01*
X112941690Y-61619002D01*
X113065461Y-61811593D01*
X113065467Y-61811600D01*
X113215383Y-61984614D01*
X113215385Y-61984616D01*
X113388399Y-62134532D01*
X113388406Y-62134538D01*
X113580997Y-62258309D01*
X113581013Y-62258318D01*
X113789247Y-62353415D01*
X113789251Y-62353416D01*
X113789253Y-62353417D01*
X114008918Y-62417917D01*
X114008919Y-62417917D01*
X114008922Y-62417918D01*
X114070299Y-62426742D01*
X114235527Y-62450499D01*
X114242428Y-62450499D01*
X114248016Y-62450499D01*
X114248027Y-62450501D01*
X114350000Y-62450500D01*
X114451973Y-62450501D01*
X114451978Y-62450500D01*
X114458075Y-62450500D01*
X114458116Y-62450499D01*
X114464472Y-62450499D01*
X114464473Y-62450499D01*
X114650470Y-62423756D01*
X114691077Y-62417918D01*
X114691078Y-62417917D01*
X114691082Y-62417917D01*
X114910747Y-62353417D01*
X114910750Y-62353415D01*
X114910752Y-62353415D01*
X115118986Y-62258318D01*
X115118990Y-62258315D01*
X115118998Y-62258312D01*
X115311594Y-62134538D01*
X115484615Y-61984615D01*
X115634538Y-61811594D01*
X115758312Y-61618998D01*
X115758315Y-61618990D01*
X115758318Y-61618986D01*
X115853415Y-61410752D01*
X115853415Y-61410750D01*
X115853417Y-61410747D01*
X115917917Y-61191082D01*
X115923564Y-61151808D01*
X204750714Y-61151808D01*
X204750715Y-61151829D01*
X204750715Y-63541750D01*
X204750714Y-63541756D01*
X204750715Y-63640650D01*
X204750715Y-63746081D01*
X204750716Y-63746083D01*
X204750716Y-63746084D01*
X204782739Y-63948265D01*
X204830820Y-64096243D01*
X204845997Y-64142951D01*
X204938929Y-64325338D01*
X205059250Y-64490945D01*
X205203996Y-64635691D01*
X205369603Y-64756012D01*
X205455774Y-64799918D01*
X205551989Y-64848943D01*
X205551991Y-64848943D01*
X205551994Y-64848945D01*
X205746676Y-64912202D01*
X205948857Y-64944225D01*
X205959470Y-64944225D01*
X205964598Y-64944225D01*
X205964604Y-64944226D01*
X206051208Y-64944226D01*
X206153185Y-64944227D01*
X206153190Y-64944226D01*
X207549240Y-64944226D01*
X207549245Y-64944227D01*
X207651222Y-64944226D01*
X207737826Y-64944226D01*
X207743940Y-64944226D01*
X207743960Y-64944225D01*
X207753572Y-64944225D01*
X207753573Y-64944225D01*
X207955754Y-64912202D01*
X208150436Y-64848945D01*
X208332827Y-64756012D01*
X208498434Y-64635691D01*
X208643180Y-64490945D01*
X208763501Y-64325338D01*
X208856434Y-64142947D01*
X208919691Y-63948265D01*
X208951714Y-63746084D01*
X208951714Y-63730342D01*
X208951715Y-63730337D01*
X208951715Y-63640650D01*
X208951716Y-63541756D01*
X208951715Y-63541750D01*
X208951715Y-61145701D01*
X208951716Y-61145696D01*
X208951715Y-61043719D01*
X208951715Y-60957115D01*
X208951715Y-60952005D01*
X208951714Y-60951979D01*
X208951714Y-60941368D01*
X208950956Y-60936583D01*
X208919691Y-60739187D01*
X208856434Y-60544505D01*
X208856432Y-60544502D01*
X208856432Y-60544500D01*
X208774927Y-60384539D01*
X208763501Y-60362114D01*
X208643180Y-60196507D01*
X208498434Y-60051761D01*
X208332827Y-59931440D01*
X208150440Y-59838508D01*
X208103732Y-59823331D01*
X207955754Y-59775250D01*
X207955748Y-59775249D01*
X207753574Y-59743227D01*
X207753570Y-59743226D01*
X207737831Y-59743226D01*
X207737826Y-59743226D01*
X207651222Y-59743226D01*
X207549245Y-59743225D01*
X207549240Y-59743226D01*
X206159318Y-59743226D01*
X206159297Y-59743225D01*
X206153185Y-59743225D01*
X206051208Y-59743226D01*
X205948859Y-59743226D01*
X205948855Y-59743227D01*
X205746681Y-59775249D01*
X205746679Y-59775249D01*
X205746676Y-59775250D01*
X205649335Y-59806878D01*
X205551989Y-59838508D01*
X205369602Y-59931440D01*
X205275117Y-60000088D01*
X205203996Y-60051761D01*
X205203994Y-60051763D01*
X205203993Y-60051763D01*
X205059252Y-60196504D01*
X205059252Y-60196505D01*
X205059250Y-60196507D01*
X205031564Y-60234614D01*
X204938929Y-60362113D01*
X204845997Y-60544500D01*
X204814367Y-60641846D01*
X204782739Y-60739187D01*
X204782738Y-60739190D01*
X204782738Y-60739192D01*
X204750716Y-60941366D01*
X204750715Y-60941370D01*
X204750715Y-61043720D01*
X204750714Y-61151808D01*
X115923564Y-61151808D01*
X115950499Y-60964473D01*
X115950499Y-60936615D01*
X115950500Y-60936611D01*
X115950500Y-60843719D01*
X115950501Y-60748027D01*
X115950500Y-60748021D01*
X115950500Y-56751978D01*
X115950501Y-56751973D01*
X115950500Y-56649997D01*
X115950500Y-56648021D01*
X115950500Y-56563389D01*
X115950500Y-56557276D01*
X115950499Y-56557254D01*
X115950499Y-56535528D01*
X115917918Y-56308922D01*
X115917915Y-56308912D01*
X115903060Y-56258319D01*
X115853417Y-56089253D01*
X115853416Y-56089251D01*
X115853415Y-56089247D01*
X115758318Y-55881013D01*
X115758309Y-55880997D01*
X115634538Y-55688406D01*
X115634532Y-55688399D01*
X115484616Y-55515385D01*
X115484614Y-55515383D01*
X115311600Y-55365467D01*
X115311593Y-55365461D01*
X115119002Y-55241690D01*
X115118986Y-55241681D01*
X114910752Y-55146584D01*
X114862351Y-55132372D01*
X114802684Y-55114852D01*
X114691087Y-55082084D01*
X114691076Y-55082081D01*
X114464476Y-55049501D01*
X114464466Y-55049500D01*
X114451983Y-55049500D01*
X114451973Y-55049499D01*
X114350000Y-55049499D01*
X114248027Y-55049499D01*
X114248016Y-55049500D01*
X114235533Y-55049500D01*
X114235523Y-55049501D01*
X114008923Y-55082081D01*
X114008912Y-55082084D01*
X113789247Y-55146584D01*
X113581013Y-55241681D01*
X113580997Y-55241690D01*
X113388406Y-55365461D01*
X113388399Y-55365467D01*
X113215385Y-55515383D01*
X113215383Y-55515385D01*
X113065467Y-55688399D01*
X113065461Y-55688406D01*
X112941690Y-55880997D01*
X112941681Y-55881013D01*
X112846584Y-56089247D01*
X112782084Y-56308912D01*
X112782081Y-56308923D01*
X112749501Y-56535526D01*
X112749500Y-56535530D01*
X112749500Y-56649997D01*
X112749499Y-56758085D01*
X103950500Y-56758085D01*
X103950500Y-56751978D01*
X103950501Y-56751973D01*
X103950500Y-56649997D01*
X103950500Y-56648021D01*
X103950500Y-56563389D01*
X103950499Y-56563384D01*
X103950499Y-56535527D01*
X103938274Y-56450499D01*
X103917918Y-56308922D01*
X103917915Y-56308912D01*
X103903060Y-56258319D01*
X103853417Y-56089253D01*
X103853416Y-56089251D01*
X103853415Y-56089247D01*
X103758318Y-55881013D01*
X103758309Y-55880997D01*
X103634538Y-55688406D01*
X103634532Y-55688399D01*
X103484616Y-55515385D01*
X103484614Y-55515383D01*
X103311600Y-55365467D01*
X103311593Y-55365461D01*
X103119002Y-55241690D01*
X103118986Y-55241681D01*
X102910752Y-55146584D01*
X102691087Y-55082084D01*
X102691076Y-55082081D01*
X102464476Y-55049501D01*
X102464466Y-55049500D01*
X102451983Y-55049500D01*
X102451973Y-55049499D01*
X102350000Y-55049499D01*
X102248027Y-55049499D01*
X102248016Y-55049500D01*
X102235533Y-55049500D01*
X102235523Y-55049501D01*
X102008923Y-55082081D01*
X102008912Y-55082084D01*
X101789247Y-55146584D01*
X101581013Y-55241681D01*
X101580997Y-55241690D01*
X101388406Y-55365461D01*
X101388399Y-55365467D01*
X101215385Y-55515383D01*
X101215383Y-55515385D01*
X101065467Y-55688399D01*
X101065461Y-55688406D01*
X100941690Y-55880997D01*
X100941681Y-55881013D01*
X100846584Y-56089247D01*
X100782084Y-56308912D01*
X100782081Y-56308923D01*
X100749501Y-56535526D01*
X100749500Y-56535530D01*
X100749500Y-56649997D01*
X100749499Y-56758085D01*
X98953975Y-56758085D01*
X98953975Y-55008085D01*
X117749499Y-55008085D01*
X117749500Y-55008106D01*
X117749500Y-58992892D01*
X117749499Y-58992918D01*
X117749500Y-59099997D01*
X117749500Y-59214469D01*
X117749501Y-59214473D01*
X117782081Y-59441076D01*
X117782084Y-59441087D01*
X117846584Y-59660752D01*
X117941681Y-59868986D01*
X117941690Y-59869002D01*
X118065461Y-60061593D01*
X118065467Y-60061600D01*
X118215383Y-60234614D01*
X118215385Y-60234616D01*
X118388399Y-60384532D01*
X118388406Y-60384538D01*
X118580997Y-60508309D01*
X118581013Y-60508318D01*
X118789247Y-60603415D01*
X118789251Y-60603416D01*
X118789253Y-60603417D01*
X119008918Y-60667917D01*
X119008919Y-60667917D01*
X119008922Y-60667918D01*
X119076492Y-60677632D01*
X119235527Y-60700499D01*
X119349997Y-60700500D01*
X119451973Y-60700501D01*
X119451984Y-60700499D01*
X119464468Y-60700499D01*
X119691078Y-60667918D01*
X119910745Y-60603418D01*
X119910748Y-60603416D01*
X119910750Y-60603416D01*
X120118984Y-60508319D01*
X120118988Y-60508316D01*
X120118996Y-60508313D01*
X120311593Y-60384539D01*
X120484615Y-60234615D01*
X120634539Y-60061593D01*
X120758313Y-59868996D01*
X120758318Y-59868986D01*
X120758319Y-59868984D01*
X120853416Y-59660750D01*
X120853417Y-59660747D01*
X120853418Y-59660745D01*
X120917918Y-59441078D01*
X120950499Y-59214468D01*
X120950499Y-59191746D01*
X120950500Y-59191721D01*
X120950500Y-55008085D01*
X129749499Y-55008085D01*
X129749500Y-55008106D01*
X129749500Y-58998021D01*
X129749499Y-58998027D01*
X129749500Y-59099997D01*
X129749500Y-59214469D01*
X129749501Y-59214473D01*
X129782081Y-59441076D01*
X129782084Y-59441087D01*
X129846584Y-59660752D01*
X129941681Y-59868986D01*
X129941690Y-59869002D01*
X130065461Y-60061593D01*
X130065467Y-60061600D01*
X130215383Y-60234614D01*
X130215385Y-60234616D01*
X130388399Y-60384532D01*
X130388406Y-60384538D01*
X130580997Y-60508309D01*
X130581013Y-60508318D01*
X130789247Y-60603415D01*
X130789251Y-60603416D01*
X130789253Y-60603417D01*
X131008918Y-60667917D01*
X131008919Y-60667917D01*
X131008922Y-60667918D01*
X131070299Y-60676742D01*
X131235527Y-60700499D01*
X131242428Y-60700499D01*
X131248016Y-60700499D01*
X131248027Y-60700501D01*
X131350000Y-60700500D01*
X131451973Y-60700501D01*
X131451978Y-60700500D01*
X131458075Y-60700500D01*
X131458116Y-60700499D01*
X131464472Y-60700499D01*
X131464473Y-60700499D01*
X131650470Y-60673756D01*
X131691077Y-60667918D01*
X131691078Y-60667917D01*
X131691082Y-60667917D01*
X131910747Y-60603417D01*
X131910750Y-60603415D01*
X131910752Y-60603415D01*
X132118986Y-60508318D01*
X132118990Y-60508315D01*
X132118998Y-60508312D01*
X132311594Y-60384538D01*
X132484615Y-60234615D01*
X132634538Y-60061594D01*
X132758312Y-59868998D01*
X132758315Y-59868990D01*
X132758318Y-59868986D01*
X132853415Y-59660752D01*
X132853415Y-59660750D01*
X132853417Y-59660747D01*
X132917917Y-59441082D01*
X132950499Y-59214473D01*
X132950499Y-59186615D01*
X132950500Y-59186611D01*
X132950500Y-59099997D01*
X132950501Y-58998027D01*
X132950500Y-58998021D01*
X132950500Y-55001978D01*
X132950501Y-55001973D01*
X132950500Y-54899997D01*
X132950500Y-54849997D01*
X132950500Y-54813389D01*
X132950500Y-54807276D01*
X132950499Y-54807254D01*
X132950499Y-54785528D01*
X132917918Y-54558921D01*
X132917915Y-54558912D01*
X132900038Y-54498027D01*
X132853417Y-54339253D01*
X132853416Y-54339251D01*
X132853415Y-54339247D01*
X132758318Y-54131013D01*
X132758309Y-54130997D01*
X132634538Y-53938406D01*
X132634532Y-53938399D01*
X132484616Y-53765385D01*
X132484614Y-53765383D01*
X132311600Y-53615467D01*
X132311593Y-53615461D01*
X132119002Y-53491690D01*
X132118986Y-53491681D01*
X131910752Y-53396584D01*
X131691087Y-53332084D01*
X131691076Y-53332081D01*
X131464476Y-53299501D01*
X131464466Y-53299500D01*
X131451983Y-53299500D01*
X131451973Y-53299499D01*
X131350000Y-53299499D01*
X131248027Y-53299499D01*
X131248016Y-53299500D01*
X131235533Y-53299500D01*
X131235523Y-53299501D01*
X131008923Y-53332081D01*
X131008912Y-53332084D01*
X130789247Y-53396584D01*
X130581013Y-53491681D01*
X130580997Y-53491690D01*
X130388406Y-53615461D01*
X130388399Y-53615467D01*
X130215385Y-53765383D01*
X130215383Y-53765385D01*
X130065467Y-53938399D01*
X130065461Y-53938406D01*
X129941690Y-54130997D01*
X129941681Y-54131013D01*
X129846584Y-54339247D01*
X129782084Y-54558912D01*
X129782082Y-54558921D01*
X129749501Y-54785526D01*
X129749500Y-54785530D01*
X129749500Y-54899997D01*
X129749499Y-55008085D01*
X120950500Y-55008085D01*
X120950500Y-55001978D01*
X120950501Y-55001973D01*
X120950500Y-54899997D01*
X120950500Y-54849997D01*
X120950500Y-54813389D01*
X120950499Y-54813384D01*
X120950499Y-54785527D01*
X120936278Y-54686617D01*
X120917918Y-54558921D01*
X120917915Y-54558912D01*
X120900038Y-54498027D01*
X120853417Y-54339253D01*
X120853416Y-54339251D01*
X120853415Y-54339247D01*
X120758318Y-54131013D01*
X120758309Y-54130997D01*
X120634538Y-53938406D01*
X120634532Y-53938399D01*
X120484616Y-53765385D01*
X120484614Y-53765383D01*
X120311600Y-53615467D01*
X120311593Y-53615461D01*
X120119002Y-53491690D01*
X120118986Y-53491681D01*
X119910752Y-53396584D01*
X119691087Y-53332084D01*
X119691076Y-53332081D01*
X119464476Y-53299501D01*
X119464466Y-53299500D01*
X119451983Y-53299500D01*
X119451973Y-53299499D01*
X119350000Y-53299499D01*
X119248027Y-53299499D01*
X119248016Y-53299500D01*
X119235533Y-53299500D01*
X119235523Y-53299501D01*
X119008923Y-53332081D01*
X119008912Y-53332084D01*
X118789247Y-53396584D01*
X118581013Y-53491681D01*
X118580997Y-53491690D01*
X118388406Y-53615461D01*
X118388399Y-53615467D01*
X118215385Y-53765383D01*
X118215383Y-53765385D01*
X118065467Y-53938399D01*
X118065461Y-53938406D01*
X117941690Y-54130997D01*
X117941681Y-54131013D01*
X117846584Y-54339247D01*
X117782084Y-54558912D01*
X117782082Y-54558921D01*
X117749501Y-54785526D01*
X117749500Y-54785530D01*
X117749500Y-54899997D01*
X117749499Y-55008085D01*
X98953975Y-55008085D01*
X98953975Y-52652380D01*
X98954111Y-52646622D01*
X98971030Y-52288120D01*
X98972131Y-52276488D01*
X99022318Y-51924100D01*
X99024503Y-51912653D01*
X99107656Y-51566540D01*
X99110915Y-51555333D01*
X99226285Y-51218613D01*
X99230584Y-51207763D01*
X99377163Y-50883377D01*
X99382458Y-50872994D01*
X99448055Y-50758085D01*
X134749499Y-50758085D01*
X134749500Y-50758106D01*
X134749500Y-54748021D01*
X134749499Y-54748027D01*
X134749500Y-54785526D01*
X134749500Y-54964469D01*
X134749501Y-54964473D01*
X134782081Y-55191076D01*
X134782084Y-55191087D01*
X134846584Y-55410752D01*
X134941681Y-55618986D01*
X134941690Y-55619002D01*
X135065461Y-55811593D01*
X135065467Y-55811600D01*
X135215383Y-55984614D01*
X135215385Y-55984616D01*
X135388399Y-56134532D01*
X135388406Y-56134538D01*
X135580997Y-56258309D01*
X135581013Y-56258318D01*
X135789247Y-56353415D01*
X135789251Y-56353416D01*
X135789253Y-56353417D01*
X136008918Y-56417917D01*
X136008919Y-56417917D01*
X136008922Y-56417918D01*
X136076492Y-56427632D01*
X136235527Y-56450499D01*
X136349997Y-56450500D01*
X136451973Y-56450501D01*
X136451984Y-56450499D01*
X136464468Y-56450499D01*
X136691078Y-56417918D01*
X136910745Y-56353418D01*
X136910748Y-56353416D01*
X136910750Y-56353416D01*
X137118984Y-56258319D01*
X137118988Y-56258316D01*
X137118996Y-56258313D01*
X137311593Y-56134539D01*
X137484615Y-55984615D01*
X137634539Y-55811593D01*
X137758313Y-55618996D01*
X137758318Y-55618986D01*
X137758319Y-55618984D01*
X137853416Y-55410750D01*
X137853417Y-55410747D01*
X137853418Y-55410745D01*
X137917918Y-55191078D01*
X137950499Y-54964468D01*
X137950499Y-54941746D01*
X137950500Y-54941721D01*
X137950500Y-50758085D01*
X146749499Y-50758085D01*
X146749500Y-50758106D01*
X146749500Y-54748021D01*
X146749499Y-54748027D01*
X146749500Y-54785526D01*
X146749500Y-54964469D01*
X146749501Y-54964473D01*
X146782081Y-55191076D01*
X146782084Y-55191087D01*
X146846584Y-55410752D01*
X146941681Y-55618986D01*
X146941690Y-55619002D01*
X147065461Y-55811593D01*
X147065467Y-55811600D01*
X147215383Y-55984614D01*
X147215385Y-55984616D01*
X147388399Y-56134532D01*
X147388406Y-56134538D01*
X147580997Y-56258309D01*
X147581013Y-56258318D01*
X147789247Y-56353415D01*
X147789251Y-56353416D01*
X147789253Y-56353417D01*
X148008918Y-56417917D01*
X148008919Y-56417917D01*
X148008922Y-56417918D01*
X148070299Y-56426742D01*
X148235527Y-56450499D01*
X148242428Y-56450499D01*
X148248016Y-56450499D01*
X148248027Y-56450501D01*
X148350000Y-56450500D01*
X148451973Y-56450501D01*
X148451978Y-56450500D01*
X148458075Y-56450500D01*
X148458116Y-56450499D01*
X148464472Y-56450499D01*
X148464473Y-56450499D01*
X148650470Y-56423756D01*
X148691077Y-56417918D01*
X148691078Y-56417917D01*
X148691082Y-56417917D01*
X148910747Y-56353417D01*
X148910750Y-56353415D01*
X148910752Y-56353415D01*
X149118986Y-56258318D01*
X149118990Y-56258315D01*
X149118998Y-56258312D01*
X149311594Y-56134538D01*
X149484615Y-55984615D01*
X149634538Y-55811594D01*
X149758312Y-55618998D01*
X149758315Y-55618990D01*
X149758318Y-55618986D01*
X149853415Y-55410752D01*
X149853415Y-55410750D01*
X149853417Y-55410747D01*
X149917917Y-55191082D01*
X149950499Y-54964473D01*
X149950499Y-54936615D01*
X149950500Y-54936611D01*
X149950500Y-54799247D01*
X149950501Y-54748027D01*
X149950500Y-54748021D01*
X149950500Y-50751978D01*
X149950501Y-50751973D01*
X149950500Y-50649997D01*
X149950500Y-50644576D01*
X149950500Y-50563389D01*
X149950500Y-50557276D01*
X149950499Y-50557254D01*
X149950499Y-50535528D01*
X149917918Y-50308922D01*
X149917915Y-50308912D01*
X149917429Y-50307255D01*
X149853417Y-50089253D01*
X149853416Y-50089251D01*
X149853415Y-50089247D01*
X149758318Y-49881013D01*
X149758309Y-49880997D01*
X149634538Y-49688406D01*
X149634532Y-49688399D01*
X149484616Y-49515385D01*
X149484614Y-49515383D01*
X149311600Y-49365467D01*
X149311595Y-49365463D01*
X149311594Y-49365462D01*
X149192525Y-49288941D01*
X149144513Y-49258085D01*
X151749499Y-49258085D01*
X151749500Y-49258106D01*
X151749500Y-53242893D01*
X151749499Y-53242919D01*
X151749500Y-53299499D01*
X151749500Y-53464469D01*
X151749501Y-53464473D01*
X151782081Y-53691076D01*
X151782084Y-53691087D01*
X151846584Y-53910752D01*
X151941681Y-54118986D01*
X151941690Y-54119002D01*
X152065461Y-54311593D01*
X152065467Y-54311600D01*
X152215383Y-54484614D01*
X152215385Y-54484616D01*
X152388399Y-54634532D01*
X152388406Y-54634538D01*
X152580997Y-54758309D01*
X152581013Y-54758318D01*
X152789247Y-54853415D01*
X152789251Y-54853416D01*
X152789253Y-54853417D01*
X153008918Y-54917917D01*
X153008919Y-54917917D01*
X153008922Y-54917918D01*
X153076492Y-54927632D01*
X153235527Y-54950499D01*
X153349997Y-54950500D01*
X153451973Y-54950501D01*
X153451984Y-54950499D01*
X153464468Y-54950499D01*
X153691078Y-54917918D01*
X153910745Y-54853418D01*
X153910748Y-54853416D01*
X153910750Y-54853416D01*
X154118984Y-54758319D01*
X154118988Y-54758316D01*
X154118996Y-54758313D01*
X154311593Y-54634539D01*
X154484615Y-54484615D01*
X154634539Y-54311593D01*
X154758313Y-54118996D01*
X154758318Y-54118986D01*
X154758319Y-54118984D01*
X154853416Y-53910750D01*
X154853417Y-53910747D01*
X154853418Y-53910745D01*
X154917918Y-53691078D01*
X154950499Y-53464468D01*
X154950499Y-53441746D01*
X154950500Y-53441721D01*
X154950500Y-49258085D01*
X163749499Y-49258085D01*
X163749500Y-49258106D01*
X163749500Y-53248021D01*
X163749499Y-53248027D01*
X163749500Y-53299499D01*
X163749500Y-53464469D01*
X163749501Y-53464473D01*
X163782081Y-53691076D01*
X163782084Y-53691087D01*
X163846584Y-53910752D01*
X163941681Y-54118986D01*
X163941690Y-54119002D01*
X164065461Y-54311593D01*
X164065467Y-54311600D01*
X164215383Y-54484614D01*
X164215385Y-54484616D01*
X164388399Y-54634532D01*
X164388406Y-54634538D01*
X164580997Y-54758309D01*
X164581013Y-54758318D01*
X164789247Y-54853415D01*
X164789251Y-54853416D01*
X164789253Y-54853417D01*
X165008918Y-54917917D01*
X165008919Y-54917917D01*
X165008922Y-54917918D01*
X165070299Y-54926742D01*
X165235527Y-54950499D01*
X165242428Y-54950499D01*
X165248016Y-54950499D01*
X165248027Y-54950501D01*
X165350000Y-54950500D01*
X165451973Y-54950501D01*
X165451978Y-54950500D01*
X165458075Y-54950500D01*
X165458116Y-54950499D01*
X165464472Y-54950499D01*
X165464473Y-54950499D01*
X165650470Y-54923756D01*
X165691077Y-54917918D01*
X165691078Y-54917917D01*
X165691082Y-54917917D01*
X165910747Y-54853417D01*
X165910750Y-54853415D01*
X165910752Y-54853415D01*
X166118986Y-54758318D01*
X166118990Y-54758315D01*
X166118998Y-54758312D01*
X166311594Y-54634538D01*
X166484615Y-54484615D01*
X166634538Y-54311594D01*
X166758312Y-54118998D01*
X166758315Y-54118990D01*
X166758318Y-54118986D01*
X166853415Y-53910752D01*
X166853415Y-53910750D01*
X166853417Y-53910747D01*
X166917917Y-53691082D01*
X166950499Y-53464473D01*
X166950499Y-53436615D01*
X166950500Y-53436611D01*
X166950500Y-53299499D01*
X166950501Y-53248027D01*
X166950500Y-53248021D01*
X166950500Y-50508085D01*
X168749499Y-50508085D01*
X168749500Y-50508106D01*
X168749500Y-54492893D01*
X168749499Y-54492919D01*
X168749500Y-54558918D01*
X168749500Y-54714469D01*
X168749501Y-54714473D01*
X168782081Y-54941076D01*
X168782084Y-54941087D01*
X168846584Y-55160752D01*
X168941681Y-55368986D01*
X168941690Y-55369002D01*
X169065461Y-55561593D01*
X169065467Y-55561600D01*
X169215383Y-55734614D01*
X169215385Y-55734616D01*
X169388399Y-55884532D01*
X169388406Y-55884538D01*
X169580997Y-56008309D01*
X169581013Y-56008318D01*
X169789247Y-56103415D01*
X169789251Y-56103416D01*
X169789253Y-56103417D01*
X170008918Y-56167917D01*
X170008919Y-56167917D01*
X170008922Y-56167918D01*
X170076492Y-56177632D01*
X170235527Y-56200499D01*
X170349997Y-56200500D01*
X170451973Y-56200501D01*
X170451984Y-56200499D01*
X170464468Y-56200499D01*
X170691078Y-56167918D01*
X170910745Y-56103418D01*
X170910748Y-56103416D01*
X170910750Y-56103416D01*
X171118984Y-56008319D01*
X171118988Y-56008316D01*
X171118996Y-56008313D01*
X171311593Y-55884539D01*
X171484615Y-55734615D01*
X171634539Y-55561593D01*
X171758313Y-55368996D01*
X171758318Y-55368986D01*
X171758319Y-55368984D01*
X171853416Y-55160750D01*
X171853417Y-55160747D01*
X171853418Y-55160745D01*
X171917918Y-54941078D01*
X171950499Y-54714468D01*
X171950499Y-54691746D01*
X171950500Y-54691721D01*
X171950500Y-50508085D01*
X180749499Y-50508085D01*
X180749500Y-50508106D01*
X180749500Y-54498021D01*
X180749499Y-54498027D01*
X180749500Y-54558912D01*
X180749500Y-54714469D01*
X180749501Y-54714473D01*
X180782081Y-54941076D01*
X180782084Y-54941087D01*
X180846584Y-55160752D01*
X180941681Y-55368986D01*
X180941690Y-55369002D01*
X181065461Y-55561593D01*
X181065467Y-55561600D01*
X181215383Y-55734614D01*
X181215385Y-55734616D01*
X181388399Y-55884532D01*
X181388406Y-55884538D01*
X181580997Y-56008309D01*
X181581013Y-56008318D01*
X181789247Y-56103415D01*
X181789251Y-56103416D01*
X181789253Y-56103417D01*
X182008918Y-56167917D01*
X182008919Y-56167917D01*
X182008922Y-56167918D01*
X182070299Y-56176742D01*
X182235527Y-56200499D01*
X182242428Y-56200499D01*
X182248016Y-56200499D01*
X182248027Y-56200501D01*
X182350000Y-56200500D01*
X182451973Y-56200501D01*
X182451978Y-56200500D01*
X182458075Y-56200500D01*
X182458116Y-56200499D01*
X182464472Y-56200499D01*
X182464473Y-56200499D01*
X182650470Y-56173756D01*
X182691077Y-56167918D01*
X182691078Y-56167917D01*
X182691082Y-56167917D01*
X182910747Y-56103417D01*
X182910750Y-56103415D01*
X182910752Y-56103415D01*
X183118986Y-56008318D01*
X183118990Y-56008315D01*
X183118998Y-56008312D01*
X183311594Y-55884538D01*
X183484615Y-55734615D01*
X183634538Y-55561594D01*
X183758312Y-55368998D01*
X183758315Y-55368990D01*
X183758318Y-55368986D01*
X183853415Y-55160752D01*
X183853415Y-55160750D01*
X183853417Y-55160747D01*
X183917917Y-54941082D01*
X183918560Y-54936615D01*
X183930521Y-54853418D01*
X183950499Y-54714473D01*
X183950499Y-54686615D01*
X183950500Y-54686611D01*
X183950500Y-54558918D01*
X183950501Y-54498027D01*
X183950500Y-54498021D01*
X183950500Y-52658085D01*
X185749499Y-52658085D01*
X185749500Y-52658106D01*
X185749500Y-56642893D01*
X185749499Y-56642919D01*
X185749500Y-56731818D01*
X185749500Y-56864469D01*
X185749501Y-56864473D01*
X185782081Y-57091076D01*
X185782084Y-57091087D01*
X185846584Y-57310752D01*
X185941681Y-57518986D01*
X185941690Y-57519002D01*
X186065461Y-57711593D01*
X186065467Y-57711600D01*
X186215383Y-57884614D01*
X186215385Y-57884616D01*
X186388399Y-58034532D01*
X186388406Y-58034538D01*
X186580997Y-58158309D01*
X186581013Y-58158318D01*
X186789247Y-58253415D01*
X186789251Y-58253416D01*
X186789253Y-58253417D01*
X187008918Y-58317917D01*
X187008919Y-58317917D01*
X187008922Y-58317918D01*
X187076492Y-58327632D01*
X187235527Y-58350499D01*
X187349997Y-58350500D01*
X187451973Y-58350501D01*
X187451984Y-58350499D01*
X187464468Y-58350499D01*
X187691078Y-58317918D01*
X187910745Y-58253418D01*
X187910748Y-58253416D01*
X187910750Y-58253416D01*
X188118984Y-58158319D01*
X188118988Y-58158316D01*
X188118996Y-58158313D01*
X188311593Y-58034539D01*
X188484615Y-57884615D01*
X188634539Y-57711593D01*
X188758313Y-57518996D01*
X188758318Y-57518986D01*
X188758319Y-57518984D01*
X188853416Y-57310750D01*
X188853417Y-57310747D01*
X188853418Y-57310745D01*
X188917918Y-57091078D01*
X188950499Y-56864468D01*
X188950499Y-56841746D01*
X188950500Y-56841721D01*
X188950500Y-52658085D01*
X197749499Y-52658085D01*
X197749500Y-52658106D01*
X197749500Y-56648021D01*
X197749499Y-56648027D01*
X197749500Y-56731818D01*
X197749500Y-56864469D01*
X197749501Y-56864473D01*
X197782081Y-57091076D01*
X197782084Y-57091087D01*
X197846584Y-57310752D01*
X197941681Y-57518986D01*
X197941690Y-57519002D01*
X198065461Y-57711593D01*
X198065467Y-57711600D01*
X198215383Y-57884614D01*
X198215385Y-57884616D01*
X198388399Y-58034532D01*
X198388406Y-58034538D01*
X198580997Y-58158309D01*
X198581013Y-58158318D01*
X198789247Y-58253415D01*
X198789251Y-58253416D01*
X198789253Y-58253417D01*
X199008918Y-58317917D01*
X199008919Y-58317917D01*
X199008922Y-58317918D01*
X199070299Y-58326742D01*
X199235527Y-58350499D01*
X199242428Y-58350499D01*
X199248016Y-58350499D01*
X199248027Y-58350501D01*
X199350000Y-58350500D01*
X199451973Y-58350501D01*
X199451978Y-58350500D01*
X199458075Y-58350500D01*
X199458116Y-58350499D01*
X199464472Y-58350499D01*
X199464473Y-58350499D01*
X199650470Y-58323756D01*
X199691077Y-58317918D01*
X199691078Y-58317917D01*
X199691082Y-58317917D01*
X199910747Y-58253417D01*
X199910750Y-58253415D01*
X199910752Y-58253415D01*
X200118986Y-58158318D01*
X200118990Y-58158315D01*
X200118998Y-58158312D01*
X200311594Y-58034538D01*
X200484615Y-57884615D01*
X200634538Y-57711594D01*
X200758312Y-57518998D01*
X200758315Y-57518990D01*
X200758318Y-57518986D01*
X200853415Y-57310752D01*
X200853415Y-57310750D01*
X200853417Y-57310747D01*
X200917917Y-57091082D01*
X200950499Y-56864473D01*
X200950499Y-56836615D01*
X200950500Y-56836611D01*
X200950500Y-56731818D01*
X200950501Y-56648027D01*
X200950500Y-56648021D01*
X200950500Y-52651978D01*
X200950501Y-52651973D01*
X200950500Y-52549997D01*
X200950500Y-52533234D01*
X200950500Y-52463389D01*
X200950500Y-52457276D01*
X200950499Y-52457254D01*
X200950499Y-52435528D01*
X200947641Y-52415653D01*
X200942261Y-52378232D01*
X200917918Y-52208922D01*
X200917915Y-52208912D01*
X200853415Y-51989247D01*
X200758318Y-51781013D01*
X200758309Y-51780997D01*
X200634538Y-51588406D01*
X200634532Y-51588399D01*
X200484616Y-51415385D01*
X200484614Y-51415383D01*
X200311600Y-51265467D01*
X200311593Y-51265461D01*
X200119002Y-51141690D01*
X200118986Y-51141681D01*
X199910752Y-51046584D01*
X199691087Y-50982084D01*
X199691076Y-50982081D01*
X199464476Y-50949501D01*
X199464466Y-50949500D01*
X199451983Y-50949500D01*
X199451973Y-50949499D01*
X199350000Y-50949499D01*
X199248027Y-50949499D01*
X199248016Y-50949500D01*
X199235533Y-50949500D01*
X199235523Y-50949501D01*
X199008923Y-50982081D01*
X199008912Y-50982084D01*
X198789247Y-51046584D01*
X198581013Y-51141681D01*
X198580997Y-51141690D01*
X198388406Y-51265461D01*
X198388399Y-51265467D01*
X198215385Y-51415383D01*
X198215383Y-51415385D01*
X198065467Y-51588399D01*
X198065461Y-51588406D01*
X197941690Y-51780997D01*
X197941681Y-51781013D01*
X197846584Y-51989247D01*
X197782084Y-52208912D01*
X197782081Y-52208923D01*
X197749501Y-52435526D01*
X197749500Y-52435530D01*
X197749500Y-52549997D01*
X197749499Y-52658085D01*
X188950500Y-52658085D01*
X188950500Y-52651978D01*
X188950501Y-52651973D01*
X188950500Y-52549997D01*
X188950500Y-52533234D01*
X188950500Y-52463389D01*
X188950499Y-52463384D01*
X188950499Y-52435527D01*
X188942261Y-52378232D01*
X188917918Y-52208922D01*
X188917915Y-52208912D01*
X188853415Y-51989247D01*
X188758318Y-51781013D01*
X188758309Y-51780997D01*
X188634538Y-51588406D01*
X188634532Y-51588399D01*
X188484616Y-51415385D01*
X188484614Y-51415383D01*
X188311600Y-51265467D01*
X188311593Y-51265461D01*
X188119002Y-51141690D01*
X188118986Y-51141681D01*
X187910752Y-51046584D01*
X187691087Y-50982084D01*
X187691076Y-50982081D01*
X187464476Y-50949501D01*
X187464466Y-50949500D01*
X187451983Y-50949500D01*
X187451973Y-50949499D01*
X187350000Y-50949499D01*
X187248027Y-50949499D01*
X187248016Y-50949500D01*
X187235533Y-50949500D01*
X187235523Y-50949501D01*
X187008923Y-50982081D01*
X187008912Y-50982084D01*
X186789247Y-51046584D01*
X186581013Y-51141681D01*
X186580997Y-51141690D01*
X186388406Y-51265461D01*
X186388399Y-51265467D01*
X186215385Y-51415383D01*
X186215383Y-51415385D01*
X186065467Y-51588399D01*
X186065461Y-51588406D01*
X185941690Y-51780997D01*
X185941681Y-51781013D01*
X185846584Y-51989247D01*
X185782084Y-52208912D01*
X185782081Y-52208923D01*
X185749501Y-52435526D01*
X185749500Y-52435530D01*
X185749500Y-52549997D01*
X185749499Y-52658085D01*
X183950500Y-52658085D01*
X183950500Y-50501978D01*
X183950501Y-50501973D01*
X183950500Y-50399997D01*
X183950500Y-50353080D01*
X183950500Y-50313389D01*
X183950500Y-50307276D01*
X183950499Y-50307254D01*
X183950499Y-50285528D01*
X183917918Y-50058922D01*
X183917915Y-50058912D01*
X183894356Y-49978676D01*
X183853417Y-49839253D01*
X183853416Y-49839251D01*
X183853415Y-49839247D01*
X183758318Y-49631013D01*
X183758309Y-49630997D01*
X183634538Y-49438406D01*
X183634532Y-49438399D01*
X183484616Y-49265385D01*
X183484614Y-49265383D01*
X183311600Y-49115467D01*
X183311593Y-49115461D01*
X183119002Y-48991690D01*
X183118986Y-48991681D01*
X182910752Y-48896584D01*
X182691087Y-48832084D01*
X182691076Y-48832081D01*
X182464476Y-48799501D01*
X182464466Y-48799500D01*
X182451983Y-48799500D01*
X182451973Y-48799499D01*
X182350000Y-48799499D01*
X182248027Y-48799499D01*
X182248016Y-48799500D01*
X182235533Y-48799500D01*
X182235523Y-48799501D01*
X182008923Y-48832081D01*
X182008912Y-48832084D01*
X181789247Y-48896584D01*
X181581013Y-48991681D01*
X181580997Y-48991690D01*
X181388406Y-49115461D01*
X181388399Y-49115467D01*
X181215385Y-49265383D01*
X181215383Y-49265385D01*
X181065467Y-49438399D01*
X181065461Y-49438406D01*
X180941690Y-49630997D01*
X180941681Y-49631013D01*
X180846584Y-49839247D01*
X180782084Y-50058912D01*
X180782081Y-50058923D01*
X180749501Y-50285526D01*
X180749500Y-50285530D01*
X180749500Y-50399997D01*
X180749499Y-50508085D01*
X171950500Y-50508085D01*
X171950500Y-50501978D01*
X171950501Y-50501973D01*
X171950500Y-50399997D01*
X171950500Y-50353080D01*
X171950500Y-50313389D01*
X171950499Y-50313384D01*
X171950499Y-50285527D01*
X171917917Y-50058918D01*
X171853417Y-49839253D01*
X171853416Y-49839251D01*
X171853415Y-49839247D01*
X171758318Y-49631013D01*
X171758309Y-49630997D01*
X171634538Y-49438406D01*
X171634532Y-49438399D01*
X171484616Y-49265385D01*
X171484614Y-49265383D01*
X171311600Y-49115467D01*
X171311593Y-49115461D01*
X171119002Y-48991690D01*
X171118986Y-48991681D01*
X170910752Y-48896584D01*
X170691087Y-48832084D01*
X170691076Y-48832081D01*
X170464476Y-48799501D01*
X170464466Y-48799500D01*
X170451983Y-48799500D01*
X170451973Y-48799499D01*
X170350000Y-48799499D01*
X170248027Y-48799499D01*
X170248016Y-48799500D01*
X170235533Y-48799500D01*
X170235523Y-48799501D01*
X170008923Y-48832081D01*
X170008912Y-48832084D01*
X169789247Y-48896584D01*
X169581013Y-48991681D01*
X169580997Y-48991690D01*
X169388406Y-49115461D01*
X169388399Y-49115467D01*
X169215385Y-49265383D01*
X169215383Y-49265385D01*
X169065467Y-49438399D01*
X169065461Y-49438406D01*
X168941690Y-49630997D01*
X168941681Y-49631013D01*
X168846584Y-49839247D01*
X168782084Y-50058912D01*
X168782081Y-50058923D01*
X168749501Y-50285526D01*
X168749500Y-50285530D01*
X168749500Y-50399997D01*
X168749499Y-50508085D01*
X166950500Y-50508085D01*
X166950500Y-49251978D01*
X166950501Y-49251973D01*
X166950500Y-49149997D01*
X166950500Y-49115462D01*
X166950500Y-49063389D01*
X166950500Y-49057276D01*
X166950499Y-49057254D01*
X166950499Y-49035528D01*
X166917918Y-48808922D01*
X166917915Y-48808912D01*
X166916820Y-48805181D01*
X166853417Y-48589253D01*
X166853416Y-48589251D01*
X166853415Y-48589247D01*
X166758318Y-48381013D01*
X166758309Y-48380997D01*
X166634538Y-48188406D01*
X166634532Y-48188399D01*
X166484616Y-48015385D01*
X166484614Y-48015383D01*
X166311600Y-47865467D01*
X166311593Y-47865461D01*
X166119002Y-47741690D01*
X166118986Y-47741681D01*
X165910752Y-47646584D01*
X165691087Y-47582084D01*
X165691076Y-47582081D01*
X165464476Y-47549501D01*
X165464466Y-47549500D01*
X165451983Y-47549500D01*
X165451973Y-47549499D01*
X165350000Y-47549499D01*
X165248027Y-47549499D01*
X165248016Y-47549500D01*
X165235533Y-47549500D01*
X165235523Y-47549501D01*
X165008923Y-47582081D01*
X165008912Y-47582084D01*
X164789247Y-47646584D01*
X164581013Y-47741681D01*
X164580997Y-47741690D01*
X164388406Y-47865461D01*
X164388399Y-47865467D01*
X164215385Y-48015383D01*
X164215383Y-48015385D01*
X164065467Y-48188399D01*
X164065461Y-48188406D01*
X163941690Y-48380997D01*
X163941681Y-48381013D01*
X163846584Y-48589247D01*
X163782084Y-48808912D01*
X163782081Y-48808923D01*
X163749501Y-49035526D01*
X163749500Y-49035530D01*
X163749500Y-49149997D01*
X163749499Y-49258085D01*
X154950500Y-49258085D01*
X154950500Y-49251978D01*
X154950501Y-49251973D01*
X154950500Y-49149997D01*
X154950500Y-49115462D01*
X154950500Y-49063389D01*
X154950499Y-49063384D01*
X154950499Y-49035527D01*
X154921248Y-48832083D01*
X154917918Y-48808922D01*
X154917915Y-48808912D01*
X154916820Y-48805181D01*
X154853417Y-48589253D01*
X154853416Y-48589251D01*
X154853415Y-48589247D01*
X154758318Y-48381013D01*
X154758309Y-48380997D01*
X154634538Y-48188406D01*
X154634532Y-48188399D01*
X154484616Y-48015385D01*
X154484614Y-48015383D01*
X154311600Y-47865467D01*
X154311593Y-47865461D01*
X154119002Y-47741690D01*
X154118986Y-47741681D01*
X153910752Y-47646584D01*
X153691087Y-47582084D01*
X153691076Y-47582081D01*
X153464476Y-47549501D01*
X153464466Y-47549500D01*
X153451983Y-47549500D01*
X153451973Y-47549499D01*
X153350000Y-47549499D01*
X153248027Y-47549499D01*
X153248016Y-47549500D01*
X153235533Y-47549500D01*
X153235523Y-47549501D01*
X153008923Y-47582081D01*
X153008912Y-47582084D01*
X152789247Y-47646584D01*
X152581013Y-47741681D01*
X152580997Y-47741690D01*
X152388406Y-47865461D01*
X152388399Y-47865467D01*
X152215385Y-48015383D01*
X152215383Y-48015385D01*
X152065467Y-48188399D01*
X152065461Y-48188406D01*
X151941690Y-48380997D01*
X151941681Y-48381013D01*
X151846584Y-48589247D01*
X151782084Y-48808912D01*
X151782081Y-48808923D01*
X151749501Y-49035526D01*
X151749500Y-49035530D01*
X151749500Y-49149997D01*
X151749499Y-49258085D01*
X149144513Y-49258085D01*
X149119002Y-49241690D01*
X149118986Y-49241681D01*
X148910752Y-49146584D01*
X148691087Y-49082084D01*
X148691076Y-49082081D01*
X148464476Y-49049501D01*
X148464466Y-49049500D01*
X148451983Y-49049500D01*
X148451973Y-49049499D01*
X148350000Y-49049499D01*
X148248027Y-49049499D01*
X148248016Y-49049500D01*
X148235533Y-49049500D01*
X148235523Y-49049501D01*
X148008923Y-49082081D01*
X148008912Y-49082084D01*
X147789247Y-49146584D01*
X147581013Y-49241681D01*
X147580997Y-49241690D01*
X147388406Y-49365461D01*
X147388399Y-49365467D01*
X147215385Y-49515383D01*
X147215383Y-49515385D01*
X147065467Y-49688399D01*
X147065461Y-49688406D01*
X146941690Y-49880997D01*
X146941681Y-49881013D01*
X146846584Y-50089247D01*
X146782084Y-50308912D01*
X146782081Y-50308923D01*
X146749501Y-50535526D01*
X146749500Y-50535530D01*
X146749500Y-50649997D01*
X146749499Y-50758085D01*
X137950500Y-50758085D01*
X137950500Y-50751978D01*
X137950501Y-50751973D01*
X137950500Y-50649997D01*
X137950500Y-50644576D01*
X137950500Y-50563389D01*
X137950499Y-50563384D01*
X137950499Y-50535527D01*
X137942261Y-50478232D01*
X137917918Y-50308922D01*
X137917915Y-50308912D01*
X137917429Y-50307255D01*
X137853417Y-50089253D01*
X137853416Y-50089251D01*
X137853415Y-50089247D01*
X137758318Y-49881013D01*
X137758309Y-49880997D01*
X137634538Y-49688406D01*
X137634532Y-49688399D01*
X137484616Y-49515385D01*
X137484614Y-49515383D01*
X137311600Y-49365467D01*
X137311593Y-49365461D01*
X137119002Y-49241690D01*
X137118986Y-49241681D01*
X136910752Y-49146584D01*
X136691087Y-49082084D01*
X136691076Y-49082081D01*
X136464476Y-49049501D01*
X136464466Y-49049500D01*
X136451983Y-49049500D01*
X136451973Y-49049499D01*
X136350000Y-49049499D01*
X136248027Y-49049499D01*
X136248016Y-49049500D01*
X136235533Y-49049500D01*
X136235523Y-49049501D01*
X136008923Y-49082081D01*
X136008912Y-49082084D01*
X135789247Y-49146584D01*
X135581013Y-49241681D01*
X135580997Y-49241690D01*
X135388406Y-49365461D01*
X135388399Y-49365467D01*
X135215385Y-49515383D01*
X135215383Y-49515385D01*
X135065467Y-49688399D01*
X135065461Y-49688406D01*
X134941690Y-49880997D01*
X134941681Y-49881013D01*
X134846584Y-50089247D01*
X134782084Y-50308912D01*
X134782081Y-50308923D01*
X134749501Y-50535526D01*
X134749500Y-50535530D01*
X134749500Y-50649997D01*
X134749499Y-50758085D01*
X99448055Y-50758085D01*
X99558930Y-50563862D01*
X99565175Y-50554030D01*
X99769987Y-50262874D01*
X99777131Y-50253672D01*
X100008433Y-49983119D01*
X100016429Y-49974612D01*
X100272190Y-49727036D01*
X100280931Y-49719339D01*
X100558875Y-49496944D01*
X100568309Y-49490100D01*
X100865946Y-49294879D01*
X100875993Y-49288946D01*
X101190699Y-49122618D01*
X101201266Y-49117656D01*
X101532412Y-48980805D01*
X101538926Y-48978326D01*
X103261702Y-48378258D01*
X103263825Y-48377542D01*
X104999966Y-47809810D01*
X105002076Y-47809142D01*
X106748776Y-47274715D01*
X106750984Y-47274062D01*
X108507582Y-46773138D01*
X108509660Y-46772567D01*
X110275629Y-46305302D01*
X110277767Y-46304758D01*
X112052243Y-45871380D01*
X112054396Y-45870876D01*
X113836878Y-45471505D01*
X113839069Y-45471036D01*
X115628772Y-45105848D01*
X115631034Y-45105409D01*
X117427419Y-44774512D01*
X117429560Y-44774138D01*
X119232075Y-44477638D01*
X119234280Y-44477297D01*
X121042032Y-44215340D01*
X121044174Y-44215050D01*
X122856674Y-43987706D01*
X122858847Y-43987454D01*
X124675410Y-43794812D01*
X124677553Y-43794606D01*
X126497415Y-43636747D01*
X126499598Y-43636579D01*
X128321984Y-43513565D01*
X128324341Y-43513428D01*
X128860316Y-43487535D01*
X128928227Y-43503962D01*
X128976476Y-43554497D01*
X128989745Y-43623095D01*
X128963821Y-43687977D01*
X128963247Y-43688703D01*
X128848299Y-43832844D01*
X128701866Y-44065891D01*
X128582449Y-44313863D01*
X128491547Y-44573644D01*
X128491543Y-44573656D01*
X128430299Y-44841985D01*
X128430297Y-44842001D01*
X128399482Y-45115488D01*
X128399482Y-45390731D01*
X128430297Y-45664218D01*
X128430299Y-45664234D01*
X128491543Y-45932563D01*
X128491547Y-45932575D01*
X128582449Y-46192356D01*
X128701866Y-46440328D01*
X128701868Y-46440331D01*
X128848301Y-46673378D01*
X129019907Y-46888565D01*
X129214527Y-47083185D01*
X129429714Y-47254791D01*
X129662761Y-47401224D01*
X129910739Y-47520644D01*
X130082801Y-47580851D01*
X130170516Y-47611544D01*
X130170528Y-47611548D01*
X130438861Y-47672793D01*
X130712360Y-47703609D01*
X130712361Y-47703610D01*
X130712365Y-47703610D01*
X130987603Y-47703610D01*
X130987603Y-47703609D01*
X131261103Y-47672793D01*
X131529436Y-47611548D01*
X131789225Y-47520644D01*
X132037203Y-47401224D01*
X132270250Y-47254791D01*
X132485437Y-47083185D01*
X132680057Y-46888565D01*
X132851663Y-46673378D01*
X132998096Y-46440331D01*
X133117516Y-46192353D01*
X133208420Y-45932564D01*
X133269665Y-45664231D01*
X133300482Y-45390727D01*
X133300482Y-45115493D01*
X133269665Y-44841989D01*
X133208420Y-44573656D01*
X133117516Y-44313867D01*
X132998096Y-44065889D01*
X132851663Y-43832842D01*
X132680057Y-43617655D01*
X132638529Y-43576127D01*
X132605044Y-43514804D01*
X132610028Y-43445112D01*
X132651900Y-43389179D01*
X132717364Y-43364762D01*
X132724964Y-43364452D01*
X133806241Y-43353618D01*
X133807483Y-43353613D01*
X149175210Y-43353613D01*
X149175847Y-43353615D01*
X149358653Y-43354554D01*
X149358653Y-43354553D01*
X149358654Y-43354554D01*
X149729900Y-43322490D01*
X150096662Y-43256633D01*
X150455870Y-43157533D01*
X150804519Y-43026021D01*
X151139690Y-42863197D01*
X151458578Y-42670423D01*
X151758515Y-42449314D01*
X151821463Y-42393371D01*
X151821575Y-42393304D01*
X151893898Y-42329000D01*
X151895012Y-42328011D01*
X151895014Y-42328009D01*
X151900732Y-42323228D01*
X152069630Y-42190456D01*
X152081949Y-42181926D01*
X152262440Y-42072485D01*
X152275708Y-42065501D01*
X152468106Y-41978669D01*
X152482117Y-41973342D01*
X152683578Y-41910402D01*
X152698139Y-41906803D01*
X152905730Y-41868667D01*
X152920623Y-41866854D01*
X153135062Y-41853853D01*
X153142562Y-41853627D01*
X153240782Y-41853629D01*
X153240787Y-41853627D01*
X153246752Y-41853628D01*
X153247034Y-41853613D01*
X165915049Y-41853613D01*
X165915060Y-41853615D01*
G37*
%TD.AperFunction*%
%TD*%
M02*
