%TF.GenerationSoftware,KiCad,Pcbnew,9.0.8*%
%TF.CreationDate,2026-04-01T17:17:51-04:00*%
%TF.ProjectId,3leaf_fall,336c6561-665f-4666-916c-6c2e6b696361,rev?*%
%TF.SameCoordinates,Original*%
%TF.FileFunction,Soldermask,Top*%
%TF.FilePolarity,Negative*%
%FSLAX46Y46*%
G04 Gerber Fmt 4.6, Leading zero omitted, Abs format (unit mm)*
G04 Created by KiCad (PCBNEW 9.0.8) date 2026-04-01 17:17:51*
%MOMM*%
%LPD*%
G01*
G04 APERTURE LIST*
G04 Aperture macros list*
%AMRoundRect*
0 Rectangle with rounded corners*
0 $1 Rounding radius*
0 $2 $3 $4 $5 $6 $7 $8 $9 X,Y pos of 4 corners*
0 Add a 4 corners polygon primitive as box body*
4,1,4,$2,$3,$4,$5,$6,$7,$8,$9,$2,$3,0*
0 Add four circle primitives for the rounded corners*
1,1,$1+$1,$2,$3*
1,1,$1+$1,$4,$5*
1,1,$1+$1,$6,$7*
1,1,$1+$1,$8,$9*
0 Add four rect primitives between the rounded corners*
20,1,$1+$1,$2,$3,$4,$5,0*
20,1,$1+$1,$4,$5,$6,$7,0*
20,1,$1+$1,$6,$7,$8,$9,0*
20,1,$1+$1,$8,$9,$2,$3,0*%
%AMFreePoly0*
4,1,66,0.469509,0.048079,0.505557,0.033147,0.533147,0.005557,0.548079,-0.030491,0.548079,-0.055231,0.585154,-0.221659,0.599999,-0.426545,0.584702,-0.631398,0.539592,-0.831807,0.465641,-1.023458,0.364441,-1.202224,0.238170,-1.364256,0.089548,-1.506066,-0.078226,-1.624601,-0.261541,-1.717309,-0.281240,-1.719944,-0.294443,-1.733147,-0.330491,-1.748079,-0.350000,-1.750000,-1.250000,-1.750000,
-1.269509,-1.748079,-1.305557,-1.733147,-1.333147,-1.705557,-1.348079,-1.669509,-1.348079,-1.630491,-1.333147,-1.594443,-1.305557,-1.566853,-1.269509,-1.551921,-1.250000,-1.550000,-0.360920,-1.550000,-0.338463,-1.532693,-0.247932,-1.494862,-0.081458,-1.390962,0.065924,-1.261397,0.190300,-1.109609,0.282383,-0.950000,-1.300000,-0.950000,-1.319509,-0.948079,-1.355557,-0.933147,-1.383147,-0.905557,
-1.398079,-0.869509,-1.398079,-0.830491,-1.383147,-0.794443,-1.355557,-0.766853,-1.319509,-0.751921,-1.300000,-0.750000,0.300000,-0.750000,0.319509,-0.751921,0.353707,-0.766086,0.357512,-0.755983,0.395906,-0.563539,0.402526,-0.367414,0.377196,-0.172820,0.370347,-0.150000,-1.050000,-0.150000,-1.069509,-0.148079,-1.105557,-0.133147,-1.133147,-0.105557,-1.148079,-0.069509,-1.148079,-0.030491,
-1.133147,0.005557,-1.105557,0.033147,-1.069509,0.048079,-1.050000,0.050000,0.450000,0.050000,0.469509,0.048079,0.469509,0.048079,$1*%
%AMFreePoly1*
4,1,66,1.269509,1.748079,1.305557,1.733147,1.333147,1.705557,1.348079,1.669509,1.348079,1.630491,1.333147,1.594443,1.305557,1.566853,1.269509,1.551921,1.250000,1.550000,0.360920,1.550000,0.338463,1.532693,0.247932,1.494862,0.081458,1.390962,-0.065924,1.261397,-0.190300,1.109609,-0.282383,0.950000,1.300000,0.950000,1.319509,0.948079,1.355557,0.933147,1.383147,0.905557,
1.398079,0.869509,1.398079,0.830491,1.383147,0.794443,1.355557,0.766853,1.319509,0.751921,1.300000,0.750000,-0.300000,0.750000,-0.319509,0.751921,-0.353707,0.766086,-0.357512,0.755983,-0.395906,0.563539,-0.402526,0.367414,-0.377196,0.172820,-0.370347,0.150000,1.050000,0.150000,1.069509,0.148079,1.105557,0.133147,1.133147,0.105557,1.148079,0.069509,1.148079,0.030491,
1.133147,-0.005557,1.105557,-0.033147,1.069509,-0.048079,1.050000,-0.050000,-0.450000,-0.050000,-0.469509,-0.048079,-0.505557,-0.033147,-0.533147,-0.005557,-0.548079,0.030491,-0.548079,0.055231,-0.585154,0.221659,-0.599999,0.426545,-0.584702,0.631398,-0.539592,0.831807,-0.465641,1.023458,-0.364441,1.202224,-0.238170,1.364256,-0.089548,1.506066,0.078226,1.624601,0.261541,1.717309,
0.281240,1.719944,0.294443,1.733147,0.330491,1.748079,0.350000,1.750000,1.250000,1.750000,1.269509,1.748079,1.269509,1.748079,$1*%
G04 Aperture macros list end*
%ADD10RoundRect,0.529500X-1.235500X-1.450500X1.235500X-1.450500X1.235500X1.450500X-1.235500X1.450500X0*%
%ADD11RoundRect,0.102000X-1.755000X-1.755000X1.755000X-1.755000X1.755000X1.755000X-1.755000X1.755000X0*%
%ADD12FreePoly0,180.000000*%
%ADD13FreePoly1,180.000000*%
%ADD14RoundRect,0.090000X-0.360724X0.534863X-0.044965X-0.643567X0.360724X-0.534863X0.044965X0.643567X0*%
%ADD15RoundRect,0.060000X-0.300874X0.581958X0.030415X-0.654427X0.300874X-0.581958X-0.030415X0.654427X0*%
%ADD16RoundRect,0.060000X-0.437069X-0.262051X0.509538X-0.008408X0.437069X0.262051X-0.509538X0.008408X0*%
%ADD17RoundRect,0.060000X-0.581958X-0.300874X0.654427X0.030415X0.581958X0.300874X-0.654427X-0.030415X0*%
%ADD18RoundRect,0.060000X-0.249110X0.388773X-0.021349X-0.461242X0.249110X-0.388773X0.021349X0.461242X0*%
G04 APERTURE END LIST*
D10*
%TO.C,BT1*%
X219151215Y-62343726D03*
D11*
X232071215Y-62343726D03*
%TD*%
D12*
%TO.C,S15*%
X158550000Y-85850000D03*
D13*
X160150000Y-84550000D03*
%TD*%
D12*
%TO.C,S11*%
X124550000Y-74600000D03*
D13*
X126150000Y-73300000D03*
%TD*%
D12*
%TO.C,S16*%
X141550000Y-87350000D03*
D13*
X143150000Y-86050000D03*
%TD*%
D12*
%TO.C,S19*%
X209550000Y-106250000D03*
D13*
X211150000Y-104950000D03*
%TD*%
D12*
%TO.C,S6*%
X107550000Y-59350000D03*
D13*
X109150000Y-58050000D03*
%TD*%
D12*
%TO.C,S20*%
X192550000Y-106250000D03*
D13*
X194150000Y-104950000D03*
%TD*%
D12*
%TO.C,S2*%
X175550000Y-53100000D03*
D13*
X177150000Y-51800000D03*
%TD*%
D12*
%TO.C,S18*%
X107550000Y-93350000D03*
D13*
X109150000Y-92050000D03*
%TD*%
D12*
%TO.C,S9*%
X158550000Y-68850000D03*
D13*
X160150000Y-67550000D03*
%TD*%
D12*
%TO.C,S17*%
X124550000Y-91600000D03*
D13*
X126150000Y-90300000D03*
%TD*%
D12*
%TO.C,S4*%
X141550000Y-53350000D03*
D13*
X143150000Y-52050000D03*
%TD*%
D12*
%TO.C,S12*%
X107550000Y-76350000D03*
D13*
X109150000Y-75050000D03*
%TD*%
D12*
%TO.C,S1*%
X192550000Y-55250000D03*
D13*
X194150000Y-53950000D03*
%TD*%
D12*
%TO.C,S13*%
X192550000Y-89250000D03*
D13*
X194150000Y-87950000D03*
%TD*%
D12*
%TO.C,S10*%
X141550000Y-70350000D03*
D13*
X143150000Y-69050000D03*
%TD*%
D12*
%TO.C,S8*%
X175550000Y-70100000D03*
D13*
X177150000Y-68800000D03*
%TD*%
D12*
%TO.C,S14*%
X175550000Y-87100000D03*
D13*
X177150000Y-85800000D03*
%TD*%
D12*
%TO.C,S3*%
X158550000Y-51850000D03*
D13*
X160150000Y-50550000D03*
%TD*%
D12*
%TO.C,S5*%
X124550000Y-57600000D03*
D13*
X126150000Y-56300000D03*
%TD*%
D12*
%TO.C,S21*%
X175550000Y-104100000D03*
D13*
X177150000Y-102800000D03*
%TD*%
D12*
%TO.C,S7*%
X192550000Y-72250000D03*
D13*
X194150000Y-70950000D03*
%TD*%
D12*
%TO.C,S22*%
X158550000Y-102850000D03*
D13*
X160150000Y-101550000D03*
%TD*%
D14*
%TO.C,U2*%
X239212587Y-80900038D03*
D15*
X238439846Y-81107093D03*
X240510398Y-88834500D03*
X237763698Y-81288267D03*
X237087550Y-81469440D03*
X236411402Y-81650613D03*
X235735254Y-81831787D03*
X235059106Y-82012960D03*
X234382957Y-82194133D03*
X233706809Y-82375306D03*
X233030661Y-82556480D03*
X232354513Y-82737653D03*
X231678365Y-82918826D03*
X231002217Y-83100000D03*
D16*
X229833633Y-83568413D03*
D17*
X229869917Y-84283383D03*
X230051090Y-84959532D03*
X230232264Y-85635680D03*
X230413437Y-86311828D03*
X230594610Y-86987976D03*
X230775784Y-87664124D03*
X230956957Y-88340272D03*
X231138130Y-89016420D03*
X231319304Y-89692568D03*
X231500477Y-90368716D03*
D16*
X231826539Y-91006041D03*
D15*
X233072769Y-90827406D03*
X233748918Y-90646233D03*
X234425066Y-90465060D03*
X235101214Y-90283886D03*
X235777362Y-90102713D03*
X236453510Y-89921540D03*
X237129658Y-89740366D03*
X237805806Y-89559193D03*
X238481954Y-89378020D03*
X239158102Y-89196846D03*
X239834250Y-89015673D03*
D14*
X241283139Y-88627445D03*
D18*
X237305937Y-83636767D03*
X235953641Y-83999114D03*
X234601344Y-84361460D03*
X233249048Y-84723807D03*
%TD*%
M02*
