%TF.GenerationSoftware,KiCad,Pcbnew,10.0.0*%
%TF.CreationDate,2026-04-13T21:33:15-04:00*%
%TF.ProjectId,3leaf_fall,336c6561-665f-4666-916c-6c2e6b696361,rev?*%
%TF.SameCoordinates,Original*%
%TF.FileFunction,Paste,Top*%
%TF.FilePolarity,Positive*%
%FSLAX46Y46*%
G04 Gerber Fmt 4.6, Leading zero omitted, Abs format (unit mm)*
G04 Created by KiCad (PCBNEW 10.0.0) date 2026-04-13 21:33:15*
%MOMM*%
%LPD*%
G01*
G04 APERTURE LIST*
G04 Aperture macros list*
%AMFreePoly0*
4,1,66,0.469509,0.048079,0.505557,0.033147,0.533147,0.005557,0.548079,-0.030491,0.548079,-0.055231,0.585154,-0.221659,0.599999,-0.426545,0.584702,-0.631398,0.539592,-0.831807,0.465641,-1.023458,0.364441,-1.202224,0.238170,-1.364256,0.089548,-1.506066,-0.078226,-1.624601,-0.261541,-1.717309,-0.281240,-1.719944,-0.294443,-1.733147,-0.330491,-1.748079,-0.350000,-1.750000,-1.250000,-1.750000,
-1.269509,-1.748079,-1.305557,-1.733147,-1.333147,-1.705557,-1.348079,-1.669509,-1.348079,-1.630491,-1.333147,-1.594443,-1.305557,-1.566853,-1.269509,-1.551921,-1.250000,-1.550000,-0.360920,-1.550000,-0.338463,-1.532693,-0.247932,-1.494862,-0.081458,-1.390962,0.065924,-1.261397,0.190300,-1.109609,0.282383,-0.950000,-1.300000,-0.950000,-1.319509,-0.948079,-1.355557,-0.933147,-1.383147,-0.905557,
-1.398079,-0.869509,-1.398079,-0.830491,-1.383147,-0.794443,-1.355557,-0.766853,-1.319509,-0.751921,-1.300000,-0.750000,0.300000,-0.750000,0.319509,-0.751921,0.353707,-0.766086,0.357512,-0.755983,0.395906,-0.563539,0.402526,-0.367414,0.377196,-0.172820,0.370347,-0.150000,-1.050000,-0.150000,-1.069509,-0.148079,-1.105557,-0.133147,-1.133147,-0.105557,-1.148079,-0.069509,-1.148079,-0.030491,
-1.133147,0.005557,-1.105557,0.033147,-1.069509,0.048079,-1.050000,0.050000,0.450000,0.050000,0.469509,0.048079,0.469509,0.048079,$1*%
%AMFreePoly1*
4,1,66,1.269509,1.748079,1.305557,1.733147,1.333147,1.705557,1.348079,1.669509,1.348079,1.630491,1.333147,1.594443,1.305557,1.566853,1.269509,1.551921,1.250000,1.550000,0.360920,1.550000,0.338463,1.532693,0.247932,1.494862,0.081458,1.390962,-0.065924,1.261397,-0.190300,1.109609,-0.282383,0.950000,1.300000,0.950000,1.319509,0.948079,1.355557,0.933147,1.383147,0.905557,
1.398079,0.869509,1.398079,0.830491,1.383147,0.794443,1.355557,0.766853,1.319509,0.751921,1.300000,0.750000,-0.300000,0.750000,-0.319509,0.751921,-0.353707,0.766086,-0.357512,0.755983,-0.395906,0.563539,-0.402526,0.367414,-0.377196,0.172820,-0.370347,0.150000,1.050000,0.150000,1.069509,0.148079,1.105557,0.133147,1.133147,0.105557,1.148079,0.069509,1.148079,0.030491,
1.133147,-0.005557,1.105557,-0.033147,1.069509,-0.048079,1.050000,-0.050000,-0.450000,-0.050000,-0.469509,-0.048079,-0.505557,-0.033147,-0.533147,-0.005557,-0.548079,0.030491,-0.548079,0.055231,-0.585154,0.221659,-0.599999,0.426545,-0.584702,0.631398,-0.539592,0.831807,-0.465641,1.023458,-0.364441,1.202224,-0.238170,1.364256,-0.089548,1.506066,0.078226,1.624601,0.261541,1.717309,
0.281240,1.719944,0.294443,1.733147,0.330491,1.748079,0.350000,1.750000,1.250000,1.750000,1.269509,1.748079,1.269509,1.748079,$1*%
G04 Aperture macros list end*
%ADD10FreePoly0,180.000000*%
%ADD11FreePoly1,180.000000*%
%ADD12R,3.510000X3.510000*%
G04 APERTURE END LIST*
D10*
%TO.C,S15*%
X192550286Y-85849726D03*
D11*
X194150286Y-84549726D03*
%TD*%
D10*
%TO.C,S11*%
X226550286Y-74599726D03*
D11*
X228150286Y-73299726D03*
%TD*%
D10*
%TO.C,S16*%
X209550286Y-87349726D03*
D11*
X211150286Y-86049726D03*
%TD*%
D10*
%TO.C,S19*%
X141550286Y-106249726D03*
D11*
X143150286Y-104949726D03*
%TD*%
D10*
%TO.C,S6*%
X243550286Y-59349726D03*
D11*
X245150286Y-58049726D03*
%TD*%
D10*
%TO.C,S20*%
X158550286Y-106249726D03*
D11*
X160150286Y-104949726D03*
%TD*%
D10*
%TO.C,S2*%
X175550286Y-53099726D03*
D11*
X177150286Y-51799726D03*
%TD*%
D10*
%TO.C,S18*%
X243550286Y-93349726D03*
D11*
X245150286Y-92049726D03*
%TD*%
D10*
%TO.C,S9*%
X192550286Y-68849726D03*
D11*
X194150286Y-67549726D03*
%TD*%
D10*
%TO.C,S17*%
X226550286Y-91599726D03*
D11*
X228150286Y-90299726D03*
%TD*%
D10*
%TO.C,S4*%
X209550286Y-53349726D03*
D11*
X211150286Y-52049726D03*
%TD*%
D10*
%TO.C,S12*%
X243550286Y-76349726D03*
D11*
X245150286Y-75049726D03*
%TD*%
D10*
%TO.C,S1*%
X158550286Y-55249726D03*
D11*
X160150286Y-53949726D03*
%TD*%
D10*
%TO.C,S13*%
X158550286Y-89249726D03*
D11*
X160150286Y-87949726D03*
%TD*%
D10*
%TO.C,S10*%
X209550286Y-70349726D03*
D11*
X211150286Y-69049726D03*
%TD*%
D10*
%TO.C,S8*%
X175550286Y-70099726D03*
D11*
X177150286Y-68799726D03*
%TD*%
D12*
%TO.C,BT1*%
X120629286Y-62343726D03*
%TD*%
D10*
%TO.C,S14*%
X175550286Y-87099726D03*
D11*
X177150286Y-85799726D03*
%TD*%
D10*
%TO.C,S3*%
X192550286Y-51849726D03*
D11*
X194150286Y-50549726D03*
%TD*%
D10*
%TO.C,S5*%
X226550286Y-57599726D03*
D11*
X228150286Y-56299726D03*
%TD*%
D10*
%TO.C,S21*%
X175550286Y-104099726D03*
D11*
X177150286Y-102799726D03*
%TD*%
D10*
%TO.C,S7*%
X158550286Y-72249726D03*
D11*
X160150286Y-70949726D03*
%TD*%
D10*
%TO.C,S22*%
X192550286Y-102849726D03*
D11*
X194150286Y-101549726D03*
%TD*%
M02*
