%TF.GenerationSoftware,KiCad,Pcbnew,10.0.0*%
%TF.CreationDate,2026-04-13T21:33:15-04:00*%
%TF.ProjectId,3leaf_fall,336c6561-665f-4666-916c-6c2e6b696361,rev?*%
%TF.SameCoordinates,Original*%
%TF.FileFunction,Profile,NP*%
%FSLAX46Y46*%
G04 Gerber Fmt 4.6, Leading zero omitted, Abs format (unit mm)*
G04 Created by KiCad (PCBNEW 10.0.0) date 2026-04-13 21:33:15*
%MOMM*%
%LPD*%
G01*
G04 APERTURE LIST*
%TA.AperFunction,Profile*%
%ADD10C,0.100000*%
%TD*%
%TA.AperFunction,Profile*%
%ADD11C,0.200000*%
%TD*%
%TA.AperFunction,Profile*%
%ADD12C,0.050000*%
%TD*%
G04 APERTURE END LIST*
D10*
X107591343Y-95233509D02*
G75*
G02*
X106297278Y-90403883I3535557J3535509D01*
G01*
X107591346Y-95233506D02*
X127039346Y-114681500D01*
X117697106Y-47859015D02*
X106297246Y-90403874D01*
X117697106Y-47859015D02*
G75*
G02*
X122526740Y-44153137I4829594J-1294085D01*
G01*
D11*
X122354749Y-47169727D02*
G75*
G02*
X119654749Y-47169727I-1350000J0D01*
G01*
X119654749Y-47169727D02*
G75*
G02*
X122354749Y-47169727I1350000J0D01*
G01*
D10*
X130574883Y-116145964D02*
G75*
G02*
X127039365Y-114681481I17J4999964D01*
G01*
X130574883Y-116145968D02*
X165549139Y-116145968D01*
D11*
X149350018Y-94299970D02*
G75*
G02*
X146650018Y-94299970I-1350000J0D01*
G01*
X146650018Y-94299970D02*
G75*
G02*
X149350018Y-94299970I1350000J0D01*
G01*
D10*
X165549082Y-44153107D02*
X122526740Y-44153107D01*
X167850064Y-43078108D02*
G75*
G02*
X165549082Y-44153079I-2300964J1925108D01*
G01*
X167850064Y-43078108D02*
G75*
G02*
X170151051Y-42003152I2300936J-1925092D01*
G01*
X167850122Y-115070964D02*
G75*
G02*
X165549139Y-116145996I-2301022J1925064D01*
G01*
X167850122Y-115070964D02*
G75*
G02*
X170151104Y-113995956I2300978J-1925036D01*
G01*
X170151104Y-113995967D02*
X183017216Y-113995967D01*
X183017235Y-42003107D02*
X170151051Y-42003107D01*
X184850088Y-41378117D02*
G75*
G02*
X183017235Y-42003131I-1832888J2375017D01*
G01*
X184850088Y-41378117D02*
G75*
G02*
X186682974Y-40753102I1832912J-2375083D01*
G01*
X184850101Y-113370967D02*
G75*
G02*
X183017216Y-113995978I-1832901J2375067D01*
G01*
X184850101Y-113370967D02*
G75*
G02*
X186682986Y-112745950I1832899J-2375033D01*
G01*
X186682986Y-112745967D02*
X196682986Y-112745967D01*
X199549120Y-40753116D02*
X186682974Y-40753116D01*
X199549120Y-40753116D02*
G75*
G02*
X201533448Y-41503119I-20J-3000084D01*
G01*
X200994461Y-112484234D02*
G75*
G02*
X196682986Y-112745967I-4311461J35379934D01*
G01*
X200994461Y-112484234D02*
X250451357Y-106457350D01*
X203517793Y-42253107D02*
G75*
G02*
X201533453Y-41503113I7J3000107D01*
G01*
X218849833Y-42253107D02*
X203517793Y-42253107D01*
X218849833Y-42253107D02*
G75*
G02*
X251536283Y-47943735I-33J-96719493D01*
G01*
D11*
X223200018Y-45253110D02*
G75*
G02*
X220500018Y-45253110I-1350000J0D01*
G01*
X220500018Y-45253110D02*
G75*
G02*
X223200018Y-45253110I1350000J0D01*
G01*
X240212318Y-104830966D02*
G75*
G02*
X237512318Y-104830966I-1350000J0D01*
G01*
X237512318Y-104830966D02*
G75*
G02*
X240212318Y-104830966I1350000J0D01*
G01*
D10*
X251536286Y-47943726D02*
G75*
G02*
X254846469Y-52649542I-1689786J-4705774D01*
G01*
X254846529Y-101494062D02*
G75*
G02*
X250451364Y-106457408I-5000029J-38D01*
G01*
X254846529Y-101494062D02*
X254846529Y-52649542D01*
%TO.C,S15*%
D12*
X186850286Y-87349726D02*
X186850286Y-83149726D01*
X187850286Y-83149726D02*
X187850286Y-87349726D01*
X198850286Y-87349726D02*
X198850286Y-83149726D01*
X199850286Y-83149726D02*
X199850286Y-87349726D01*
X186850286Y-83149726D02*
G75*
G02*
X187350286Y-82649726I500001J-1D01*
G01*
X187350286Y-82649726D02*
G75*
G02*
X187850286Y-83149726I-1J-500001D01*
G01*
X187350286Y-87849726D02*
G75*
G02*
X186850286Y-87349726I1J500001D01*
G01*
X187850285Y-87349726D02*
G75*
G02*
X187350286Y-87849725I-499998J-1D01*
G01*
X198850286Y-83149726D02*
G75*
G02*
X199350286Y-82649726I500000J0D01*
G01*
X199350286Y-82649726D02*
G75*
G02*
X199850286Y-83149726I0J-500000D01*
G01*
X199350286Y-87849726D02*
G75*
G02*
X198850286Y-87349726I0J500000D01*
G01*
X199850286Y-87349726D02*
G75*
G02*
X199350286Y-87849726I-500000J0D01*
G01*
%TO.C,S11*%
X220850286Y-76099726D02*
X220850286Y-71899726D01*
X221850286Y-71899726D02*
X221850286Y-76099726D01*
X232850286Y-76099726D02*
X232850286Y-71899726D01*
X233850286Y-71899726D02*
X233850286Y-76099726D01*
X220850286Y-71899726D02*
G75*
G02*
X221350286Y-71399726I500001J-1D01*
G01*
X221350286Y-71399726D02*
G75*
G02*
X221850286Y-71899726I-1J-500001D01*
G01*
X221350286Y-76599726D02*
G75*
G02*
X220850286Y-76099726I1J500001D01*
G01*
X221850285Y-76099726D02*
G75*
G02*
X221350286Y-76599725I-499998J-1D01*
G01*
X232850286Y-71899726D02*
G75*
G02*
X233350286Y-71399726I500000J0D01*
G01*
X233350286Y-71399726D02*
G75*
G02*
X233850286Y-71899726I0J-500000D01*
G01*
X233350286Y-76599726D02*
G75*
G02*
X232850286Y-76099726I0J500000D01*
G01*
X233850286Y-76099726D02*
G75*
G02*
X233350286Y-76599726I-500000J0D01*
G01*
%TO.C,S16*%
X203850286Y-88849726D02*
X203850286Y-84649726D01*
X204850286Y-84649726D02*
X204850286Y-88849726D01*
X215850286Y-88849726D02*
X215850286Y-84649726D01*
X216850286Y-84649726D02*
X216850286Y-88849726D01*
X203850286Y-84649726D02*
G75*
G02*
X204350286Y-84149726I500001J-1D01*
G01*
X204350286Y-84149726D02*
G75*
G02*
X204850286Y-84649726I-1J-500001D01*
G01*
X204350286Y-89349726D02*
G75*
G02*
X203850286Y-88849726I1J500001D01*
G01*
X204850285Y-88849726D02*
G75*
G02*
X204350286Y-89349725I-499998J-1D01*
G01*
X215850286Y-84649726D02*
G75*
G02*
X216350286Y-84149726I500000J0D01*
G01*
X216350286Y-84149726D02*
G75*
G02*
X216850286Y-84649726I0J-500000D01*
G01*
X216350286Y-89349726D02*
G75*
G02*
X215850286Y-88849726I0J500000D01*
G01*
X216850286Y-88849726D02*
G75*
G02*
X216350286Y-89349726I-500000J0D01*
G01*
%TO.C,S19*%
X135850286Y-107749726D02*
X135850286Y-103549726D01*
X136850286Y-103549726D02*
X136850286Y-107749726D01*
X147850286Y-107749726D02*
X147850286Y-103549726D01*
X148850286Y-103549726D02*
X148850286Y-107749726D01*
X135850286Y-103549726D02*
G75*
G02*
X136350286Y-103049726I500001J-1D01*
G01*
X136350286Y-103049726D02*
G75*
G02*
X136850286Y-103549726I-1J-500001D01*
G01*
X136350286Y-108249726D02*
G75*
G02*
X135850286Y-107749726I1J500001D01*
G01*
X136850285Y-107749726D02*
G75*
G02*
X136350286Y-108249725I-499998J-1D01*
G01*
X147850286Y-103549726D02*
G75*
G02*
X148350286Y-103049726I500000J0D01*
G01*
X148350286Y-103049726D02*
G75*
G02*
X148850286Y-103549726I0J-500000D01*
G01*
X148350286Y-108249726D02*
G75*
G02*
X147850286Y-107749726I0J500000D01*
G01*
X148850286Y-107749726D02*
G75*
G02*
X148350286Y-108249726I-500000J0D01*
G01*
%TO.C,S6*%
X237850286Y-60849726D02*
X237850286Y-56649726D01*
X238850286Y-56649726D02*
X238850286Y-60849726D01*
X249850286Y-60849726D02*
X249850286Y-56649726D01*
X250850286Y-56649726D02*
X250850286Y-60849726D01*
X237850286Y-56649726D02*
G75*
G02*
X238350286Y-56149726I500001J-1D01*
G01*
X238350286Y-56149726D02*
G75*
G02*
X238850286Y-56649726I-1J-500001D01*
G01*
X238350286Y-61349726D02*
G75*
G02*
X237850286Y-60849726I1J500001D01*
G01*
X238850285Y-60849726D02*
G75*
G02*
X238350286Y-61349725I-499998J-1D01*
G01*
X249850286Y-56649726D02*
G75*
G02*
X250350286Y-56149726I500000J0D01*
G01*
X250350286Y-56149726D02*
G75*
G02*
X250850286Y-56649726I0J-500000D01*
G01*
X250350286Y-61349726D02*
G75*
G02*
X249850286Y-60849726I0J500000D01*
G01*
X250850286Y-60849726D02*
G75*
G02*
X250350286Y-61349726I-500000J0D01*
G01*
%TO.C,S20*%
X152850286Y-107749726D02*
X152850286Y-103549726D01*
X153850286Y-103549726D02*
X153850286Y-107749726D01*
X164850286Y-107749726D02*
X164850286Y-103549726D01*
X165850286Y-103549726D02*
X165850286Y-107749726D01*
X152850286Y-103549726D02*
G75*
G02*
X153350286Y-103049726I500001J-1D01*
G01*
X153350286Y-103049726D02*
G75*
G02*
X153850286Y-103549726I-1J-500001D01*
G01*
X153350286Y-108249726D02*
G75*
G02*
X152850286Y-107749726I1J500001D01*
G01*
X153850285Y-107749726D02*
G75*
G02*
X153350286Y-108249725I-499998J-1D01*
G01*
X164850286Y-103549726D02*
G75*
G02*
X165350286Y-103049726I500000J0D01*
G01*
X165350286Y-103049726D02*
G75*
G02*
X165850286Y-103549726I0J-500000D01*
G01*
X165350286Y-108249726D02*
G75*
G02*
X164850286Y-107749726I0J500000D01*
G01*
X165850286Y-107749726D02*
G75*
G02*
X165350286Y-108249726I-500000J0D01*
G01*
%TO.C,S2*%
X169850286Y-54599726D02*
X169850286Y-50399726D01*
X170850286Y-50399726D02*
X170850286Y-54599726D01*
X181850286Y-54599726D02*
X181850286Y-50399726D01*
X182850286Y-50399726D02*
X182850286Y-54599726D01*
X169850286Y-50399726D02*
G75*
G02*
X170350286Y-49899726I500001J-1D01*
G01*
X170350286Y-49899726D02*
G75*
G02*
X170850286Y-50399726I-1J-500001D01*
G01*
X170350286Y-55099726D02*
G75*
G02*
X169850286Y-54599726I1J500001D01*
G01*
X170850285Y-54599726D02*
G75*
G02*
X170350286Y-55099725I-499998J-1D01*
G01*
X181850286Y-50399726D02*
G75*
G02*
X182350286Y-49899726I500000J0D01*
G01*
X182350286Y-49899726D02*
G75*
G02*
X182850286Y-50399726I0J-500000D01*
G01*
X182350286Y-55099726D02*
G75*
G02*
X181850286Y-54599726I0J500000D01*
G01*
X182850286Y-54599726D02*
G75*
G02*
X182350286Y-55099726I-500000J0D01*
G01*
%TO.C,S18*%
X237850286Y-94849726D02*
X237850286Y-90649726D01*
X238850286Y-90649726D02*
X238850286Y-94849726D01*
X249850286Y-94849726D02*
X249850286Y-90649726D01*
X250850286Y-90649726D02*
X250850286Y-94849726D01*
X237850286Y-90649726D02*
G75*
G02*
X238350286Y-90149726I500001J-1D01*
G01*
X238350286Y-90149726D02*
G75*
G02*
X238850286Y-90649726I-1J-500001D01*
G01*
X238350286Y-95349726D02*
G75*
G02*
X237850286Y-94849726I1J500001D01*
G01*
X238850285Y-94849726D02*
G75*
G02*
X238350286Y-95349725I-499998J-1D01*
G01*
X249850286Y-90649726D02*
G75*
G02*
X250350286Y-90149726I500000J0D01*
G01*
X250350286Y-90149726D02*
G75*
G02*
X250850286Y-90649726I0J-500000D01*
G01*
X250350286Y-95349726D02*
G75*
G02*
X249850286Y-94849726I0J500000D01*
G01*
X250850286Y-94849726D02*
G75*
G02*
X250350286Y-95349726I-500000J0D01*
G01*
%TO.C,S9*%
X186850286Y-70349726D02*
X186850286Y-66149726D01*
X187850286Y-66149726D02*
X187850286Y-70349726D01*
X198850286Y-70349726D02*
X198850286Y-66149726D01*
X199850286Y-66149726D02*
X199850286Y-70349726D01*
X186850286Y-66149726D02*
G75*
G02*
X187350286Y-65649726I500001J-1D01*
G01*
X187350286Y-65649726D02*
G75*
G02*
X187850286Y-66149726I-1J-500001D01*
G01*
X187350286Y-70849726D02*
G75*
G02*
X186850286Y-70349726I1J500001D01*
G01*
X187850285Y-70349726D02*
G75*
G02*
X187350286Y-70849725I-499998J-1D01*
G01*
X198850286Y-66149726D02*
G75*
G02*
X199350286Y-65649726I500000J0D01*
G01*
X199350286Y-65649726D02*
G75*
G02*
X199850286Y-66149726I0J-500000D01*
G01*
X199350286Y-70849726D02*
G75*
G02*
X198850286Y-70349726I0J500000D01*
G01*
X199850286Y-70349726D02*
G75*
G02*
X199350286Y-70849726I-500000J0D01*
G01*
%TO.C,S17*%
X220850286Y-93099726D02*
X220850286Y-88899726D01*
X221850286Y-88899726D02*
X221850286Y-93099726D01*
X232850286Y-93099726D02*
X232850286Y-88899726D01*
X233850286Y-88899726D02*
X233850286Y-93099726D01*
X220850286Y-88899726D02*
G75*
G02*
X221350286Y-88399726I500001J-1D01*
G01*
X221350286Y-88399726D02*
G75*
G02*
X221850286Y-88899726I-1J-500001D01*
G01*
X221350286Y-93599726D02*
G75*
G02*
X220850286Y-93099726I1J500001D01*
G01*
X221850285Y-93099726D02*
G75*
G02*
X221350286Y-93599725I-499998J-1D01*
G01*
X232850286Y-88899726D02*
G75*
G02*
X233350286Y-88399726I500000J0D01*
G01*
X233350286Y-88399726D02*
G75*
G02*
X233850286Y-88899726I0J-500000D01*
G01*
X233350286Y-93599726D02*
G75*
G02*
X232850286Y-93099726I0J500000D01*
G01*
X233850286Y-93099726D02*
G75*
G02*
X233350286Y-93599726I-500000J0D01*
G01*
%TO.C,S4*%
X203850286Y-54849726D02*
X203850286Y-50649726D01*
X204850286Y-50649726D02*
X204850286Y-54849726D01*
X215850286Y-54849726D02*
X215850286Y-50649726D01*
X216850286Y-50649726D02*
X216850286Y-54849726D01*
X203850286Y-50649726D02*
G75*
G02*
X204350286Y-50149726I500001J-1D01*
G01*
X204350286Y-50149726D02*
G75*
G02*
X204850286Y-50649726I-1J-500001D01*
G01*
X204350286Y-55349726D02*
G75*
G02*
X203850286Y-54849726I1J500001D01*
G01*
X204850285Y-54849726D02*
G75*
G02*
X204350286Y-55349725I-499998J-1D01*
G01*
X215850286Y-50649726D02*
G75*
G02*
X216350286Y-50149726I500000J0D01*
G01*
X216350286Y-50149726D02*
G75*
G02*
X216850286Y-50649726I0J-500000D01*
G01*
X216350286Y-55349726D02*
G75*
G02*
X215850286Y-54849726I0J500000D01*
G01*
X216850286Y-54849726D02*
G75*
G02*
X216350286Y-55349726I-500000J0D01*
G01*
%TO.C,S12*%
X237850286Y-77849726D02*
X237850286Y-73649726D01*
X238850286Y-73649726D02*
X238850286Y-77849726D01*
X249850286Y-77849726D02*
X249850286Y-73649726D01*
X250850286Y-73649726D02*
X250850286Y-77849726D01*
X237850286Y-73649726D02*
G75*
G02*
X238350286Y-73149726I500001J-1D01*
G01*
X238350286Y-73149726D02*
G75*
G02*
X238850286Y-73649726I-1J-500001D01*
G01*
X238350286Y-78349726D02*
G75*
G02*
X237850286Y-77849726I1J500001D01*
G01*
X238850285Y-77849726D02*
G75*
G02*
X238350286Y-78349725I-499998J-1D01*
G01*
X249850286Y-73649726D02*
G75*
G02*
X250350286Y-73149726I500000J0D01*
G01*
X250350286Y-73149726D02*
G75*
G02*
X250850286Y-73649726I0J-500000D01*
G01*
X250350286Y-78349726D02*
G75*
G02*
X249850286Y-77849726I0J500000D01*
G01*
X250850286Y-77849726D02*
G75*
G02*
X250350286Y-78349726I-500000J0D01*
G01*
%TO.C,S1*%
X152850286Y-56749726D02*
X152850286Y-52549726D01*
X153850286Y-52549726D02*
X153850286Y-56749726D01*
X164850286Y-56749726D02*
X164850286Y-52549726D01*
X165850286Y-52549726D02*
X165850286Y-56749726D01*
X152850286Y-52549726D02*
G75*
G02*
X153350286Y-52049726I500001J-1D01*
G01*
X153350286Y-52049726D02*
G75*
G02*
X153850286Y-52549726I-1J-500001D01*
G01*
X153350286Y-57249726D02*
G75*
G02*
X152850286Y-56749726I1J500001D01*
G01*
X153850285Y-56749726D02*
G75*
G02*
X153350286Y-57249725I-499998J-1D01*
G01*
X164850286Y-52549726D02*
G75*
G02*
X165350286Y-52049726I500000J0D01*
G01*
X165350286Y-52049726D02*
G75*
G02*
X165850286Y-52549726I0J-500000D01*
G01*
X165350286Y-57249726D02*
G75*
G02*
X164850286Y-56749726I0J500000D01*
G01*
X165850286Y-56749726D02*
G75*
G02*
X165350286Y-57249726I-500000J0D01*
G01*
%TO.C,S13*%
X152850286Y-90749726D02*
X152850286Y-86549726D01*
X153850286Y-86549726D02*
X153850286Y-90749726D01*
X164850286Y-90749726D02*
X164850286Y-86549726D01*
X165850286Y-86549726D02*
X165850286Y-90749726D01*
X152850286Y-86549726D02*
G75*
G02*
X153350286Y-86049726I500001J-1D01*
G01*
X153350286Y-86049726D02*
G75*
G02*
X153850286Y-86549726I-1J-500001D01*
G01*
X153350286Y-91249726D02*
G75*
G02*
X152850286Y-90749726I1J500001D01*
G01*
X153850285Y-90749726D02*
G75*
G02*
X153350286Y-91249725I-499998J-1D01*
G01*
X164850286Y-86549726D02*
G75*
G02*
X165350286Y-86049726I500000J0D01*
G01*
X165350286Y-86049726D02*
G75*
G02*
X165850286Y-86549726I0J-500000D01*
G01*
X165350286Y-91249726D02*
G75*
G02*
X164850286Y-90749726I0J500000D01*
G01*
X165850286Y-90749726D02*
G75*
G02*
X165350286Y-91249726I-500000J0D01*
G01*
%TO.C,S10*%
X203850286Y-71849726D02*
X203850286Y-67649726D01*
X204850286Y-67649726D02*
X204850286Y-71849726D01*
X215850286Y-71849726D02*
X215850286Y-67649726D01*
X216850286Y-67649726D02*
X216850286Y-71849726D01*
X203850286Y-67649726D02*
G75*
G02*
X204350286Y-67149726I500001J-1D01*
G01*
X204350286Y-67149726D02*
G75*
G02*
X204850286Y-67649726I-1J-500001D01*
G01*
X204350286Y-72349726D02*
G75*
G02*
X203850286Y-71849726I1J500001D01*
G01*
X204850285Y-71849726D02*
G75*
G02*
X204350286Y-72349725I-499998J-1D01*
G01*
X215850286Y-67649726D02*
G75*
G02*
X216350286Y-67149726I500000J0D01*
G01*
X216350286Y-67149726D02*
G75*
G02*
X216850286Y-67649726I0J-500000D01*
G01*
X216350286Y-72349726D02*
G75*
G02*
X215850286Y-71849726I0J500000D01*
G01*
X216850286Y-71849726D02*
G75*
G02*
X216350286Y-72349726I-500000J0D01*
G01*
%TO.C,S8*%
X169850286Y-71599726D02*
X169850286Y-67399726D01*
X170850286Y-67399726D02*
X170850286Y-71599726D01*
X181850286Y-71599726D02*
X181850286Y-67399726D01*
X182850286Y-67399726D02*
X182850286Y-71599726D01*
X169850286Y-67399726D02*
G75*
G02*
X170350286Y-66899726I500001J-1D01*
G01*
X170350286Y-66899726D02*
G75*
G02*
X170850286Y-67399726I-1J-500001D01*
G01*
X170350286Y-72099726D02*
G75*
G02*
X169850286Y-71599726I1J500001D01*
G01*
X170850285Y-71599726D02*
G75*
G02*
X170350286Y-72099725I-499998J-1D01*
G01*
X181850286Y-67399726D02*
G75*
G02*
X182350286Y-66899726I500000J0D01*
G01*
X182350286Y-66899726D02*
G75*
G02*
X182850286Y-67399726I0J-500000D01*
G01*
X182350286Y-72099726D02*
G75*
G02*
X181850286Y-71599726I0J500000D01*
G01*
X182850286Y-71599726D02*
G75*
G02*
X182350286Y-72099726I-500000J0D01*
G01*
%TO.C,BT1*%
X144849286Y-61043726D02*
X144849286Y-63643726D01*
X145049286Y-63843726D02*
X146649286Y-63843726D01*
X146649286Y-60843726D02*
X145049286Y-60843726D01*
X146849286Y-63643726D02*
X146849286Y-61043726D01*
X144849286Y-61043726D02*
G75*
G02*
X145049286Y-60843726I200001J-1D01*
G01*
X145049286Y-63843726D02*
G75*
G02*
X144849286Y-63643726I1J200001D01*
G01*
X146649286Y-60843726D02*
G75*
G02*
X146849286Y-61043726I-1J-200001D01*
G01*
X146849286Y-63643726D02*
G75*
G02*
X146649286Y-63843726I-200001J1D01*
G01*
%TO.C,S14*%
X169850286Y-88599726D02*
X169850286Y-84399726D01*
X170850286Y-84399726D02*
X170850286Y-88599726D01*
X181850286Y-88599726D02*
X181850286Y-84399726D01*
X182850286Y-84399726D02*
X182850286Y-88599726D01*
X169850286Y-84399726D02*
G75*
G02*
X170350286Y-83899726I500001J-1D01*
G01*
X170350286Y-83899726D02*
G75*
G02*
X170850286Y-84399726I-1J-500001D01*
G01*
X170350286Y-89099726D02*
G75*
G02*
X169850286Y-88599726I1J500001D01*
G01*
X170850285Y-88599726D02*
G75*
G02*
X170350286Y-89099725I-499998J-1D01*
G01*
X181850286Y-84399726D02*
G75*
G02*
X182350286Y-83899726I500000J0D01*
G01*
X182350286Y-83899726D02*
G75*
G02*
X182850286Y-84399726I0J-500000D01*
G01*
X182350286Y-89099726D02*
G75*
G02*
X181850286Y-88599726I0J500000D01*
G01*
X182850286Y-88599726D02*
G75*
G02*
X182350286Y-89099726I-500000J0D01*
G01*
%TO.C,S3*%
X186850286Y-53349726D02*
X186850286Y-49149726D01*
X187850286Y-49149726D02*
X187850286Y-53349726D01*
X198850286Y-53349726D02*
X198850286Y-49149726D01*
X199850286Y-49149726D02*
X199850286Y-53349726D01*
X186850286Y-49149726D02*
G75*
G02*
X187350286Y-48649726I500001J-1D01*
G01*
X187350286Y-48649726D02*
G75*
G02*
X187850286Y-49149726I-1J-500001D01*
G01*
X187350286Y-53849726D02*
G75*
G02*
X186850286Y-53349726I1J500001D01*
G01*
X187850285Y-53349726D02*
G75*
G02*
X187350286Y-53849725I-499998J-1D01*
G01*
X198850286Y-49149726D02*
G75*
G02*
X199350286Y-48649726I500000J0D01*
G01*
X199350286Y-48649726D02*
G75*
G02*
X199850286Y-49149726I0J-500000D01*
G01*
X199350286Y-53849726D02*
G75*
G02*
X198850286Y-53349726I0J500000D01*
G01*
X199850286Y-53349726D02*
G75*
G02*
X199350286Y-53849726I-500000J0D01*
G01*
%TO.C,S5*%
X220850286Y-59099726D02*
X220850286Y-54899726D01*
X221850286Y-54899726D02*
X221850286Y-59099726D01*
X232850286Y-59099726D02*
X232850286Y-54899726D01*
X233850286Y-54899726D02*
X233850286Y-59099726D01*
X220850286Y-54899726D02*
G75*
G02*
X221350286Y-54399726I500001J-1D01*
G01*
X221350286Y-54399726D02*
G75*
G02*
X221850286Y-54899726I-1J-500001D01*
G01*
X221350286Y-59599726D02*
G75*
G02*
X220850286Y-59099726I1J500001D01*
G01*
X221850285Y-59099726D02*
G75*
G02*
X221350286Y-59599725I-499998J-1D01*
G01*
X232850286Y-54899726D02*
G75*
G02*
X233350286Y-54399726I500000J0D01*
G01*
X233350286Y-54399726D02*
G75*
G02*
X233850286Y-54899726I0J-500000D01*
G01*
X233350286Y-59599726D02*
G75*
G02*
X232850286Y-59099726I0J500000D01*
G01*
X233850286Y-59099726D02*
G75*
G02*
X233350286Y-59599726I-500000J0D01*
G01*
%TO.C,S21*%
X169850286Y-105599726D02*
X169850286Y-101399726D01*
X170850286Y-101399726D02*
X170850286Y-105599726D01*
X181850286Y-105599726D02*
X181850286Y-101399726D01*
X182850286Y-101399726D02*
X182850286Y-105599726D01*
X169850286Y-101399726D02*
G75*
G02*
X170350286Y-100899726I500001J-1D01*
G01*
X170350286Y-100899726D02*
G75*
G02*
X170850286Y-101399726I-1J-500001D01*
G01*
X170350286Y-106099726D02*
G75*
G02*
X169850286Y-105599726I1J500001D01*
G01*
X170850285Y-105599726D02*
G75*
G02*
X170350286Y-106099725I-499998J-1D01*
G01*
X181850286Y-101399726D02*
G75*
G02*
X182350286Y-100899726I500000J0D01*
G01*
X182350286Y-100899726D02*
G75*
G02*
X182850286Y-101399726I0J-500000D01*
G01*
X182350286Y-106099726D02*
G75*
G02*
X181850286Y-105599726I0J500000D01*
G01*
X182850286Y-105599726D02*
G75*
G02*
X182350286Y-106099726I-500000J0D01*
G01*
%TO.C,S7*%
X152850286Y-73749726D02*
X152850286Y-69549726D01*
X153850286Y-69549726D02*
X153850286Y-73749726D01*
X164850286Y-73749726D02*
X164850286Y-69549726D01*
X165850286Y-69549726D02*
X165850286Y-73749726D01*
X152850286Y-69549726D02*
G75*
G02*
X153350286Y-69049726I500001J-1D01*
G01*
X153350286Y-69049726D02*
G75*
G02*
X153850286Y-69549726I-1J-500001D01*
G01*
X153350286Y-74249726D02*
G75*
G02*
X152850286Y-73749726I1J500001D01*
G01*
X153850285Y-73749726D02*
G75*
G02*
X153350286Y-74249725I-499998J-1D01*
G01*
X164850286Y-69549726D02*
G75*
G02*
X165350286Y-69049726I500000J0D01*
G01*
X165350286Y-69049726D02*
G75*
G02*
X165850286Y-69549726I0J-500000D01*
G01*
X165350286Y-74249726D02*
G75*
G02*
X164850286Y-73749726I0J500000D01*
G01*
X165850286Y-73749726D02*
G75*
G02*
X165350286Y-74249726I-500000J0D01*
G01*
%TO.C,S22*%
X186850286Y-104349726D02*
X186850286Y-100149726D01*
X187850286Y-100149726D02*
X187850286Y-104349726D01*
X198850286Y-104349726D02*
X198850286Y-100149726D01*
X199850286Y-100149726D02*
X199850286Y-104349726D01*
X186850286Y-100149726D02*
G75*
G02*
X187350286Y-99649726I500001J-1D01*
G01*
X187350286Y-99649726D02*
G75*
G02*
X187850286Y-100149726I-1J-500001D01*
G01*
X187350286Y-104849726D02*
G75*
G02*
X186850286Y-104349726I1J500001D01*
G01*
X187850285Y-104349726D02*
G75*
G02*
X187350286Y-104849725I-499998J-1D01*
G01*
X198850286Y-100149726D02*
G75*
G02*
X199350286Y-99649726I500000J0D01*
G01*
X199350286Y-99649726D02*
G75*
G02*
X199850286Y-100149726I0J-500000D01*
G01*
X199350286Y-104849726D02*
G75*
G02*
X198850286Y-104349726I0J500000D01*
G01*
X199850286Y-104349726D02*
G75*
G02*
X199350286Y-104849726I-500000J0D01*
G01*
%TD*%
M02*
