M48
; DRILL file KiCad 10.0.0 date 2026-04-13T21:33:29
; FORMAT={-:-/ absolute / metric / decimal}
; #@! TF.CreationDate,2026-04-13T21:33:29-04:00
; #@! TF.GenerationSoftware,Kicad,Pcbnew,10.0.0
; #@! TF.FileFunction,Plated,1,2,PTH
FMAT,2
METRIC
; #@! TA.AperFunction,Plated,PTH,ViaDrill
T1C0.300
%
G90
G05
T1
X120.646Y-72.254
X123.25Y-89.85
X124.25Y-74.25
X124.75Y-77.85
X126.25Y-72.75
X128.25Y-82.95
X133.136Y-76.244
X137.936Y-93.944
X139.35Y-98.45
X140.05Y-107.3
X156.85Y-72.2
X157.25Y-56.1
X157.25Y-107.3
X157.55Y-90.3
X173.85Y-71.0
X174.05Y-105.7
X174.25Y-54.3
X174.35Y-88.6
X190.75Y-87.1
X191.05Y-53.2
X191.05Y-69.9
X191.05Y-103.9
X207.55Y-71.2
X207.75Y-88.7
X208.75Y-55.2
X224.95Y-75.0
X225.15Y-59.6
X225.15Y-93.0
X241.85Y-94.3
X241.95Y-76.7
X242.05Y-60.9
M30
